G04 #@! TF.FileFunction,Legend,Top*
%FSLAX46Y46*%
G04 Gerber Fmt 4.6, Leading zero omitted, Abs format (unit mm)*
G04 Created by KiCad (PCBNEW 4.0.7) date Monday, March 12, 2018 'AMt' 09:49:52 AM*
%MOMM*%
%LPD*%
G01*
G04 APERTURE LIST*
%ADD10C,0.100000*%
%ADD11C,0.300000*%
%ADD12C,0.010000*%
%ADD13C,0.120000*%
%ADD14C,0.150000*%
G04 APERTURE END LIST*
D10*
D11*
X130700001Y-76735714D02*
X130628572Y-76807143D01*
X130414286Y-76878571D01*
X130271429Y-76878571D01*
X130057144Y-76807143D01*
X129914286Y-76664286D01*
X129842858Y-76521429D01*
X129771429Y-76235714D01*
X129771429Y-76021429D01*
X129842858Y-75735714D01*
X129914286Y-75592857D01*
X130057144Y-75450000D01*
X130271429Y-75378571D01*
X130414286Y-75378571D01*
X130628572Y-75450000D01*
X130700001Y-75521429D01*
X131342858Y-76878571D02*
X131342858Y-75878571D01*
X131342858Y-75378571D02*
X131271429Y-75450000D01*
X131342858Y-75521429D01*
X131414286Y-75450000D01*
X131342858Y-75378571D01*
X131342858Y-75521429D01*
X132628572Y-76807143D02*
X132485715Y-76878571D01*
X132200001Y-76878571D01*
X132057144Y-76807143D01*
X131985715Y-76664286D01*
X131985715Y-76092857D01*
X132057144Y-75950000D01*
X132200001Y-75878571D01*
X132485715Y-75878571D01*
X132628572Y-75950000D01*
X132700001Y-76092857D01*
X132700001Y-76235714D01*
X131985715Y-76378571D01*
X133342858Y-76878571D02*
X133342858Y-75878571D01*
X133342858Y-76164286D02*
X133414286Y-76021429D01*
X133485715Y-75950000D01*
X133628572Y-75878571D01*
X133771429Y-75878571D01*
X134271429Y-76878571D02*
X134271429Y-75878571D01*
X134271429Y-76164286D02*
X134342857Y-76021429D01*
X134414286Y-75950000D01*
X134557143Y-75878571D01*
X134700000Y-75878571D01*
X135842857Y-76878571D02*
X135842857Y-76092857D01*
X135771428Y-75950000D01*
X135628571Y-75878571D01*
X135342857Y-75878571D01*
X135200000Y-75950000D01*
X135842857Y-76807143D02*
X135700000Y-76878571D01*
X135342857Y-76878571D01*
X135200000Y-76807143D01*
X135128571Y-76664286D01*
X135128571Y-76521429D01*
X135200000Y-76378571D01*
X135342857Y-76307143D01*
X135700000Y-76307143D01*
X135842857Y-76235714D01*
X136628571Y-75378571D02*
X136485714Y-75664286D01*
X137200000Y-76807143D02*
X137342857Y-76878571D01*
X137628572Y-76878571D01*
X137771429Y-76807143D01*
X137842857Y-76664286D01*
X137842857Y-76592857D01*
X137771429Y-76450000D01*
X137628572Y-76378571D01*
X137414286Y-76378571D01*
X137271429Y-76307143D01*
X137200000Y-76164286D01*
X137200000Y-76092857D01*
X137271429Y-75950000D01*
X137414286Y-75878571D01*
X137628572Y-75878571D01*
X137771429Y-75950000D01*
X140128572Y-76092857D02*
X139628572Y-76092857D01*
X139628572Y-76878571D02*
X139628572Y-75378571D01*
X140342858Y-75378571D01*
X140914286Y-76878571D02*
X140914286Y-75878571D01*
X140914286Y-75378571D02*
X140842857Y-75450000D01*
X140914286Y-75521429D01*
X140985714Y-75450000D01*
X140914286Y-75378571D01*
X140914286Y-75521429D01*
X141628572Y-76878571D02*
X141628572Y-75878571D01*
X141628572Y-76164286D02*
X141700000Y-76021429D01*
X141771429Y-75950000D01*
X141914286Y-75878571D01*
X142057143Y-75878571D01*
X142485714Y-76807143D02*
X142628571Y-76878571D01*
X142914286Y-76878571D01*
X143057143Y-76807143D01*
X143128571Y-76664286D01*
X143128571Y-76592857D01*
X143057143Y-76450000D01*
X142914286Y-76378571D01*
X142700000Y-76378571D01*
X142557143Y-76307143D01*
X142485714Y-76164286D01*
X142485714Y-76092857D01*
X142557143Y-75950000D01*
X142700000Y-75878571D01*
X142914286Y-75878571D01*
X143057143Y-75950000D01*
X143557143Y-75878571D02*
X144128572Y-75878571D01*
X143771429Y-75378571D02*
X143771429Y-76664286D01*
X143842857Y-76807143D01*
X143985715Y-76878571D01*
X144128572Y-76878571D01*
X145771429Y-76878571D02*
X145771429Y-75378571D01*
X146342857Y-75378571D01*
X146485715Y-75450000D01*
X146557143Y-75521429D01*
X146628572Y-75664286D01*
X146628572Y-75878571D01*
X146557143Y-76021429D01*
X146485715Y-76092857D01*
X146342857Y-76164286D01*
X145771429Y-76164286D01*
X148128572Y-76735714D02*
X148057143Y-76807143D01*
X147842857Y-76878571D01*
X147700000Y-76878571D01*
X147485715Y-76807143D01*
X147342857Y-76664286D01*
X147271429Y-76521429D01*
X147200000Y-76235714D01*
X147200000Y-76021429D01*
X147271429Y-75735714D01*
X147342857Y-75592857D01*
X147485715Y-75450000D01*
X147700000Y-75378571D01*
X147842857Y-75378571D01*
X148057143Y-75450000D01*
X148128572Y-75521429D01*
X149271429Y-76092857D02*
X149485715Y-76164286D01*
X149557143Y-76235714D01*
X149628572Y-76378571D01*
X149628572Y-76592857D01*
X149557143Y-76735714D01*
X149485715Y-76807143D01*
X149342857Y-76878571D01*
X148771429Y-76878571D01*
X148771429Y-75378571D01*
X149271429Y-75378571D01*
X149414286Y-75450000D01*
X149485715Y-75521429D01*
X149557143Y-75664286D01*
X149557143Y-75807143D01*
X149485715Y-75950000D01*
X149414286Y-76021429D01*
X149271429Y-76092857D01*
X148771429Y-76092857D01*
X149542858Y-145458571D02*
X148828572Y-145458571D01*
X148828572Y-143958571D01*
X149685715Y-145601429D02*
X150828572Y-145601429D01*
X151471429Y-143958571D02*
X151614286Y-143958571D01*
X151757143Y-144030000D01*
X151828572Y-144101429D01*
X151900001Y-144244286D01*
X151971429Y-144530000D01*
X151971429Y-144887143D01*
X151900001Y-145172857D01*
X151828572Y-145315714D01*
X151757143Y-145387143D01*
X151614286Y-145458571D01*
X151471429Y-145458571D01*
X151328572Y-145387143D01*
X151257143Y-145315714D01*
X151185715Y-145172857D01*
X151114286Y-144887143D01*
X151114286Y-144530000D01*
X151185715Y-144244286D01*
X151257143Y-144101429D01*
X151328572Y-144030000D01*
X151471429Y-143958571D01*
X152900000Y-143958571D02*
X153042857Y-143958571D01*
X153185714Y-144030000D01*
X153257143Y-144101429D01*
X153328572Y-144244286D01*
X153400000Y-144530000D01*
X153400000Y-144887143D01*
X153328572Y-145172857D01*
X153257143Y-145315714D01*
X153185714Y-145387143D01*
X153042857Y-145458571D01*
X152900000Y-145458571D01*
X152757143Y-145387143D01*
X152685714Y-145315714D01*
X152614286Y-145172857D01*
X152542857Y-144887143D01*
X152542857Y-144530000D01*
X152614286Y-144244286D01*
X152685714Y-144101429D01*
X152757143Y-144030000D01*
X152900000Y-143958571D01*
X153685714Y-145601429D02*
X154828571Y-145601429D01*
X156042857Y-145458571D02*
X155542857Y-144744286D01*
X155185714Y-145458571D02*
X155185714Y-143958571D01*
X155757142Y-143958571D01*
X155900000Y-144030000D01*
X155971428Y-144101429D01*
X156042857Y-144244286D01*
X156042857Y-144458571D01*
X155971428Y-144601429D01*
X155900000Y-144672857D01*
X155757142Y-144744286D01*
X155185714Y-144744286D01*
X126682858Y-145458571D02*
X125968572Y-145458571D01*
X125968572Y-143958571D01*
X126825715Y-145601429D02*
X127968572Y-145601429D01*
X128611429Y-143958571D02*
X128754286Y-143958571D01*
X128897143Y-144030000D01*
X128968572Y-144101429D01*
X129040001Y-144244286D01*
X129111429Y-144530000D01*
X129111429Y-144887143D01*
X129040001Y-145172857D01*
X128968572Y-145315714D01*
X128897143Y-145387143D01*
X128754286Y-145458571D01*
X128611429Y-145458571D01*
X128468572Y-145387143D01*
X128397143Y-145315714D01*
X128325715Y-145172857D01*
X128254286Y-144887143D01*
X128254286Y-144530000D01*
X128325715Y-144244286D01*
X128397143Y-144101429D01*
X128468572Y-144030000D01*
X128611429Y-143958571D01*
X129682857Y-144101429D02*
X129754286Y-144030000D01*
X129897143Y-143958571D01*
X130254286Y-143958571D01*
X130397143Y-144030000D01*
X130468572Y-144101429D01*
X130540000Y-144244286D01*
X130540000Y-144387143D01*
X130468572Y-144601429D01*
X129611429Y-145458571D01*
X130540000Y-145458571D01*
X130825714Y-145601429D02*
X131968571Y-145601429D01*
X133182857Y-145458571D02*
X132682857Y-144744286D01*
X132325714Y-145458571D02*
X132325714Y-143958571D01*
X132897142Y-143958571D01*
X133040000Y-144030000D01*
X133111428Y-144101429D01*
X133182857Y-144244286D01*
X133182857Y-144458571D01*
X133111428Y-144601429D01*
X133040000Y-144672857D01*
X132897142Y-144744286D01*
X132325714Y-144744286D01*
X103822858Y-145458571D02*
X103108572Y-145458571D01*
X103108572Y-143958571D01*
X103965715Y-145601429D02*
X105108572Y-145601429D01*
X105751429Y-143958571D02*
X105894286Y-143958571D01*
X106037143Y-144030000D01*
X106108572Y-144101429D01*
X106180001Y-144244286D01*
X106251429Y-144530000D01*
X106251429Y-144887143D01*
X106180001Y-145172857D01*
X106108572Y-145315714D01*
X106037143Y-145387143D01*
X105894286Y-145458571D01*
X105751429Y-145458571D01*
X105608572Y-145387143D01*
X105537143Y-145315714D01*
X105465715Y-145172857D01*
X105394286Y-144887143D01*
X105394286Y-144530000D01*
X105465715Y-144244286D01*
X105537143Y-144101429D01*
X105608572Y-144030000D01*
X105751429Y-143958571D01*
X107680000Y-145458571D02*
X106822857Y-145458571D01*
X107251429Y-145458571D02*
X107251429Y-143958571D01*
X107108572Y-144172857D01*
X106965714Y-144315714D01*
X106822857Y-144387143D01*
X107965714Y-145601429D02*
X109108571Y-145601429D01*
X110251428Y-144030000D02*
X110108571Y-143958571D01*
X109894285Y-143958571D01*
X109680000Y-144030000D01*
X109537142Y-144172857D01*
X109465714Y-144315714D01*
X109394285Y-144601429D01*
X109394285Y-144815714D01*
X109465714Y-145101429D01*
X109537142Y-145244286D01*
X109680000Y-145387143D01*
X109894285Y-145458571D01*
X110037142Y-145458571D01*
X110251428Y-145387143D01*
X110322857Y-145315714D01*
X110322857Y-144815714D01*
X110037142Y-144815714D01*
X103822858Y-135298571D02*
X103108572Y-135298571D01*
X103108572Y-133798571D01*
X103965715Y-135441429D02*
X105108572Y-135441429D01*
X105751429Y-133798571D02*
X105894286Y-133798571D01*
X106037143Y-133870000D01*
X106108572Y-133941429D01*
X106180001Y-134084286D01*
X106251429Y-134370000D01*
X106251429Y-134727143D01*
X106180001Y-135012857D01*
X106108572Y-135155714D01*
X106037143Y-135227143D01*
X105894286Y-135298571D01*
X105751429Y-135298571D01*
X105608572Y-135227143D01*
X105537143Y-135155714D01*
X105465715Y-135012857D01*
X105394286Y-134727143D01*
X105394286Y-134370000D01*
X105465715Y-134084286D01*
X105537143Y-133941429D01*
X105608572Y-133870000D01*
X105751429Y-133798571D01*
X107680000Y-135298571D02*
X106822857Y-135298571D01*
X107251429Y-135298571D02*
X107251429Y-133798571D01*
X107108572Y-134012857D01*
X106965714Y-134155714D01*
X106822857Y-134227143D01*
X107965714Y-135441429D02*
X109108571Y-135441429D01*
X109965714Y-134512857D02*
X110180000Y-134584286D01*
X110251428Y-134655714D01*
X110322857Y-134798571D01*
X110322857Y-135012857D01*
X110251428Y-135155714D01*
X110180000Y-135227143D01*
X110037142Y-135298571D01*
X109465714Y-135298571D01*
X109465714Y-133798571D01*
X109965714Y-133798571D01*
X110108571Y-133870000D01*
X110180000Y-133941429D01*
X110251428Y-134084286D01*
X110251428Y-134227143D01*
X110180000Y-134370000D01*
X110108571Y-134441429D01*
X109965714Y-134512857D01*
X109465714Y-134512857D01*
X113982858Y-135298571D02*
X113268572Y-135298571D01*
X113268572Y-133798571D01*
X114125715Y-135441429D02*
X115268572Y-135441429D01*
X115911429Y-133798571D02*
X116054286Y-133798571D01*
X116197143Y-133870000D01*
X116268572Y-133941429D01*
X116340001Y-134084286D01*
X116411429Y-134370000D01*
X116411429Y-134727143D01*
X116340001Y-135012857D01*
X116268572Y-135155714D01*
X116197143Y-135227143D01*
X116054286Y-135298571D01*
X115911429Y-135298571D01*
X115768572Y-135227143D01*
X115697143Y-135155714D01*
X115625715Y-135012857D01*
X115554286Y-134727143D01*
X115554286Y-134370000D01*
X115625715Y-134084286D01*
X115697143Y-133941429D01*
X115768572Y-133870000D01*
X115911429Y-133798571D01*
X117840000Y-135298571D02*
X116982857Y-135298571D01*
X117411429Y-135298571D02*
X117411429Y-133798571D01*
X117268572Y-134012857D01*
X117125714Y-134155714D01*
X116982857Y-134227143D01*
X118125714Y-135441429D02*
X119268571Y-135441429D01*
X120482857Y-135298571D02*
X119982857Y-134584286D01*
X119625714Y-135298571D02*
X119625714Y-133798571D01*
X120197142Y-133798571D01*
X120340000Y-133870000D01*
X120411428Y-133941429D01*
X120482857Y-134084286D01*
X120482857Y-134298571D01*
X120411428Y-134441429D01*
X120340000Y-134512857D01*
X120197142Y-134584286D01*
X119625714Y-134584286D01*
X126682858Y-135298571D02*
X125968572Y-135298571D01*
X125968572Y-133798571D01*
X126825715Y-135441429D02*
X127968572Y-135441429D01*
X128611429Y-133798571D02*
X128754286Y-133798571D01*
X128897143Y-133870000D01*
X128968572Y-133941429D01*
X129040001Y-134084286D01*
X129111429Y-134370000D01*
X129111429Y-134727143D01*
X129040001Y-135012857D01*
X128968572Y-135155714D01*
X128897143Y-135227143D01*
X128754286Y-135298571D01*
X128611429Y-135298571D01*
X128468572Y-135227143D01*
X128397143Y-135155714D01*
X128325715Y-135012857D01*
X128254286Y-134727143D01*
X128254286Y-134370000D01*
X128325715Y-134084286D01*
X128397143Y-133941429D01*
X128468572Y-133870000D01*
X128611429Y-133798571D01*
X130040000Y-133798571D02*
X130182857Y-133798571D01*
X130325714Y-133870000D01*
X130397143Y-133941429D01*
X130468572Y-134084286D01*
X130540000Y-134370000D01*
X130540000Y-134727143D01*
X130468572Y-135012857D01*
X130397143Y-135155714D01*
X130325714Y-135227143D01*
X130182857Y-135298571D01*
X130040000Y-135298571D01*
X129897143Y-135227143D01*
X129825714Y-135155714D01*
X129754286Y-135012857D01*
X129682857Y-134727143D01*
X129682857Y-134370000D01*
X129754286Y-134084286D01*
X129825714Y-133941429D01*
X129897143Y-133870000D01*
X130040000Y-133798571D01*
X130825714Y-135441429D02*
X131968571Y-135441429D01*
X132825714Y-134512857D02*
X133040000Y-134584286D01*
X133111428Y-134655714D01*
X133182857Y-134798571D01*
X133182857Y-135012857D01*
X133111428Y-135155714D01*
X133040000Y-135227143D01*
X132897142Y-135298571D01*
X132325714Y-135298571D01*
X132325714Y-133798571D01*
X132825714Y-133798571D01*
X132968571Y-133870000D01*
X133040000Y-133941429D01*
X133111428Y-134084286D01*
X133111428Y-134227143D01*
X133040000Y-134370000D01*
X132968571Y-134441429D01*
X132825714Y-134512857D01*
X132325714Y-134512857D01*
X136842858Y-135298571D02*
X136128572Y-135298571D01*
X136128572Y-133798571D01*
X136985715Y-135441429D02*
X138128572Y-135441429D01*
X138771429Y-133798571D02*
X138914286Y-133798571D01*
X139057143Y-133870000D01*
X139128572Y-133941429D01*
X139200001Y-134084286D01*
X139271429Y-134370000D01*
X139271429Y-134727143D01*
X139200001Y-135012857D01*
X139128572Y-135155714D01*
X139057143Y-135227143D01*
X138914286Y-135298571D01*
X138771429Y-135298571D01*
X138628572Y-135227143D01*
X138557143Y-135155714D01*
X138485715Y-135012857D01*
X138414286Y-134727143D01*
X138414286Y-134370000D01*
X138485715Y-134084286D01*
X138557143Y-133941429D01*
X138628572Y-133870000D01*
X138771429Y-133798571D01*
X139842857Y-133941429D02*
X139914286Y-133870000D01*
X140057143Y-133798571D01*
X140414286Y-133798571D01*
X140557143Y-133870000D01*
X140628572Y-133941429D01*
X140700000Y-134084286D01*
X140700000Y-134227143D01*
X140628572Y-134441429D01*
X139771429Y-135298571D01*
X140700000Y-135298571D01*
X140985714Y-135441429D02*
X142128571Y-135441429D01*
X143271428Y-133870000D02*
X143128571Y-133798571D01*
X142914285Y-133798571D01*
X142700000Y-133870000D01*
X142557142Y-134012857D01*
X142485714Y-134155714D01*
X142414285Y-134441429D01*
X142414285Y-134655714D01*
X142485714Y-134941429D01*
X142557142Y-135084286D01*
X142700000Y-135227143D01*
X142914285Y-135298571D01*
X143057142Y-135298571D01*
X143271428Y-135227143D01*
X143342857Y-135155714D01*
X143342857Y-134655714D01*
X143057142Y-134655714D01*
X149542858Y-135298571D02*
X148828572Y-135298571D01*
X148828572Y-133798571D01*
X149685715Y-135441429D02*
X150828572Y-135441429D01*
X151471429Y-133798571D02*
X151614286Y-133798571D01*
X151757143Y-133870000D01*
X151828572Y-133941429D01*
X151900001Y-134084286D01*
X151971429Y-134370000D01*
X151971429Y-134727143D01*
X151900001Y-135012857D01*
X151828572Y-135155714D01*
X151757143Y-135227143D01*
X151614286Y-135298571D01*
X151471429Y-135298571D01*
X151328572Y-135227143D01*
X151257143Y-135155714D01*
X151185715Y-135012857D01*
X151114286Y-134727143D01*
X151114286Y-134370000D01*
X151185715Y-134084286D01*
X151257143Y-133941429D01*
X151328572Y-133870000D01*
X151471429Y-133798571D01*
X152542857Y-133941429D02*
X152614286Y-133870000D01*
X152757143Y-133798571D01*
X153114286Y-133798571D01*
X153257143Y-133870000D01*
X153328572Y-133941429D01*
X153400000Y-134084286D01*
X153400000Y-134227143D01*
X153328572Y-134441429D01*
X152471429Y-135298571D01*
X153400000Y-135298571D01*
X153685714Y-135441429D02*
X154828571Y-135441429D01*
X155685714Y-134512857D02*
X155900000Y-134584286D01*
X155971428Y-134655714D01*
X156042857Y-134798571D01*
X156042857Y-135012857D01*
X155971428Y-135155714D01*
X155900000Y-135227143D01*
X155757142Y-135298571D01*
X155185714Y-135298571D01*
X155185714Y-133798571D01*
X155685714Y-133798571D01*
X155828571Y-133870000D01*
X155900000Y-133941429D01*
X155971428Y-134084286D01*
X155971428Y-134227143D01*
X155900000Y-134370000D01*
X155828571Y-134441429D01*
X155685714Y-134512857D01*
X155185714Y-134512857D01*
X162242858Y-135298571D02*
X161528572Y-135298571D01*
X161528572Y-133798571D01*
X162385715Y-135441429D02*
X163528572Y-135441429D01*
X164171429Y-133798571D02*
X164314286Y-133798571D01*
X164457143Y-133870000D01*
X164528572Y-133941429D01*
X164600001Y-134084286D01*
X164671429Y-134370000D01*
X164671429Y-134727143D01*
X164600001Y-135012857D01*
X164528572Y-135155714D01*
X164457143Y-135227143D01*
X164314286Y-135298571D01*
X164171429Y-135298571D01*
X164028572Y-135227143D01*
X163957143Y-135155714D01*
X163885715Y-135012857D01*
X163814286Y-134727143D01*
X163814286Y-134370000D01*
X163885715Y-134084286D01*
X163957143Y-133941429D01*
X164028572Y-133870000D01*
X164171429Y-133798571D01*
X165600000Y-133798571D02*
X165742857Y-133798571D01*
X165885714Y-133870000D01*
X165957143Y-133941429D01*
X166028572Y-134084286D01*
X166100000Y-134370000D01*
X166100000Y-134727143D01*
X166028572Y-135012857D01*
X165957143Y-135155714D01*
X165885714Y-135227143D01*
X165742857Y-135298571D01*
X165600000Y-135298571D01*
X165457143Y-135227143D01*
X165385714Y-135155714D01*
X165314286Y-135012857D01*
X165242857Y-134727143D01*
X165242857Y-134370000D01*
X165314286Y-134084286D01*
X165385714Y-133941429D01*
X165457143Y-133870000D01*
X165600000Y-133798571D01*
X166385714Y-135441429D02*
X167528571Y-135441429D01*
X168671428Y-133870000D02*
X168528571Y-133798571D01*
X168314285Y-133798571D01*
X168100000Y-133870000D01*
X167957142Y-134012857D01*
X167885714Y-134155714D01*
X167814285Y-134441429D01*
X167814285Y-134655714D01*
X167885714Y-134941429D01*
X167957142Y-135084286D01*
X168100000Y-135227143D01*
X168314285Y-135298571D01*
X168457142Y-135298571D01*
X168671428Y-135227143D01*
X168742857Y-135155714D01*
X168742857Y-134655714D01*
X168457142Y-134655714D01*
X160707144Y-125138571D02*
X160707144Y-123638571D01*
X161278572Y-123638571D01*
X161421430Y-123710000D01*
X161492858Y-123781429D01*
X161564287Y-123924286D01*
X161564287Y-124138571D01*
X161492858Y-124281429D01*
X161421430Y-124352857D01*
X161278572Y-124424286D01*
X160707144Y-124424286D01*
X161850001Y-125281429D02*
X162992858Y-125281429D01*
X163635715Y-123638571D02*
X163778572Y-123638571D01*
X163921429Y-123710000D01*
X163992858Y-123781429D01*
X164064287Y-123924286D01*
X164135715Y-124210000D01*
X164135715Y-124567143D01*
X164064287Y-124852857D01*
X163992858Y-124995714D01*
X163921429Y-125067143D01*
X163778572Y-125138571D01*
X163635715Y-125138571D01*
X163492858Y-125067143D01*
X163421429Y-124995714D01*
X163350001Y-124852857D01*
X163278572Y-124567143D01*
X163278572Y-124210000D01*
X163350001Y-123924286D01*
X163421429Y-123781429D01*
X163492858Y-123710000D01*
X163635715Y-123638571D01*
X165492858Y-123638571D02*
X164778572Y-123638571D01*
X164707143Y-124352857D01*
X164778572Y-124281429D01*
X164921429Y-124210000D01*
X165278572Y-124210000D01*
X165421429Y-124281429D01*
X165492858Y-124352857D01*
X165564286Y-124495714D01*
X165564286Y-124852857D01*
X165492858Y-124995714D01*
X165421429Y-125067143D01*
X165278572Y-125138571D01*
X164921429Y-125138571D01*
X164778572Y-125067143D01*
X164707143Y-124995714D01*
X165850000Y-125281429D02*
X166992857Y-125281429D01*
X167635714Y-123638571D02*
X167778571Y-123638571D01*
X167921428Y-123710000D01*
X167992857Y-123781429D01*
X168064286Y-123924286D01*
X168135714Y-124210000D01*
X168135714Y-124567143D01*
X168064286Y-124852857D01*
X167992857Y-124995714D01*
X167921428Y-125067143D01*
X167778571Y-125138571D01*
X167635714Y-125138571D01*
X167492857Y-125067143D01*
X167421428Y-124995714D01*
X167350000Y-124852857D01*
X167278571Y-124567143D01*
X167278571Y-124210000D01*
X167350000Y-123924286D01*
X167421428Y-123781429D01*
X167492857Y-123710000D01*
X167635714Y-123638571D01*
X169492857Y-123638571D02*
X168778571Y-123638571D01*
X168707142Y-124352857D01*
X168778571Y-124281429D01*
X168921428Y-124210000D01*
X169278571Y-124210000D01*
X169421428Y-124281429D01*
X169492857Y-124352857D01*
X169564285Y-124495714D01*
X169564285Y-124852857D01*
X169492857Y-124995714D01*
X169421428Y-125067143D01*
X169278571Y-125138571D01*
X168921428Y-125138571D01*
X168778571Y-125067143D01*
X168707142Y-124995714D01*
X99747144Y-125138571D02*
X99747144Y-123638571D01*
X100318572Y-123638571D01*
X100461430Y-123710000D01*
X100532858Y-123781429D01*
X100604287Y-123924286D01*
X100604287Y-124138571D01*
X100532858Y-124281429D01*
X100461430Y-124352857D01*
X100318572Y-124424286D01*
X99747144Y-124424286D01*
X100890001Y-125281429D02*
X102032858Y-125281429D01*
X102675715Y-123638571D02*
X102818572Y-123638571D01*
X102961429Y-123710000D01*
X103032858Y-123781429D01*
X103104287Y-123924286D01*
X103175715Y-124210000D01*
X103175715Y-124567143D01*
X103104287Y-124852857D01*
X103032858Y-124995714D01*
X102961429Y-125067143D01*
X102818572Y-125138571D01*
X102675715Y-125138571D01*
X102532858Y-125067143D01*
X102461429Y-124995714D01*
X102390001Y-124852857D01*
X102318572Y-124567143D01*
X102318572Y-124210000D01*
X102390001Y-123924286D01*
X102461429Y-123781429D01*
X102532858Y-123710000D01*
X102675715Y-123638571D01*
X104104286Y-123638571D02*
X104247143Y-123638571D01*
X104390000Y-123710000D01*
X104461429Y-123781429D01*
X104532858Y-123924286D01*
X104604286Y-124210000D01*
X104604286Y-124567143D01*
X104532858Y-124852857D01*
X104461429Y-124995714D01*
X104390000Y-125067143D01*
X104247143Y-125138571D01*
X104104286Y-125138571D01*
X103961429Y-125067143D01*
X103890000Y-124995714D01*
X103818572Y-124852857D01*
X103747143Y-124567143D01*
X103747143Y-124210000D01*
X103818572Y-123924286D01*
X103890000Y-123781429D01*
X103961429Y-123710000D01*
X104104286Y-123638571D01*
X104890000Y-125281429D02*
X106032857Y-125281429D01*
X106675714Y-123638571D02*
X106818571Y-123638571D01*
X106961428Y-123710000D01*
X107032857Y-123781429D01*
X107104286Y-123924286D01*
X107175714Y-124210000D01*
X107175714Y-124567143D01*
X107104286Y-124852857D01*
X107032857Y-124995714D01*
X106961428Y-125067143D01*
X106818571Y-125138571D01*
X106675714Y-125138571D01*
X106532857Y-125067143D01*
X106461428Y-124995714D01*
X106390000Y-124852857D01*
X106318571Y-124567143D01*
X106318571Y-124210000D01*
X106390000Y-123924286D01*
X106461428Y-123781429D01*
X106532857Y-123710000D01*
X106675714Y-123638571D01*
X108532857Y-123638571D02*
X107818571Y-123638571D01*
X107747142Y-124352857D01*
X107818571Y-124281429D01*
X107961428Y-124210000D01*
X108318571Y-124210000D01*
X108461428Y-124281429D01*
X108532857Y-124352857D01*
X108604285Y-124495714D01*
X108604285Y-124852857D01*
X108532857Y-124995714D01*
X108461428Y-125067143D01*
X108318571Y-125138571D01*
X107961428Y-125138571D01*
X107818571Y-125067143D01*
X107747142Y-124995714D01*
X160707144Y-76878571D02*
X160707144Y-75378571D01*
X161278572Y-75378571D01*
X161421430Y-75450000D01*
X161492858Y-75521429D01*
X161564287Y-75664286D01*
X161564287Y-75878571D01*
X161492858Y-76021429D01*
X161421430Y-76092857D01*
X161278572Y-76164286D01*
X160707144Y-76164286D01*
X161850001Y-77021429D02*
X162992858Y-77021429D01*
X163635715Y-75378571D02*
X163778572Y-75378571D01*
X163921429Y-75450000D01*
X163992858Y-75521429D01*
X164064287Y-75664286D01*
X164135715Y-75950000D01*
X164135715Y-76307143D01*
X164064287Y-76592857D01*
X163992858Y-76735714D01*
X163921429Y-76807143D01*
X163778572Y-76878571D01*
X163635715Y-76878571D01*
X163492858Y-76807143D01*
X163421429Y-76735714D01*
X163350001Y-76592857D01*
X163278572Y-76307143D01*
X163278572Y-75950000D01*
X163350001Y-75664286D01*
X163421429Y-75521429D01*
X163492858Y-75450000D01*
X163635715Y-75378571D01*
X165492858Y-75378571D02*
X164778572Y-75378571D01*
X164707143Y-76092857D01*
X164778572Y-76021429D01*
X164921429Y-75950000D01*
X165278572Y-75950000D01*
X165421429Y-76021429D01*
X165492858Y-76092857D01*
X165564286Y-76235714D01*
X165564286Y-76592857D01*
X165492858Y-76735714D01*
X165421429Y-76807143D01*
X165278572Y-76878571D01*
X164921429Y-76878571D01*
X164778572Y-76807143D01*
X164707143Y-76735714D01*
X165850000Y-77021429D02*
X166992857Y-77021429D01*
X167635714Y-75378571D02*
X167778571Y-75378571D01*
X167921428Y-75450000D01*
X167992857Y-75521429D01*
X168064286Y-75664286D01*
X168135714Y-75950000D01*
X168135714Y-76307143D01*
X168064286Y-76592857D01*
X167992857Y-76735714D01*
X167921428Y-76807143D01*
X167778571Y-76878571D01*
X167635714Y-76878571D01*
X167492857Y-76807143D01*
X167421428Y-76735714D01*
X167350000Y-76592857D01*
X167278571Y-76307143D01*
X167278571Y-75950000D01*
X167350000Y-75664286D01*
X167421428Y-75521429D01*
X167492857Y-75450000D01*
X167635714Y-75378571D01*
X169064285Y-75378571D02*
X169207142Y-75378571D01*
X169349999Y-75450000D01*
X169421428Y-75521429D01*
X169492857Y-75664286D01*
X169564285Y-75950000D01*
X169564285Y-76307143D01*
X169492857Y-76592857D01*
X169421428Y-76735714D01*
X169349999Y-76807143D01*
X169207142Y-76878571D01*
X169064285Y-76878571D01*
X168921428Y-76807143D01*
X168849999Y-76735714D01*
X168778571Y-76592857D01*
X168707142Y-76307143D01*
X168707142Y-75950000D01*
X168778571Y-75664286D01*
X168849999Y-75521429D01*
X168921428Y-75450000D01*
X169064285Y-75378571D01*
X99747144Y-76878571D02*
X99747144Y-75378571D01*
X100318572Y-75378571D01*
X100461430Y-75450000D01*
X100532858Y-75521429D01*
X100604287Y-75664286D01*
X100604287Y-75878571D01*
X100532858Y-76021429D01*
X100461430Y-76092857D01*
X100318572Y-76164286D01*
X99747144Y-76164286D01*
X100890001Y-77021429D02*
X102032858Y-77021429D01*
X102675715Y-75378571D02*
X102818572Y-75378571D01*
X102961429Y-75450000D01*
X103032858Y-75521429D01*
X103104287Y-75664286D01*
X103175715Y-75950000D01*
X103175715Y-76307143D01*
X103104287Y-76592857D01*
X103032858Y-76735714D01*
X102961429Y-76807143D01*
X102818572Y-76878571D01*
X102675715Y-76878571D01*
X102532858Y-76807143D01*
X102461429Y-76735714D01*
X102390001Y-76592857D01*
X102318572Y-76307143D01*
X102318572Y-75950000D01*
X102390001Y-75664286D01*
X102461429Y-75521429D01*
X102532858Y-75450000D01*
X102675715Y-75378571D01*
X104104286Y-75378571D02*
X104247143Y-75378571D01*
X104390000Y-75450000D01*
X104461429Y-75521429D01*
X104532858Y-75664286D01*
X104604286Y-75950000D01*
X104604286Y-76307143D01*
X104532858Y-76592857D01*
X104461429Y-76735714D01*
X104390000Y-76807143D01*
X104247143Y-76878571D01*
X104104286Y-76878571D01*
X103961429Y-76807143D01*
X103890000Y-76735714D01*
X103818572Y-76592857D01*
X103747143Y-76307143D01*
X103747143Y-75950000D01*
X103818572Y-75664286D01*
X103890000Y-75521429D01*
X103961429Y-75450000D01*
X104104286Y-75378571D01*
X104890000Y-77021429D02*
X106032857Y-77021429D01*
X106675714Y-75378571D02*
X106818571Y-75378571D01*
X106961428Y-75450000D01*
X107032857Y-75521429D01*
X107104286Y-75664286D01*
X107175714Y-75950000D01*
X107175714Y-76307143D01*
X107104286Y-76592857D01*
X107032857Y-76735714D01*
X106961428Y-76807143D01*
X106818571Y-76878571D01*
X106675714Y-76878571D01*
X106532857Y-76807143D01*
X106461428Y-76735714D01*
X106390000Y-76592857D01*
X106318571Y-76307143D01*
X106318571Y-75950000D01*
X106390000Y-75664286D01*
X106461428Y-75521429D01*
X106532857Y-75450000D01*
X106675714Y-75378571D01*
X108104285Y-75378571D02*
X108247142Y-75378571D01*
X108389999Y-75450000D01*
X108461428Y-75521429D01*
X108532857Y-75664286D01*
X108604285Y-75950000D01*
X108604285Y-76307143D01*
X108532857Y-76592857D01*
X108461428Y-76735714D01*
X108389999Y-76807143D01*
X108247142Y-76878571D01*
X108104285Y-76878571D01*
X107961428Y-76807143D01*
X107889999Y-76735714D01*
X107818571Y-76592857D01*
X107747142Y-76307143D01*
X107747142Y-75950000D01*
X107818571Y-75664286D01*
X107889999Y-75521429D01*
X107961428Y-75450000D01*
X108104285Y-75378571D01*
X125394286Y-112438571D02*
X124680000Y-112438571D01*
X124680000Y-110938571D01*
X125894286Y-111652857D02*
X126394286Y-111652857D01*
X126608572Y-112438571D02*
X125894286Y-112438571D01*
X125894286Y-110938571D01*
X126608572Y-110938571D01*
X127251429Y-112438571D02*
X127251429Y-110938571D01*
X127608572Y-110938571D01*
X127822857Y-111010000D01*
X127965715Y-111152857D01*
X128037143Y-111295714D01*
X128108572Y-111581429D01*
X128108572Y-111795714D01*
X128037143Y-112081429D01*
X127965715Y-112224286D01*
X127822857Y-112367143D01*
X127608572Y-112438571D01*
X127251429Y-112438571D01*
X130751429Y-112295714D02*
X130680000Y-112367143D01*
X130465714Y-112438571D01*
X130322857Y-112438571D01*
X130108572Y-112367143D01*
X129965714Y-112224286D01*
X129894286Y-112081429D01*
X129822857Y-111795714D01*
X129822857Y-111581429D01*
X129894286Y-111295714D01*
X129965714Y-111152857D01*
X130108572Y-111010000D01*
X130322857Y-110938571D01*
X130465714Y-110938571D01*
X130680000Y-111010000D01*
X130751429Y-111081429D01*
X132037143Y-111438571D02*
X132037143Y-112438571D01*
X131394286Y-111438571D02*
X131394286Y-112224286D01*
X131465714Y-112367143D01*
X131608572Y-112438571D01*
X131822857Y-112438571D01*
X131965714Y-112367143D01*
X132037143Y-112295714D01*
X132751429Y-112438571D02*
X132751429Y-110938571D01*
X132751429Y-111510000D02*
X132894286Y-111438571D01*
X133180000Y-111438571D01*
X133322857Y-111510000D01*
X133394286Y-111581429D01*
X133465715Y-111724286D01*
X133465715Y-112152857D01*
X133394286Y-112295714D01*
X133322857Y-112367143D01*
X133180000Y-112438571D01*
X132894286Y-112438571D01*
X132751429Y-112367143D01*
X134680000Y-112367143D02*
X134537143Y-112438571D01*
X134251429Y-112438571D01*
X134108572Y-112367143D01*
X134037143Y-112224286D01*
X134037143Y-111652857D01*
X134108572Y-111510000D01*
X134251429Y-111438571D01*
X134537143Y-111438571D01*
X134680000Y-111510000D01*
X134751429Y-111652857D01*
X134751429Y-111795714D01*
X134037143Y-111938571D01*
X136537143Y-112438571D02*
X136537143Y-110938571D01*
X136894286Y-110938571D01*
X137108571Y-111010000D01*
X137251429Y-111152857D01*
X137322857Y-111295714D01*
X137394286Y-111581429D01*
X137394286Y-111795714D01*
X137322857Y-112081429D01*
X137251429Y-112224286D01*
X137108571Y-112367143D01*
X136894286Y-112438571D01*
X136537143Y-112438571D01*
X138680000Y-112438571D02*
X138680000Y-111652857D01*
X138608571Y-111510000D01*
X138465714Y-111438571D01*
X138180000Y-111438571D01*
X138037143Y-111510000D01*
X138680000Y-112367143D02*
X138537143Y-112438571D01*
X138180000Y-112438571D01*
X138037143Y-112367143D01*
X137965714Y-112224286D01*
X137965714Y-112081429D01*
X138037143Y-111938571D01*
X138180000Y-111867143D01*
X138537143Y-111867143D01*
X138680000Y-111795714D01*
X140037143Y-111438571D02*
X140037143Y-112438571D01*
X139394286Y-111438571D02*
X139394286Y-112224286D01*
X139465714Y-112367143D01*
X139608572Y-112438571D01*
X139822857Y-112438571D01*
X139965714Y-112367143D01*
X140037143Y-112295714D01*
X141394286Y-111438571D02*
X141394286Y-112652857D01*
X141322857Y-112795714D01*
X141251429Y-112867143D01*
X141108572Y-112938571D01*
X140894286Y-112938571D01*
X140751429Y-112867143D01*
X141394286Y-112367143D02*
X141251429Y-112438571D01*
X140965715Y-112438571D01*
X140822857Y-112367143D01*
X140751429Y-112295714D01*
X140680000Y-112152857D01*
X140680000Y-111724286D01*
X140751429Y-111581429D01*
X140822857Y-111510000D01*
X140965715Y-111438571D01*
X141251429Y-111438571D01*
X141394286Y-111510000D01*
X142108572Y-112438571D02*
X142108572Y-110938571D01*
X142751429Y-112438571D02*
X142751429Y-111652857D01*
X142680000Y-111510000D01*
X142537143Y-111438571D01*
X142322858Y-111438571D01*
X142180000Y-111510000D01*
X142108572Y-111581429D01*
X143251429Y-111438571D02*
X143822858Y-111438571D01*
X143465715Y-110938571D02*
X143465715Y-112224286D01*
X143537143Y-112367143D01*
X143680001Y-112438571D01*
X143822858Y-112438571D01*
X144894286Y-112367143D02*
X144751429Y-112438571D01*
X144465715Y-112438571D01*
X144322858Y-112367143D01*
X144251429Y-112224286D01*
X144251429Y-111652857D01*
X144322858Y-111510000D01*
X144465715Y-111438571D01*
X144751429Y-111438571D01*
X144894286Y-111510000D01*
X144965715Y-111652857D01*
X144965715Y-111795714D01*
X144251429Y-111938571D01*
X145608572Y-112438571D02*
X145608572Y-111438571D01*
X145608572Y-111724286D02*
X145680000Y-111581429D01*
X145751429Y-111510000D01*
X145894286Y-111438571D01*
X146037143Y-111438571D01*
X146537143Y-112438571D02*
X146537143Y-110938571D01*
X146537143Y-111510000D02*
X146680000Y-111438571D01*
X146965714Y-111438571D01*
X147108571Y-111510000D01*
X147180000Y-111581429D01*
X147251429Y-111724286D01*
X147251429Y-112152857D01*
X147180000Y-112295714D01*
X147108571Y-112367143D01*
X146965714Y-112438571D01*
X146680000Y-112438571D01*
X146537143Y-112367143D01*
X148108572Y-112438571D02*
X147965714Y-112367143D01*
X147894286Y-112295714D01*
X147822857Y-112152857D01*
X147822857Y-111724286D01*
X147894286Y-111581429D01*
X147965714Y-111510000D01*
X148108572Y-111438571D01*
X148322857Y-111438571D01*
X148465714Y-111510000D01*
X148537143Y-111581429D01*
X148608572Y-111724286D01*
X148608572Y-112152857D01*
X148537143Y-112295714D01*
X148465714Y-112367143D01*
X148322857Y-112438571D01*
X148108572Y-112438571D01*
X149894286Y-112438571D02*
X149894286Y-111652857D01*
X149822857Y-111510000D01*
X149680000Y-111438571D01*
X149394286Y-111438571D01*
X149251429Y-111510000D01*
X149894286Y-112367143D02*
X149751429Y-112438571D01*
X149394286Y-112438571D01*
X149251429Y-112367143D01*
X149180000Y-112224286D01*
X149180000Y-112081429D01*
X149251429Y-111938571D01*
X149394286Y-111867143D01*
X149751429Y-111867143D01*
X149894286Y-111795714D01*
X150608572Y-112438571D02*
X150608572Y-111438571D01*
X150608572Y-111724286D02*
X150680000Y-111581429D01*
X150751429Y-111510000D01*
X150894286Y-111438571D01*
X151037143Y-111438571D01*
X152180000Y-112438571D02*
X152180000Y-110938571D01*
X152180000Y-112367143D02*
X152037143Y-112438571D01*
X151751429Y-112438571D01*
X151608571Y-112367143D01*
X151537143Y-112295714D01*
X151465714Y-112152857D01*
X151465714Y-111724286D01*
X151537143Y-111581429D01*
X151608571Y-111510000D01*
X151751429Y-111438571D01*
X152037143Y-111438571D01*
X152180000Y-111510000D01*
D12*
G36*
X137221608Y-81120342D02*
X137272273Y-81315827D01*
X137265306Y-81577093D01*
X137222893Y-81983114D01*
X137343308Y-81697474D01*
X137475090Y-81491199D01*
X137624014Y-81409768D01*
X137752417Y-81471774D01*
X137764515Y-81489504D01*
X137768412Y-81612026D01*
X137725390Y-81839158D01*
X137682764Y-81994868D01*
X137608492Y-82246045D01*
X137561081Y-82418579D01*
X137552059Y-82460976D01*
X137607128Y-82431172D01*
X137746670Y-82310736D01*
X137815354Y-82246227D01*
X138030176Y-82081394D01*
X138160053Y-82059427D01*
X138191462Y-82162579D01*
X138110878Y-82373099D01*
X138021680Y-82516992D01*
X137858683Y-82797685D01*
X137685684Y-83164448D01*
X137522606Y-83565762D01*
X137389375Y-83950106D01*
X137305915Y-84265961D01*
X137287758Y-84414717D01*
X137319957Y-84599524D01*
X137385191Y-84681673D01*
X137428601Y-84782050D01*
X137472639Y-85047775D01*
X137516081Y-85468426D01*
X137557706Y-86033581D01*
X137572462Y-86278296D01*
X137661982Y-87842335D01*
X137036821Y-89111967D01*
X136722175Y-89731052D01*
X136421999Y-90283981D01*
X136148002Y-90751607D01*
X135911890Y-91114784D01*
X135725370Y-91354365D01*
X135607765Y-91449119D01*
X135557088Y-91532985D01*
X135638028Y-91687825D01*
X135833659Y-91890623D01*
X136070737Y-92078681D01*
X136427053Y-92405357D01*
X136614013Y-92757863D01*
X136637645Y-93150228D01*
X136603459Y-93318709D01*
X136558840Y-93541086D01*
X136547689Y-93784896D01*
X136571554Y-94097543D01*
X136631983Y-94526432D01*
X136645704Y-94612455D01*
X136704061Y-95098210D01*
X136746425Y-95710139D01*
X136773383Y-96418154D01*
X136785521Y-97192167D01*
X136783426Y-98002088D01*
X136767685Y-98817830D01*
X136738886Y-99609302D01*
X136697616Y-100346418D01*
X136644461Y-100999087D01*
X136580008Y-101537222D01*
X136504845Y-101930733D01*
X136502771Y-101938695D01*
X136335062Y-102326130D01*
X136017287Y-102791020D01*
X135554127Y-103327448D01*
X134950265Y-103929496D01*
X134862954Y-104011085D01*
X134526485Y-104333409D01*
X134304720Y-104574373D01*
X134175149Y-104762478D01*
X134115259Y-104926228D01*
X134108607Y-104966159D01*
X134041034Y-105137042D01*
X133869341Y-105185824D01*
X133859758Y-105185882D01*
X133727152Y-105221967D01*
X133616615Y-105346695D01*
X133515908Y-105584776D01*
X133412790Y-105960919D01*
X133359096Y-106196609D01*
X133258821Y-106415404D01*
X133072315Y-106659188D01*
X132845940Y-106881051D01*
X132626063Y-107034085D01*
X132490399Y-107075502D01*
X132280026Y-107012448D01*
X132180175Y-106931997D01*
X132122296Y-106783748D01*
X132073199Y-106484289D01*
X132031856Y-106025218D01*
X132000023Y-105459851D01*
X131978705Y-104970186D01*
X132717197Y-104970186D01*
X132778321Y-105135372D01*
X132890732Y-105271741D01*
X133044762Y-105454579D01*
X133116378Y-105592975D01*
X133195217Y-105739620D01*
X133276485Y-105718845D01*
X133349133Y-105538494D01*
X133375822Y-105408831D01*
X133405879Y-105125784D01*
X133355945Y-104967115D01*
X133198187Y-104889341D01*
X133025624Y-104861684D01*
X132812530Y-104854967D01*
X132726074Y-104912485D01*
X132717197Y-104970186D01*
X131978705Y-104970186D01*
X131977777Y-104948872D01*
X131967170Y-104584215D01*
X131970527Y-104336669D01*
X131990176Y-104177025D01*
X132028443Y-104076072D01*
X132087654Y-104004602D01*
X132118097Y-103977405D01*
X132298434Y-103860783D01*
X132424475Y-103823599D01*
X132600296Y-103758706D01*
X132842854Y-103586343D01*
X133113844Y-103339978D01*
X133374964Y-103053082D01*
X133513144Y-102872318D01*
X133725243Y-102594103D01*
X134000573Y-102263711D01*
X134272294Y-101960548D01*
X134742329Y-101459781D01*
X134689239Y-100466430D01*
X134665073Y-100058571D01*
X134640082Y-99711088D01*
X134617440Y-99464264D01*
X134602269Y-99363218D01*
X134527584Y-99254563D01*
X134410109Y-99288867D01*
X134244746Y-99471602D01*
X134026396Y-99808238D01*
X133783157Y-100242111D01*
X133442009Y-100866043D01*
X133155745Y-101356796D01*
X132904433Y-101740250D01*
X132668140Y-102042287D01*
X132426934Y-102288790D01*
X132160881Y-102505639D01*
X131901779Y-102685016D01*
X131517627Y-102913478D01*
X131101971Y-103123503D01*
X130733049Y-103276234D01*
X130668617Y-103297459D01*
X130362150Y-103406066D01*
X130116929Y-103518253D01*
X129992398Y-103604154D01*
X129822153Y-103716664D01*
X129724185Y-103735709D01*
X129570875Y-103802680D01*
X129401575Y-103967108D01*
X129377405Y-103999377D01*
X129179570Y-104209432D01*
X129008245Y-104245986D01*
X128862574Y-104109173D01*
X128847387Y-104082256D01*
X128782882Y-103981934D01*
X128709602Y-103967650D01*
X128583765Y-104050623D01*
X128418628Y-104192117D01*
X128091209Y-104474243D01*
X127856532Y-104661691D01*
X127678503Y-104779366D01*
X127521030Y-104852171D01*
X127410164Y-104887928D01*
X126972402Y-104969917D01*
X126660278Y-104936614D01*
X126477027Y-104798885D01*
X126425883Y-104567596D01*
X126510078Y-104253610D01*
X126732849Y-103867794D01*
X126767811Y-103823599D01*
X127971176Y-103823599D01*
X127984032Y-104074313D01*
X128016900Y-104233421D01*
X128042622Y-104263045D01*
X128142996Y-104204922D01*
X128307054Y-104059677D01*
X128365800Y-104000294D01*
X128513004Y-103832358D01*
X128581406Y-103725121D01*
X128579994Y-103710025D01*
X128422709Y-103605596D01*
X128231584Y-103491273D01*
X128073581Y-103405896D01*
X128018213Y-103384152D01*
X127991373Y-103463250D01*
X127974343Y-103665477D01*
X127971176Y-103823599D01*
X126767811Y-103823599D01*
X127004350Y-103524597D01*
X127249829Y-103216660D01*
X127469682Y-102893752D01*
X127609485Y-102639534D01*
X127806559Y-102328780D01*
X128045493Y-102179093D01*
X128314381Y-102196654D01*
X128393765Y-102232569D01*
X128623100Y-102275751D01*
X128934445Y-102196520D01*
X129339978Y-101990609D01*
X129653857Y-101790855D01*
X129979463Y-101588266D01*
X130314762Y-101405905D01*
X130532749Y-101306056D01*
X130844191Y-101173548D01*
X131068460Y-101038803D01*
X131238282Y-100864395D01*
X131386382Y-100612903D01*
X131545486Y-100246902D01*
X131617285Y-100065808D01*
X131783463Y-99652892D01*
X131952405Y-99251749D01*
X132098527Y-98922379D01*
X132159248Y-98794859D01*
X132311316Y-98449292D01*
X132357060Y-98230161D01*
X132297650Y-98124819D01*
X132222454Y-98110796D01*
X132145211Y-98087576D01*
X132112476Y-97992323D01*
X132118255Y-97786641D01*
X132139431Y-97579019D01*
X132187813Y-97237387D01*
X132262541Y-96805122D01*
X132349467Y-96362642D01*
X132371941Y-96257581D01*
X132446337Y-95913807D01*
X132486015Y-95659628D01*
X132478852Y-95455066D01*
X132412730Y-95260140D01*
X132275526Y-95034873D01*
X132055120Y-94739286D01*
X131820069Y-94437306D01*
X131569922Y-94113763D01*
X131346854Y-93821552D01*
X131182113Y-93601790D01*
X131124070Y-93521533D01*
X130964256Y-93377738D01*
X130691316Y-93266740D01*
X130420955Y-93201105D01*
X130137429Y-93126758D01*
X129733443Y-93000007D01*
X129250873Y-92835865D01*
X128731595Y-92649347D01*
X128217485Y-92455469D01*
X127750417Y-92269245D01*
X127395143Y-92116168D01*
X127264109Y-92011033D01*
X127058287Y-91793287D01*
X126799498Y-91491364D01*
X126509562Y-91133700D01*
X126210299Y-90748729D01*
X125923530Y-90364885D01*
X125671076Y-90010603D01*
X125591981Y-89891232D01*
X127707509Y-89891232D01*
X127719202Y-90123908D01*
X127765839Y-90321403D01*
X127864753Y-90495523D01*
X128033275Y-90658070D01*
X128288740Y-90820850D01*
X128648481Y-90995667D01*
X129129830Y-91194325D01*
X129750122Y-91428627D01*
X130212353Y-91597070D01*
X130542476Y-91707131D01*
X130812291Y-91779879D01*
X130977872Y-91804109D01*
X131003356Y-91798886D01*
X131113236Y-91722535D01*
X131319446Y-91571105D01*
X131496543Y-91438109D01*
X131926194Y-91438109D01*
X131998855Y-91509533D01*
X132187048Y-91625098D01*
X132387612Y-91728890D01*
X132869085Y-91894539D01*
X133379387Y-91957536D01*
X133851090Y-91912222D01*
X134007842Y-91864803D01*
X134376725Y-91656648D01*
X134592515Y-91373326D01*
X134650761Y-91081132D01*
X134627157Y-90781588D01*
X134537352Y-90594028D01*
X134352857Y-90499729D01*
X134045180Y-90479971D01*
X133763937Y-90498386D01*
X133222145Y-90548476D01*
X132831007Y-90589604D01*
X132566029Y-90627652D01*
X132402714Y-90668501D01*
X132316567Y-90718030D01*
X132283091Y-90782120D01*
X132277751Y-90855159D01*
X132214855Y-91062983D01*
X132101972Y-91211488D01*
X131971280Y-91352258D01*
X131926194Y-91438109D01*
X131496543Y-91438109D01*
X131578748Y-91376375D01*
X131596609Y-91362825D01*
X131843503Y-91167607D01*
X132023096Y-91010735D01*
X132099956Y-90923367D01*
X132100626Y-90919561D01*
X132035248Y-90772616D01*
X131833830Y-90670240D01*
X131503731Y-90605528D01*
X130701655Y-90426375D01*
X129899000Y-90108971D01*
X129158428Y-89679072D01*
X129035601Y-89591024D01*
X128705513Y-89419662D01*
X128481709Y-89397111D01*
X128216545Y-89370391D01*
X128018672Y-89288333D01*
X127865538Y-89201869D01*
X127792034Y-89221713D01*
X127759588Y-89288416D01*
X127729799Y-89450571D01*
X127710951Y-89715673D01*
X127707509Y-89891232D01*
X125591981Y-89891232D01*
X125474757Y-89714318D01*
X125356393Y-89504464D01*
X125331574Y-89427094D01*
X125274355Y-89249130D01*
X125176350Y-89102145D01*
X124912401Y-88837783D01*
X124559728Y-88537027D01*
X124176268Y-88244928D01*
X123819959Y-88006533D01*
X123636000Y-87904438D01*
X123358241Y-87743024D01*
X123229455Y-87610813D01*
X123251106Y-87523161D01*
X123424660Y-87495427D01*
X123598685Y-87513352D01*
X123972214Y-87572976D01*
X123642630Y-87235239D01*
X123457370Y-87026915D01*
X123372749Y-86906644D01*
X123542451Y-86906644D01*
X123649657Y-87050795D01*
X123884158Y-87306771D01*
X123931272Y-87355553D01*
X124170210Y-87602442D01*
X124290176Y-87747508D01*
X124278865Y-87806405D01*
X124123973Y-87794791D01*
X123813193Y-87728321D01*
X123664602Y-87694833D01*
X123614998Y-87701257D01*
X123705324Y-87767190D01*
X123884325Y-87862290D01*
X124152912Y-88023988D01*
X124486776Y-88266555D01*
X124827165Y-88546306D01*
X124937346Y-88645266D01*
X125223922Y-88906510D01*
X125414416Y-89064084D01*
X125540816Y-89134715D01*
X125635113Y-89135131D01*
X125729293Y-89082060D01*
X125747560Y-89068947D01*
X125892921Y-88944492D01*
X125946961Y-88865433D01*
X125885127Y-88775319D01*
X125758519Y-88670575D01*
X125629425Y-88550159D01*
X125629033Y-88412358D01*
X125670630Y-88309899D01*
X125686686Y-88252473D01*
X125877782Y-88252473D01*
X125893865Y-88419819D01*
X125966306Y-88584149D01*
X126063149Y-88704078D01*
X126152441Y-88738222D01*
X126198695Y-88668083D01*
X126172835Y-88496797D01*
X126069743Y-88287594D01*
X126067900Y-88284848D01*
X125907856Y-88047474D01*
X125877782Y-88252473D01*
X125686686Y-88252473D01*
X125763126Y-87979085D01*
X125742747Y-87682029D01*
X125695887Y-87576981D01*
X125573731Y-87511799D01*
X125413629Y-87567549D01*
X125266974Y-87713781D01*
X125194174Y-87874232D01*
X125125915Y-88037578D01*
X125060123Y-88091419D01*
X125039691Y-88020866D01*
X125085629Y-87844715D01*
X125112880Y-87774786D01*
X125191393Y-87556836D01*
X125187056Y-87414867D01*
X125094958Y-87267302D01*
X125081265Y-87249774D01*
X124958214Y-87053524D01*
X124812531Y-86765584D01*
X124713757Y-86539764D01*
X124587520Y-86257702D01*
X124508857Y-86137013D01*
X124482457Y-86168602D01*
X124513013Y-86343375D01*
X124605215Y-86652236D01*
X124625260Y-86711334D01*
X124715413Y-86996891D01*
X124739636Y-87152504D01*
X124701249Y-87209788D01*
X124677919Y-87212526D01*
X124549232Y-87164840D01*
X124528846Y-87135271D01*
X124453283Y-87020835D01*
X124306044Y-86845470D01*
X124126573Y-86650834D01*
X123954314Y-86478587D01*
X123828712Y-86370385D01*
X123789889Y-86354828D01*
X123820660Y-86437260D01*
X123935751Y-86621261D01*
X124111582Y-86869634D01*
X124143093Y-86911952D01*
X124319363Y-87164839D01*
X124429562Y-87358768D01*
X124453725Y-87457640D01*
X124447589Y-87462489D01*
X124338109Y-87427505D01*
X124144850Y-87305585D01*
X123976564Y-87176849D01*
X123706708Y-86966500D01*
X123561736Y-86877489D01*
X123542451Y-86906644D01*
X123372749Y-86906644D01*
X123337807Y-86856983D01*
X123313045Y-86791346D01*
X123376536Y-86699239D01*
X123531017Y-86701063D01*
X123722498Y-86791355D01*
X123783872Y-86838996D01*
X123884246Y-86919895D01*
X123896942Y-86900091D01*
X123819517Y-86759542D01*
X123762643Y-86664821D01*
X123635199Y-86392507D01*
X123638879Y-86220203D01*
X123773392Y-86156633D01*
X123779651Y-86156494D01*
X123890967Y-86217422D01*
X124068208Y-86376011D01*
X124212409Y-86530023D01*
X124540494Y-86904913D01*
X124399531Y-86480491D01*
X124319737Y-86183307D01*
X124323511Y-86009161D01*
X124353362Y-85961275D01*
X124488810Y-85920648D01*
X124637705Y-86050568D01*
X124795929Y-86346685D01*
X124852712Y-86488687D01*
X124983460Y-86792630D01*
X125129267Y-87069687D01*
X125182595Y-87153380D01*
X125328677Y-87324267D01*
X125414262Y-87343553D01*
X125437119Y-87225478D01*
X125395017Y-86984283D01*
X125285725Y-86634208D01*
X125270485Y-86592322D01*
X125158181Y-86263397D01*
X125086975Y-85974238D01*
X125048086Y-85665353D01*
X125032730Y-85277250D01*
X125032070Y-85147425D01*
X125178194Y-85147425D01*
X125302071Y-85912483D01*
X125587852Y-86692165D01*
X125813601Y-87122461D01*
X126027267Y-87503219D01*
X126275958Y-87966743D01*
X126519249Y-88437035D01*
X126621186Y-88640727D01*
X126797943Y-88987950D01*
X126950599Y-89267612D01*
X127060845Y-89447403D01*
X127106734Y-89497647D01*
X127155699Y-89419472D01*
X127207835Y-89221509D01*
X127228893Y-89100934D01*
X127241337Y-88710398D01*
X127180835Y-88444573D01*
X127118110Y-88151277D01*
X127123113Y-87947041D01*
X127295210Y-87947041D01*
X127396127Y-88288854D01*
X127651762Y-88668866D01*
X127667556Y-88687486D01*
X128000793Y-89007046D01*
X128305481Y-89153447D01*
X128582171Y-89126882D01*
X128705940Y-89052170D01*
X128906392Y-88913571D01*
X129001407Y-88905468D01*
X129005893Y-89030234D01*
X128990907Y-89097562D01*
X128981393Y-89240792D01*
X129056200Y-89368446D01*
X129245701Y-89524107D01*
X129328699Y-89582261D01*
X130118186Y-90027618D01*
X130958571Y-90308901D01*
X131862581Y-90429697D01*
X132340707Y-90431096D01*
X132772659Y-90406361D01*
X133092954Y-90360374D01*
X133365551Y-90279364D01*
X133654414Y-90149559D01*
X133659046Y-90147246D01*
X133977446Y-89963730D01*
X134225288Y-89749440D01*
X134464685Y-89447326D01*
X134538418Y-89339591D01*
X134847711Y-88797152D01*
X135093897Y-88204860D01*
X135260717Y-87614009D01*
X135331914Y-87075890D01*
X135327298Y-86850789D01*
X135285791Y-86539802D01*
X135225383Y-86276731D01*
X135184599Y-86170004D01*
X135129510Y-86080305D01*
X135061748Y-86043840D01*
X134944347Y-86067204D01*
X134740345Y-86156995D01*
X134450109Y-86301075D01*
X134117346Y-86473691D01*
X133819583Y-86638002D01*
X133613862Y-86762360D01*
X133593354Y-86776397D01*
X133395113Y-86878321D01*
X133227833Y-86854068D01*
X133197853Y-86838795D01*
X133001427Y-86693136D01*
X132912262Y-86497760D01*
X132894322Y-86263352D01*
X132917351Y-86142228D01*
X133119161Y-86142228D01*
X133143882Y-86460163D01*
X133260827Y-86660879D01*
X133399265Y-86710678D01*
X133579500Y-86653779D01*
X133722061Y-86518897D01*
X133704317Y-86407406D01*
X133639067Y-86332830D01*
X133519381Y-86132394D01*
X133525495Y-85879848D01*
X133545871Y-85839950D01*
X133643631Y-85839950D01*
X133693657Y-85949792D01*
X133846512Y-86062015D01*
X133968197Y-86005163D01*
X134006020Y-85932224D01*
X134010147Y-85758617D01*
X133906642Y-85666632D01*
X133751624Y-85700278D01*
X133730565Y-85716216D01*
X133643631Y-85839950D01*
X133545871Y-85839950D01*
X133649454Y-85637127D01*
X133739776Y-85549009D01*
X133957511Y-85420852D01*
X134158118Y-85366857D01*
X134159667Y-85366851D01*
X134404573Y-85425951D01*
X134615727Y-85571783D01*
X134731633Y-85757143D01*
X134738650Y-85811281D01*
X134776415Y-85951370D01*
X134826540Y-85982076D01*
X134894519Y-85907408D01*
X134914429Y-85779151D01*
X134847285Y-85496540D01*
X134667735Y-85312463D01*
X134408601Y-85226422D01*
X134102706Y-85237921D01*
X133782872Y-85346466D01*
X133481922Y-85551559D01*
X133263692Y-85804097D01*
X133119161Y-86142228D01*
X132917351Y-86142228D01*
X132967049Y-85880840D01*
X133165688Y-85520007D01*
X133455582Y-85209796D01*
X133802075Y-84979150D01*
X134170508Y-84857014D01*
X134526227Y-84872331D01*
X134551074Y-84879716D01*
X134634998Y-84896878D01*
X134666235Y-84859634D01*
X134640437Y-84738501D01*
X134553254Y-84503997D01*
X134462451Y-84278879D01*
X134259186Y-83853369D01*
X134035965Y-83574373D01*
X133751819Y-83413888D01*
X133365781Y-83343909D01*
X133079805Y-83333760D01*
X132627193Y-83378126D01*
X132076060Y-83503229D01*
X131472562Y-83691510D01*
X130862857Y-83925409D01*
X130293101Y-84187366D01*
X129809450Y-84459823D01*
X129483080Y-84702069D01*
X129210288Y-85002727D01*
X128965641Y-85368043D01*
X128779413Y-85743176D01*
X128681874Y-86073283D01*
X128674291Y-86167281D01*
X128702776Y-86378310D01*
X128777349Y-86694860D01*
X128881683Y-87058127D01*
X128999449Y-87409309D01*
X129068215Y-87586055D01*
X129084835Y-87685025D01*
X128999057Y-87729670D01*
X128782633Y-87739861D01*
X128466341Y-87708250D01*
X128126386Y-87630046D01*
X128059066Y-87608028D01*
X127747801Y-87509702D01*
X127552951Y-87487652D01*
X127431145Y-87544896D01*
X127353193Y-87657127D01*
X127295210Y-87947041D01*
X127123113Y-87947041D01*
X127126505Y-87808587D01*
X127169219Y-87465509D01*
X127173488Y-87238708D01*
X127131749Y-87071419D01*
X127036437Y-86906873D01*
X126999278Y-86853783D01*
X126778337Y-86421913D01*
X126631737Y-85881604D01*
X126565054Y-85286189D01*
X126572865Y-85038216D01*
X126769295Y-85038216D01*
X126821111Y-85728387D01*
X126828973Y-85767744D01*
X126942597Y-86221855D01*
X127082653Y-86558738D01*
X127277066Y-86836934D01*
X127403720Y-86972657D01*
X127580997Y-87137249D01*
X127681903Y-87207081D01*
X127687487Y-87173674D01*
X127608409Y-87064236D01*
X127535822Y-86960125D01*
X127597944Y-86964328D01*
X127663564Y-86991297D01*
X127862553Y-87048193D01*
X128138378Y-87095860D01*
X128213530Y-87104544D01*
X128445120Y-87118544D01*
X128540209Y-87089539D01*
X128535265Y-87005816D01*
X128533711Y-87001705D01*
X128413464Y-86893082D01*
X128265021Y-86860969D01*
X127915725Y-86781978D01*
X127559620Y-86563094D01*
X127318864Y-86325754D01*
X127159588Y-86118400D01*
X127121090Y-86026986D01*
X127192319Y-86051179D01*
X127362224Y-86190646D01*
X127508896Y-86331479D01*
X127795938Y-86575100D01*
X128038351Y-86678539D01*
X128114643Y-86685033D01*
X128259469Y-86675203D01*
X128335825Y-86617002D01*
X128367560Y-86467008D01*
X128377968Y-86205620D01*
X128432012Y-85798464D01*
X128585863Y-85399254D01*
X128856981Y-84972757D01*
X129191787Y-84563473D01*
X129551226Y-84155597D01*
X129247675Y-84098650D01*
X128993888Y-84033279D01*
X128910441Y-83973869D01*
X128992047Y-83933722D01*
X129233420Y-83926137D01*
X129314450Y-83930633D01*
X129772906Y-83962161D01*
X129433877Y-83830889D01*
X129127950Y-83695454D01*
X128842839Y-83540658D01*
X128621275Y-83392857D01*
X128505990Y-83278409D01*
X128498512Y-83253971D01*
X128565058Y-83254254D01*
X128737674Y-83333593D01*
X128928166Y-83443967D01*
X129241598Y-83606336D01*
X129567003Y-83725726D01*
X129722384Y-83759953D01*
X130086948Y-83808851D01*
X129764402Y-83486306D01*
X129592750Y-83295744D01*
X129499987Y-83154464D01*
X129496289Y-83109328D01*
X129580040Y-83133176D01*
X129713843Y-83263030D01*
X129734547Y-83288591D01*
X129968661Y-83538401D01*
X130184622Y-83638358D01*
X130429646Y-83601780D01*
X130590512Y-83530024D01*
X130899315Y-83355326D01*
X131049034Y-83213702D01*
X131046752Y-83080892D01*
X130899551Y-82932632D01*
X130787751Y-82854300D01*
X130339240Y-82645753D01*
X129990469Y-82574048D01*
X129723262Y-82530288D01*
X129578957Y-82472725D01*
X129570992Y-82418483D01*
X129712801Y-82384688D01*
X129838823Y-82380764D01*
X130416934Y-82453083D01*
X130978994Y-82643905D01*
X131237479Y-82783207D01*
X131516157Y-82929599D01*
X131751044Y-82969912D01*
X131892847Y-82953707D01*
X132107028Y-82869067D01*
X132190291Y-82708445D01*
X132145667Y-82453834D01*
X132023557Y-82177476D01*
X131937954Y-81978274D01*
X131919237Y-81862853D01*
X131933411Y-81851280D01*
X132027559Y-81927171D01*
X132142542Y-82120122D01*
X132251347Y-82378054D01*
X132312468Y-82582072D01*
X132389374Y-82761640D01*
X132525854Y-82805944D01*
X132566497Y-82801796D01*
X132739144Y-82711971D01*
X132788597Y-82535816D01*
X132713657Y-82313557D01*
X132585904Y-82151443D01*
X132447291Y-81991933D01*
X132394811Y-81887695D01*
X132398931Y-81876582D01*
X132494504Y-81883224D01*
X132626340Y-82003300D01*
X132759706Y-82189438D01*
X132859869Y-82394269D01*
X132892976Y-82550399D01*
X132929971Y-82758504D01*
X133017621Y-82818062D01*
X133210892Y-82848893D01*
X133281289Y-82871410D01*
X133383364Y-82850108D01*
X133423180Y-82724409D01*
X133399857Y-82554630D01*
X133312516Y-82401087D01*
X133288477Y-82378616D01*
X133178781Y-82240738D01*
X133159421Y-82170103D01*
X133198843Y-82133625D01*
X133291078Y-82210482D01*
X133406077Y-82358987D01*
X133513793Y-82537453D01*
X133584177Y-82704191D01*
X133596090Y-82775926D01*
X133672198Y-82992922D01*
X133779396Y-83085759D01*
X133948213Y-83150117D01*
X134006852Y-83094117D01*
X133960907Y-82906628D01*
X133920178Y-82805589D01*
X133740326Y-82495016D01*
X133471995Y-82235078D01*
X133080113Y-81995491D01*
X132857044Y-81887588D01*
X132162100Y-81665235D01*
X131403064Y-81601708D01*
X130589236Y-81696111D01*
X129729918Y-81947547D01*
X129024063Y-82257096D01*
X128243460Y-82715177D01*
X127626023Y-83224983D01*
X127173410Y-83783861D01*
X126887281Y-84389156D01*
X126769295Y-85038216D01*
X126572865Y-85038216D01*
X126583866Y-84688997D01*
X126693748Y-84143362D01*
X126710509Y-84092074D01*
X126873549Y-83768903D01*
X127141508Y-83399070D01*
X127472237Y-83032192D01*
X127823586Y-82717883D01*
X127965874Y-82614348D01*
X128106362Y-82495475D01*
X128101909Y-82412161D01*
X127941691Y-82353160D01*
X127676647Y-82313920D01*
X127353868Y-82312120D01*
X127026508Y-82396522D01*
X126815385Y-82485083D01*
X126553121Y-82599633D01*
X126357530Y-82674887D01*
X126284189Y-82693279D01*
X126157752Y-82751981D01*
X125975537Y-82921219D01*
X125771672Y-83160482D01*
X125580283Y-83429258D01*
X125435496Y-83687035D01*
X125422470Y-83716244D01*
X125217799Y-84410756D01*
X125178194Y-85147425D01*
X125032070Y-85147425D01*
X125031173Y-84971349D01*
X125036724Y-84520271D01*
X125056505Y-84196659D01*
X125097928Y-83952336D01*
X125168405Y-83739121D01*
X125247480Y-83565121D01*
X125556646Y-83079588D01*
X125967705Y-82648597D01*
X126387026Y-82334671D01*
X126740727Y-82334671D01*
X126784671Y-82378616D01*
X126828616Y-82334671D01*
X126784671Y-82290727D01*
X126740727Y-82334671D01*
X126387026Y-82334671D01*
X126449941Y-82287570D01*
X126527285Y-82246782D01*
X126916505Y-82246782D01*
X126960450Y-82290727D01*
X127004394Y-82246782D01*
X126960450Y-82202837D01*
X126916505Y-82246782D01*
X126527285Y-82246782D01*
X126632383Y-82191358D01*
X127093189Y-82191358D01*
X127188254Y-82198892D01*
X127377924Y-82173797D01*
X127661232Y-82172635D01*
X127957133Y-82236268D01*
X127971176Y-82241419D01*
X128203200Y-82327299D01*
X128332499Y-82355775D01*
X128422053Y-82328105D01*
X128525636Y-82252503D01*
X128614090Y-82169082D01*
X128582587Y-82109759D01*
X128408067Y-82040799D01*
X128372918Y-82029118D01*
X128101249Y-81973087D01*
X127790329Y-81988522D01*
X127576762Y-82026833D01*
X127303398Y-82093536D01*
X127136888Y-82152309D01*
X127093189Y-82191358D01*
X126632383Y-82191358D01*
X126972635Y-82011926D01*
X127505070Y-81837087D01*
X128016531Y-81778474D01*
X128476300Y-81851507D01*
X128579746Y-81892224D01*
X128767870Y-81970571D01*
X128917294Y-81997895D01*
X129086972Y-81969875D01*
X129335857Y-81882191D01*
X129478669Y-81826344D01*
X129854409Y-81680878D01*
X130130914Y-81584572D01*
X130371692Y-81520154D01*
X130640248Y-81470349D01*
X130959412Y-81423569D01*
X131708292Y-81394673D01*
X132445301Y-81508299D01*
X132922855Y-81669473D01*
X133247504Y-81844882D01*
X133572021Y-82079710D01*
X133851227Y-82335053D01*
X134039940Y-82572010D01*
X134086138Y-82671093D01*
X134137586Y-82823870D01*
X134236142Y-83103285D01*
X134368148Y-83471036D01*
X134519944Y-83888818D01*
X134536874Y-83935120D01*
X134725014Y-84427426D01*
X134875071Y-84767597D01*
X134995708Y-84972945D01*
X135095585Y-85060786D01*
X135100897Y-85062631D01*
X135218702Y-85144334D01*
X135258050Y-85320088D01*
X135256109Y-85439691D01*
X135273314Y-85712526D01*
X135335119Y-86052136D01*
X135384791Y-86239724D01*
X135498704Y-86749039D01*
X135511983Y-87238964D01*
X135421563Y-87765934D01*
X135276011Y-88242047D01*
X135007222Y-88900800D01*
X134698738Y-89461293D01*
X134368661Y-89893366D01*
X134179149Y-90069560D01*
X133903702Y-90286701D01*
X134167370Y-90286476D01*
X134391889Y-90280446D01*
X134569433Y-90248457D01*
X134719892Y-90169000D01*
X134863156Y-90020569D01*
X135019114Y-89781657D01*
X135207654Y-89430759D01*
X135448666Y-88946366D01*
X135495975Y-88849834D01*
X136144879Y-87524778D01*
X136144879Y-86138202D01*
X136150296Y-85582943D01*
X136165955Y-85158084D01*
X136190965Y-84877678D01*
X136224434Y-84755778D01*
X136232768Y-84751626D01*
X136285356Y-84673110D01*
X136316756Y-84474615D01*
X136320657Y-84359217D01*
X136299275Y-84084676D01*
X136222402Y-83929197D01*
X136145166Y-83872887D01*
X135995779Y-83737269D01*
X135837344Y-83513559D01*
X135795083Y-83436739D01*
X135646155Y-83210602D01*
X135485017Y-83059271D01*
X135438240Y-83036667D01*
X135303642Y-82929805D01*
X135302202Y-82869278D01*
X135547919Y-82869278D01*
X135634229Y-83017695D01*
X135670389Y-83059758D01*
X136016462Y-83448613D01*
X136258674Y-83735171D01*
X136413587Y-83945188D01*
X136497761Y-84104417D01*
X136527755Y-84238612D01*
X136520131Y-84373529D01*
X136519201Y-84379818D01*
X136501512Y-84573225D01*
X136560669Y-84645697D01*
X136743157Y-84645746D01*
X136771848Y-84643486D01*
X136976826Y-84605322D01*
X137077362Y-84496933D01*
X137125549Y-84312180D01*
X137229206Y-83910013D01*
X137389823Y-83452560D01*
X137580849Y-83005043D01*
X137775730Y-82632686D01*
X137864022Y-82498198D01*
X138112821Y-82158893D01*
X137745688Y-82504739D01*
X137541549Y-82684145D01*
X137391080Y-82792501D01*
X137336549Y-82808579D01*
X137339414Y-82709913D01*
X137387448Y-82491945D01*
X137469046Y-82205893D01*
X137567644Y-81858051D01*
X137610473Y-81641371D01*
X137601261Y-81564972D01*
X137543736Y-81637977D01*
X137441626Y-81869506D01*
X137388778Y-82009521D01*
X137246095Y-82370811D01*
X137142501Y-82561108D01*
X137076131Y-82579945D01*
X137045116Y-82426856D01*
X137047592Y-82101374D01*
X137057296Y-81926625D01*
X137104545Y-81192111D01*
X136970270Y-81763391D01*
X136895934Y-82073456D01*
X136833532Y-82322740D01*
X136798671Y-82450103D01*
X136733568Y-82538527D01*
X136658614Y-82474647D01*
X136587615Y-82280339D01*
X136542811Y-82044730D01*
X136488235Y-81715952D01*
X136440625Y-81560347D01*
X136402426Y-81575367D01*
X136376082Y-81758464D01*
X136364039Y-82107092D01*
X136363559Y-82231515D01*
X136366109Y-82611512D01*
X136379306Y-82853724D01*
X136413263Y-82996141D01*
X136478094Y-83076756D01*
X136583912Y-83133561D01*
X136606297Y-83143404D01*
X136778148Y-83247495D01*
X136847993Y-83346139D01*
X136789961Y-83378487D01*
X136652659Y-83306437D01*
X136452905Y-83202268D01*
X136312954Y-83169619D01*
X136145136Y-83117882D01*
X135945118Y-82993841D01*
X135727327Y-82851601D01*
X135586940Y-82811997D01*
X135547919Y-82869278D01*
X135302202Y-82869278D01*
X135300194Y-82784884D01*
X135420951Y-82672602D01*
X135475567Y-82656737D01*
X135652077Y-82685251D01*
X135869591Y-82796484D01*
X135898941Y-82817273D01*
X136082145Y-82927747D01*
X136204884Y-82956774D01*
X136217705Y-82949699D01*
X136240699Y-82841195D01*
X136253834Y-82598957D01*
X136255550Y-82264833D01*
X136251025Y-82055907D01*
X136241962Y-81668187D01*
X136247009Y-81425116D01*
X136271069Y-81295805D01*
X136319046Y-81249366D01*
X136378756Y-81251281D01*
X136510544Y-81362189D01*
X136621974Y-81628092D01*
X136635086Y-81675915D01*
X136737997Y-82071003D01*
X136803934Y-81699312D01*
X136894355Y-81362685D01*
X137009525Y-81149897D01*
X137126317Y-81067074D01*
X137221608Y-81120342D01*
X137221608Y-81120342D01*
G37*
X137221608Y-81120342D02*
X137272273Y-81315827D01*
X137265306Y-81577093D01*
X137222893Y-81983114D01*
X137343308Y-81697474D01*
X137475090Y-81491199D01*
X137624014Y-81409768D01*
X137752417Y-81471774D01*
X137764515Y-81489504D01*
X137768412Y-81612026D01*
X137725390Y-81839158D01*
X137682764Y-81994868D01*
X137608492Y-82246045D01*
X137561081Y-82418579D01*
X137552059Y-82460976D01*
X137607128Y-82431172D01*
X137746670Y-82310736D01*
X137815354Y-82246227D01*
X138030176Y-82081394D01*
X138160053Y-82059427D01*
X138191462Y-82162579D01*
X138110878Y-82373099D01*
X138021680Y-82516992D01*
X137858683Y-82797685D01*
X137685684Y-83164448D01*
X137522606Y-83565762D01*
X137389375Y-83950106D01*
X137305915Y-84265961D01*
X137287758Y-84414717D01*
X137319957Y-84599524D01*
X137385191Y-84681673D01*
X137428601Y-84782050D01*
X137472639Y-85047775D01*
X137516081Y-85468426D01*
X137557706Y-86033581D01*
X137572462Y-86278296D01*
X137661982Y-87842335D01*
X137036821Y-89111967D01*
X136722175Y-89731052D01*
X136421999Y-90283981D01*
X136148002Y-90751607D01*
X135911890Y-91114784D01*
X135725370Y-91354365D01*
X135607765Y-91449119D01*
X135557088Y-91532985D01*
X135638028Y-91687825D01*
X135833659Y-91890623D01*
X136070737Y-92078681D01*
X136427053Y-92405357D01*
X136614013Y-92757863D01*
X136637645Y-93150228D01*
X136603459Y-93318709D01*
X136558840Y-93541086D01*
X136547689Y-93784896D01*
X136571554Y-94097543D01*
X136631983Y-94526432D01*
X136645704Y-94612455D01*
X136704061Y-95098210D01*
X136746425Y-95710139D01*
X136773383Y-96418154D01*
X136785521Y-97192167D01*
X136783426Y-98002088D01*
X136767685Y-98817830D01*
X136738886Y-99609302D01*
X136697616Y-100346418D01*
X136644461Y-100999087D01*
X136580008Y-101537222D01*
X136504845Y-101930733D01*
X136502771Y-101938695D01*
X136335062Y-102326130D01*
X136017287Y-102791020D01*
X135554127Y-103327448D01*
X134950265Y-103929496D01*
X134862954Y-104011085D01*
X134526485Y-104333409D01*
X134304720Y-104574373D01*
X134175149Y-104762478D01*
X134115259Y-104926228D01*
X134108607Y-104966159D01*
X134041034Y-105137042D01*
X133869341Y-105185824D01*
X133859758Y-105185882D01*
X133727152Y-105221967D01*
X133616615Y-105346695D01*
X133515908Y-105584776D01*
X133412790Y-105960919D01*
X133359096Y-106196609D01*
X133258821Y-106415404D01*
X133072315Y-106659188D01*
X132845940Y-106881051D01*
X132626063Y-107034085D01*
X132490399Y-107075502D01*
X132280026Y-107012448D01*
X132180175Y-106931997D01*
X132122296Y-106783748D01*
X132073199Y-106484289D01*
X132031856Y-106025218D01*
X132000023Y-105459851D01*
X131978705Y-104970186D01*
X132717197Y-104970186D01*
X132778321Y-105135372D01*
X132890732Y-105271741D01*
X133044762Y-105454579D01*
X133116378Y-105592975D01*
X133195217Y-105739620D01*
X133276485Y-105718845D01*
X133349133Y-105538494D01*
X133375822Y-105408831D01*
X133405879Y-105125784D01*
X133355945Y-104967115D01*
X133198187Y-104889341D01*
X133025624Y-104861684D01*
X132812530Y-104854967D01*
X132726074Y-104912485D01*
X132717197Y-104970186D01*
X131978705Y-104970186D01*
X131977777Y-104948872D01*
X131967170Y-104584215D01*
X131970527Y-104336669D01*
X131990176Y-104177025D01*
X132028443Y-104076072D01*
X132087654Y-104004602D01*
X132118097Y-103977405D01*
X132298434Y-103860783D01*
X132424475Y-103823599D01*
X132600296Y-103758706D01*
X132842854Y-103586343D01*
X133113844Y-103339978D01*
X133374964Y-103053082D01*
X133513144Y-102872318D01*
X133725243Y-102594103D01*
X134000573Y-102263711D01*
X134272294Y-101960548D01*
X134742329Y-101459781D01*
X134689239Y-100466430D01*
X134665073Y-100058571D01*
X134640082Y-99711088D01*
X134617440Y-99464264D01*
X134602269Y-99363218D01*
X134527584Y-99254563D01*
X134410109Y-99288867D01*
X134244746Y-99471602D01*
X134026396Y-99808238D01*
X133783157Y-100242111D01*
X133442009Y-100866043D01*
X133155745Y-101356796D01*
X132904433Y-101740250D01*
X132668140Y-102042287D01*
X132426934Y-102288790D01*
X132160881Y-102505639D01*
X131901779Y-102685016D01*
X131517627Y-102913478D01*
X131101971Y-103123503D01*
X130733049Y-103276234D01*
X130668617Y-103297459D01*
X130362150Y-103406066D01*
X130116929Y-103518253D01*
X129992398Y-103604154D01*
X129822153Y-103716664D01*
X129724185Y-103735709D01*
X129570875Y-103802680D01*
X129401575Y-103967108D01*
X129377405Y-103999377D01*
X129179570Y-104209432D01*
X129008245Y-104245986D01*
X128862574Y-104109173D01*
X128847387Y-104082256D01*
X128782882Y-103981934D01*
X128709602Y-103967650D01*
X128583765Y-104050623D01*
X128418628Y-104192117D01*
X128091209Y-104474243D01*
X127856532Y-104661691D01*
X127678503Y-104779366D01*
X127521030Y-104852171D01*
X127410164Y-104887928D01*
X126972402Y-104969917D01*
X126660278Y-104936614D01*
X126477027Y-104798885D01*
X126425883Y-104567596D01*
X126510078Y-104253610D01*
X126732849Y-103867794D01*
X126767811Y-103823599D01*
X127971176Y-103823599D01*
X127984032Y-104074313D01*
X128016900Y-104233421D01*
X128042622Y-104263045D01*
X128142996Y-104204922D01*
X128307054Y-104059677D01*
X128365800Y-104000294D01*
X128513004Y-103832358D01*
X128581406Y-103725121D01*
X128579994Y-103710025D01*
X128422709Y-103605596D01*
X128231584Y-103491273D01*
X128073581Y-103405896D01*
X128018213Y-103384152D01*
X127991373Y-103463250D01*
X127974343Y-103665477D01*
X127971176Y-103823599D01*
X126767811Y-103823599D01*
X127004350Y-103524597D01*
X127249829Y-103216660D01*
X127469682Y-102893752D01*
X127609485Y-102639534D01*
X127806559Y-102328780D01*
X128045493Y-102179093D01*
X128314381Y-102196654D01*
X128393765Y-102232569D01*
X128623100Y-102275751D01*
X128934445Y-102196520D01*
X129339978Y-101990609D01*
X129653857Y-101790855D01*
X129979463Y-101588266D01*
X130314762Y-101405905D01*
X130532749Y-101306056D01*
X130844191Y-101173548D01*
X131068460Y-101038803D01*
X131238282Y-100864395D01*
X131386382Y-100612903D01*
X131545486Y-100246902D01*
X131617285Y-100065808D01*
X131783463Y-99652892D01*
X131952405Y-99251749D01*
X132098527Y-98922379D01*
X132159248Y-98794859D01*
X132311316Y-98449292D01*
X132357060Y-98230161D01*
X132297650Y-98124819D01*
X132222454Y-98110796D01*
X132145211Y-98087576D01*
X132112476Y-97992323D01*
X132118255Y-97786641D01*
X132139431Y-97579019D01*
X132187813Y-97237387D01*
X132262541Y-96805122D01*
X132349467Y-96362642D01*
X132371941Y-96257581D01*
X132446337Y-95913807D01*
X132486015Y-95659628D01*
X132478852Y-95455066D01*
X132412730Y-95260140D01*
X132275526Y-95034873D01*
X132055120Y-94739286D01*
X131820069Y-94437306D01*
X131569922Y-94113763D01*
X131346854Y-93821552D01*
X131182113Y-93601790D01*
X131124070Y-93521533D01*
X130964256Y-93377738D01*
X130691316Y-93266740D01*
X130420955Y-93201105D01*
X130137429Y-93126758D01*
X129733443Y-93000007D01*
X129250873Y-92835865D01*
X128731595Y-92649347D01*
X128217485Y-92455469D01*
X127750417Y-92269245D01*
X127395143Y-92116168D01*
X127264109Y-92011033D01*
X127058287Y-91793287D01*
X126799498Y-91491364D01*
X126509562Y-91133700D01*
X126210299Y-90748729D01*
X125923530Y-90364885D01*
X125671076Y-90010603D01*
X125591981Y-89891232D01*
X127707509Y-89891232D01*
X127719202Y-90123908D01*
X127765839Y-90321403D01*
X127864753Y-90495523D01*
X128033275Y-90658070D01*
X128288740Y-90820850D01*
X128648481Y-90995667D01*
X129129830Y-91194325D01*
X129750122Y-91428627D01*
X130212353Y-91597070D01*
X130542476Y-91707131D01*
X130812291Y-91779879D01*
X130977872Y-91804109D01*
X131003356Y-91798886D01*
X131113236Y-91722535D01*
X131319446Y-91571105D01*
X131496543Y-91438109D01*
X131926194Y-91438109D01*
X131998855Y-91509533D01*
X132187048Y-91625098D01*
X132387612Y-91728890D01*
X132869085Y-91894539D01*
X133379387Y-91957536D01*
X133851090Y-91912222D01*
X134007842Y-91864803D01*
X134376725Y-91656648D01*
X134592515Y-91373326D01*
X134650761Y-91081132D01*
X134627157Y-90781588D01*
X134537352Y-90594028D01*
X134352857Y-90499729D01*
X134045180Y-90479971D01*
X133763937Y-90498386D01*
X133222145Y-90548476D01*
X132831007Y-90589604D01*
X132566029Y-90627652D01*
X132402714Y-90668501D01*
X132316567Y-90718030D01*
X132283091Y-90782120D01*
X132277751Y-90855159D01*
X132214855Y-91062983D01*
X132101972Y-91211488D01*
X131971280Y-91352258D01*
X131926194Y-91438109D01*
X131496543Y-91438109D01*
X131578748Y-91376375D01*
X131596609Y-91362825D01*
X131843503Y-91167607D01*
X132023096Y-91010735D01*
X132099956Y-90923367D01*
X132100626Y-90919561D01*
X132035248Y-90772616D01*
X131833830Y-90670240D01*
X131503731Y-90605528D01*
X130701655Y-90426375D01*
X129899000Y-90108971D01*
X129158428Y-89679072D01*
X129035601Y-89591024D01*
X128705513Y-89419662D01*
X128481709Y-89397111D01*
X128216545Y-89370391D01*
X128018672Y-89288333D01*
X127865538Y-89201869D01*
X127792034Y-89221713D01*
X127759588Y-89288416D01*
X127729799Y-89450571D01*
X127710951Y-89715673D01*
X127707509Y-89891232D01*
X125591981Y-89891232D01*
X125474757Y-89714318D01*
X125356393Y-89504464D01*
X125331574Y-89427094D01*
X125274355Y-89249130D01*
X125176350Y-89102145D01*
X124912401Y-88837783D01*
X124559728Y-88537027D01*
X124176268Y-88244928D01*
X123819959Y-88006533D01*
X123636000Y-87904438D01*
X123358241Y-87743024D01*
X123229455Y-87610813D01*
X123251106Y-87523161D01*
X123424660Y-87495427D01*
X123598685Y-87513352D01*
X123972214Y-87572976D01*
X123642630Y-87235239D01*
X123457370Y-87026915D01*
X123372749Y-86906644D01*
X123542451Y-86906644D01*
X123649657Y-87050795D01*
X123884158Y-87306771D01*
X123931272Y-87355553D01*
X124170210Y-87602442D01*
X124290176Y-87747508D01*
X124278865Y-87806405D01*
X124123973Y-87794791D01*
X123813193Y-87728321D01*
X123664602Y-87694833D01*
X123614998Y-87701257D01*
X123705324Y-87767190D01*
X123884325Y-87862290D01*
X124152912Y-88023988D01*
X124486776Y-88266555D01*
X124827165Y-88546306D01*
X124937346Y-88645266D01*
X125223922Y-88906510D01*
X125414416Y-89064084D01*
X125540816Y-89134715D01*
X125635113Y-89135131D01*
X125729293Y-89082060D01*
X125747560Y-89068947D01*
X125892921Y-88944492D01*
X125946961Y-88865433D01*
X125885127Y-88775319D01*
X125758519Y-88670575D01*
X125629425Y-88550159D01*
X125629033Y-88412358D01*
X125670630Y-88309899D01*
X125686686Y-88252473D01*
X125877782Y-88252473D01*
X125893865Y-88419819D01*
X125966306Y-88584149D01*
X126063149Y-88704078D01*
X126152441Y-88738222D01*
X126198695Y-88668083D01*
X126172835Y-88496797D01*
X126069743Y-88287594D01*
X126067900Y-88284848D01*
X125907856Y-88047474D01*
X125877782Y-88252473D01*
X125686686Y-88252473D01*
X125763126Y-87979085D01*
X125742747Y-87682029D01*
X125695887Y-87576981D01*
X125573731Y-87511799D01*
X125413629Y-87567549D01*
X125266974Y-87713781D01*
X125194174Y-87874232D01*
X125125915Y-88037578D01*
X125060123Y-88091419D01*
X125039691Y-88020866D01*
X125085629Y-87844715D01*
X125112880Y-87774786D01*
X125191393Y-87556836D01*
X125187056Y-87414867D01*
X125094958Y-87267302D01*
X125081265Y-87249774D01*
X124958214Y-87053524D01*
X124812531Y-86765584D01*
X124713757Y-86539764D01*
X124587520Y-86257702D01*
X124508857Y-86137013D01*
X124482457Y-86168602D01*
X124513013Y-86343375D01*
X124605215Y-86652236D01*
X124625260Y-86711334D01*
X124715413Y-86996891D01*
X124739636Y-87152504D01*
X124701249Y-87209788D01*
X124677919Y-87212526D01*
X124549232Y-87164840D01*
X124528846Y-87135271D01*
X124453283Y-87020835D01*
X124306044Y-86845470D01*
X124126573Y-86650834D01*
X123954314Y-86478587D01*
X123828712Y-86370385D01*
X123789889Y-86354828D01*
X123820660Y-86437260D01*
X123935751Y-86621261D01*
X124111582Y-86869634D01*
X124143093Y-86911952D01*
X124319363Y-87164839D01*
X124429562Y-87358768D01*
X124453725Y-87457640D01*
X124447589Y-87462489D01*
X124338109Y-87427505D01*
X124144850Y-87305585D01*
X123976564Y-87176849D01*
X123706708Y-86966500D01*
X123561736Y-86877489D01*
X123542451Y-86906644D01*
X123372749Y-86906644D01*
X123337807Y-86856983D01*
X123313045Y-86791346D01*
X123376536Y-86699239D01*
X123531017Y-86701063D01*
X123722498Y-86791355D01*
X123783872Y-86838996D01*
X123884246Y-86919895D01*
X123896942Y-86900091D01*
X123819517Y-86759542D01*
X123762643Y-86664821D01*
X123635199Y-86392507D01*
X123638879Y-86220203D01*
X123773392Y-86156633D01*
X123779651Y-86156494D01*
X123890967Y-86217422D01*
X124068208Y-86376011D01*
X124212409Y-86530023D01*
X124540494Y-86904913D01*
X124399531Y-86480491D01*
X124319737Y-86183307D01*
X124323511Y-86009161D01*
X124353362Y-85961275D01*
X124488810Y-85920648D01*
X124637705Y-86050568D01*
X124795929Y-86346685D01*
X124852712Y-86488687D01*
X124983460Y-86792630D01*
X125129267Y-87069687D01*
X125182595Y-87153380D01*
X125328677Y-87324267D01*
X125414262Y-87343553D01*
X125437119Y-87225478D01*
X125395017Y-86984283D01*
X125285725Y-86634208D01*
X125270485Y-86592322D01*
X125158181Y-86263397D01*
X125086975Y-85974238D01*
X125048086Y-85665353D01*
X125032730Y-85277250D01*
X125032070Y-85147425D01*
X125178194Y-85147425D01*
X125302071Y-85912483D01*
X125587852Y-86692165D01*
X125813601Y-87122461D01*
X126027267Y-87503219D01*
X126275958Y-87966743D01*
X126519249Y-88437035D01*
X126621186Y-88640727D01*
X126797943Y-88987950D01*
X126950599Y-89267612D01*
X127060845Y-89447403D01*
X127106734Y-89497647D01*
X127155699Y-89419472D01*
X127207835Y-89221509D01*
X127228893Y-89100934D01*
X127241337Y-88710398D01*
X127180835Y-88444573D01*
X127118110Y-88151277D01*
X127123113Y-87947041D01*
X127295210Y-87947041D01*
X127396127Y-88288854D01*
X127651762Y-88668866D01*
X127667556Y-88687486D01*
X128000793Y-89007046D01*
X128305481Y-89153447D01*
X128582171Y-89126882D01*
X128705940Y-89052170D01*
X128906392Y-88913571D01*
X129001407Y-88905468D01*
X129005893Y-89030234D01*
X128990907Y-89097562D01*
X128981393Y-89240792D01*
X129056200Y-89368446D01*
X129245701Y-89524107D01*
X129328699Y-89582261D01*
X130118186Y-90027618D01*
X130958571Y-90308901D01*
X131862581Y-90429697D01*
X132340707Y-90431096D01*
X132772659Y-90406361D01*
X133092954Y-90360374D01*
X133365551Y-90279364D01*
X133654414Y-90149559D01*
X133659046Y-90147246D01*
X133977446Y-89963730D01*
X134225288Y-89749440D01*
X134464685Y-89447326D01*
X134538418Y-89339591D01*
X134847711Y-88797152D01*
X135093897Y-88204860D01*
X135260717Y-87614009D01*
X135331914Y-87075890D01*
X135327298Y-86850789D01*
X135285791Y-86539802D01*
X135225383Y-86276731D01*
X135184599Y-86170004D01*
X135129510Y-86080305D01*
X135061748Y-86043840D01*
X134944347Y-86067204D01*
X134740345Y-86156995D01*
X134450109Y-86301075D01*
X134117346Y-86473691D01*
X133819583Y-86638002D01*
X133613862Y-86762360D01*
X133593354Y-86776397D01*
X133395113Y-86878321D01*
X133227833Y-86854068D01*
X133197853Y-86838795D01*
X133001427Y-86693136D01*
X132912262Y-86497760D01*
X132894322Y-86263352D01*
X132917351Y-86142228D01*
X133119161Y-86142228D01*
X133143882Y-86460163D01*
X133260827Y-86660879D01*
X133399265Y-86710678D01*
X133579500Y-86653779D01*
X133722061Y-86518897D01*
X133704317Y-86407406D01*
X133639067Y-86332830D01*
X133519381Y-86132394D01*
X133525495Y-85879848D01*
X133545871Y-85839950D01*
X133643631Y-85839950D01*
X133693657Y-85949792D01*
X133846512Y-86062015D01*
X133968197Y-86005163D01*
X134006020Y-85932224D01*
X134010147Y-85758617D01*
X133906642Y-85666632D01*
X133751624Y-85700278D01*
X133730565Y-85716216D01*
X133643631Y-85839950D01*
X133545871Y-85839950D01*
X133649454Y-85637127D01*
X133739776Y-85549009D01*
X133957511Y-85420852D01*
X134158118Y-85366857D01*
X134159667Y-85366851D01*
X134404573Y-85425951D01*
X134615727Y-85571783D01*
X134731633Y-85757143D01*
X134738650Y-85811281D01*
X134776415Y-85951370D01*
X134826540Y-85982076D01*
X134894519Y-85907408D01*
X134914429Y-85779151D01*
X134847285Y-85496540D01*
X134667735Y-85312463D01*
X134408601Y-85226422D01*
X134102706Y-85237921D01*
X133782872Y-85346466D01*
X133481922Y-85551559D01*
X133263692Y-85804097D01*
X133119161Y-86142228D01*
X132917351Y-86142228D01*
X132967049Y-85880840D01*
X133165688Y-85520007D01*
X133455582Y-85209796D01*
X133802075Y-84979150D01*
X134170508Y-84857014D01*
X134526227Y-84872331D01*
X134551074Y-84879716D01*
X134634998Y-84896878D01*
X134666235Y-84859634D01*
X134640437Y-84738501D01*
X134553254Y-84503997D01*
X134462451Y-84278879D01*
X134259186Y-83853369D01*
X134035965Y-83574373D01*
X133751819Y-83413888D01*
X133365781Y-83343909D01*
X133079805Y-83333760D01*
X132627193Y-83378126D01*
X132076060Y-83503229D01*
X131472562Y-83691510D01*
X130862857Y-83925409D01*
X130293101Y-84187366D01*
X129809450Y-84459823D01*
X129483080Y-84702069D01*
X129210288Y-85002727D01*
X128965641Y-85368043D01*
X128779413Y-85743176D01*
X128681874Y-86073283D01*
X128674291Y-86167281D01*
X128702776Y-86378310D01*
X128777349Y-86694860D01*
X128881683Y-87058127D01*
X128999449Y-87409309D01*
X129068215Y-87586055D01*
X129084835Y-87685025D01*
X128999057Y-87729670D01*
X128782633Y-87739861D01*
X128466341Y-87708250D01*
X128126386Y-87630046D01*
X128059066Y-87608028D01*
X127747801Y-87509702D01*
X127552951Y-87487652D01*
X127431145Y-87544896D01*
X127353193Y-87657127D01*
X127295210Y-87947041D01*
X127123113Y-87947041D01*
X127126505Y-87808587D01*
X127169219Y-87465509D01*
X127173488Y-87238708D01*
X127131749Y-87071419D01*
X127036437Y-86906873D01*
X126999278Y-86853783D01*
X126778337Y-86421913D01*
X126631737Y-85881604D01*
X126565054Y-85286189D01*
X126572865Y-85038216D01*
X126769295Y-85038216D01*
X126821111Y-85728387D01*
X126828973Y-85767744D01*
X126942597Y-86221855D01*
X127082653Y-86558738D01*
X127277066Y-86836934D01*
X127403720Y-86972657D01*
X127580997Y-87137249D01*
X127681903Y-87207081D01*
X127687487Y-87173674D01*
X127608409Y-87064236D01*
X127535822Y-86960125D01*
X127597944Y-86964328D01*
X127663564Y-86991297D01*
X127862553Y-87048193D01*
X128138378Y-87095860D01*
X128213530Y-87104544D01*
X128445120Y-87118544D01*
X128540209Y-87089539D01*
X128535265Y-87005816D01*
X128533711Y-87001705D01*
X128413464Y-86893082D01*
X128265021Y-86860969D01*
X127915725Y-86781978D01*
X127559620Y-86563094D01*
X127318864Y-86325754D01*
X127159588Y-86118400D01*
X127121090Y-86026986D01*
X127192319Y-86051179D01*
X127362224Y-86190646D01*
X127508896Y-86331479D01*
X127795938Y-86575100D01*
X128038351Y-86678539D01*
X128114643Y-86685033D01*
X128259469Y-86675203D01*
X128335825Y-86617002D01*
X128367560Y-86467008D01*
X128377968Y-86205620D01*
X128432012Y-85798464D01*
X128585863Y-85399254D01*
X128856981Y-84972757D01*
X129191787Y-84563473D01*
X129551226Y-84155597D01*
X129247675Y-84098650D01*
X128993888Y-84033279D01*
X128910441Y-83973869D01*
X128992047Y-83933722D01*
X129233420Y-83926137D01*
X129314450Y-83930633D01*
X129772906Y-83962161D01*
X129433877Y-83830889D01*
X129127950Y-83695454D01*
X128842839Y-83540658D01*
X128621275Y-83392857D01*
X128505990Y-83278409D01*
X128498512Y-83253971D01*
X128565058Y-83254254D01*
X128737674Y-83333593D01*
X128928166Y-83443967D01*
X129241598Y-83606336D01*
X129567003Y-83725726D01*
X129722384Y-83759953D01*
X130086948Y-83808851D01*
X129764402Y-83486306D01*
X129592750Y-83295744D01*
X129499987Y-83154464D01*
X129496289Y-83109328D01*
X129580040Y-83133176D01*
X129713843Y-83263030D01*
X129734547Y-83288591D01*
X129968661Y-83538401D01*
X130184622Y-83638358D01*
X130429646Y-83601780D01*
X130590512Y-83530024D01*
X130899315Y-83355326D01*
X131049034Y-83213702D01*
X131046752Y-83080892D01*
X130899551Y-82932632D01*
X130787751Y-82854300D01*
X130339240Y-82645753D01*
X129990469Y-82574048D01*
X129723262Y-82530288D01*
X129578957Y-82472725D01*
X129570992Y-82418483D01*
X129712801Y-82384688D01*
X129838823Y-82380764D01*
X130416934Y-82453083D01*
X130978994Y-82643905D01*
X131237479Y-82783207D01*
X131516157Y-82929599D01*
X131751044Y-82969912D01*
X131892847Y-82953707D01*
X132107028Y-82869067D01*
X132190291Y-82708445D01*
X132145667Y-82453834D01*
X132023557Y-82177476D01*
X131937954Y-81978274D01*
X131919237Y-81862853D01*
X131933411Y-81851280D01*
X132027559Y-81927171D01*
X132142542Y-82120122D01*
X132251347Y-82378054D01*
X132312468Y-82582072D01*
X132389374Y-82761640D01*
X132525854Y-82805944D01*
X132566497Y-82801796D01*
X132739144Y-82711971D01*
X132788597Y-82535816D01*
X132713657Y-82313557D01*
X132585904Y-82151443D01*
X132447291Y-81991933D01*
X132394811Y-81887695D01*
X132398931Y-81876582D01*
X132494504Y-81883224D01*
X132626340Y-82003300D01*
X132759706Y-82189438D01*
X132859869Y-82394269D01*
X132892976Y-82550399D01*
X132929971Y-82758504D01*
X133017621Y-82818062D01*
X133210892Y-82848893D01*
X133281289Y-82871410D01*
X133383364Y-82850108D01*
X133423180Y-82724409D01*
X133399857Y-82554630D01*
X133312516Y-82401087D01*
X133288477Y-82378616D01*
X133178781Y-82240738D01*
X133159421Y-82170103D01*
X133198843Y-82133625D01*
X133291078Y-82210482D01*
X133406077Y-82358987D01*
X133513793Y-82537453D01*
X133584177Y-82704191D01*
X133596090Y-82775926D01*
X133672198Y-82992922D01*
X133779396Y-83085759D01*
X133948213Y-83150117D01*
X134006852Y-83094117D01*
X133960907Y-82906628D01*
X133920178Y-82805589D01*
X133740326Y-82495016D01*
X133471995Y-82235078D01*
X133080113Y-81995491D01*
X132857044Y-81887588D01*
X132162100Y-81665235D01*
X131403064Y-81601708D01*
X130589236Y-81696111D01*
X129729918Y-81947547D01*
X129024063Y-82257096D01*
X128243460Y-82715177D01*
X127626023Y-83224983D01*
X127173410Y-83783861D01*
X126887281Y-84389156D01*
X126769295Y-85038216D01*
X126572865Y-85038216D01*
X126583866Y-84688997D01*
X126693748Y-84143362D01*
X126710509Y-84092074D01*
X126873549Y-83768903D01*
X127141508Y-83399070D01*
X127472237Y-83032192D01*
X127823586Y-82717883D01*
X127965874Y-82614348D01*
X128106362Y-82495475D01*
X128101909Y-82412161D01*
X127941691Y-82353160D01*
X127676647Y-82313920D01*
X127353868Y-82312120D01*
X127026508Y-82396522D01*
X126815385Y-82485083D01*
X126553121Y-82599633D01*
X126357530Y-82674887D01*
X126284189Y-82693279D01*
X126157752Y-82751981D01*
X125975537Y-82921219D01*
X125771672Y-83160482D01*
X125580283Y-83429258D01*
X125435496Y-83687035D01*
X125422470Y-83716244D01*
X125217799Y-84410756D01*
X125178194Y-85147425D01*
X125032070Y-85147425D01*
X125031173Y-84971349D01*
X125036724Y-84520271D01*
X125056505Y-84196659D01*
X125097928Y-83952336D01*
X125168405Y-83739121D01*
X125247480Y-83565121D01*
X125556646Y-83079588D01*
X125967705Y-82648597D01*
X126387026Y-82334671D01*
X126740727Y-82334671D01*
X126784671Y-82378616D01*
X126828616Y-82334671D01*
X126784671Y-82290727D01*
X126740727Y-82334671D01*
X126387026Y-82334671D01*
X126449941Y-82287570D01*
X126527285Y-82246782D01*
X126916505Y-82246782D01*
X126960450Y-82290727D01*
X127004394Y-82246782D01*
X126960450Y-82202837D01*
X126916505Y-82246782D01*
X126527285Y-82246782D01*
X126632383Y-82191358D01*
X127093189Y-82191358D01*
X127188254Y-82198892D01*
X127377924Y-82173797D01*
X127661232Y-82172635D01*
X127957133Y-82236268D01*
X127971176Y-82241419D01*
X128203200Y-82327299D01*
X128332499Y-82355775D01*
X128422053Y-82328105D01*
X128525636Y-82252503D01*
X128614090Y-82169082D01*
X128582587Y-82109759D01*
X128408067Y-82040799D01*
X128372918Y-82029118D01*
X128101249Y-81973087D01*
X127790329Y-81988522D01*
X127576762Y-82026833D01*
X127303398Y-82093536D01*
X127136888Y-82152309D01*
X127093189Y-82191358D01*
X126632383Y-82191358D01*
X126972635Y-82011926D01*
X127505070Y-81837087D01*
X128016531Y-81778474D01*
X128476300Y-81851507D01*
X128579746Y-81892224D01*
X128767870Y-81970571D01*
X128917294Y-81997895D01*
X129086972Y-81969875D01*
X129335857Y-81882191D01*
X129478669Y-81826344D01*
X129854409Y-81680878D01*
X130130914Y-81584572D01*
X130371692Y-81520154D01*
X130640248Y-81470349D01*
X130959412Y-81423569D01*
X131708292Y-81394673D01*
X132445301Y-81508299D01*
X132922855Y-81669473D01*
X133247504Y-81844882D01*
X133572021Y-82079710D01*
X133851227Y-82335053D01*
X134039940Y-82572010D01*
X134086138Y-82671093D01*
X134137586Y-82823870D01*
X134236142Y-83103285D01*
X134368148Y-83471036D01*
X134519944Y-83888818D01*
X134536874Y-83935120D01*
X134725014Y-84427426D01*
X134875071Y-84767597D01*
X134995708Y-84972945D01*
X135095585Y-85060786D01*
X135100897Y-85062631D01*
X135218702Y-85144334D01*
X135258050Y-85320088D01*
X135256109Y-85439691D01*
X135273314Y-85712526D01*
X135335119Y-86052136D01*
X135384791Y-86239724D01*
X135498704Y-86749039D01*
X135511983Y-87238964D01*
X135421563Y-87765934D01*
X135276011Y-88242047D01*
X135007222Y-88900800D01*
X134698738Y-89461293D01*
X134368661Y-89893366D01*
X134179149Y-90069560D01*
X133903702Y-90286701D01*
X134167370Y-90286476D01*
X134391889Y-90280446D01*
X134569433Y-90248457D01*
X134719892Y-90169000D01*
X134863156Y-90020569D01*
X135019114Y-89781657D01*
X135207654Y-89430759D01*
X135448666Y-88946366D01*
X135495975Y-88849834D01*
X136144879Y-87524778D01*
X136144879Y-86138202D01*
X136150296Y-85582943D01*
X136165955Y-85158084D01*
X136190965Y-84877678D01*
X136224434Y-84755778D01*
X136232768Y-84751626D01*
X136285356Y-84673110D01*
X136316756Y-84474615D01*
X136320657Y-84359217D01*
X136299275Y-84084676D01*
X136222402Y-83929197D01*
X136145166Y-83872887D01*
X135995779Y-83737269D01*
X135837344Y-83513559D01*
X135795083Y-83436739D01*
X135646155Y-83210602D01*
X135485017Y-83059271D01*
X135438240Y-83036667D01*
X135303642Y-82929805D01*
X135302202Y-82869278D01*
X135547919Y-82869278D01*
X135634229Y-83017695D01*
X135670389Y-83059758D01*
X136016462Y-83448613D01*
X136258674Y-83735171D01*
X136413587Y-83945188D01*
X136497761Y-84104417D01*
X136527755Y-84238612D01*
X136520131Y-84373529D01*
X136519201Y-84379818D01*
X136501512Y-84573225D01*
X136560669Y-84645697D01*
X136743157Y-84645746D01*
X136771848Y-84643486D01*
X136976826Y-84605322D01*
X137077362Y-84496933D01*
X137125549Y-84312180D01*
X137229206Y-83910013D01*
X137389823Y-83452560D01*
X137580849Y-83005043D01*
X137775730Y-82632686D01*
X137864022Y-82498198D01*
X138112821Y-82158893D01*
X137745688Y-82504739D01*
X137541549Y-82684145D01*
X137391080Y-82792501D01*
X137336549Y-82808579D01*
X137339414Y-82709913D01*
X137387448Y-82491945D01*
X137469046Y-82205893D01*
X137567644Y-81858051D01*
X137610473Y-81641371D01*
X137601261Y-81564972D01*
X137543736Y-81637977D01*
X137441626Y-81869506D01*
X137388778Y-82009521D01*
X137246095Y-82370811D01*
X137142501Y-82561108D01*
X137076131Y-82579945D01*
X137045116Y-82426856D01*
X137047592Y-82101374D01*
X137057296Y-81926625D01*
X137104545Y-81192111D01*
X136970270Y-81763391D01*
X136895934Y-82073456D01*
X136833532Y-82322740D01*
X136798671Y-82450103D01*
X136733568Y-82538527D01*
X136658614Y-82474647D01*
X136587615Y-82280339D01*
X136542811Y-82044730D01*
X136488235Y-81715952D01*
X136440625Y-81560347D01*
X136402426Y-81575367D01*
X136376082Y-81758464D01*
X136364039Y-82107092D01*
X136363559Y-82231515D01*
X136366109Y-82611512D01*
X136379306Y-82853724D01*
X136413263Y-82996141D01*
X136478094Y-83076756D01*
X136583912Y-83133561D01*
X136606297Y-83143404D01*
X136778148Y-83247495D01*
X136847993Y-83346139D01*
X136789961Y-83378487D01*
X136652659Y-83306437D01*
X136452905Y-83202268D01*
X136312954Y-83169619D01*
X136145136Y-83117882D01*
X135945118Y-82993841D01*
X135727327Y-82851601D01*
X135586940Y-82811997D01*
X135547919Y-82869278D01*
X135302202Y-82869278D01*
X135300194Y-82784884D01*
X135420951Y-82672602D01*
X135475567Y-82656737D01*
X135652077Y-82685251D01*
X135869591Y-82796484D01*
X135898941Y-82817273D01*
X136082145Y-82927747D01*
X136204884Y-82956774D01*
X136217705Y-82949699D01*
X136240699Y-82841195D01*
X136253834Y-82598957D01*
X136255550Y-82264833D01*
X136251025Y-82055907D01*
X136241962Y-81668187D01*
X136247009Y-81425116D01*
X136271069Y-81295805D01*
X136319046Y-81249366D01*
X136378756Y-81251281D01*
X136510544Y-81362189D01*
X136621974Y-81628092D01*
X136635086Y-81675915D01*
X136737997Y-82071003D01*
X136803934Y-81699312D01*
X136894355Y-81362685D01*
X137009525Y-81149897D01*
X137126317Y-81067074D01*
X137221608Y-81120342D01*
G36*
X144102537Y-90033596D02*
X144394737Y-90066758D01*
X144648375Y-90139724D01*
X144931871Y-90266634D01*
X144977751Y-90289468D01*
X145297829Y-90455228D01*
X145593946Y-90617455D01*
X145768754Y-90720637D01*
X146032422Y-90887460D01*
X146691592Y-90570525D01*
X147020806Y-90418941D01*
X147282115Y-90324883D01*
X147540241Y-90274430D01*
X147859908Y-90253659D01*
X148185709Y-90249148D01*
X148603684Y-90253023D01*
X148904111Y-90276793D01*
X149144959Y-90330756D01*
X149384199Y-90425211D01*
X149507324Y-90483939D01*
X150141774Y-90867696D01*
X150630401Y-91329440D01*
X150992159Y-91886402D01*
X151148421Y-92234456D01*
X151230338Y-92537546D01*
X151259254Y-92888051D01*
X151260791Y-93049228D01*
X151241409Y-93450369D01*
X151192143Y-93859954D01*
X151136827Y-94134129D01*
X151078605Y-94398570D01*
X151076968Y-94531917D01*
X151105908Y-94539010D01*
X151215292Y-94462077D01*
X151424783Y-94307805D01*
X151694741Y-94105479D01*
X151779180Y-94041617D01*
X152252845Y-93713039D01*
X152727810Y-93437709D01*
X153167120Y-93233770D01*
X153533822Y-93119369D01*
X153694483Y-93101176D01*
X153986263Y-93164125D01*
X154184708Y-93331491D01*
X154250069Y-93546831D01*
X154183248Y-93680538D01*
X154013385Y-93715115D01*
X153786383Y-93644780D01*
X153729668Y-93612377D01*
X153529126Y-93586062D01*
X153221352Y-93680021D01*
X152819847Y-93886774D01*
X152338112Y-94198839D01*
X151789648Y-94608735D01*
X151484437Y-94856495D01*
X151038480Y-95239270D01*
X150695115Y-95566506D01*
X150412686Y-95883114D01*
X150149536Y-96234007D01*
X149995034Y-96462270D01*
X149743059Y-96810365D01*
X149406334Y-97227297D01*
X149013499Y-97682152D01*
X148593191Y-98144017D01*
X148174048Y-98581977D01*
X147784709Y-98965119D01*
X147453811Y-99262529D01*
X147267755Y-99406273D01*
X147108225Y-99528125D01*
X147052536Y-99641953D01*
X147080572Y-99818902D01*
X147116291Y-99941906D01*
X147294892Y-100351300D01*
X147573231Y-100673678D01*
X147980771Y-100937681D01*
X148278115Y-101071390D01*
X148600782Y-101209496D01*
X148797965Y-101323583D01*
X148910703Y-101445917D01*
X148980037Y-101608765D01*
X148985992Y-101627955D01*
X149053085Y-101973280D01*
X149037504Y-102258380D01*
X148945197Y-102443953D01*
X148855410Y-102491183D01*
X148674797Y-102458697D01*
X148570223Y-102274563D01*
X148538612Y-101967728D01*
X148528553Y-101790557D01*
X148474549Y-101675908D01*
X148338047Y-101586099D01*
X148080499Y-101483448D01*
X148020836Y-101461620D01*
X147700915Y-101328918D01*
X147415144Y-101183285D01*
X147271325Y-101089978D01*
X147079807Y-100888176D01*
X146893945Y-100612296D01*
X146751882Y-100328014D01*
X146691763Y-100101005D01*
X146691592Y-100091806D01*
X146652731Y-99978251D01*
X146525538Y-99981178D01*
X146294092Y-100103231D01*
X146183136Y-100176194D01*
X145855162Y-100346955D01*
X145542154Y-100383395D01*
X145205233Y-100282009D01*
X144826251Y-100053894D01*
X144337998Y-99711872D01*
X144289464Y-100031922D01*
X144279131Y-100449233D01*
X144352502Y-100886021D01*
X144493604Y-101257262D01*
X144531588Y-101320838D01*
X144682143Y-101514785D01*
X144901040Y-101757375D01*
X145035464Y-101893210D01*
X145326241Y-102271829D01*
X145450147Y-102674213D01*
X145403095Y-103085664D01*
X145382901Y-103142457D01*
X145254951Y-103317571D01*
X145081953Y-103389203D01*
X144925021Y-103338604D01*
X144888542Y-103294127D01*
X144859405Y-103156620D01*
X144852477Y-102918523D01*
X144856687Y-102817336D01*
X144856855Y-102583546D01*
X144804121Y-102402216D01*
X144670541Y-102209262D01*
X144515295Y-102034401D01*
X144114881Y-101484347D01*
X143883743Y-100887458D01*
X143822416Y-100245562D01*
X143869890Y-99825872D01*
X143952078Y-99387661D01*
X143454188Y-98834907D01*
X142886244Y-98169234D01*
X142354929Y-97479594D01*
X141892985Y-96810829D01*
X141533154Y-96207783D01*
X141525476Y-96193423D01*
X141272212Y-95764829D01*
X141001598Y-95424831D01*
X140650354Y-95096433D01*
X140566819Y-95026976D01*
X139903605Y-94511319D01*
X139343136Y-94136798D01*
X138884180Y-93902820D01*
X138525509Y-93808791D01*
X138265890Y-93854116D01*
X138212140Y-93890564D01*
X138039545Y-93958887D01*
X137947728Y-93948646D01*
X137831011Y-93829941D01*
X137835712Y-93650176D01*
X137952869Y-93466187D01*
X138034110Y-93400892D01*
X138335352Y-93307002D01*
X138729635Y-93353107D01*
X139208106Y-93535965D01*
X139761914Y-93852339D01*
X140287845Y-94225783D01*
X140846955Y-94654317D01*
X140851931Y-93549884D01*
X141422766Y-93549884D01*
X141484796Y-94244497D01*
X141542274Y-94509533D01*
X141782129Y-95233531D01*
X142140386Y-96010706D01*
X142593072Y-96791148D01*
X142756251Y-97036768D01*
X143026838Y-97398623D01*
X143369013Y-97808319D01*
X143755394Y-98237783D01*
X144158600Y-98658941D01*
X144551249Y-99043718D01*
X144905959Y-99364041D01*
X145195348Y-99591836D01*
X145327556Y-99673086D01*
X145677361Y-99849202D01*
X146074615Y-99579182D01*
X146333164Y-99393917D01*
X146664968Y-99143106D01*
X147008221Y-98873703D01*
X147090421Y-98807458D01*
X147957094Y-98036989D01*
X148735462Y-97209446D01*
X149409036Y-96347705D01*
X149961329Y-95474639D01*
X150375851Y-94613125D01*
X150599276Y-93939562D01*
X150700237Y-93469564D01*
X150726059Y-93084156D01*
X150677034Y-92709157D01*
X150605189Y-92435917D01*
X150367970Y-91909856D01*
X149992450Y-91476003D01*
X149466840Y-91121316D01*
X149374217Y-91074082D01*
X149065715Y-90931039D01*
X148820910Y-90851646D01*
X148566228Y-90821623D01*
X148228094Y-90826690D01*
X148124923Y-90831614D01*
X147685751Y-90871162D01*
X147329848Y-90953478D01*
X146965815Y-91101637D01*
X146868679Y-91148765D01*
X146443150Y-91335546D01*
X146105673Y-91413464D01*
X145805823Y-91381925D01*
X145493176Y-91240335D01*
X145319911Y-91130523D01*
X144826287Y-90830545D01*
X144394644Y-90647557D01*
X143974745Y-90563254D01*
X143733066Y-90552318D01*
X143189991Y-90634400D01*
X142698636Y-90866708D01*
X142270575Y-91228334D01*
X141917383Y-91698372D01*
X141650634Y-92255914D01*
X141481904Y-92880054D01*
X141422766Y-93549884D01*
X140851931Y-93549884D01*
X140851939Y-93548127D01*
X140859252Y-93045599D01*
X140879645Y-92673848D01*
X140918679Y-92388038D01*
X140981915Y-92143328D01*
X141049064Y-91958547D01*
X141397379Y-91289240D01*
X141857375Y-90739608D01*
X142413991Y-90327546D01*
X142428962Y-90319191D01*
X142710347Y-90172515D01*
X142943699Y-90085018D01*
X143194682Y-90041597D01*
X143528965Y-90027152D01*
X143703356Y-90026100D01*
X144102537Y-90033596D01*
X144102537Y-90033596D01*
G37*
X144102537Y-90033596D02*
X144394737Y-90066758D01*
X144648375Y-90139724D01*
X144931871Y-90266634D01*
X144977751Y-90289468D01*
X145297829Y-90455228D01*
X145593946Y-90617455D01*
X145768754Y-90720637D01*
X146032422Y-90887460D01*
X146691592Y-90570525D01*
X147020806Y-90418941D01*
X147282115Y-90324883D01*
X147540241Y-90274430D01*
X147859908Y-90253659D01*
X148185709Y-90249148D01*
X148603684Y-90253023D01*
X148904111Y-90276793D01*
X149144959Y-90330756D01*
X149384199Y-90425211D01*
X149507324Y-90483939D01*
X150141774Y-90867696D01*
X150630401Y-91329440D01*
X150992159Y-91886402D01*
X151148421Y-92234456D01*
X151230338Y-92537546D01*
X151259254Y-92888051D01*
X151260791Y-93049228D01*
X151241409Y-93450369D01*
X151192143Y-93859954D01*
X151136827Y-94134129D01*
X151078605Y-94398570D01*
X151076968Y-94531917D01*
X151105908Y-94539010D01*
X151215292Y-94462077D01*
X151424783Y-94307805D01*
X151694741Y-94105479D01*
X151779180Y-94041617D01*
X152252845Y-93713039D01*
X152727810Y-93437709D01*
X153167120Y-93233770D01*
X153533822Y-93119369D01*
X153694483Y-93101176D01*
X153986263Y-93164125D01*
X154184708Y-93331491D01*
X154250069Y-93546831D01*
X154183248Y-93680538D01*
X154013385Y-93715115D01*
X153786383Y-93644780D01*
X153729668Y-93612377D01*
X153529126Y-93586062D01*
X153221352Y-93680021D01*
X152819847Y-93886774D01*
X152338112Y-94198839D01*
X151789648Y-94608735D01*
X151484437Y-94856495D01*
X151038480Y-95239270D01*
X150695115Y-95566506D01*
X150412686Y-95883114D01*
X150149536Y-96234007D01*
X149995034Y-96462270D01*
X149743059Y-96810365D01*
X149406334Y-97227297D01*
X149013499Y-97682152D01*
X148593191Y-98144017D01*
X148174048Y-98581977D01*
X147784709Y-98965119D01*
X147453811Y-99262529D01*
X147267755Y-99406273D01*
X147108225Y-99528125D01*
X147052536Y-99641953D01*
X147080572Y-99818902D01*
X147116291Y-99941906D01*
X147294892Y-100351300D01*
X147573231Y-100673678D01*
X147980771Y-100937681D01*
X148278115Y-101071390D01*
X148600782Y-101209496D01*
X148797965Y-101323583D01*
X148910703Y-101445917D01*
X148980037Y-101608765D01*
X148985992Y-101627955D01*
X149053085Y-101973280D01*
X149037504Y-102258380D01*
X148945197Y-102443953D01*
X148855410Y-102491183D01*
X148674797Y-102458697D01*
X148570223Y-102274563D01*
X148538612Y-101967728D01*
X148528553Y-101790557D01*
X148474549Y-101675908D01*
X148338047Y-101586099D01*
X148080499Y-101483448D01*
X148020836Y-101461620D01*
X147700915Y-101328918D01*
X147415144Y-101183285D01*
X147271325Y-101089978D01*
X147079807Y-100888176D01*
X146893945Y-100612296D01*
X146751882Y-100328014D01*
X146691763Y-100101005D01*
X146691592Y-100091806D01*
X146652731Y-99978251D01*
X146525538Y-99981178D01*
X146294092Y-100103231D01*
X146183136Y-100176194D01*
X145855162Y-100346955D01*
X145542154Y-100383395D01*
X145205233Y-100282009D01*
X144826251Y-100053894D01*
X144337998Y-99711872D01*
X144289464Y-100031922D01*
X144279131Y-100449233D01*
X144352502Y-100886021D01*
X144493604Y-101257262D01*
X144531588Y-101320838D01*
X144682143Y-101514785D01*
X144901040Y-101757375D01*
X145035464Y-101893210D01*
X145326241Y-102271829D01*
X145450147Y-102674213D01*
X145403095Y-103085664D01*
X145382901Y-103142457D01*
X145254951Y-103317571D01*
X145081953Y-103389203D01*
X144925021Y-103338604D01*
X144888542Y-103294127D01*
X144859405Y-103156620D01*
X144852477Y-102918523D01*
X144856687Y-102817336D01*
X144856855Y-102583546D01*
X144804121Y-102402216D01*
X144670541Y-102209262D01*
X144515295Y-102034401D01*
X144114881Y-101484347D01*
X143883743Y-100887458D01*
X143822416Y-100245562D01*
X143869890Y-99825872D01*
X143952078Y-99387661D01*
X143454188Y-98834907D01*
X142886244Y-98169234D01*
X142354929Y-97479594D01*
X141892985Y-96810829D01*
X141533154Y-96207783D01*
X141525476Y-96193423D01*
X141272212Y-95764829D01*
X141001598Y-95424831D01*
X140650354Y-95096433D01*
X140566819Y-95026976D01*
X139903605Y-94511319D01*
X139343136Y-94136798D01*
X138884180Y-93902820D01*
X138525509Y-93808791D01*
X138265890Y-93854116D01*
X138212140Y-93890564D01*
X138039545Y-93958887D01*
X137947728Y-93948646D01*
X137831011Y-93829941D01*
X137835712Y-93650176D01*
X137952869Y-93466187D01*
X138034110Y-93400892D01*
X138335352Y-93307002D01*
X138729635Y-93353107D01*
X139208106Y-93535965D01*
X139761914Y-93852339D01*
X140287845Y-94225783D01*
X140846955Y-94654317D01*
X140851931Y-93549884D01*
X141422766Y-93549884D01*
X141484796Y-94244497D01*
X141542274Y-94509533D01*
X141782129Y-95233531D01*
X142140386Y-96010706D01*
X142593072Y-96791148D01*
X142756251Y-97036768D01*
X143026838Y-97398623D01*
X143369013Y-97808319D01*
X143755394Y-98237783D01*
X144158600Y-98658941D01*
X144551249Y-99043718D01*
X144905959Y-99364041D01*
X145195348Y-99591836D01*
X145327556Y-99673086D01*
X145677361Y-99849202D01*
X146074615Y-99579182D01*
X146333164Y-99393917D01*
X146664968Y-99143106D01*
X147008221Y-98873703D01*
X147090421Y-98807458D01*
X147957094Y-98036989D01*
X148735462Y-97209446D01*
X149409036Y-96347705D01*
X149961329Y-95474639D01*
X150375851Y-94613125D01*
X150599276Y-93939562D01*
X150700237Y-93469564D01*
X150726059Y-93084156D01*
X150677034Y-92709157D01*
X150605189Y-92435917D01*
X150367970Y-91909856D01*
X149992450Y-91476003D01*
X149466840Y-91121316D01*
X149374217Y-91074082D01*
X149065715Y-90931039D01*
X148820910Y-90851646D01*
X148566228Y-90821623D01*
X148228094Y-90826690D01*
X148124923Y-90831614D01*
X147685751Y-90871162D01*
X147329848Y-90953478D01*
X146965815Y-91101637D01*
X146868679Y-91148765D01*
X146443150Y-91335546D01*
X146105673Y-91413464D01*
X145805823Y-91381925D01*
X145493176Y-91240335D01*
X145319911Y-91130523D01*
X144826287Y-90830545D01*
X144394644Y-90647557D01*
X143974745Y-90563254D01*
X143733066Y-90552318D01*
X143189991Y-90634400D01*
X142698636Y-90866708D01*
X142270575Y-91228334D01*
X141917383Y-91698372D01*
X141650634Y-92255914D01*
X141481904Y-92880054D01*
X141422766Y-93549884D01*
X140851931Y-93549884D01*
X140851939Y-93548127D01*
X140859252Y-93045599D01*
X140879645Y-92673848D01*
X140918679Y-92388038D01*
X140981915Y-92143328D01*
X141049064Y-91958547D01*
X141397379Y-91289240D01*
X141857375Y-90739608D01*
X142413991Y-90327546D01*
X142428962Y-90319191D01*
X142710347Y-90172515D01*
X142943699Y-90085018D01*
X143194682Y-90041597D01*
X143528965Y-90027152D01*
X143703356Y-90026100D01*
X144102537Y-90033596D01*
G36*
X134373773Y-87796504D02*
X134345046Y-87891989D01*
X134303652Y-88061377D01*
X134261271Y-88337518D01*
X134235341Y-88574810D01*
X134184914Y-88971724D01*
X134105072Y-89235095D01*
X133973713Y-89407005D01*
X133768736Y-89529539D01*
X133723672Y-89549032D01*
X133250410Y-89659258D01*
X132756755Y-89599062D01*
X132540511Y-89519619D01*
X132981039Y-89519619D01*
X133054209Y-89577759D01*
X133241914Y-89574236D01*
X133495731Y-89513285D01*
X133632128Y-89462670D01*
X133871041Y-89335037D01*
X134011226Y-89204502D01*
X134020268Y-89101806D01*
X134016693Y-89097950D01*
X133919468Y-89105396D01*
X133719188Y-89167820D01*
X133470546Y-89262955D01*
X133228233Y-89368533D01*
X133046942Y-89462285D01*
X132981039Y-89519619D01*
X132540511Y-89519619D01*
X132487611Y-89500185D01*
X132175704Y-89345995D01*
X131845320Y-89160651D01*
X131764271Y-89110892D01*
X131477185Y-88945157D01*
X131313560Y-88891665D01*
X131262940Y-88948797D01*
X131282718Y-89036228D01*
X131305202Y-89137972D01*
X131233740Y-89093999D01*
X131216018Y-89077754D01*
X131155744Y-88924519D01*
X131180902Y-88862528D01*
X132101972Y-88862528D01*
X132177765Y-88892029D01*
X132376297Y-88873489D01*
X132654296Y-88816651D01*
X132968492Y-88731258D01*
X133275615Y-88627053D01*
X133429453Y-88563633D01*
X133743447Y-88408519D01*
X133972134Y-88268040D01*
X134093840Y-88159057D01*
X134086890Y-88098432D01*
X134036478Y-88091419D01*
X133914129Y-88121699D01*
X133679137Y-88202109D01*
X133370767Y-88316996D01*
X133028280Y-88450712D01*
X132690937Y-88587605D01*
X132398001Y-88712027D01*
X132188734Y-88808325D01*
X132102398Y-88860852D01*
X132101972Y-88862528D01*
X131180902Y-88862528D01*
X131223453Y-88757685D01*
X131390554Y-88643544D01*
X131405137Y-88639267D01*
X131480220Y-88630899D01*
X131410500Y-88698158D01*
X131398858Y-88707202D01*
X131343059Y-88780525D01*
X131426925Y-88798740D01*
X131625860Y-88769329D01*
X131915272Y-88699774D01*
X132270568Y-88597559D01*
X132667153Y-88470166D01*
X133080433Y-88325077D01*
X133485817Y-88169774D01*
X133858708Y-88011740D01*
X134155445Y-87868529D01*
X134323527Y-87787185D01*
X134373773Y-87796504D01*
X134373773Y-87796504D01*
G37*
X134373773Y-87796504D02*
X134345046Y-87891989D01*
X134303652Y-88061377D01*
X134261271Y-88337518D01*
X134235341Y-88574810D01*
X134184914Y-88971724D01*
X134105072Y-89235095D01*
X133973713Y-89407005D01*
X133768736Y-89529539D01*
X133723672Y-89549032D01*
X133250410Y-89659258D01*
X132756755Y-89599062D01*
X132540511Y-89519619D01*
X132981039Y-89519619D01*
X133054209Y-89577759D01*
X133241914Y-89574236D01*
X133495731Y-89513285D01*
X133632128Y-89462670D01*
X133871041Y-89335037D01*
X134011226Y-89204502D01*
X134020268Y-89101806D01*
X134016693Y-89097950D01*
X133919468Y-89105396D01*
X133719188Y-89167820D01*
X133470546Y-89262955D01*
X133228233Y-89368533D01*
X133046942Y-89462285D01*
X132981039Y-89519619D01*
X132540511Y-89519619D01*
X132487611Y-89500185D01*
X132175704Y-89345995D01*
X131845320Y-89160651D01*
X131764271Y-89110892D01*
X131477185Y-88945157D01*
X131313560Y-88891665D01*
X131262940Y-88948797D01*
X131282718Y-89036228D01*
X131305202Y-89137972D01*
X131233740Y-89093999D01*
X131216018Y-89077754D01*
X131155744Y-88924519D01*
X131180902Y-88862528D01*
X132101972Y-88862528D01*
X132177765Y-88892029D01*
X132376297Y-88873489D01*
X132654296Y-88816651D01*
X132968492Y-88731258D01*
X133275615Y-88627053D01*
X133429453Y-88563633D01*
X133743447Y-88408519D01*
X133972134Y-88268040D01*
X134093840Y-88159057D01*
X134086890Y-88098432D01*
X134036478Y-88091419D01*
X133914129Y-88121699D01*
X133679137Y-88202109D01*
X133370767Y-88316996D01*
X133028280Y-88450712D01*
X132690937Y-88587605D01*
X132398001Y-88712027D01*
X132188734Y-88808325D01*
X132102398Y-88860852D01*
X132101972Y-88862528D01*
X131180902Y-88862528D01*
X131223453Y-88757685D01*
X131390554Y-88643544D01*
X131405137Y-88639267D01*
X131480220Y-88630899D01*
X131410500Y-88698158D01*
X131398858Y-88707202D01*
X131343059Y-88780525D01*
X131426925Y-88798740D01*
X131625860Y-88769329D01*
X131915272Y-88699774D01*
X132270568Y-88597559D01*
X132667153Y-88470166D01*
X133080433Y-88325077D01*
X133485817Y-88169774D01*
X133858708Y-88011740D01*
X134155445Y-87868529D01*
X134323527Y-87787185D01*
X134373773Y-87796504D01*
G36*
X131374751Y-86260022D02*
X131743604Y-86381242D01*
X132029650Y-86572496D01*
X132204208Y-86819183D01*
X132238595Y-87106702D01*
X132227196Y-87163628D01*
X132177174Y-87298789D01*
X132082627Y-87388408D01*
X131902528Y-87453984D01*
X131595847Y-87517016D01*
X131530692Y-87528582D01*
X131238524Y-87594650D01*
X130886208Y-87694102D01*
X130703957Y-87752991D01*
X130325936Y-87867732D01*
X130050145Y-87905027D01*
X129820724Y-87864273D01*
X129581810Y-87744870D01*
X129575156Y-87740825D01*
X129380494Y-87605226D01*
X129307267Y-87478523D01*
X129307421Y-87477910D01*
X129873766Y-87477910D01*
X129895398Y-87534731D01*
X129987984Y-87684197D01*
X130120233Y-87730363D01*
X130314256Y-87710668D01*
X130535410Y-87664399D01*
X130669870Y-87617065D01*
X130678802Y-87610321D01*
X130669934Y-87516839D01*
X130623968Y-87457151D01*
X130527460Y-87246466D01*
X130564284Y-86992977D01*
X130709652Y-86992977D01*
X130769059Y-87137202D01*
X130907218Y-87199247D01*
X130936164Y-87196040D01*
X131082845Y-87094690D01*
X131089027Y-87080692D01*
X131943328Y-87080692D01*
X131952828Y-87230791D01*
X131980341Y-87244006D01*
X131983843Y-87236171D01*
X132001230Y-87061694D01*
X131987100Y-86972503D01*
X131959124Y-86936662D01*
X131943907Y-87053399D01*
X131943328Y-87080692D01*
X131089027Y-87080692D01*
X131118704Y-87013500D01*
X131078497Y-86865546D01*
X130942920Y-86789982D01*
X130788792Y-86823865D01*
X130766055Y-86843391D01*
X130709652Y-86992977D01*
X130564284Y-86992977D01*
X130566415Y-86978312D01*
X130702123Y-86740987D01*
X130802161Y-86574968D01*
X130768511Y-86511382D01*
X130611668Y-86552121D01*
X130370934Y-86681323D01*
X130046063Y-86937516D01*
X129877573Y-87208011D01*
X129873766Y-87477910D01*
X129307421Y-87477910D01*
X129349770Y-87310255D01*
X129497839Y-87056973D01*
X129762900Y-86698639D01*
X130041974Y-86466693D01*
X130392407Y-86317169D01*
X130503358Y-86286090D01*
X130951775Y-86223438D01*
X131374751Y-86260022D01*
X131374751Y-86260022D01*
G37*
X131374751Y-86260022D02*
X131743604Y-86381242D01*
X132029650Y-86572496D01*
X132204208Y-86819183D01*
X132238595Y-87106702D01*
X132227196Y-87163628D01*
X132177174Y-87298789D01*
X132082627Y-87388408D01*
X131902528Y-87453984D01*
X131595847Y-87517016D01*
X131530692Y-87528582D01*
X131238524Y-87594650D01*
X130886208Y-87694102D01*
X130703957Y-87752991D01*
X130325936Y-87867732D01*
X130050145Y-87905027D01*
X129820724Y-87864273D01*
X129581810Y-87744870D01*
X129575156Y-87740825D01*
X129380494Y-87605226D01*
X129307267Y-87478523D01*
X129307421Y-87477910D01*
X129873766Y-87477910D01*
X129895398Y-87534731D01*
X129987984Y-87684197D01*
X130120233Y-87730363D01*
X130314256Y-87710668D01*
X130535410Y-87664399D01*
X130669870Y-87617065D01*
X130678802Y-87610321D01*
X130669934Y-87516839D01*
X130623968Y-87457151D01*
X130527460Y-87246466D01*
X130564284Y-86992977D01*
X130709652Y-86992977D01*
X130769059Y-87137202D01*
X130907218Y-87199247D01*
X130936164Y-87196040D01*
X131082845Y-87094690D01*
X131089027Y-87080692D01*
X131943328Y-87080692D01*
X131952828Y-87230791D01*
X131980341Y-87244006D01*
X131983843Y-87236171D01*
X132001230Y-87061694D01*
X131987100Y-86972503D01*
X131959124Y-86936662D01*
X131943907Y-87053399D01*
X131943328Y-87080692D01*
X131089027Y-87080692D01*
X131118704Y-87013500D01*
X131078497Y-86865546D01*
X130942920Y-86789982D01*
X130788792Y-86823865D01*
X130766055Y-86843391D01*
X130709652Y-86992977D01*
X130564284Y-86992977D01*
X130566415Y-86978312D01*
X130702123Y-86740987D01*
X130802161Y-86574968D01*
X130768511Y-86511382D01*
X130611668Y-86552121D01*
X130370934Y-86681323D01*
X130046063Y-86937516D01*
X129877573Y-87208011D01*
X129873766Y-87477910D01*
X129307421Y-87477910D01*
X129349770Y-87310255D01*
X129497839Y-87056973D01*
X129762900Y-86698639D01*
X130041974Y-86466693D01*
X130392407Y-86317169D01*
X130503358Y-86286090D01*
X130951775Y-86223438D01*
X131374751Y-86260022D01*
G36*
X134479931Y-87633866D02*
X134562872Y-87739861D01*
X134610571Y-87878086D01*
X134555278Y-87894308D01*
X134419728Y-87789369D01*
X134365121Y-87732537D01*
X134270030Y-87608825D01*
X134302270Y-87566217D01*
X134340056Y-87564083D01*
X134479931Y-87633866D01*
X134479931Y-87633866D01*
G37*
X134479931Y-87633866D02*
X134562872Y-87739861D01*
X134610571Y-87878086D01*
X134555278Y-87894308D01*
X134419728Y-87789369D01*
X134365121Y-87732537D01*
X134270030Y-87608825D01*
X134302270Y-87566217D01*
X134340056Y-87564083D01*
X134479931Y-87633866D01*
G36*
X133044951Y-87774651D02*
X133018739Y-87814598D01*
X132929596Y-87820812D01*
X132835815Y-87799348D01*
X132876496Y-87767712D01*
X133013857Y-87757235D01*
X133044951Y-87774651D01*
X133044951Y-87774651D01*
G37*
X133044951Y-87774651D02*
X133018739Y-87814598D01*
X132929596Y-87820812D01*
X132835815Y-87799348D01*
X132876496Y-87767712D01*
X133013857Y-87757235D01*
X133044951Y-87774651D01*
G36*
X133392737Y-87620855D02*
X133376367Y-87651972D01*
X133293556Y-87735907D01*
X133278103Y-87739861D01*
X133272107Y-87683090D01*
X133288477Y-87651972D01*
X133371288Y-87568038D01*
X133386741Y-87564083D01*
X133392737Y-87620855D01*
X133392737Y-87620855D01*
G37*
X133392737Y-87620855D02*
X133376367Y-87651972D01*
X133293556Y-87735907D01*
X133278103Y-87739861D01*
X133272107Y-87683090D01*
X133288477Y-87651972D01*
X133371288Y-87568038D01*
X133386741Y-87564083D01*
X133392737Y-87620855D01*
G36*
X125732714Y-84863013D02*
X125752049Y-85085548D01*
X125772549Y-85417740D01*
X125795150Y-85743676D01*
X125828616Y-86005758D01*
X125886327Y-86247038D01*
X125981663Y-86510562D01*
X126128005Y-86839381D01*
X126338734Y-87276544D01*
X126370424Y-87341268D01*
X126581822Y-87782720D01*
X126738853Y-88130300D01*
X126838413Y-88373299D01*
X126877400Y-88501006D01*
X126852714Y-88502713D01*
X126761250Y-88367708D01*
X126599908Y-88085284D01*
X126570128Y-88030721D01*
X126177413Y-87267300D01*
X125893280Y-86616932D01*
X125711630Y-86059457D01*
X125626363Y-85574713D01*
X125631378Y-85142539D01*
X125653253Y-85000390D01*
X125687951Y-84836649D01*
X125712893Y-84785452D01*
X125732714Y-84863013D01*
X125732714Y-84863013D01*
G37*
X125732714Y-84863013D02*
X125752049Y-85085548D01*
X125772549Y-85417740D01*
X125795150Y-85743676D01*
X125828616Y-86005758D01*
X125886327Y-86247038D01*
X125981663Y-86510562D01*
X126128005Y-86839381D01*
X126338734Y-87276544D01*
X126370424Y-87341268D01*
X126581822Y-87782720D01*
X126738853Y-88130300D01*
X126838413Y-88373299D01*
X126877400Y-88501006D01*
X126852714Y-88502713D01*
X126761250Y-88367708D01*
X126599908Y-88085284D01*
X126570128Y-88030721D01*
X126177413Y-87267300D01*
X125893280Y-86616932D01*
X125711630Y-86059457D01*
X125626363Y-85574713D01*
X125631378Y-85142539D01*
X125653253Y-85000390D01*
X125687951Y-84836649D01*
X125712893Y-84785452D01*
X125732714Y-84863013D01*
G36*
X125956074Y-85525525D02*
X126040898Y-85929997D01*
X126175719Y-86321839D01*
X126253825Y-86483700D01*
X126383486Y-86737015D01*
X126440206Y-86893782D01*
X126420534Y-86934780D01*
X126321022Y-86840791D01*
X126317080Y-86836061D01*
X126105332Y-86483714D01*
X125950235Y-86037690D01*
X125877174Y-85577285D01*
X125874909Y-85454740D01*
X125884123Y-84971349D01*
X125956074Y-85525525D01*
X125956074Y-85525525D01*
G37*
X125956074Y-85525525D02*
X126040898Y-85929997D01*
X126175719Y-86321839D01*
X126253825Y-86483700D01*
X126383486Y-86737015D01*
X126440206Y-86893782D01*
X126420534Y-86934780D01*
X126321022Y-86840791D01*
X126317080Y-86836061D01*
X126105332Y-86483714D01*
X125950235Y-86037690D01*
X125877174Y-85577285D01*
X125874909Y-85454740D01*
X125884123Y-84971349D01*
X125956074Y-85525525D01*
G36*
X127154012Y-85002865D02*
X127263749Y-85179411D01*
X127312235Y-85279467D01*
X127465037Y-85571762D01*
X127635650Y-85755197D01*
X127887840Y-85888330D01*
X128036260Y-85944344D01*
X128225534Y-86018058D01*
X128257738Y-86053443D01*
X128146955Y-86062589D01*
X127902487Y-86019960D01*
X127698128Y-85938403D01*
X127406186Y-85691733D01*
X127163022Y-85311851D01*
X127092077Y-85146585D01*
X127044788Y-84972335D01*
X127073229Y-84929133D01*
X127154012Y-85002865D01*
X127154012Y-85002865D01*
G37*
X127154012Y-85002865D02*
X127263749Y-85179411D01*
X127312235Y-85279467D01*
X127465037Y-85571762D01*
X127635650Y-85755197D01*
X127887840Y-85888330D01*
X128036260Y-85944344D01*
X128225534Y-86018058D01*
X128257738Y-86053443D01*
X128146955Y-86062589D01*
X127902487Y-86019960D01*
X127698128Y-85938403D01*
X127406186Y-85691733D01*
X127163022Y-85311851D01*
X127092077Y-85146585D01*
X127044788Y-84972335D01*
X127073229Y-84929133D01*
X127154012Y-85002865D01*
G36*
X145351280Y-94197402D02*
X145844981Y-94222646D01*
X146277954Y-94252598D01*
X146619361Y-94284498D01*
X146838361Y-94315592D01*
X146903153Y-94336136D01*
X146913318Y-94452568D01*
X146847318Y-94655997D01*
X146733292Y-94891931D01*
X146599378Y-95105878D01*
X146473712Y-95243345D01*
X146422821Y-95266364D01*
X146267721Y-95234888D01*
X146043377Y-95141308D01*
X145988477Y-95112915D01*
X145695525Y-95014460D01*
X145300982Y-94957223D01*
X144874889Y-94944456D01*
X144487286Y-94979410D01*
X144277735Y-95033493D01*
X144103997Y-95075281D01*
X144008942Y-94997993D01*
X143964401Y-94895938D01*
X143900198Y-94634740D01*
X143879135Y-94403058D01*
X143879135Y-94134444D01*
X145351280Y-94197402D01*
X145351280Y-94197402D01*
G37*
X145351280Y-94197402D02*
X145844981Y-94222646D01*
X146277954Y-94252598D01*
X146619361Y-94284498D01*
X146838361Y-94315592D01*
X146903153Y-94336136D01*
X146913318Y-94452568D01*
X146847318Y-94655997D01*
X146733292Y-94891931D01*
X146599378Y-95105878D01*
X146473712Y-95243345D01*
X146422821Y-95266364D01*
X146267721Y-95234888D01*
X146043377Y-95141308D01*
X145988477Y-95112915D01*
X145695525Y-95014460D01*
X145300982Y-94957223D01*
X144874889Y-94944456D01*
X144487286Y-94979410D01*
X144277735Y-95033493D01*
X144103997Y-95075281D01*
X144008942Y-94997993D01*
X143964401Y-94895938D01*
X143900198Y-94634740D01*
X143879135Y-94403058D01*
X143879135Y-94134444D01*
X145351280Y-94197402D01*
G36*
X147821729Y-92394277D02*
X148168897Y-92558645D01*
X148450478Y-92813509D01*
X148634482Y-93134380D01*
X148688921Y-93496771D01*
X148663468Y-93663538D01*
X148603306Y-93804643D01*
X148488834Y-93874081D01*
X148284177Y-93878510D01*
X147953460Y-93824586D01*
X147878097Y-93809264D01*
X147664394Y-93763061D01*
X147614060Y-93740398D01*
X147718159Y-93730045D01*
X147812180Y-93726439D01*
X148034967Y-93681539D01*
X148097820Y-93584498D01*
X148021746Y-93390090D01*
X147835085Y-93215330D01*
X147600179Y-93111394D01*
X147508962Y-93101107D01*
X147353163Y-93085156D01*
X147349927Y-93025972D01*
X147377128Y-92995640D01*
X147476014Y-92847409D01*
X147412292Y-92765699D01*
X147277520Y-92749550D01*
X147060794Y-92782671D01*
X147006416Y-92881057D01*
X147089119Y-93015456D01*
X147177472Y-93141798D01*
X147134001Y-93235708D01*
X147089311Y-93275046D01*
X146973043Y-93430811D01*
X146976656Y-93567149D01*
X147097727Y-93628346D01*
X147104671Y-93628443D01*
X147199861Y-93655096D01*
X147162502Y-93718218D01*
X147024631Y-93792548D01*
X146820679Y-93852358D01*
X146575258Y-93854466D01*
X146449896Y-93792484D01*
X146341047Y-93568685D01*
X146357354Y-93284378D01*
X146480447Y-92980533D01*
X146691953Y-92698120D01*
X146973504Y-92478111D01*
X147058583Y-92434978D01*
X147440962Y-92344892D01*
X147821729Y-92394277D01*
X147821729Y-92394277D01*
G37*
X147821729Y-92394277D02*
X148168897Y-92558645D01*
X148450478Y-92813509D01*
X148634482Y-93134380D01*
X148688921Y-93496771D01*
X148663468Y-93663538D01*
X148603306Y-93804643D01*
X148488834Y-93874081D01*
X148284177Y-93878510D01*
X147953460Y-93824586D01*
X147878097Y-93809264D01*
X147664394Y-93763061D01*
X147614060Y-93740398D01*
X147718159Y-93730045D01*
X147812180Y-93726439D01*
X148034967Y-93681539D01*
X148097820Y-93584498D01*
X148021746Y-93390090D01*
X147835085Y-93215330D01*
X147600179Y-93111394D01*
X147508962Y-93101107D01*
X147353163Y-93085156D01*
X147349927Y-93025972D01*
X147377128Y-92995640D01*
X147476014Y-92847409D01*
X147412292Y-92765699D01*
X147277520Y-92749550D01*
X147060794Y-92782671D01*
X147006416Y-92881057D01*
X147089119Y-93015456D01*
X147177472Y-93141798D01*
X147134001Y-93235708D01*
X147089311Y-93275046D01*
X146973043Y-93430811D01*
X146976656Y-93567149D01*
X147097727Y-93628346D01*
X147104671Y-93628443D01*
X147199861Y-93655096D01*
X147162502Y-93718218D01*
X147024631Y-93792548D01*
X146820679Y-93852358D01*
X146575258Y-93854466D01*
X146449896Y-93792484D01*
X146341047Y-93568685D01*
X146357354Y-93284378D01*
X146480447Y-92980533D01*
X146691953Y-92698120D01*
X146973504Y-92478111D01*
X147058583Y-92434978D01*
X147440962Y-92344892D01*
X147821729Y-92394277D01*
G36*
X143478182Y-92251131D02*
X143781826Y-92299817D01*
X144001867Y-92412573D01*
X144203268Y-92605111D01*
X144393811Y-92848163D01*
X144478320Y-93079166D01*
X144494360Y-93318157D01*
X144494360Y-93713566D01*
X143681384Y-93700610D01*
X143287248Y-93701786D01*
X142930966Y-93716021D01*
X142669842Y-93740540D01*
X142604240Y-93752762D01*
X142399009Y-93779528D01*
X142274992Y-93752785D01*
X142274655Y-93752452D01*
X142210615Y-93582978D01*
X142213507Y-93408720D01*
X142824464Y-93408720D01*
X142862603Y-93482667D01*
X142998881Y-93523768D01*
X143266091Y-93539588D01*
X143395744Y-93540554D01*
X143716184Y-93531752D01*
X143894285Y-93500303D01*
X143962841Y-93438639D01*
X143967024Y-93408720D01*
X143891832Y-93216788D01*
X143708826Y-93041109D01*
X143481863Y-92935714D01*
X143395744Y-92925329D01*
X143168916Y-92988953D01*
X142961295Y-93143804D01*
X142836738Y-93335849D01*
X142824464Y-93408720D01*
X142213507Y-93408720D01*
X142214992Y-93319292D01*
X142279261Y-93025227D01*
X142394897Y-92764615D01*
X142399532Y-92757453D01*
X142842495Y-92757453D01*
X142868408Y-92837439D01*
X143004604Y-92920657D01*
X143177793Y-92874340D01*
X143252386Y-92807380D01*
X143304541Y-92667546D01*
X143199289Y-92586573D01*
X143078670Y-92573772D01*
X142905521Y-92628632D01*
X142842495Y-92757453D01*
X142399532Y-92757453D01*
X142409628Y-92741856D01*
X142675933Y-92437507D01*
X142987333Y-92278928D01*
X143389265Y-92245252D01*
X143478182Y-92251131D01*
X143478182Y-92251131D01*
G37*
X143478182Y-92251131D02*
X143781826Y-92299817D01*
X144001867Y-92412573D01*
X144203268Y-92605111D01*
X144393811Y-92848163D01*
X144478320Y-93079166D01*
X144494360Y-93318157D01*
X144494360Y-93713566D01*
X143681384Y-93700610D01*
X143287248Y-93701786D01*
X142930966Y-93716021D01*
X142669842Y-93740540D01*
X142604240Y-93752762D01*
X142399009Y-93779528D01*
X142274992Y-93752785D01*
X142274655Y-93752452D01*
X142210615Y-93582978D01*
X142213507Y-93408720D01*
X142824464Y-93408720D01*
X142862603Y-93482667D01*
X142998881Y-93523768D01*
X143266091Y-93539588D01*
X143395744Y-93540554D01*
X143716184Y-93531752D01*
X143894285Y-93500303D01*
X143962841Y-93438639D01*
X143967024Y-93408720D01*
X143891832Y-93216788D01*
X143708826Y-93041109D01*
X143481863Y-92935714D01*
X143395744Y-92925329D01*
X143168916Y-92988953D01*
X142961295Y-93143804D01*
X142836738Y-93335849D01*
X142824464Y-93408720D01*
X142213507Y-93408720D01*
X142214992Y-93319292D01*
X142279261Y-93025227D01*
X142394897Y-92764615D01*
X142399532Y-92757453D01*
X142842495Y-92757453D01*
X142868408Y-92837439D01*
X143004604Y-92920657D01*
X143177793Y-92874340D01*
X143252386Y-92807380D01*
X143304541Y-92667546D01*
X143199289Y-92586573D01*
X143078670Y-92573772D01*
X142905521Y-92628632D01*
X142842495Y-92757453D01*
X142399532Y-92757453D01*
X142409628Y-92741856D01*
X142675933Y-92437507D01*
X142987333Y-92278928D01*
X143389265Y-92245252D01*
X143478182Y-92251131D01*
D13*
X176256096Y-149923000D02*
X181456096Y-149923000D01*
X176256096Y-76203000D02*
X176256096Y-149923000D01*
X181456096Y-73603000D02*
X181456096Y-149923000D01*
X176256096Y-76203000D02*
X178856096Y-76203000D01*
X178856096Y-76203000D02*
X178856096Y-73603000D01*
X178856096Y-73603000D02*
X181456096Y-73603000D01*
X176256096Y-74933000D02*
X176256096Y-73603000D01*
X176256096Y-73603000D02*
X177586096Y-73603000D01*
X103953000Y-80832000D02*
X106613000Y-80832000D01*
X103953000Y-80772000D02*
X103953000Y-80832000D01*
X106613000Y-80772000D02*
X106613000Y-80832000D01*
X103953000Y-80772000D02*
X106613000Y-80772000D01*
X103953000Y-79502000D02*
X103953000Y-78172000D01*
X103953000Y-78172000D02*
X105283000Y-78172000D01*
X115383000Y-80832000D02*
X118043000Y-80832000D01*
X115383000Y-80772000D02*
X115383000Y-80832000D01*
X118043000Y-80772000D02*
X118043000Y-80832000D01*
X115383000Y-80772000D02*
X118043000Y-80772000D01*
X115383000Y-79502000D02*
X115383000Y-78172000D01*
X115383000Y-78172000D02*
X116713000Y-78172000D01*
X126813000Y-80832000D02*
X129473000Y-80832000D01*
X126813000Y-80772000D02*
X126813000Y-80832000D01*
X129473000Y-80772000D02*
X129473000Y-80832000D01*
X126813000Y-80772000D02*
X129473000Y-80772000D01*
X126813000Y-79502000D02*
X126813000Y-78172000D01*
X126813000Y-78172000D02*
X128143000Y-78172000D01*
X138878000Y-80832000D02*
X141538000Y-80832000D01*
X138878000Y-80772000D02*
X138878000Y-80832000D01*
X141538000Y-80772000D02*
X141538000Y-80832000D01*
X138878000Y-80772000D02*
X141538000Y-80772000D01*
X138878000Y-79502000D02*
X138878000Y-78172000D01*
X138878000Y-78172000D02*
X140208000Y-78172000D01*
X150943000Y-80832000D02*
X153603000Y-80832000D01*
X150943000Y-80772000D02*
X150943000Y-80832000D01*
X153603000Y-80772000D02*
X153603000Y-80832000D01*
X150943000Y-80772000D02*
X153603000Y-80772000D01*
X150943000Y-79502000D02*
X150943000Y-78172000D01*
X150943000Y-78172000D02*
X152273000Y-78172000D01*
X161738000Y-80832000D02*
X164398000Y-80832000D01*
X161738000Y-80772000D02*
X161738000Y-80832000D01*
X164398000Y-80772000D02*
X164398000Y-80832000D01*
X161738000Y-80772000D02*
X164398000Y-80772000D01*
X161738000Y-79502000D02*
X161738000Y-78172000D01*
X161738000Y-78172000D02*
X163068000Y-78172000D01*
X103953000Y-97723000D02*
X106613000Y-97723000D01*
X103953000Y-97663000D02*
X103953000Y-97723000D01*
X106613000Y-97663000D02*
X106613000Y-97723000D01*
X103953000Y-97663000D02*
X106613000Y-97663000D01*
X103953000Y-96393000D02*
X103953000Y-95063000D01*
X103953000Y-95063000D02*
X105283000Y-95063000D01*
X115383000Y-97723000D02*
X118043000Y-97723000D01*
X115383000Y-97663000D02*
X115383000Y-97723000D01*
X118043000Y-97663000D02*
X118043000Y-97723000D01*
X115383000Y-97663000D02*
X118043000Y-97663000D01*
X115383000Y-96393000D02*
X115383000Y-95063000D01*
X115383000Y-95063000D02*
X116713000Y-95063000D01*
X126813000Y-97723000D02*
X129473000Y-97723000D01*
X126813000Y-97663000D02*
X126813000Y-97723000D01*
X129473000Y-97663000D02*
X129473000Y-97723000D01*
X126813000Y-97663000D02*
X129473000Y-97663000D01*
X126813000Y-96393000D02*
X126813000Y-95063000D01*
X126813000Y-95063000D02*
X128143000Y-95063000D01*
X138878000Y-97723000D02*
X141538000Y-97723000D01*
X138878000Y-97663000D02*
X138878000Y-97723000D01*
X141538000Y-97663000D02*
X141538000Y-97723000D01*
X138878000Y-97663000D02*
X141538000Y-97663000D01*
X138878000Y-96393000D02*
X138878000Y-95063000D01*
X138878000Y-95063000D02*
X140208000Y-95063000D01*
X150308000Y-97723000D02*
X152968000Y-97723000D01*
X150308000Y-97663000D02*
X150308000Y-97723000D01*
X152968000Y-97663000D02*
X152968000Y-97723000D01*
X150308000Y-97663000D02*
X152968000Y-97663000D01*
X150308000Y-96393000D02*
X150308000Y-95063000D01*
X150308000Y-95063000D02*
X151638000Y-95063000D01*
X162373000Y-97723000D02*
X165033000Y-97723000D01*
X162373000Y-97663000D02*
X162373000Y-97723000D01*
X165033000Y-97663000D02*
X165033000Y-97723000D01*
X162373000Y-97663000D02*
X165033000Y-97663000D01*
X162373000Y-96393000D02*
X162373000Y-95063000D01*
X162373000Y-95063000D02*
X163703000Y-95063000D01*
X103953000Y-119313000D02*
X106613000Y-119313000D01*
X103953000Y-119253000D02*
X103953000Y-119313000D01*
X106613000Y-119253000D02*
X106613000Y-119313000D01*
X103953000Y-119253000D02*
X106613000Y-119253000D01*
X103953000Y-117983000D02*
X103953000Y-116653000D01*
X103953000Y-116653000D02*
X105283000Y-116653000D01*
X115383000Y-119313000D02*
X118043000Y-119313000D01*
X115383000Y-119253000D02*
X115383000Y-119313000D01*
X118043000Y-119253000D02*
X118043000Y-119313000D01*
X115383000Y-119253000D02*
X118043000Y-119253000D01*
X115383000Y-117983000D02*
X115383000Y-116653000D01*
X115383000Y-116653000D02*
X116713000Y-116653000D01*
X127448000Y-119313000D02*
X130108000Y-119313000D01*
X127448000Y-119253000D02*
X127448000Y-119313000D01*
X130108000Y-119253000D02*
X130108000Y-119313000D01*
X127448000Y-119253000D02*
X130108000Y-119253000D01*
X127448000Y-117983000D02*
X127448000Y-116653000D01*
X127448000Y-116653000D02*
X128778000Y-116653000D01*
X138243000Y-119313000D02*
X140903000Y-119313000D01*
X138243000Y-119253000D02*
X138243000Y-119313000D01*
X140903000Y-119253000D02*
X140903000Y-119313000D01*
X138243000Y-119253000D02*
X140903000Y-119253000D01*
X138243000Y-117983000D02*
X138243000Y-116653000D01*
X138243000Y-116653000D02*
X139573000Y-116653000D01*
X150308000Y-119313000D02*
X152968000Y-119313000D01*
X150308000Y-119253000D02*
X150308000Y-119313000D01*
X152968000Y-119253000D02*
X152968000Y-119313000D01*
X150308000Y-119253000D02*
X152968000Y-119253000D01*
X150308000Y-117983000D02*
X150308000Y-116653000D01*
X150308000Y-116653000D02*
X151638000Y-116653000D01*
X162373000Y-119313000D02*
X165033000Y-119313000D01*
X162373000Y-119253000D02*
X162373000Y-119313000D01*
X165033000Y-119253000D02*
X165033000Y-119313000D01*
X162373000Y-119253000D02*
X165033000Y-119253000D01*
X162373000Y-117983000D02*
X162373000Y-116653000D01*
X162373000Y-116653000D02*
X163703000Y-116653000D01*
X162373000Y-130743000D02*
X165033000Y-130743000D01*
X162373000Y-130683000D02*
X162373000Y-130743000D01*
X165033000Y-130683000D02*
X165033000Y-130743000D01*
X162373000Y-130683000D02*
X165033000Y-130683000D01*
X162373000Y-129413000D02*
X162373000Y-128083000D01*
X162373000Y-128083000D02*
X163703000Y-128083000D01*
X150308000Y-130743000D02*
X152968000Y-130743000D01*
X150308000Y-130683000D02*
X150308000Y-130743000D01*
X152968000Y-130683000D02*
X152968000Y-130743000D01*
X150308000Y-130683000D02*
X152968000Y-130683000D01*
X150308000Y-129413000D02*
X150308000Y-128083000D01*
X150308000Y-128083000D02*
X151638000Y-128083000D01*
X138878000Y-130743000D02*
X141538000Y-130743000D01*
X138878000Y-130683000D02*
X138878000Y-130743000D01*
X141538000Y-130683000D02*
X141538000Y-130743000D01*
X138878000Y-130683000D02*
X141538000Y-130683000D01*
X138878000Y-129413000D02*
X138878000Y-128083000D01*
X138878000Y-128083000D02*
X140208000Y-128083000D01*
X127448000Y-130743000D02*
X130108000Y-130743000D01*
X127448000Y-130683000D02*
X127448000Y-130743000D01*
X130108000Y-130683000D02*
X130108000Y-130743000D01*
X127448000Y-130683000D02*
X130108000Y-130683000D01*
X127448000Y-129413000D02*
X127448000Y-128083000D01*
X127448000Y-128083000D02*
X128778000Y-128083000D01*
X115383000Y-130743000D02*
X118043000Y-130743000D01*
X115383000Y-130683000D02*
X115383000Y-130743000D01*
X118043000Y-130683000D02*
X118043000Y-130743000D01*
X115383000Y-130683000D02*
X118043000Y-130683000D01*
X115383000Y-129413000D02*
X115383000Y-128083000D01*
X115383000Y-128083000D02*
X116713000Y-128083000D01*
X103953000Y-130743000D02*
X106613000Y-130743000D01*
X103953000Y-130683000D02*
X103953000Y-130743000D01*
X106613000Y-130683000D02*
X106613000Y-130743000D01*
X103953000Y-130683000D02*
X106613000Y-130683000D01*
X103953000Y-129413000D02*
X103953000Y-128083000D01*
X103953000Y-128083000D02*
X105283000Y-128083000D01*
X162373000Y-107883000D02*
X165033000Y-107883000D01*
X162373000Y-107823000D02*
X162373000Y-107883000D01*
X165033000Y-107823000D02*
X165033000Y-107883000D01*
X162373000Y-107823000D02*
X165033000Y-107823000D01*
X162373000Y-106553000D02*
X162373000Y-105223000D01*
X162373000Y-105223000D02*
X163703000Y-105223000D01*
X150308000Y-107883000D02*
X152968000Y-107883000D01*
X150308000Y-107823000D02*
X150308000Y-107883000D01*
X152968000Y-107823000D02*
X152968000Y-107883000D01*
X150308000Y-107823000D02*
X152968000Y-107823000D01*
X150308000Y-106553000D02*
X150308000Y-105223000D01*
X150308000Y-105223000D02*
X151638000Y-105223000D01*
X138878000Y-107883000D02*
X141538000Y-107883000D01*
X138878000Y-107823000D02*
X138878000Y-107883000D01*
X141538000Y-107823000D02*
X141538000Y-107883000D01*
X138878000Y-107823000D02*
X141538000Y-107823000D01*
X138878000Y-106553000D02*
X138878000Y-105223000D01*
X138878000Y-105223000D02*
X140208000Y-105223000D01*
X126813000Y-107883000D02*
X129473000Y-107883000D01*
X126813000Y-107823000D02*
X126813000Y-107883000D01*
X129473000Y-107823000D02*
X129473000Y-107883000D01*
X126813000Y-107823000D02*
X129473000Y-107823000D01*
X126813000Y-106553000D02*
X126813000Y-105223000D01*
X126813000Y-105223000D02*
X128143000Y-105223000D01*
X115383000Y-107883000D02*
X118043000Y-107883000D01*
X115383000Y-107823000D02*
X115383000Y-107883000D01*
X118043000Y-107823000D02*
X118043000Y-107883000D01*
X115383000Y-107823000D02*
X118043000Y-107823000D01*
X115383000Y-106553000D02*
X115383000Y-105223000D01*
X115383000Y-105223000D02*
X116713000Y-105223000D01*
X103953000Y-107883000D02*
X106613000Y-107883000D01*
X103953000Y-107823000D02*
X103953000Y-107883000D01*
X106613000Y-107823000D02*
X106613000Y-107883000D01*
X103953000Y-107823000D02*
X106613000Y-107823000D01*
X103953000Y-106553000D02*
X103953000Y-105223000D01*
X103953000Y-105223000D02*
X105283000Y-105223000D01*
X161738000Y-86928000D02*
X164398000Y-86928000D01*
X161738000Y-86868000D02*
X161738000Y-86928000D01*
X164398000Y-86868000D02*
X164398000Y-86928000D01*
X161738000Y-86868000D02*
X164398000Y-86868000D01*
X161738000Y-85598000D02*
X161738000Y-84268000D01*
X161738000Y-84268000D02*
X163068000Y-84268000D01*
X150943000Y-86928000D02*
X153603000Y-86928000D01*
X150943000Y-86868000D02*
X150943000Y-86928000D01*
X153603000Y-86868000D02*
X153603000Y-86928000D01*
X150943000Y-86868000D02*
X153603000Y-86868000D01*
X150943000Y-85598000D02*
X150943000Y-84268000D01*
X150943000Y-84268000D02*
X152273000Y-84268000D01*
X138878000Y-86928000D02*
X141538000Y-86928000D01*
X138878000Y-86868000D02*
X138878000Y-86928000D01*
X141538000Y-86868000D02*
X141538000Y-86928000D01*
X138878000Y-86868000D02*
X141538000Y-86868000D01*
X138878000Y-85598000D02*
X138878000Y-84268000D01*
X138878000Y-84268000D02*
X140208000Y-84268000D01*
X126813000Y-86928000D02*
X129473000Y-86928000D01*
X126813000Y-86868000D02*
X126813000Y-86928000D01*
X129473000Y-86868000D02*
X129473000Y-86928000D01*
X126813000Y-86868000D02*
X129473000Y-86868000D01*
X126813000Y-85598000D02*
X126813000Y-84268000D01*
X126813000Y-84268000D02*
X128143000Y-84268000D01*
X115383000Y-86928000D02*
X118043000Y-86928000D01*
X115383000Y-86868000D02*
X115383000Y-86928000D01*
X118043000Y-86868000D02*
X118043000Y-86928000D01*
X115383000Y-86868000D02*
X118043000Y-86868000D01*
X115383000Y-85598000D02*
X115383000Y-84268000D01*
X115383000Y-84268000D02*
X116713000Y-84268000D01*
X103953000Y-86928000D02*
X106613000Y-86928000D01*
X103953000Y-86868000D02*
X103953000Y-86928000D01*
X106613000Y-86868000D02*
X106613000Y-86928000D01*
X103953000Y-86868000D02*
X106613000Y-86868000D01*
X103953000Y-85598000D02*
X103953000Y-84268000D01*
X103953000Y-84268000D02*
X105283000Y-84268000D01*
X151197000Y-149412000D02*
X153857000Y-149412000D01*
X151197000Y-149352000D02*
X151197000Y-149412000D01*
X153857000Y-149352000D02*
X153857000Y-149412000D01*
X151197000Y-149352000D02*
X153857000Y-149352000D01*
X151197000Y-148082000D02*
X151197000Y-146752000D01*
X151197000Y-146752000D02*
X152527000Y-146752000D01*
X162373000Y-140903000D02*
X165033000Y-140903000D01*
X162373000Y-140843000D02*
X162373000Y-140903000D01*
X165033000Y-140843000D02*
X165033000Y-140903000D01*
X162373000Y-140843000D02*
X165033000Y-140843000D01*
X162373000Y-139573000D02*
X162373000Y-138243000D01*
X162373000Y-138243000D02*
X163703000Y-138243000D01*
X127448000Y-140903000D02*
X130108000Y-140903000D01*
X127448000Y-140843000D02*
X127448000Y-140903000D01*
X130108000Y-140843000D02*
X130108000Y-140903000D01*
X127448000Y-140843000D02*
X130108000Y-140843000D01*
X127448000Y-139573000D02*
X127448000Y-138243000D01*
X127448000Y-138243000D02*
X128778000Y-138243000D01*
X127448000Y-149793000D02*
X130108000Y-149793000D01*
X127448000Y-149733000D02*
X127448000Y-149793000D01*
X130108000Y-149733000D02*
X130108000Y-149793000D01*
X127448000Y-149733000D02*
X130108000Y-149733000D01*
X127448000Y-148463000D02*
X127448000Y-147133000D01*
X127448000Y-147133000D02*
X128778000Y-147133000D01*
X138878000Y-140903000D02*
X141538000Y-140903000D01*
X138878000Y-140843000D02*
X138878000Y-140903000D01*
X141538000Y-140843000D02*
X141538000Y-140903000D01*
X138878000Y-140843000D02*
X141538000Y-140843000D01*
X138878000Y-139573000D02*
X138878000Y-138243000D01*
X138878000Y-138243000D02*
X140208000Y-138243000D01*
X150943000Y-140903000D02*
X153603000Y-140903000D01*
X150943000Y-140843000D02*
X150943000Y-140903000D01*
X153603000Y-140843000D02*
X153603000Y-140903000D01*
X150943000Y-140843000D02*
X153603000Y-140843000D01*
X150943000Y-139573000D02*
X150943000Y-138243000D01*
X150943000Y-138243000D02*
X152273000Y-138243000D01*
X115383000Y-140903000D02*
X118043000Y-140903000D01*
X115383000Y-140843000D02*
X115383000Y-140903000D01*
X118043000Y-140843000D02*
X118043000Y-140903000D01*
X115383000Y-140843000D02*
X118043000Y-140843000D01*
X115383000Y-139573000D02*
X115383000Y-138243000D01*
X115383000Y-138243000D02*
X116713000Y-138243000D01*
X103953000Y-149793000D02*
X106613000Y-149793000D01*
X103953000Y-149733000D02*
X103953000Y-149793000D01*
X106613000Y-149733000D02*
X106613000Y-149793000D01*
X103953000Y-149733000D02*
X106613000Y-149733000D01*
X103953000Y-148463000D02*
X103953000Y-147133000D01*
X103953000Y-147133000D02*
X105283000Y-147133000D01*
X103953000Y-140903000D02*
X106613000Y-140903000D01*
X103953000Y-140843000D02*
X103953000Y-140903000D01*
X106613000Y-140843000D02*
X106613000Y-140903000D01*
X103953000Y-140843000D02*
X106613000Y-140843000D01*
X103953000Y-139573000D02*
X103953000Y-138243000D01*
X103953000Y-138243000D02*
X105283000Y-138243000D01*
D14*
X178522763Y-72055381D02*
X178522763Y-72769667D01*
X178475143Y-72912524D01*
X178379905Y-73007762D01*
X178237048Y-73055381D01*
X178141810Y-73055381D01*
X179522763Y-73055381D02*
X178951334Y-73055381D01*
X179237048Y-73055381D02*
X179237048Y-72055381D01*
X179141810Y-72198238D01*
X179046572Y-72293476D01*
X178951334Y-72341095D01*
X104949667Y-76624381D02*
X104949667Y-77338667D01*
X104902047Y-77481524D01*
X104806809Y-77576762D01*
X104663952Y-77624381D01*
X104568714Y-77624381D01*
X105378238Y-76719619D02*
X105425857Y-76672000D01*
X105521095Y-76624381D01*
X105759191Y-76624381D01*
X105854429Y-76672000D01*
X105902048Y-76719619D01*
X105949667Y-76814857D01*
X105949667Y-76910095D01*
X105902048Y-77052952D01*
X105330619Y-77624381D01*
X105949667Y-77624381D01*
X116379667Y-76624381D02*
X116379667Y-77338667D01*
X116332047Y-77481524D01*
X116236809Y-77576762D01*
X116093952Y-77624381D01*
X115998714Y-77624381D01*
X116760619Y-76624381D02*
X117379667Y-76624381D01*
X117046333Y-77005333D01*
X117189191Y-77005333D01*
X117284429Y-77052952D01*
X117332048Y-77100571D01*
X117379667Y-77195810D01*
X117379667Y-77433905D01*
X117332048Y-77529143D01*
X117284429Y-77576762D01*
X117189191Y-77624381D01*
X116903476Y-77624381D01*
X116808238Y-77576762D01*
X116760619Y-77529143D01*
X127809667Y-76624381D02*
X127809667Y-77338667D01*
X127762047Y-77481524D01*
X127666809Y-77576762D01*
X127523952Y-77624381D01*
X127428714Y-77624381D01*
X128714429Y-76957714D02*
X128714429Y-77624381D01*
X128476333Y-76576762D02*
X128238238Y-77291048D01*
X128857286Y-77291048D01*
X139874667Y-76624381D02*
X139874667Y-77338667D01*
X139827047Y-77481524D01*
X139731809Y-77576762D01*
X139588952Y-77624381D01*
X139493714Y-77624381D01*
X140827048Y-76624381D02*
X140350857Y-76624381D01*
X140303238Y-77100571D01*
X140350857Y-77052952D01*
X140446095Y-77005333D01*
X140684191Y-77005333D01*
X140779429Y-77052952D01*
X140827048Y-77100571D01*
X140874667Y-77195810D01*
X140874667Y-77433905D01*
X140827048Y-77529143D01*
X140779429Y-77576762D01*
X140684191Y-77624381D01*
X140446095Y-77624381D01*
X140350857Y-77576762D01*
X140303238Y-77529143D01*
X151939667Y-76624381D02*
X151939667Y-77338667D01*
X151892047Y-77481524D01*
X151796809Y-77576762D01*
X151653952Y-77624381D01*
X151558714Y-77624381D01*
X152844429Y-76624381D02*
X152653952Y-76624381D01*
X152558714Y-76672000D01*
X152511095Y-76719619D01*
X152415857Y-76862476D01*
X152368238Y-77052952D01*
X152368238Y-77433905D01*
X152415857Y-77529143D01*
X152463476Y-77576762D01*
X152558714Y-77624381D01*
X152749191Y-77624381D01*
X152844429Y-77576762D01*
X152892048Y-77529143D01*
X152939667Y-77433905D01*
X152939667Y-77195810D01*
X152892048Y-77100571D01*
X152844429Y-77052952D01*
X152749191Y-77005333D01*
X152558714Y-77005333D01*
X152463476Y-77052952D01*
X152415857Y-77100571D01*
X152368238Y-77195810D01*
X162734667Y-76624381D02*
X162734667Y-77338667D01*
X162687047Y-77481524D01*
X162591809Y-77576762D01*
X162448952Y-77624381D01*
X162353714Y-77624381D01*
X163115619Y-76624381D02*
X163782286Y-76624381D01*
X163353714Y-77624381D01*
X104949667Y-93515381D02*
X104949667Y-94229667D01*
X104902047Y-94372524D01*
X104806809Y-94467762D01*
X104663952Y-94515381D01*
X104568714Y-94515381D01*
X105568714Y-93943952D02*
X105473476Y-93896333D01*
X105425857Y-93848714D01*
X105378238Y-93753476D01*
X105378238Y-93705857D01*
X105425857Y-93610619D01*
X105473476Y-93563000D01*
X105568714Y-93515381D01*
X105759191Y-93515381D01*
X105854429Y-93563000D01*
X105902048Y-93610619D01*
X105949667Y-93705857D01*
X105949667Y-93753476D01*
X105902048Y-93848714D01*
X105854429Y-93896333D01*
X105759191Y-93943952D01*
X105568714Y-93943952D01*
X105473476Y-93991571D01*
X105425857Y-94039190D01*
X105378238Y-94134429D01*
X105378238Y-94324905D01*
X105425857Y-94420143D01*
X105473476Y-94467762D01*
X105568714Y-94515381D01*
X105759191Y-94515381D01*
X105854429Y-94467762D01*
X105902048Y-94420143D01*
X105949667Y-94324905D01*
X105949667Y-94134429D01*
X105902048Y-94039190D01*
X105854429Y-93991571D01*
X105759191Y-93943952D01*
X116379667Y-93515381D02*
X116379667Y-94229667D01*
X116332047Y-94372524D01*
X116236809Y-94467762D01*
X116093952Y-94515381D01*
X115998714Y-94515381D01*
X116903476Y-94515381D02*
X117093952Y-94515381D01*
X117189191Y-94467762D01*
X117236810Y-94420143D01*
X117332048Y-94277286D01*
X117379667Y-94086810D01*
X117379667Y-93705857D01*
X117332048Y-93610619D01*
X117284429Y-93563000D01*
X117189191Y-93515381D01*
X116998714Y-93515381D01*
X116903476Y-93563000D01*
X116855857Y-93610619D01*
X116808238Y-93705857D01*
X116808238Y-93943952D01*
X116855857Y-94039190D01*
X116903476Y-94086810D01*
X116998714Y-94134429D01*
X117189191Y-94134429D01*
X117284429Y-94086810D01*
X117332048Y-94039190D01*
X117379667Y-93943952D01*
X127333477Y-93515381D02*
X127333477Y-94229667D01*
X127285857Y-94372524D01*
X127190619Y-94467762D01*
X127047762Y-94515381D01*
X126952524Y-94515381D01*
X128333477Y-94515381D02*
X127762048Y-94515381D01*
X128047762Y-94515381D02*
X128047762Y-93515381D01*
X127952524Y-93658238D01*
X127857286Y-93753476D01*
X127762048Y-93801095D01*
X128952524Y-93515381D02*
X129047763Y-93515381D01*
X129143001Y-93563000D01*
X129190620Y-93610619D01*
X129238239Y-93705857D01*
X129285858Y-93896333D01*
X129285858Y-94134429D01*
X129238239Y-94324905D01*
X129190620Y-94420143D01*
X129143001Y-94467762D01*
X129047763Y-94515381D01*
X128952524Y-94515381D01*
X128857286Y-94467762D01*
X128809667Y-94420143D01*
X128762048Y-94324905D01*
X128714429Y-94134429D01*
X128714429Y-93896333D01*
X128762048Y-93705857D01*
X128809667Y-93610619D01*
X128857286Y-93563000D01*
X128952524Y-93515381D01*
X139398477Y-93515381D02*
X139398477Y-94229667D01*
X139350857Y-94372524D01*
X139255619Y-94467762D01*
X139112762Y-94515381D01*
X139017524Y-94515381D01*
X140398477Y-94515381D02*
X139827048Y-94515381D01*
X140112762Y-94515381D02*
X140112762Y-93515381D01*
X140017524Y-93658238D01*
X139922286Y-93753476D01*
X139827048Y-93801095D01*
X141350858Y-94515381D02*
X140779429Y-94515381D01*
X141065143Y-94515381D02*
X141065143Y-93515381D01*
X140969905Y-93658238D01*
X140874667Y-93753476D01*
X140779429Y-93801095D01*
X150828477Y-93515381D02*
X150828477Y-94229667D01*
X150780857Y-94372524D01*
X150685619Y-94467762D01*
X150542762Y-94515381D01*
X150447524Y-94515381D01*
X151828477Y-94515381D02*
X151257048Y-94515381D01*
X151542762Y-94515381D02*
X151542762Y-93515381D01*
X151447524Y-93658238D01*
X151352286Y-93753476D01*
X151257048Y-93801095D01*
X152209429Y-93610619D02*
X152257048Y-93563000D01*
X152352286Y-93515381D01*
X152590382Y-93515381D01*
X152685620Y-93563000D01*
X152733239Y-93610619D01*
X152780858Y-93705857D01*
X152780858Y-93801095D01*
X152733239Y-93943952D01*
X152161810Y-94515381D01*
X152780858Y-94515381D01*
X162893477Y-93515381D02*
X162893477Y-94229667D01*
X162845857Y-94372524D01*
X162750619Y-94467762D01*
X162607762Y-94515381D01*
X162512524Y-94515381D01*
X163893477Y-94515381D02*
X163322048Y-94515381D01*
X163607762Y-94515381D02*
X163607762Y-93515381D01*
X163512524Y-93658238D01*
X163417286Y-93753476D01*
X163322048Y-93801095D01*
X164226810Y-93515381D02*
X164845858Y-93515381D01*
X164512524Y-93896333D01*
X164655382Y-93896333D01*
X164750620Y-93943952D01*
X164798239Y-93991571D01*
X164845858Y-94086810D01*
X164845858Y-94324905D01*
X164798239Y-94420143D01*
X164750620Y-94467762D01*
X164655382Y-94515381D01*
X164369667Y-94515381D01*
X164274429Y-94467762D01*
X164226810Y-94420143D01*
X104473477Y-115105381D02*
X104473477Y-115819667D01*
X104425857Y-115962524D01*
X104330619Y-116057762D01*
X104187762Y-116105381D01*
X104092524Y-116105381D01*
X105473477Y-116105381D02*
X104902048Y-116105381D01*
X105187762Y-116105381D02*
X105187762Y-115105381D01*
X105092524Y-115248238D01*
X104997286Y-115343476D01*
X104902048Y-115391095D01*
X106330620Y-115438714D02*
X106330620Y-116105381D01*
X106092524Y-115057762D02*
X105854429Y-115772048D01*
X106473477Y-115772048D01*
X115903477Y-115105381D02*
X115903477Y-115819667D01*
X115855857Y-115962524D01*
X115760619Y-116057762D01*
X115617762Y-116105381D01*
X115522524Y-116105381D01*
X116903477Y-116105381D02*
X116332048Y-116105381D01*
X116617762Y-116105381D02*
X116617762Y-115105381D01*
X116522524Y-115248238D01*
X116427286Y-115343476D01*
X116332048Y-115391095D01*
X117808239Y-115105381D02*
X117332048Y-115105381D01*
X117284429Y-115581571D01*
X117332048Y-115533952D01*
X117427286Y-115486333D01*
X117665382Y-115486333D01*
X117760620Y-115533952D01*
X117808239Y-115581571D01*
X117855858Y-115676810D01*
X117855858Y-115914905D01*
X117808239Y-116010143D01*
X117760620Y-116057762D01*
X117665382Y-116105381D01*
X117427286Y-116105381D01*
X117332048Y-116057762D01*
X117284429Y-116010143D01*
X127968477Y-115105381D02*
X127968477Y-115819667D01*
X127920857Y-115962524D01*
X127825619Y-116057762D01*
X127682762Y-116105381D01*
X127587524Y-116105381D01*
X128968477Y-116105381D02*
X128397048Y-116105381D01*
X128682762Y-116105381D02*
X128682762Y-115105381D01*
X128587524Y-115248238D01*
X128492286Y-115343476D01*
X128397048Y-115391095D01*
X129825620Y-115105381D02*
X129635143Y-115105381D01*
X129539905Y-115153000D01*
X129492286Y-115200619D01*
X129397048Y-115343476D01*
X129349429Y-115533952D01*
X129349429Y-115914905D01*
X129397048Y-116010143D01*
X129444667Y-116057762D01*
X129539905Y-116105381D01*
X129730382Y-116105381D01*
X129825620Y-116057762D01*
X129873239Y-116010143D01*
X129920858Y-115914905D01*
X129920858Y-115676810D01*
X129873239Y-115581571D01*
X129825620Y-115533952D01*
X129730382Y-115486333D01*
X129539905Y-115486333D01*
X129444667Y-115533952D01*
X129397048Y-115581571D01*
X129349429Y-115676810D01*
X138763477Y-115105381D02*
X138763477Y-115819667D01*
X138715857Y-115962524D01*
X138620619Y-116057762D01*
X138477762Y-116105381D01*
X138382524Y-116105381D01*
X139763477Y-116105381D02*
X139192048Y-116105381D01*
X139477762Y-116105381D02*
X139477762Y-115105381D01*
X139382524Y-115248238D01*
X139287286Y-115343476D01*
X139192048Y-115391095D01*
X140096810Y-115105381D02*
X140763477Y-115105381D01*
X140334905Y-116105381D01*
X150828477Y-115105381D02*
X150828477Y-115819667D01*
X150780857Y-115962524D01*
X150685619Y-116057762D01*
X150542762Y-116105381D01*
X150447524Y-116105381D01*
X151828477Y-116105381D02*
X151257048Y-116105381D01*
X151542762Y-116105381D02*
X151542762Y-115105381D01*
X151447524Y-115248238D01*
X151352286Y-115343476D01*
X151257048Y-115391095D01*
X152399905Y-115533952D02*
X152304667Y-115486333D01*
X152257048Y-115438714D01*
X152209429Y-115343476D01*
X152209429Y-115295857D01*
X152257048Y-115200619D01*
X152304667Y-115153000D01*
X152399905Y-115105381D01*
X152590382Y-115105381D01*
X152685620Y-115153000D01*
X152733239Y-115200619D01*
X152780858Y-115295857D01*
X152780858Y-115343476D01*
X152733239Y-115438714D01*
X152685620Y-115486333D01*
X152590382Y-115533952D01*
X152399905Y-115533952D01*
X152304667Y-115581571D01*
X152257048Y-115629190D01*
X152209429Y-115724429D01*
X152209429Y-115914905D01*
X152257048Y-116010143D01*
X152304667Y-116057762D01*
X152399905Y-116105381D01*
X152590382Y-116105381D01*
X152685620Y-116057762D01*
X152733239Y-116010143D01*
X152780858Y-115914905D01*
X152780858Y-115724429D01*
X152733239Y-115629190D01*
X152685620Y-115581571D01*
X152590382Y-115533952D01*
X162893477Y-115105381D02*
X162893477Y-115819667D01*
X162845857Y-115962524D01*
X162750619Y-116057762D01*
X162607762Y-116105381D01*
X162512524Y-116105381D01*
X163893477Y-116105381D02*
X163322048Y-116105381D01*
X163607762Y-116105381D02*
X163607762Y-115105381D01*
X163512524Y-115248238D01*
X163417286Y-115343476D01*
X163322048Y-115391095D01*
X164369667Y-116105381D02*
X164560143Y-116105381D01*
X164655382Y-116057762D01*
X164703001Y-116010143D01*
X164798239Y-115867286D01*
X164845858Y-115676810D01*
X164845858Y-115295857D01*
X164798239Y-115200619D01*
X164750620Y-115153000D01*
X164655382Y-115105381D01*
X164464905Y-115105381D01*
X164369667Y-115153000D01*
X164322048Y-115200619D01*
X164274429Y-115295857D01*
X164274429Y-115533952D01*
X164322048Y-115629190D01*
X164369667Y-115676810D01*
X164464905Y-115724429D01*
X164655382Y-115724429D01*
X164750620Y-115676810D01*
X164798239Y-115629190D01*
X164845858Y-115533952D01*
X162893477Y-126535381D02*
X162893477Y-127249667D01*
X162845857Y-127392524D01*
X162750619Y-127487762D01*
X162607762Y-127535381D01*
X162512524Y-127535381D01*
X163322048Y-126630619D02*
X163369667Y-126583000D01*
X163464905Y-126535381D01*
X163703001Y-126535381D01*
X163798239Y-126583000D01*
X163845858Y-126630619D01*
X163893477Y-126725857D01*
X163893477Y-126821095D01*
X163845858Y-126963952D01*
X163274429Y-127535381D01*
X163893477Y-127535381D01*
X164512524Y-126535381D02*
X164607763Y-126535381D01*
X164703001Y-126583000D01*
X164750620Y-126630619D01*
X164798239Y-126725857D01*
X164845858Y-126916333D01*
X164845858Y-127154429D01*
X164798239Y-127344905D01*
X164750620Y-127440143D01*
X164703001Y-127487762D01*
X164607763Y-127535381D01*
X164512524Y-127535381D01*
X164417286Y-127487762D01*
X164369667Y-127440143D01*
X164322048Y-127344905D01*
X164274429Y-127154429D01*
X164274429Y-126916333D01*
X164322048Y-126725857D01*
X164369667Y-126630619D01*
X164417286Y-126583000D01*
X164512524Y-126535381D01*
X150828477Y-126535381D02*
X150828477Y-127249667D01*
X150780857Y-127392524D01*
X150685619Y-127487762D01*
X150542762Y-127535381D01*
X150447524Y-127535381D01*
X151257048Y-126630619D02*
X151304667Y-126583000D01*
X151399905Y-126535381D01*
X151638001Y-126535381D01*
X151733239Y-126583000D01*
X151780858Y-126630619D01*
X151828477Y-126725857D01*
X151828477Y-126821095D01*
X151780858Y-126963952D01*
X151209429Y-127535381D01*
X151828477Y-127535381D01*
X152780858Y-127535381D02*
X152209429Y-127535381D01*
X152495143Y-127535381D02*
X152495143Y-126535381D01*
X152399905Y-126678238D01*
X152304667Y-126773476D01*
X152209429Y-126821095D01*
X139398477Y-126535381D02*
X139398477Y-127249667D01*
X139350857Y-127392524D01*
X139255619Y-127487762D01*
X139112762Y-127535381D01*
X139017524Y-127535381D01*
X139827048Y-126630619D02*
X139874667Y-126583000D01*
X139969905Y-126535381D01*
X140208001Y-126535381D01*
X140303239Y-126583000D01*
X140350858Y-126630619D01*
X140398477Y-126725857D01*
X140398477Y-126821095D01*
X140350858Y-126963952D01*
X139779429Y-127535381D01*
X140398477Y-127535381D01*
X140779429Y-126630619D02*
X140827048Y-126583000D01*
X140922286Y-126535381D01*
X141160382Y-126535381D01*
X141255620Y-126583000D01*
X141303239Y-126630619D01*
X141350858Y-126725857D01*
X141350858Y-126821095D01*
X141303239Y-126963952D01*
X140731810Y-127535381D01*
X141350858Y-127535381D01*
X127968477Y-126535381D02*
X127968477Y-127249667D01*
X127920857Y-127392524D01*
X127825619Y-127487762D01*
X127682762Y-127535381D01*
X127587524Y-127535381D01*
X128397048Y-126630619D02*
X128444667Y-126583000D01*
X128539905Y-126535381D01*
X128778001Y-126535381D01*
X128873239Y-126583000D01*
X128920858Y-126630619D01*
X128968477Y-126725857D01*
X128968477Y-126821095D01*
X128920858Y-126963952D01*
X128349429Y-127535381D01*
X128968477Y-127535381D01*
X129301810Y-126535381D02*
X129920858Y-126535381D01*
X129587524Y-126916333D01*
X129730382Y-126916333D01*
X129825620Y-126963952D01*
X129873239Y-127011571D01*
X129920858Y-127106810D01*
X129920858Y-127344905D01*
X129873239Y-127440143D01*
X129825620Y-127487762D01*
X129730382Y-127535381D01*
X129444667Y-127535381D01*
X129349429Y-127487762D01*
X129301810Y-127440143D01*
X115903477Y-126535381D02*
X115903477Y-127249667D01*
X115855857Y-127392524D01*
X115760619Y-127487762D01*
X115617762Y-127535381D01*
X115522524Y-127535381D01*
X116332048Y-126630619D02*
X116379667Y-126583000D01*
X116474905Y-126535381D01*
X116713001Y-126535381D01*
X116808239Y-126583000D01*
X116855858Y-126630619D01*
X116903477Y-126725857D01*
X116903477Y-126821095D01*
X116855858Y-126963952D01*
X116284429Y-127535381D01*
X116903477Y-127535381D01*
X117760620Y-126868714D02*
X117760620Y-127535381D01*
X117522524Y-126487762D02*
X117284429Y-127202048D01*
X117903477Y-127202048D01*
X104473477Y-126535381D02*
X104473477Y-127249667D01*
X104425857Y-127392524D01*
X104330619Y-127487762D01*
X104187762Y-127535381D01*
X104092524Y-127535381D01*
X104902048Y-126630619D02*
X104949667Y-126583000D01*
X105044905Y-126535381D01*
X105283001Y-126535381D01*
X105378239Y-126583000D01*
X105425858Y-126630619D01*
X105473477Y-126725857D01*
X105473477Y-126821095D01*
X105425858Y-126963952D01*
X104854429Y-127535381D01*
X105473477Y-127535381D01*
X106378239Y-126535381D02*
X105902048Y-126535381D01*
X105854429Y-127011571D01*
X105902048Y-126963952D01*
X105997286Y-126916333D01*
X106235382Y-126916333D01*
X106330620Y-126963952D01*
X106378239Y-127011571D01*
X106425858Y-127106810D01*
X106425858Y-127344905D01*
X106378239Y-127440143D01*
X106330620Y-127487762D01*
X106235382Y-127535381D01*
X105997286Y-127535381D01*
X105902048Y-127487762D01*
X105854429Y-127440143D01*
X162893477Y-103675381D02*
X162893477Y-104389667D01*
X162845857Y-104532524D01*
X162750619Y-104627762D01*
X162607762Y-104675381D01*
X162512524Y-104675381D01*
X163322048Y-103770619D02*
X163369667Y-103723000D01*
X163464905Y-103675381D01*
X163703001Y-103675381D01*
X163798239Y-103723000D01*
X163845858Y-103770619D01*
X163893477Y-103865857D01*
X163893477Y-103961095D01*
X163845858Y-104103952D01*
X163274429Y-104675381D01*
X163893477Y-104675381D01*
X164750620Y-103675381D02*
X164560143Y-103675381D01*
X164464905Y-103723000D01*
X164417286Y-103770619D01*
X164322048Y-103913476D01*
X164274429Y-104103952D01*
X164274429Y-104484905D01*
X164322048Y-104580143D01*
X164369667Y-104627762D01*
X164464905Y-104675381D01*
X164655382Y-104675381D01*
X164750620Y-104627762D01*
X164798239Y-104580143D01*
X164845858Y-104484905D01*
X164845858Y-104246810D01*
X164798239Y-104151571D01*
X164750620Y-104103952D01*
X164655382Y-104056333D01*
X164464905Y-104056333D01*
X164369667Y-104103952D01*
X164322048Y-104151571D01*
X164274429Y-104246810D01*
X150828477Y-103675381D02*
X150828477Y-104389667D01*
X150780857Y-104532524D01*
X150685619Y-104627762D01*
X150542762Y-104675381D01*
X150447524Y-104675381D01*
X151257048Y-103770619D02*
X151304667Y-103723000D01*
X151399905Y-103675381D01*
X151638001Y-103675381D01*
X151733239Y-103723000D01*
X151780858Y-103770619D01*
X151828477Y-103865857D01*
X151828477Y-103961095D01*
X151780858Y-104103952D01*
X151209429Y-104675381D01*
X151828477Y-104675381D01*
X152161810Y-103675381D02*
X152828477Y-103675381D01*
X152399905Y-104675381D01*
X139398477Y-103675381D02*
X139398477Y-104389667D01*
X139350857Y-104532524D01*
X139255619Y-104627762D01*
X139112762Y-104675381D01*
X139017524Y-104675381D01*
X139827048Y-103770619D02*
X139874667Y-103723000D01*
X139969905Y-103675381D01*
X140208001Y-103675381D01*
X140303239Y-103723000D01*
X140350858Y-103770619D01*
X140398477Y-103865857D01*
X140398477Y-103961095D01*
X140350858Y-104103952D01*
X139779429Y-104675381D01*
X140398477Y-104675381D01*
X140969905Y-104103952D02*
X140874667Y-104056333D01*
X140827048Y-104008714D01*
X140779429Y-103913476D01*
X140779429Y-103865857D01*
X140827048Y-103770619D01*
X140874667Y-103723000D01*
X140969905Y-103675381D01*
X141160382Y-103675381D01*
X141255620Y-103723000D01*
X141303239Y-103770619D01*
X141350858Y-103865857D01*
X141350858Y-103913476D01*
X141303239Y-104008714D01*
X141255620Y-104056333D01*
X141160382Y-104103952D01*
X140969905Y-104103952D01*
X140874667Y-104151571D01*
X140827048Y-104199190D01*
X140779429Y-104294429D01*
X140779429Y-104484905D01*
X140827048Y-104580143D01*
X140874667Y-104627762D01*
X140969905Y-104675381D01*
X141160382Y-104675381D01*
X141255620Y-104627762D01*
X141303239Y-104580143D01*
X141350858Y-104484905D01*
X141350858Y-104294429D01*
X141303239Y-104199190D01*
X141255620Y-104151571D01*
X141160382Y-104103952D01*
X127333477Y-103675381D02*
X127333477Y-104389667D01*
X127285857Y-104532524D01*
X127190619Y-104627762D01*
X127047762Y-104675381D01*
X126952524Y-104675381D01*
X127762048Y-103770619D02*
X127809667Y-103723000D01*
X127904905Y-103675381D01*
X128143001Y-103675381D01*
X128238239Y-103723000D01*
X128285858Y-103770619D01*
X128333477Y-103865857D01*
X128333477Y-103961095D01*
X128285858Y-104103952D01*
X127714429Y-104675381D01*
X128333477Y-104675381D01*
X128809667Y-104675381D02*
X129000143Y-104675381D01*
X129095382Y-104627762D01*
X129143001Y-104580143D01*
X129238239Y-104437286D01*
X129285858Y-104246810D01*
X129285858Y-103865857D01*
X129238239Y-103770619D01*
X129190620Y-103723000D01*
X129095382Y-103675381D01*
X128904905Y-103675381D01*
X128809667Y-103723000D01*
X128762048Y-103770619D01*
X128714429Y-103865857D01*
X128714429Y-104103952D01*
X128762048Y-104199190D01*
X128809667Y-104246810D01*
X128904905Y-104294429D01*
X129095382Y-104294429D01*
X129190620Y-104246810D01*
X129238239Y-104199190D01*
X129285858Y-104103952D01*
X115903477Y-103675381D02*
X115903477Y-104389667D01*
X115855857Y-104532524D01*
X115760619Y-104627762D01*
X115617762Y-104675381D01*
X115522524Y-104675381D01*
X116284429Y-103675381D02*
X116903477Y-103675381D01*
X116570143Y-104056333D01*
X116713001Y-104056333D01*
X116808239Y-104103952D01*
X116855858Y-104151571D01*
X116903477Y-104246810D01*
X116903477Y-104484905D01*
X116855858Y-104580143D01*
X116808239Y-104627762D01*
X116713001Y-104675381D01*
X116427286Y-104675381D01*
X116332048Y-104627762D01*
X116284429Y-104580143D01*
X117522524Y-103675381D02*
X117617763Y-103675381D01*
X117713001Y-103723000D01*
X117760620Y-103770619D01*
X117808239Y-103865857D01*
X117855858Y-104056333D01*
X117855858Y-104294429D01*
X117808239Y-104484905D01*
X117760620Y-104580143D01*
X117713001Y-104627762D01*
X117617763Y-104675381D01*
X117522524Y-104675381D01*
X117427286Y-104627762D01*
X117379667Y-104580143D01*
X117332048Y-104484905D01*
X117284429Y-104294429D01*
X117284429Y-104056333D01*
X117332048Y-103865857D01*
X117379667Y-103770619D01*
X117427286Y-103723000D01*
X117522524Y-103675381D01*
X104473477Y-103675381D02*
X104473477Y-104389667D01*
X104425857Y-104532524D01*
X104330619Y-104627762D01*
X104187762Y-104675381D01*
X104092524Y-104675381D01*
X104854429Y-103675381D02*
X105473477Y-103675381D01*
X105140143Y-104056333D01*
X105283001Y-104056333D01*
X105378239Y-104103952D01*
X105425858Y-104151571D01*
X105473477Y-104246810D01*
X105473477Y-104484905D01*
X105425858Y-104580143D01*
X105378239Y-104627762D01*
X105283001Y-104675381D01*
X104997286Y-104675381D01*
X104902048Y-104627762D01*
X104854429Y-104580143D01*
X106425858Y-104675381D02*
X105854429Y-104675381D01*
X106140143Y-104675381D02*
X106140143Y-103675381D01*
X106044905Y-103818238D01*
X105949667Y-103913476D01*
X105854429Y-103961095D01*
X162258477Y-82720381D02*
X162258477Y-83434667D01*
X162210857Y-83577524D01*
X162115619Y-83672762D01*
X161972762Y-83720381D01*
X161877524Y-83720381D01*
X162639429Y-82720381D02*
X163258477Y-82720381D01*
X162925143Y-83101333D01*
X163068001Y-83101333D01*
X163163239Y-83148952D01*
X163210858Y-83196571D01*
X163258477Y-83291810D01*
X163258477Y-83529905D01*
X163210858Y-83625143D01*
X163163239Y-83672762D01*
X163068001Y-83720381D01*
X162782286Y-83720381D01*
X162687048Y-83672762D01*
X162639429Y-83625143D01*
X163639429Y-82815619D02*
X163687048Y-82768000D01*
X163782286Y-82720381D01*
X164020382Y-82720381D01*
X164115620Y-82768000D01*
X164163239Y-82815619D01*
X164210858Y-82910857D01*
X164210858Y-83006095D01*
X164163239Y-83148952D01*
X163591810Y-83720381D01*
X164210858Y-83720381D01*
X151463477Y-82720381D02*
X151463477Y-83434667D01*
X151415857Y-83577524D01*
X151320619Y-83672762D01*
X151177762Y-83720381D01*
X151082524Y-83720381D01*
X151844429Y-82720381D02*
X152463477Y-82720381D01*
X152130143Y-83101333D01*
X152273001Y-83101333D01*
X152368239Y-83148952D01*
X152415858Y-83196571D01*
X152463477Y-83291810D01*
X152463477Y-83529905D01*
X152415858Y-83625143D01*
X152368239Y-83672762D01*
X152273001Y-83720381D01*
X151987286Y-83720381D01*
X151892048Y-83672762D01*
X151844429Y-83625143D01*
X152796810Y-82720381D02*
X153415858Y-82720381D01*
X153082524Y-83101333D01*
X153225382Y-83101333D01*
X153320620Y-83148952D01*
X153368239Y-83196571D01*
X153415858Y-83291810D01*
X153415858Y-83529905D01*
X153368239Y-83625143D01*
X153320620Y-83672762D01*
X153225382Y-83720381D01*
X152939667Y-83720381D01*
X152844429Y-83672762D01*
X152796810Y-83625143D01*
X139398477Y-82720381D02*
X139398477Y-83434667D01*
X139350857Y-83577524D01*
X139255619Y-83672762D01*
X139112762Y-83720381D01*
X139017524Y-83720381D01*
X139779429Y-82720381D02*
X140398477Y-82720381D01*
X140065143Y-83101333D01*
X140208001Y-83101333D01*
X140303239Y-83148952D01*
X140350858Y-83196571D01*
X140398477Y-83291810D01*
X140398477Y-83529905D01*
X140350858Y-83625143D01*
X140303239Y-83672762D01*
X140208001Y-83720381D01*
X139922286Y-83720381D01*
X139827048Y-83672762D01*
X139779429Y-83625143D01*
X141255620Y-83053714D02*
X141255620Y-83720381D01*
X141017524Y-82672762D02*
X140779429Y-83387048D01*
X141398477Y-83387048D01*
X127333477Y-82720381D02*
X127333477Y-83434667D01*
X127285857Y-83577524D01*
X127190619Y-83672762D01*
X127047762Y-83720381D01*
X126952524Y-83720381D01*
X127714429Y-82720381D02*
X128333477Y-82720381D01*
X128000143Y-83101333D01*
X128143001Y-83101333D01*
X128238239Y-83148952D01*
X128285858Y-83196571D01*
X128333477Y-83291810D01*
X128333477Y-83529905D01*
X128285858Y-83625143D01*
X128238239Y-83672762D01*
X128143001Y-83720381D01*
X127857286Y-83720381D01*
X127762048Y-83672762D01*
X127714429Y-83625143D01*
X129238239Y-82720381D02*
X128762048Y-82720381D01*
X128714429Y-83196571D01*
X128762048Y-83148952D01*
X128857286Y-83101333D01*
X129095382Y-83101333D01*
X129190620Y-83148952D01*
X129238239Y-83196571D01*
X129285858Y-83291810D01*
X129285858Y-83529905D01*
X129238239Y-83625143D01*
X129190620Y-83672762D01*
X129095382Y-83720381D01*
X128857286Y-83720381D01*
X128762048Y-83672762D01*
X128714429Y-83625143D01*
X115903477Y-82720381D02*
X115903477Y-83434667D01*
X115855857Y-83577524D01*
X115760619Y-83672762D01*
X115617762Y-83720381D01*
X115522524Y-83720381D01*
X116284429Y-82720381D02*
X116903477Y-82720381D01*
X116570143Y-83101333D01*
X116713001Y-83101333D01*
X116808239Y-83148952D01*
X116855858Y-83196571D01*
X116903477Y-83291810D01*
X116903477Y-83529905D01*
X116855858Y-83625143D01*
X116808239Y-83672762D01*
X116713001Y-83720381D01*
X116427286Y-83720381D01*
X116332048Y-83672762D01*
X116284429Y-83625143D01*
X117760620Y-82720381D02*
X117570143Y-82720381D01*
X117474905Y-82768000D01*
X117427286Y-82815619D01*
X117332048Y-82958476D01*
X117284429Y-83148952D01*
X117284429Y-83529905D01*
X117332048Y-83625143D01*
X117379667Y-83672762D01*
X117474905Y-83720381D01*
X117665382Y-83720381D01*
X117760620Y-83672762D01*
X117808239Y-83625143D01*
X117855858Y-83529905D01*
X117855858Y-83291810D01*
X117808239Y-83196571D01*
X117760620Y-83148952D01*
X117665382Y-83101333D01*
X117474905Y-83101333D01*
X117379667Y-83148952D01*
X117332048Y-83196571D01*
X117284429Y-83291810D01*
X104473477Y-82720381D02*
X104473477Y-83434667D01*
X104425857Y-83577524D01*
X104330619Y-83672762D01*
X104187762Y-83720381D01*
X104092524Y-83720381D01*
X104854429Y-82720381D02*
X105473477Y-82720381D01*
X105140143Y-83101333D01*
X105283001Y-83101333D01*
X105378239Y-83148952D01*
X105425858Y-83196571D01*
X105473477Y-83291810D01*
X105473477Y-83529905D01*
X105425858Y-83625143D01*
X105378239Y-83672762D01*
X105283001Y-83720381D01*
X104997286Y-83720381D01*
X104902048Y-83672762D01*
X104854429Y-83625143D01*
X105806810Y-82720381D02*
X106473477Y-82720381D01*
X106044905Y-83720381D01*
X151717477Y-145204381D02*
X151717477Y-145918667D01*
X151669857Y-146061524D01*
X151574619Y-146156762D01*
X151431762Y-146204381D01*
X151336524Y-146204381D01*
X152098429Y-145204381D02*
X152717477Y-145204381D01*
X152384143Y-145585333D01*
X152527001Y-145585333D01*
X152622239Y-145632952D01*
X152669858Y-145680571D01*
X152717477Y-145775810D01*
X152717477Y-146013905D01*
X152669858Y-146109143D01*
X152622239Y-146156762D01*
X152527001Y-146204381D01*
X152241286Y-146204381D01*
X152146048Y-146156762D01*
X152098429Y-146109143D01*
X153288905Y-145632952D02*
X153193667Y-145585333D01*
X153146048Y-145537714D01*
X153098429Y-145442476D01*
X153098429Y-145394857D01*
X153146048Y-145299619D01*
X153193667Y-145252000D01*
X153288905Y-145204381D01*
X153479382Y-145204381D01*
X153574620Y-145252000D01*
X153622239Y-145299619D01*
X153669858Y-145394857D01*
X153669858Y-145442476D01*
X153622239Y-145537714D01*
X153574620Y-145585333D01*
X153479382Y-145632952D01*
X153288905Y-145632952D01*
X153193667Y-145680571D01*
X153146048Y-145728190D01*
X153098429Y-145823429D01*
X153098429Y-146013905D01*
X153146048Y-146109143D01*
X153193667Y-146156762D01*
X153288905Y-146204381D01*
X153479382Y-146204381D01*
X153574620Y-146156762D01*
X153622239Y-146109143D01*
X153669858Y-146013905D01*
X153669858Y-145823429D01*
X153622239Y-145728190D01*
X153574620Y-145680571D01*
X153479382Y-145632952D01*
X162893477Y-136695381D02*
X162893477Y-137409667D01*
X162845857Y-137552524D01*
X162750619Y-137647762D01*
X162607762Y-137695381D01*
X162512524Y-137695381D01*
X163274429Y-136695381D02*
X163893477Y-136695381D01*
X163560143Y-137076333D01*
X163703001Y-137076333D01*
X163798239Y-137123952D01*
X163845858Y-137171571D01*
X163893477Y-137266810D01*
X163893477Y-137504905D01*
X163845858Y-137600143D01*
X163798239Y-137647762D01*
X163703001Y-137695381D01*
X163417286Y-137695381D01*
X163322048Y-137647762D01*
X163274429Y-137600143D01*
X164369667Y-137695381D02*
X164560143Y-137695381D01*
X164655382Y-137647762D01*
X164703001Y-137600143D01*
X164798239Y-137457286D01*
X164845858Y-137266810D01*
X164845858Y-136885857D01*
X164798239Y-136790619D01*
X164750620Y-136743000D01*
X164655382Y-136695381D01*
X164464905Y-136695381D01*
X164369667Y-136743000D01*
X164322048Y-136790619D01*
X164274429Y-136885857D01*
X164274429Y-137123952D01*
X164322048Y-137219190D01*
X164369667Y-137266810D01*
X164464905Y-137314429D01*
X164655382Y-137314429D01*
X164750620Y-137266810D01*
X164798239Y-137219190D01*
X164845858Y-137123952D01*
X127968477Y-136695381D02*
X127968477Y-137409667D01*
X127920857Y-137552524D01*
X127825619Y-137647762D01*
X127682762Y-137695381D01*
X127587524Y-137695381D01*
X128873239Y-137028714D02*
X128873239Y-137695381D01*
X128635143Y-136647762D02*
X128397048Y-137362048D01*
X129016096Y-137362048D01*
X129587524Y-136695381D02*
X129682763Y-136695381D01*
X129778001Y-136743000D01*
X129825620Y-136790619D01*
X129873239Y-136885857D01*
X129920858Y-137076333D01*
X129920858Y-137314429D01*
X129873239Y-137504905D01*
X129825620Y-137600143D01*
X129778001Y-137647762D01*
X129682763Y-137695381D01*
X129587524Y-137695381D01*
X129492286Y-137647762D01*
X129444667Y-137600143D01*
X129397048Y-137504905D01*
X129349429Y-137314429D01*
X129349429Y-137076333D01*
X129397048Y-136885857D01*
X129444667Y-136790619D01*
X129492286Y-136743000D01*
X129587524Y-136695381D01*
X127968477Y-145585381D02*
X127968477Y-146299667D01*
X127920857Y-146442524D01*
X127825619Y-146537762D01*
X127682762Y-146585381D01*
X127587524Y-146585381D01*
X128873239Y-145918714D02*
X128873239Y-146585381D01*
X128635143Y-145537762D02*
X128397048Y-146252048D01*
X129016096Y-146252048D01*
X129920858Y-146585381D02*
X129349429Y-146585381D01*
X129635143Y-146585381D02*
X129635143Y-145585381D01*
X129539905Y-145728238D01*
X129444667Y-145823476D01*
X129349429Y-145871095D01*
X139398477Y-136695381D02*
X139398477Y-137409667D01*
X139350857Y-137552524D01*
X139255619Y-137647762D01*
X139112762Y-137695381D01*
X139017524Y-137695381D01*
X140303239Y-137028714D02*
X140303239Y-137695381D01*
X140065143Y-136647762D02*
X139827048Y-137362048D01*
X140446096Y-137362048D01*
X140779429Y-136790619D02*
X140827048Y-136743000D01*
X140922286Y-136695381D01*
X141160382Y-136695381D01*
X141255620Y-136743000D01*
X141303239Y-136790619D01*
X141350858Y-136885857D01*
X141350858Y-136981095D01*
X141303239Y-137123952D01*
X140731810Y-137695381D01*
X141350858Y-137695381D01*
X151463477Y-136695381D02*
X151463477Y-137409667D01*
X151415857Y-137552524D01*
X151320619Y-137647762D01*
X151177762Y-137695381D01*
X151082524Y-137695381D01*
X152368239Y-137028714D02*
X152368239Y-137695381D01*
X152130143Y-136647762D02*
X151892048Y-137362048D01*
X152511096Y-137362048D01*
X152796810Y-136695381D02*
X153415858Y-136695381D01*
X153082524Y-137076333D01*
X153225382Y-137076333D01*
X153320620Y-137123952D01*
X153368239Y-137171571D01*
X153415858Y-137266810D01*
X153415858Y-137504905D01*
X153368239Y-137600143D01*
X153320620Y-137647762D01*
X153225382Y-137695381D01*
X152939667Y-137695381D01*
X152844429Y-137647762D01*
X152796810Y-137600143D01*
X115903477Y-136695381D02*
X115903477Y-137409667D01*
X115855857Y-137552524D01*
X115760619Y-137647762D01*
X115617762Y-137695381D01*
X115522524Y-137695381D01*
X116808239Y-137028714D02*
X116808239Y-137695381D01*
X116570143Y-136647762D02*
X116332048Y-137362048D01*
X116951096Y-137362048D01*
X117760620Y-137028714D02*
X117760620Y-137695381D01*
X117522524Y-136647762D02*
X117284429Y-137362048D01*
X117903477Y-137362048D01*
X104473477Y-145585381D02*
X104473477Y-146299667D01*
X104425857Y-146442524D01*
X104330619Y-146537762D01*
X104187762Y-146585381D01*
X104092524Y-146585381D01*
X105378239Y-145918714D02*
X105378239Y-146585381D01*
X105140143Y-145537762D02*
X104902048Y-146252048D01*
X105521096Y-146252048D01*
X106378239Y-145585381D02*
X105902048Y-145585381D01*
X105854429Y-146061571D01*
X105902048Y-146013952D01*
X105997286Y-145966333D01*
X106235382Y-145966333D01*
X106330620Y-146013952D01*
X106378239Y-146061571D01*
X106425858Y-146156810D01*
X106425858Y-146394905D01*
X106378239Y-146490143D01*
X106330620Y-146537762D01*
X106235382Y-146585381D01*
X105997286Y-146585381D01*
X105902048Y-146537762D01*
X105854429Y-146490143D01*
X104473477Y-136695381D02*
X104473477Y-137409667D01*
X104425857Y-137552524D01*
X104330619Y-137647762D01*
X104187762Y-137695381D01*
X104092524Y-137695381D01*
X105378239Y-137028714D02*
X105378239Y-137695381D01*
X105140143Y-136647762D02*
X104902048Y-137362048D01*
X105521096Y-137362048D01*
X106330620Y-136695381D02*
X106140143Y-136695381D01*
X106044905Y-136743000D01*
X105997286Y-136790619D01*
X105902048Y-136933476D01*
X105854429Y-137123952D01*
X105854429Y-137504905D01*
X105902048Y-137600143D01*
X105949667Y-137647762D01*
X106044905Y-137695381D01*
X106235382Y-137695381D01*
X106330620Y-137647762D01*
X106378239Y-137600143D01*
X106425858Y-137504905D01*
X106425858Y-137266810D01*
X106378239Y-137171571D01*
X106330620Y-137123952D01*
X106235382Y-137076333D01*
X106044905Y-137076333D01*
X105949667Y-137123952D01*
X105902048Y-137171571D01*
X105854429Y-137266810D01*
M02*
