M48
;DRILL file {KiCad 4.0.7} date Monday, March 12, 2018 'AMt' 09:49:47 AM
;FORMAT={-:-/ absolute / inch / decimal}
FMAT,2
INCH,TZ
T1C0.039
%
G90
G05
M72
T1
X4.145Y-3.13
X4.145Y-3.37
X4.145Y-3.795
X4.145Y-4.195
X4.145Y-4.645
X4.145Y-5.095
X4.145Y-5.495
X4.145Y-5.845
X4.595Y-3.13
X4.595Y-3.37
X4.595Y-3.795
X4.595Y-4.195
X4.595Y-4.645
X4.595Y-5.095
X4.595Y-5.495
X5.045Y-3.13
X5.045Y-3.37
X5.045Y-3.795
X5.045Y-4.195
X5.07Y-4.645
X5.07Y-5.095
X5.07Y-5.495
X5.07Y-5.845
X5.495Y-4.645
X5.52Y-3.13
X5.52Y-3.37
X5.52Y-3.795
X5.52Y-4.195
X5.52Y-5.095
X5.52Y-5.495
X5.97Y-3.795
X5.97Y-4.195
X5.97Y-4.645
X5.97Y-5.095
X5.995Y-3.13
X5.995Y-3.37
X5.995Y-5.495
X6.005Y-5.83
X6.42Y-3.13
X6.42Y-3.37
X6.445Y-3.795
X6.445Y-4.195
X6.445Y-4.645
X6.445Y-5.095
X6.445Y-5.495
X6.9916Y-2.9501
X6.9916Y-3.0501
X6.9916Y-3.1501
X6.9916Y-3.2501
X6.9916Y-3.3501
X6.9916Y-3.4501
X6.9916Y-3.5501
X6.9916Y-3.6501
X6.9916Y-3.7501
X6.9916Y-3.8501
X6.9916Y-3.9501
X6.9916Y-4.0501
X6.9916Y-4.1501
X6.9916Y-4.2501
X6.9916Y-4.3501
X6.9916Y-4.4501
X6.9916Y-4.5501
X6.9916Y-4.6501
X6.9916Y-4.7501
X6.9916Y-4.8501
X6.9916Y-4.9501
X6.9916Y-5.0501
X6.9916Y-5.1501
X6.9916Y-5.2501
X6.9916Y-5.3501
X6.9916Y-5.4501
X6.9916Y-5.5501
X6.9916Y-5.6501
X6.9916Y-5.7501
X6.9916Y-5.8501
X7.0916Y-2.9501
X7.0916Y-3.0501
X7.0916Y-3.1501
X7.0916Y-3.2501
X7.0916Y-3.3501
X7.0916Y-3.4501
X7.0916Y-3.5501
X7.0916Y-3.6501
X7.0916Y-3.7501
X7.0916Y-3.8501
X7.0916Y-3.9501
X7.0916Y-4.0501
X7.0916Y-4.1501
X7.0916Y-4.2501
X7.0916Y-4.3501
X7.0916Y-4.4501
X7.0916Y-4.5501
X7.0916Y-4.6501
X7.0916Y-4.7501
X7.0916Y-4.8501
X7.0916Y-4.9501
X7.0916Y-5.0501
X7.0916Y-5.1501
X7.0916Y-5.2501
X7.0916Y-5.3501
X7.0916Y-5.4501
X7.0916Y-5.5501
X7.0916Y-5.6501
X7.0916Y-5.7501
X7.0916Y-5.8501
T0
M30
