G04 #@! TF.FileFunction,Soldermask,Top*
%FSLAX46Y46*%
G04 Gerber Fmt 4.6, Leading zero omitted, Abs format (unit mm)*
G04 Created by KiCad (PCBNEW (2015-09-07 BZR 6168)-product) date Monday, March 05, 2018 'PMt' 11:48:28 PM*
%MOMM*%
G01*
G04 APERTURE LIST*
%ADD10C,0.100000*%
%ADD11R,1.900000X1.700000*%
%ADD12R,1.700000X1.900000*%
%ADD13R,2.100000X2.100000*%
%ADD14O,2.100000X2.100000*%
%ADD15R,3.400000X3.400000*%
%ADD16C,3.400000*%
%ADD17R,1.300000X1.200000*%
%ADD18R,1.200000X1.300000*%
%ADD19R,2.000000X2.000000*%
%ADD20O,2.000000X2.000000*%
%ADD21C,7.400000*%
%ADD22R,2.200000X2.200000*%
%ADD23O,2.200000X2.200000*%
%ADD24C,2.000000*%
G04 APERTURE END LIST*
D10*
D11*
X199310000Y-76200000D03*
X202010000Y-76200000D03*
X161210000Y-76200000D03*
X163910000Y-76200000D03*
X123110000Y-76200000D03*
X125810000Y-76200000D03*
X85010000Y-76200000D03*
X87710000Y-76200000D03*
D12*
X67310000Y-92536000D03*
X67310000Y-89836000D03*
D11*
X87710000Y-106680000D03*
X85010000Y-106680000D03*
X125810000Y-106680000D03*
X123110000Y-106680000D03*
X163910000Y-106680000D03*
X161210000Y-106680000D03*
X202010000Y-106680000D03*
X199310000Y-106680000D03*
D13*
X235458000Y-48260000D03*
D14*
X235458000Y-50800000D03*
X235458000Y-53340000D03*
X235458000Y-55880000D03*
X235458000Y-58420000D03*
X235458000Y-60960000D03*
X235458000Y-63500000D03*
X235458000Y-66040000D03*
X235458000Y-68580000D03*
X235458000Y-71120000D03*
X235458000Y-73660000D03*
X235458000Y-76200000D03*
D13*
X235458000Y-104140000D03*
D14*
X235458000Y-101600000D03*
X235458000Y-99060000D03*
X235458000Y-96520000D03*
X235458000Y-93980000D03*
X235458000Y-91440000D03*
X235458000Y-88900000D03*
X235458000Y-86360000D03*
X235458000Y-83820000D03*
X235458000Y-81280000D03*
D13*
X217170000Y-83820000D03*
D14*
X214630000Y-83820000D03*
X212090000Y-83820000D03*
X209550000Y-83820000D03*
X207010000Y-83820000D03*
X204470000Y-83820000D03*
X201930000Y-83820000D03*
X199390000Y-83820000D03*
X196850000Y-83820000D03*
X194310000Y-83820000D03*
X191770000Y-83820000D03*
X189230000Y-83820000D03*
X186690000Y-83820000D03*
X184150000Y-83820000D03*
D13*
X217170000Y-99060000D03*
D14*
X214630000Y-99060000D03*
X212090000Y-99060000D03*
X209550000Y-99060000D03*
X207010000Y-99060000D03*
X204470000Y-99060000D03*
X201930000Y-99060000D03*
X199390000Y-99060000D03*
X196850000Y-99060000D03*
X194310000Y-99060000D03*
X191770000Y-99060000D03*
X189230000Y-99060000D03*
X186690000Y-99060000D03*
X184150000Y-99060000D03*
D13*
X232156000Y-102870000D03*
D14*
X232156000Y-100330000D03*
X232156000Y-97790000D03*
X232156000Y-95250000D03*
X232156000Y-92710000D03*
X232156000Y-90170000D03*
X232156000Y-87630000D03*
D15*
X233426000Y-114300000D03*
D16*
X233426000Y-109220000D03*
D17*
X57928000Y-53914000D03*
X57928000Y-55814000D03*
X59928000Y-54864000D03*
D18*
X70170000Y-54975000D03*
X72070000Y-54975000D03*
X71120000Y-52975000D03*
D17*
X223885000Y-56195000D03*
X223885000Y-54295000D03*
X221885000Y-55245000D03*
D18*
X209870000Y-54975000D03*
X211770000Y-54975000D03*
X210820000Y-52975000D03*
D17*
X63897000Y-127955000D03*
X63897000Y-129855000D03*
X65897000Y-128905000D03*
D18*
X77277000Y-127905000D03*
X75377000Y-127905000D03*
X76327000Y-129905000D03*
D17*
X202581000Y-127955000D03*
X202581000Y-129855000D03*
X204581000Y-128905000D03*
D18*
X217231000Y-127905000D03*
X215331000Y-127905000D03*
X216281000Y-129905000D03*
X61915000Y-54975000D03*
X63815000Y-54975000D03*
X62865000Y-52975000D03*
X218125000Y-54975000D03*
X220025000Y-54975000D03*
X219075000Y-52975000D03*
X69657000Y-127905000D03*
X67757000Y-127905000D03*
X68707000Y-129905000D03*
X225359000Y-127905000D03*
X223459000Y-127905000D03*
X224409000Y-129905000D03*
X78425000Y-54975000D03*
X80325000Y-54975000D03*
X79375000Y-52975000D03*
X201615000Y-54975000D03*
X203515000Y-54975000D03*
X202565000Y-52975000D03*
X85659000Y-127905000D03*
X83759000Y-127905000D03*
X84709000Y-129905000D03*
X208341000Y-127905000D03*
X206441000Y-127905000D03*
X207391000Y-129905000D03*
D17*
X78375000Y-41595000D03*
X78375000Y-43495000D03*
X80375000Y-42545000D03*
X78375000Y-45405000D03*
X78375000Y-47305000D03*
X80375000Y-46355000D03*
X78375000Y-49215000D03*
X78375000Y-51115000D03*
X80375000Y-50165000D03*
X61865000Y-41595000D03*
X61865000Y-43495000D03*
X63865000Y-42545000D03*
X61865000Y-45405000D03*
X61865000Y-47305000D03*
X63865000Y-46355000D03*
X61865000Y-49215000D03*
X61865000Y-51115000D03*
X63865000Y-50165000D03*
X70120000Y-41595000D03*
X70120000Y-43495000D03*
X72120000Y-42545000D03*
X70120000Y-45405000D03*
X70120000Y-47305000D03*
X72120000Y-46355000D03*
X70120000Y-49215000D03*
X70120000Y-51115000D03*
X72120000Y-50165000D03*
X201565000Y-49215000D03*
X201565000Y-51115000D03*
X203565000Y-50165000D03*
X201565000Y-45405000D03*
X201565000Y-47305000D03*
X203565000Y-46355000D03*
X201565000Y-41595000D03*
X201565000Y-43495000D03*
X203565000Y-42545000D03*
X218075000Y-49215000D03*
X218075000Y-51115000D03*
X220075000Y-50165000D03*
X218075000Y-45405000D03*
X218075000Y-47305000D03*
X220075000Y-46355000D03*
X218075000Y-41595000D03*
X218075000Y-43495000D03*
X220075000Y-42545000D03*
X209820000Y-49215000D03*
X209820000Y-51115000D03*
X211820000Y-50165000D03*
X209820000Y-45405000D03*
X209820000Y-47305000D03*
X211820000Y-46355000D03*
X209820000Y-41595000D03*
X209820000Y-43495000D03*
X211820000Y-42545000D03*
X85709000Y-133665000D03*
X85709000Y-131765000D03*
X83709000Y-132715000D03*
X85709000Y-137475000D03*
X85709000Y-135575000D03*
X83709000Y-136525000D03*
X85709000Y-141285000D03*
X85709000Y-139385000D03*
X83709000Y-140335000D03*
X69707000Y-133665000D03*
X69707000Y-131765000D03*
X67707000Y-132715000D03*
X69707000Y-137475000D03*
X69707000Y-135575000D03*
X67707000Y-136525000D03*
X69707000Y-141285000D03*
X69707000Y-139385000D03*
X67707000Y-140335000D03*
X77327000Y-133665000D03*
X77327000Y-131765000D03*
X75327000Y-132715000D03*
X77327000Y-137475000D03*
X77327000Y-135575000D03*
X75327000Y-136525000D03*
X77327000Y-141285000D03*
X77327000Y-139385000D03*
X75327000Y-140335000D03*
X208391000Y-141285000D03*
X208391000Y-139385000D03*
X206391000Y-140335000D03*
X208391000Y-137475000D03*
X208391000Y-135575000D03*
X206391000Y-136525000D03*
X208391000Y-133665000D03*
X208391000Y-131765000D03*
X206391000Y-132715000D03*
X225409000Y-141285000D03*
X225409000Y-139385000D03*
X223409000Y-140335000D03*
X225409000Y-137475000D03*
X225409000Y-135575000D03*
X223409000Y-136525000D03*
X225409000Y-133665000D03*
X225409000Y-131765000D03*
X223409000Y-132715000D03*
X217281000Y-141285000D03*
X217281000Y-139385000D03*
X215281000Y-140335000D03*
X217281000Y-137475000D03*
X217281000Y-135575000D03*
X215281000Y-136525000D03*
X217281000Y-133665000D03*
X217281000Y-131765000D03*
X215281000Y-132715000D03*
D12*
X196850000Y-79074000D03*
X196850000Y-76374000D03*
X158750000Y-79074000D03*
X158750000Y-76374000D03*
X120650000Y-79074000D03*
X120650000Y-76374000D03*
X82550000Y-79074000D03*
X82550000Y-76374000D03*
D11*
X70184000Y-94742000D03*
X67484000Y-94742000D03*
D12*
X90170000Y-103806000D03*
X90170000Y-106506000D03*
X128270000Y-103806000D03*
X128270000Y-106506000D03*
X166370000Y-103806000D03*
X166370000Y-106506000D03*
X204470000Y-103806000D03*
X204470000Y-106506000D03*
D19*
X217170000Y-66040000D03*
D20*
X184150000Y-73660000D03*
X214630000Y-66040000D03*
X186690000Y-73660000D03*
X212090000Y-66040000D03*
X189230000Y-73660000D03*
X209550000Y-66040000D03*
X191770000Y-73660000D03*
X207010000Y-66040000D03*
X194310000Y-73660000D03*
X204470000Y-66040000D03*
X196850000Y-73660000D03*
X201930000Y-66040000D03*
X199390000Y-73660000D03*
X199390000Y-66040000D03*
X201930000Y-73660000D03*
X196850000Y-66040000D03*
X204470000Y-73660000D03*
X194310000Y-66040000D03*
X207010000Y-73660000D03*
X191770000Y-66040000D03*
X209550000Y-73660000D03*
X189230000Y-66040000D03*
X212090000Y-73660000D03*
X186690000Y-66040000D03*
X214630000Y-73660000D03*
X184150000Y-66040000D03*
X217170000Y-73660000D03*
D19*
X179070000Y-66040000D03*
D20*
X146050000Y-73660000D03*
X176530000Y-66040000D03*
X148590000Y-73660000D03*
X173990000Y-66040000D03*
X151130000Y-73660000D03*
X171450000Y-66040000D03*
X153670000Y-73660000D03*
X168910000Y-66040000D03*
X156210000Y-73660000D03*
X166370000Y-66040000D03*
X158750000Y-73660000D03*
X163830000Y-66040000D03*
X161290000Y-73660000D03*
X161290000Y-66040000D03*
X163830000Y-73660000D03*
X158750000Y-66040000D03*
X166370000Y-73660000D03*
X156210000Y-66040000D03*
X168910000Y-73660000D03*
X153670000Y-66040000D03*
X171450000Y-73660000D03*
X151130000Y-66040000D03*
X173990000Y-73660000D03*
X148590000Y-66040000D03*
X176530000Y-73660000D03*
X146050000Y-66040000D03*
X179070000Y-73660000D03*
D19*
X140970000Y-66040000D03*
D20*
X107950000Y-73660000D03*
X138430000Y-66040000D03*
X110490000Y-73660000D03*
X135890000Y-66040000D03*
X113030000Y-73660000D03*
X133350000Y-66040000D03*
X115570000Y-73660000D03*
X130810000Y-66040000D03*
X118110000Y-73660000D03*
X128270000Y-66040000D03*
X120650000Y-73660000D03*
X125730000Y-66040000D03*
X123190000Y-73660000D03*
X123190000Y-66040000D03*
X125730000Y-73660000D03*
X120650000Y-66040000D03*
X128270000Y-73660000D03*
X118110000Y-66040000D03*
X130810000Y-73660000D03*
X115570000Y-66040000D03*
X133350000Y-73660000D03*
X113030000Y-66040000D03*
X135890000Y-73660000D03*
X110490000Y-66040000D03*
X138430000Y-73660000D03*
X107950000Y-66040000D03*
X140970000Y-73660000D03*
D19*
X102870000Y-66040000D03*
D20*
X69850000Y-73660000D03*
X100330000Y-66040000D03*
X72390000Y-73660000D03*
X97790000Y-66040000D03*
X74930000Y-73660000D03*
X95250000Y-66040000D03*
X77470000Y-73660000D03*
X92710000Y-66040000D03*
X80010000Y-73660000D03*
X90170000Y-66040000D03*
X82550000Y-73660000D03*
X87630000Y-66040000D03*
X85090000Y-73660000D03*
X85090000Y-66040000D03*
X87630000Y-73660000D03*
X82550000Y-66040000D03*
X90170000Y-73660000D03*
X80010000Y-66040000D03*
X92710000Y-73660000D03*
X77470000Y-66040000D03*
X95250000Y-73660000D03*
X74930000Y-66040000D03*
X97790000Y-73660000D03*
X72390000Y-66040000D03*
X100330000Y-73660000D03*
X69850000Y-66040000D03*
X102870000Y-73660000D03*
D19*
X57150000Y-74676000D03*
D20*
X64770000Y-107696000D03*
X57150000Y-77216000D03*
X64770000Y-105156000D03*
X57150000Y-79756000D03*
X64770000Y-102616000D03*
X57150000Y-82296000D03*
X64770000Y-100076000D03*
X57150000Y-84836000D03*
X64770000Y-97536000D03*
X57150000Y-87376000D03*
X64770000Y-94996000D03*
X57150000Y-89916000D03*
X64770000Y-92456000D03*
X57150000Y-92456000D03*
X64770000Y-89916000D03*
X57150000Y-94996000D03*
X64770000Y-87376000D03*
X57150000Y-97536000D03*
X64770000Y-84836000D03*
X57150000Y-100076000D03*
X64770000Y-82296000D03*
X57150000Y-102616000D03*
X64770000Y-79756000D03*
X57150000Y-105156000D03*
X64770000Y-77216000D03*
X57150000Y-107696000D03*
X64770000Y-74676000D03*
D19*
X69850000Y-116840000D03*
D20*
X102870000Y-109220000D03*
X72390000Y-116840000D03*
X100330000Y-109220000D03*
X74930000Y-116840000D03*
X97790000Y-109220000D03*
X77470000Y-116840000D03*
X95250000Y-109220000D03*
X80010000Y-116840000D03*
X92710000Y-109220000D03*
X82550000Y-116840000D03*
X90170000Y-109220000D03*
X85090000Y-116840000D03*
X87630000Y-109220000D03*
X87630000Y-116840000D03*
X85090000Y-109220000D03*
X90170000Y-116840000D03*
X82550000Y-109220000D03*
X92710000Y-116840000D03*
X80010000Y-109220000D03*
X95250000Y-116840000D03*
X77470000Y-109220000D03*
X97790000Y-116840000D03*
X74930000Y-109220000D03*
X100330000Y-116840000D03*
X72390000Y-109220000D03*
X102870000Y-116840000D03*
X69850000Y-109220000D03*
D19*
X107950000Y-116840000D03*
D20*
X140970000Y-109220000D03*
X110490000Y-116840000D03*
X138430000Y-109220000D03*
X113030000Y-116840000D03*
X135890000Y-109220000D03*
X115570000Y-116840000D03*
X133350000Y-109220000D03*
X118110000Y-116840000D03*
X130810000Y-109220000D03*
X120650000Y-116840000D03*
X128270000Y-109220000D03*
X123190000Y-116840000D03*
X125730000Y-109220000D03*
X125730000Y-116840000D03*
X123190000Y-109220000D03*
X128270000Y-116840000D03*
X120650000Y-109220000D03*
X130810000Y-116840000D03*
X118110000Y-109220000D03*
X133350000Y-116840000D03*
X115570000Y-109220000D03*
X135890000Y-116840000D03*
X113030000Y-109220000D03*
X138430000Y-116840000D03*
X110490000Y-109220000D03*
X140970000Y-116840000D03*
X107950000Y-109220000D03*
D19*
X146050000Y-116840000D03*
D20*
X179070000Y-109220000D03*
X148590000Y-116840000D03*
X176530000Y-109220000D03*
X151130000Y-116840000D03*
X173990000Y-109220000D03*
X153670000Y-116840000D03*
X171450000Y-109220000D03*
X156210000Y-116840000D03*
X168910000Y-109220000D03*
X158750000Y-116840000D03*
X166370000Y-109220000D03*
X161290000Y-116840000D03*
X163830000Y-109220000D03*
X163830000Y-116840000D03*
X161290000Y-109220000D03*
X166370000Y-116840000D03*
X158750000Y-109220000D03*
X168910000Y-116840000D03*
X156210000Y-109220000D03*
X171450000Y-116840000D03*
X153670000Y-109220000D03*
X173990000Y-116840000D03*
X151130000Y-109220000D03*
X176530000Y-116840000D03*
X148590000Y-109220000D03*
X179070000Y-116840000D03*
X146050000Y-109220000D03*
D19*
X184150000Y-116840000D03*
D20*
X217170000Y-109220000D03*
X186690000Y-116840000D03*
X214630000Y-109220000D03*
X189230000Y-116840000D03*
X212090000Y-109220000D03*
X191770000Y-116840000D03*
X209550000Y-109220000D03*
X194310000Y-116840000D03*
X207010000Y-109220000D03*
X196850000Y-116840000D03*
X204470000Y-109220000D03*
X199390000Y-116840000D03*
X201930000Y-109220000D03*
X201930000Y-116840000D03*
X199390000Y-109220000D03*
X204470000Y-116840000D03*
X196850000Y-109220000D03*
X207010000Y-116840000D03*
X194310000Y-109220000D03*
X209550000Y-116840000D03*
X191770000Y-109220000D03*
X212090000Y-116840000D03*
X189230000Y-109220000D03*
X214630000Y-116840000D03*
X186690000Y-109220000D03*
X217170000Y-116840000D03*
X184150000Y-109220000D03*
D13*
X137160000Y-35560000D03*
D14*
X137160000Y-38100000D03*
X134620000Y-35560000D03*
X134620000Y-38100000D03*
X132080000Y-35560000D03*
X132080000Y-38100000D03*
X129540000Y-35560000D03*
X129540000Y-38100000D03*
X127000000Y-35560000D03*
X127000000Y-38100000D03*
X124460000Y-35560000D03*
X124460000Y-38100000D03*
X121920000Y-35560000D03*
X121920000Y-38100000D03*
X119380000Y-35560000D03*
X119380000Y-38100000D03*
X116840000Y-35560000D03*
X116840000Y-38100000D03*
X114300000Y-35560000D03*
X114300000Y-38100000D03*
X111760000Y-35560000D03*
X111760000Y-38100000D03*
X109220000Y-35560000D03*
X109220000Y-38100000D03*
X106680000Y-35560000D03*
X106680000Y-38100000D03*
X104140000Y-35560000D03*
X104140000Y-38100000D03*
X101600000Y-35560000D03*
X101600000Y-38100000D03*
X99060000Y-35560000D03*
X99060000Y-38100000D03*
X96520000Y-35560000D03*
X96520000Y-38100000D03*
X93980000Y-35560000D03*
X93980000Y-38100000D03*
X91440000Y-35560000D03*
X91440000Y-38100000D03*
X88900000Y-35560000D03*
X88900000Y-38100000D03*
X86360000Y-35560000D03*
X86360000Y-38100000D03*
X83820000Y-35560000D03*
X83820000Y-38100000D03*
X81280000Y-35560000D03*
X81280000Y-38100000D03*
X78740000Y-35560000D03*
X78740000Y-38100000D03*
X76200000Y-35560000D03*
X76200000Y-38100000D03*
X73660000Y-35560000D03*
X73660000Y-38100000D03*
X71120000Y-35560000D03*
X71120000Y-38100000D03*
X68580000Y-35560000D03*
X68580000Y-38100000D03*
X66040000Y-35560000D03*
X66040000Y-38100000D03*
X63500000Y-35560000D03*
X63500000Y-38100000D03*
D13*
X137160000Y-144780000D03*
D14*
X137160000Y-147320000D03*
X134620000Y-144780000D03*
X134620000Y-147320000D03*
X132080000Y-144780000D03*
X132080000Y-147320000D03*
X129540000Y-144780000D03*
X129540000Y-147320000D03*
X127000000Y-144780000D03*
X127000000Y-147320000D03*
X124460000Y-144780000D03*
X124460000Y-147320000D03*
X121920000Y-144780000D03*
X121920000Y-147320000D03*
X119380000Y-144780000D03*
X119380000Y-147320000D03*
X116840000Y-144780000D03*
X116840000Y-147320000D03*
X114300000Y-144780000D03*
X114300000Y-147320000D03*
X111760000Y-144780000D03*
X111760000Y-147320000D03*
X109220000Y-144780000D03*
X109220000Y-147320000D03*
X106680000Y-144780000D03*
X106680000Y-147320000D03*
X104140000Y-144780000D03*
X104140000Y-147320000D03*
X101600000Y-144780000D03*
X101600000Y-147320000D03*
X99060000Y-144780000D03*
X99060000Y-147320000D03*
X96520000Y-144780000D03*
X96520000Y-147320000D03*
X93980000Y-144780000D03*
X93980000Y-147320000D03*
X91440000Y-144780000D03*
X91440000Y-147320000D03*
X88900000Y-144780000D03*
X88900000Y-147320000D03*
X86360000Y-144780000D03*
X86360000Y-147320000D03*
X83820000Y-144780000D03*
X83820000Y-147320000D03*
X81280000Y-144780000D03*
X81280000Y-147320000D03*
X78740000Y-144780000D03*
X78740000Y-147320000D03*
X76200000Y-144780000D03*
X76200000Y-147320000D03*
X73660000Y-144780000D03*
X73660000Y-147320000D03*
X71120000Y-144780000D03*
X71120000Y-147320000D03*
X68580000Y-144780000D03*
X68580000Y-147320000D03*
X66040000Y-144780000D03*
X66040000Y-147320000D03*
X63500000Y-144780000D03*
X63500000Y-147320000D03*
D13*
X149860000Y-38100000D03*
D14*
X149860000Y-35560000D03*
X152400000Y-38100000D03*
X152400000Y-35560000D03*
X154940000Y-38100000D03*
X154940000Y-35560000D03*
X157480000Y-38100000D03*
X157480000Y-35560000D03*
X160020000Y-38100000D03*
X160020000Y-35560000D03*
X162560000Y-38100000D03*
X162560000Y-35560000D03*
X165100000Y-38100000D03*
X165100000Y-35560000D03*
X167640000Y-38100000D03*
X167640000Y-35560000D03*
X170180000Y-38100000D03*
X170180000Y-35560000D03*
X172720000Y-38100000D03*
X172720000Y-35560000D03*
X175260000Y-38100000D03*
X175260000Y-35560000D03*
X177800000Y-38100000D03*
X177800000Y-35560000D03*
X180340000Y-38100000D03*
X180340000Y-35560000D03*
X182880000Y-38100000D03*
X182880000Y-35560000D03*
X185420000Y-38100000D03*
X185420000Y-35560000D03*
X187960000Y-38100000D03*
X187960000Y-35560000D03*
X190500000Y-38100000D03*
X190500000Y-35560000D03*
X193040000Y-38100000D03*
X193040000Y-35560000D03*
X195580000Y-38100000D03*
X195580000Y-35560000D03*
X198120000Y-38100000D03*
X198120000Y-35560000D03*
X200660000Y-38100000D03*
X200660000Y-35560000D03*
X203200000Y-38100000D03*
X203200000Y-35560000D03*
X205740000Y-38100000D03*
X205740000Y-35560000D03*
X208280000Y-38100000D03*
X208280000Y-35560000D03*
X210820000Y-38100000D03*
X210820000Y-35560000D03*
X213360000Y-38100000D03*
X213360000Y-35560000D03*
X215900000Y-38100000D03*
X215900000Y-35560000D03*
X218440000Y-38100000D03*
X218440000Y-35560000D03*
X220980000Y-38100000D03*
X220980000Y-35560000D03*
X223520000Y-38100000D03*
X223520000Y-35560000D03*
D13*
X149860000Y-147320000D03*
D14*
X149860000Y-144780000D03*
X152400000Y-147320000D03*
X152400000Y-144780000D03*
X154940000Y-147320000D03*
X154940000Y-144780000D03*
X157480000Y-147320000D03*
X157480000Y-144780000D03*
X160020000Y-147320000D03*
X160020000Y-144780000D03*
X162560000Y-147320000D03*
X162560000Y-144780000D03*
X165100000Y-147320000D03*
X165100000Y-144780000D03*
X167640000Y-147320000D03*
X167640000Y-144780000D03*
X170180000Y-147320000D03*
X170180000Y-144780000D03*
X172720000Y-147320000D03*
X172720000Y-144780000D03*
X175260000Y-147320000D03*
X175260000Y-144780000D03*
X177800000Y-147320000D03*
X177800000Y-144780000D03*
X180340000Y-147320000D03*
X180340000Y-144780000D03*
X182880000Y-147320000D03*
X182880000Y-144780000D03*
X185420000Y-147320000D03*
X185420000Y-144780000D03*
X187960000Y-147320000D03*
X187960000Y-144780000D03*
X190500000Y-147320000D03*
X190500000Y-144780000D03*
X193040000Y-147320000D03*
X193040000Y-144780000D03*
X195580000Y-147320000D03*
X195580000Y-144780000D03*
X198120000Y-147320000D03*
X198120000Y-144780000D03*
X200660000Y-147320000D03*
X200660000Y-144780000D03*
X203200000Y-147320000D03*
X203200000Y-144780000D03*
X205740000Y-147320000D03*
X205740000Y-144780000D03*
X208280000Y-147320000D03*
X208280000Y-144780000D03*
X210820000Y-147320000D03*
X210820000Y-144780000D03*
X213360000Y-147320000D03*
X213360000Y-144780000D03*
X215900000Y-147320000D03*
X215900000Y-144780000D03*
X218440000Y-147320000D03*
X218440000Y-144780000D03*
X220980000Y-147320000D03*
X220980000Y-144780000D03*
X223520000Y-147320000D03*
X223520000Y-144780000D03*
D21*
X233680000Y-38100000D03*
X55880000Y-38100000D03*
X55880000Y-144780000D03*
X233680000Y-144780000D03*
D18*
X220411000Y-75295000D03*
X222311000Y-75295000D03*
X221361000Y-73295000D03*
D17*
X225917000Y-93787000D03*
X225917000Y-91887000D03*
X223917000Y-92837000D03*
D18*
X228031000Y-75295000D03*
X229931000Y-75295000D03*
X228981000Y-73295000D03*
D17*
X229473000Y-96581000D03*
X229473000Y-94681000D03*
X227473000Y-95631000D03*
D18*
X221803000Y-82185000D03*
X219903000Y-82185000D03*
X220853000Y-84185000D03*
D17*
X225917000Y-99375000D03*
X225917000Y-97475000D03*
X223917000Y-98425000D03*
D18*
X229931000Y-82185000D03*
X228031000Y-82185000D03*
X228981000Y-84185000D03*
D17*
X225917000Y-104963000D03*
X225917000Y-103063000D03*
X223917000Y-104013000D03*
X229473000Y-90993000D03*
X229473000Y-89093000D03*
X227473000Y-90043000D03*
X229473000Y-102169000D03*
X229473000Y-100269000D03*
X227473000Y-101219000D03*
D12*
X224155000Y-76153000D03*
X224155000Y-73453000D03*
D11*
X219249000Y-92583000D03*
X221949000Y-92583000D03*
D12*
X226187000Y-76153000D03*
X226187000Y-73453000D03*
D11*
X222805000Y-95631000D03*
X225505000Y-95631000D03*
D12*
X224155000Y-81327000D03*
X224155000Y-84027000D03*
X220599000Y-95805000D03*
X220599000Y-98505000D03*
X226187000Y-81327000D03*
X226187000Y-84027000D03*
D11*
X219249000Y-104013000D03*
X221949000Y-104013000D03*
X222805000Y-90043000D03*
X225505000Y-90043000D03*
X222805000Y-101219000D03*
X225505000Y-101219000D03*
D22*
X234950000Y-120015000D03*
D23*
X234950000Y-122555000D03*
X234950000Y-125095000D03*
D19*
X229235000Y-118745000D03*
D24*
X229235000Y-121245000D03*
D19*
X231775000Y-133223000D03*
D24*
X235275000Y-133223000D03*
D19*
X229235000Y-127000000D03*
D24*
X229235000Y-124500000D03*
M02*
