G04 #@! TF.FileFunction,Copper,L1,Top,Signal*
%FSLAX46Y46*%
G04 Gerber Fmt 4.6, Leading zero omitted, Abs format (unit mm)*
G04 Created by KiCad (PCBNEW (2015-09-07 BZR 6168)-product) date Monday, March 05, 2018 'PMt' 11:48:28 PM*
%MOMM*%
G01*
G04 APERTURE LIST*
%ADD10C,0.100000*%
%ADD11R,1.500000X1.300000*%
%ADD12R,1.300000X1.500000*%
%ADD13R,1.700000X1.700000*%
%ADD14O,1.700000X1.700000*%
%ADD15R,3.000000X3.000000*%
%ADD16C,3.000000*%
%ADD17R,0.900000X0.800000*%
%ADD18R,0.800000X0.900000*%
%ADD19R,1.600000X1.600000*%
%ADD20O,1.600000X1.600000*%
%ADD21C,7.000000*%
%ADD22R,1.800000X1.800000*%
%ADD23O,1.800000X1.800000*%
%ADD24C,1.600000*%
%ADD25C,1.200000*%
%ADD26C,0.600000*%
%ADD27C,2.540000*%
%ADD28C,1.200000*%
%ADD29C,0.400000*%
%ADD30C,2.540000*%
G04 APERTURE END LIST*
D10*
D11*
X199310000Y-76200000D03*
X202010000Y-76200000D03*
X161210000Y-76200000D03*
X163910000Y-76200000D03*
X123110000Y-76200000D03*
X125810000Y-76200000D03*
X85010000Y-76200000D03*
X87710000Y-76200000D03*
D12*
X67310000Y-92536000D03*
X67310000Y-89836000D03*
D11*
X87710000Y-106680000D03*
X85010000Y-106680000D03*
X125810000Y-106680000D03*
X123110000Y-106680000D03*
X163910000Y-106680000D03*
X161210000Y-106680000D03*
X202010000Y-106680000D03*
X199310000Y-106680000D03*
D13*
X235458000Y-48260000D03*
D14*
X235458000Y-50800000D03*
X235458000Y-53340000D03*
X235458000Y-55880000D03*
X235458000Y-58420000D03*
X235458000Y-60960000D03*
X235458000Y-63500000D03*
X235458000Y-66040000D03*
X235458000Y-68580000D03*
X235458000Y-71120000D03*
X235458000Y-73660000D03*
X235458000Y-76200000D03*
D13*
X235458000Y-104140000D03*
D14*
X235458000Y-101600000D03*
X235458000Y-99060000D03*
X235458000Y-96520000D03*
X235458000Y-93980000D03*
X235458000Y-91440000D03*
X235458000Y-88900000D03*
X235458000Y-86360000D03*
X235458000Y-83820000D03*
X235458000Y-81280000D03*
D13*
X217170000Y-83820000D03*
D14*
X214630000Y-83820000D03*
X212090000Y-83820000D03*
X209550000Y-83820000D03*
X207010000Y-83820000D03*
X204470000Y-83820000D03*
X201930000Y-83820000D03*
X199390000Y-83820000D03*
X196850000Y-83820000D03*
X194310000Y-83820000D03*
X191770000Y-83820000D03*
X189230000Y-83820000D03*
X186690000Y-83820000D03*
X184150000Y-83820000D03*
D13*
X217170000Y-99060000D03*
D14*
X214630000Y-99060000D03*
X212090000Y-99060000D03*
X209550000Y-99060000D03*
X207010000Y-99060000D03*
X204470000Y-99060000D03*
X201930000Y-99060000D03*
X199390000Y-99060000D03*
X196850000Y-99060000D03*
X194310000Y-99060000D03*
X191770000Y-99060000D03*
X189230000Y-99060000D03*
X186690000Y-99060000D03*
X184150000Y-99060000D03*
D13*
X232156000Y-102870000D03*
D14*
X232156000Y-100330000D03*
X232156000Y-97790000D03*
X232156000Y-95250000D03*
X232156000Y-92710000D03*
X232156000Y-90170000D03*
X232156000Y-87630000D03*
D15*
X233426000Y-114300000D03*
D16*
X233426000Y-109220000D03*
D17*
X57928000Y-53914000D03*
X57928000Y-55814000D03*
X59928000Y-54864000D03*
D18*
X70170000Y-54975000D03*
X72070000Y-54975000D03*
X71120000Y-52975000D03*
D17*
X223885000Y-56195000D03*
X223885000Y-54295000D03*
X221885000Y-55245000D03*
D18*
X209870000Y-54975000D03*
X211770000Y-54975000D03*
X210820000Y-52975000D03*
D17*
X63897000Y-127955000D03*
X63897000Y-129855000D03*
X65897000Y-128905000D03*
D18*
X77277000Y-127905000D03*
X75377000Y-127905000D03*
X76327000Y-129905000D03*
D17*
X202581000Y-127955000D03*
X202581000Y-129855000D03*
X204581000Y-128905000D03*
D18*
X217231000Y-127905000D03*
X215331000Y-127905000D03*
X216281000Y-129905000D03*
X61915000Y-54975000D03*
X63815000Y-54975000D03*
X62865000Y-52975000D03*
X218125000Y-54975000D03*
X220025000Y-54975000D03*
X219075000Y-52975000D03*
X69657000Y-127905000D03*
X67757000Y-127905000D03*
X68707000Y-129905000D03*
X225359000Y-127905000D03*
X223459000Y-127905000D03*
X224409000Y-129905000D03*
X78425000Y-54975000D03*
X80325000Y-54975000D03*
X79375000Y-52975000D03*
X201615000Y-54975000D03*
X203515000Y-54975000D03*
X202565000Y-52975000D03*
X85659000Y-127905000D03*
X83759000Y-127905000D03*
X84709000Y-129905000D03*
X208341000Y-127905000D03*
X206441000Y-127905000D03*
X207391000Y-129905000D03*
D17*
X78375000Y-41595000D03*
X78375000Y-43495000D03*
X80375000Y-42545000D03*
X78375000Y-45405000D03*
X78375000Y-47305000D03*
X80375000Y-46355000D03*
X78375000Y-49215000D03*
X78375000Y-51115000D03*
X80375000Y-50165000D03*
X61865000Y-41595000D03*
X61865000Y-43495000D03*
X63865000Y-42545000D03*
X61865000Y-45405000D03*
X61865000Y-47305000D03*
X63865000Y-46355000D03*
X61865000Y-49215000D03*
X61865000Y-51115000D03*
X63865000Y-50165000D03*
X70120000Y-41595000D03*
X70120000Y-43495000D03*
X72120000Y-42545000D03*
X70120000Y-45405000D03*
X70120000Y-47305000D03*
X72120000Y-46355000D03*
X70120000Y-49215000D03*
X70120000Y-51115000D03*
X72120000Y-50165000D03*
X201565000Y-49215000D03*
X201565000Y-51115000D03*
X203565000Y-50165000D03*
X201565000Y-45405000D03*
X201565000Y-47305000D03*
X203565000Y-46355000D03*
X201565000Y-41595000D03*
X201565000Y-43495000D03*
X203565000Y-42545000D03*
X218075000Y-49215000D03*
X218075000Y-51115000D03*
X220075000Y-50165000D03*
X218075000Y-45405000D03*
X218075000Y-47305000D03*
X220075000Y-46355000D03*
X218075000Y-41595000D03*
X218075000Y-43495000D03*
X220075000Y-42545000D03*
X209820000Y-49215000D03*
X209820000Y-51115000D03*
X211820000Y-50165000D03*
X209820000Y-45405000D03*
X209820000Y-47305000D03*
X211820000Y-46355000D03*
X209820000Y-41595000D03*
X209820000Y-43495000D03*
X211820000Y-42545000D03*
X85709000Y-133665000D03*
X85709000Y-131765000D03*
X83709000Y-132715000D03*
X85709000Y-137475000D03*
X85709000Y-135575000D03*
X83709000Y-136525000D03*
X85709000Y-141285000D03*
X85709000Y-139385000D03*
X83709000Y-140335000D03*
X69707000Y-133665000D03*
X69707000Y-131765000D03*
X67707000Y-132715000D03*
X69707000Y-137475000D03*
X69707000Y-135575000D03*
X67707000Y-136525000D03*
X69707000Y-141285000D03*
X69707000Y-139385000D03*
X67707000Y-140335000D03*
X77327000Y-133665000D03*
X77327000Y-131765000D03*
X75327000Y-132715000D03*
X77327000Y-137475000D03*
X77327000Y-135575000D03*
X75327000Y-136525000D03*
X77327000Y-141285000D03*
X77327000Y-139385000D03*
X75327000Y-140335000D03*
X208391000Y-141285000D03*
X208391000Y-139385000D03*
X206391000Y-140335000D03*
X208391000Y-137475000D03*
X208391000Y-135575000D03*
X206391000Y-136525000D03*
X208391000Y-133665000D03*
X208391000Y-131765000D03*
X206391000Y-132715000D03*
X225409000Y-141285000D03*
X225409000Y-139385000D03*
X223409000Y-140335000D03*
X225409000Y-137475000D03*
X225409000Y-135575000D03*
X223409000Y-136525000D03*
X225409000Y-133665000D03*
X225409000Y-131765000D03*
X223409000Y-132715000D03*
X217281000Y-141285000D03*
X217281000Y-139385000D03*
X215281000Y-140335000D03*
X217281000Y-137475000D03*
X217281000Y-135575000D03*
X215281000Y-136525000D03*
X217281000Y-133665000D03*
X217281000Y-131765000D03*
X215281000Y-132715000D03*
D12*
X196850000Y-79074000D03*
X196850000Y-76374000D03*
X158750000Y-79074000D03*
X158750000Y-76374000D03*
X120650000Y-79074000D03*
X120650000Y-76374000D03*
X82550000Y-79074000D03*
X82550000Y-76374000D03*
D11*
X70184000Y-94742000D03*
X67484000Y-94742000D03*
D12*
X90170000Y-103806000D03*
X90170000Y-106506000D03*
X128270000Y-103806000D03*
X128270000Y-106506000D03*
X166370000Y-103806000D03*
X166370000Y-106506000D03*
X204470000Y-103806000D03*
X204470000Y-106506000D03*
D19*
X217170000Y-66040000D03*
D20*
X184150000Y-73660000D03*
X214630000Y-66040000D03*
X186690000Y-73660000D03*
X212090000Y-66040000D03*
X189230000Y-73660000D03*
X209550000Y-66040000D03*
X191770000Y-73660000D03*
X207010000Y-66040000D03*
X194310000Y-73660000D03*
X204470000Y-66040000D03*
X196850000Y-73660000D03*
X201930000Y-66040000D03*
X199390000Y-73660000D03*
X199390000Y-66040000D03*
X201930000Y-73660000D03*
X196850000Y-66040000D03*
X204470000Y-73660000D03*
X194310000Y-66040000D03*
X207010000Y-73660000D03*
X191770000Y-66040000D03*
X209550000Y-73660000D03*
X189230000Y-66040000D03*
X212090000Y-73660000D03*
X186690000Y-66040000D03*
X214630000Y-73660000D03*
X184150000Y-66040000D03*
X217170000Y-73660000D03*
D19*
X179070000Y-66040000D03*
D20*
X146050000Y-73660000D03*
X176530000Y-66040000D03*
X148590000Y-73660000D03*
X173990000Y-66040000D03*
X151130000Y-73660000D03*
X171450000Y-66040000D03*
X153670000Y-73660000D03*
X168910000Y-66040000D03*
X156210000Y-73660000D03*
X166370000Y-66040000D03*
X158750000Y-73660000D03*
X163830000Y-66040000D03*
X161290000Y-73660000D03*
X161290000Y-66040000D03*
X163830000Y-73660000D03*
X158750000Y-66040000D03*
X166370000Y-73660000D03*
X156210000Y-66040000D03*
X168910000Y-73660000D03*
X153670000Y-66040000D03*
X171450000Y-73660000D03*
X151130000Y-66040000D03*
X173990000Y-73660000D03*
X148590000Y-66040000D03*
X176530000Y-73660000D03*
X146050000Y-66040000D03*
X179070000Y-73660000D03*
D19*
X140970000Y-66040000D03*
D20*
X107950000Y-73660000D03*
X138430000Y-66040000D03*
X110490000Y-73660000D03*
X135890000Y-66040000D03*
X113030000Y-73660000D03*
X133350000Y-66040000D03*
X115570000Y-73660000D03*
X130810000Y-66040000D03*
X118110000Y-73660000D03*
X128270000Y-66040000D03*
X120650000Y-73660000D03*
X125730000Y-66040000D03*
X123190000Y-73660000D03*
X123190000Y-66040000D03*
X125730000Y-73660000D03*
X120650000Y-66040000D03*
X128270000Y-73660000D03*
X118110000Y-66040000D03*
X130810000Y-73660000D03*
X115570000Y-66040000D03*
X133350000Y-73660000D03*
X113030000Y-66040000D03*
X135890000Y-73660000D03*
X110490000Y-66040000D03*
X138430000Y-73660000D03*
X107950000Y-66040000D03*
X140970000Y-73660000D03*
D19*
X102870000Y-66040000D03*
D20*
X69850000Y-73660000D03*
X100330000Y-66040000D03*
X72390000Y-73660000D03*
X97790000Y-66040000D03*
X74930000Y-73660000D03*
X95250000Y-66040000D03*
X77470000Y-73660000D03*
X92710000Y-66040000D03*
X80010000Y-73660000D03*
X90170000Y-66040000D03*
X82550000Y-73660000D03*
X87630000Y-66040000D03*
X85090000Y-73660000D03*
X85090000Y-66040000D03*
X87630000Y-73660000D03*
X82550000Y-66040000D03*
X90170000Y-73660000D03*
X80010000Y-66040000D03*
X92710000Y-73660000D03*
X77470000Y-66040000D03*
X95250000Y-73660000D03*
X74930000Y-66040000D03*
X97790000Y-73660000D03*
X72390000Y-66040000D03*
X100330000Y-73660000D03*
X69850000Y-66040000D03*
X102870000Y-73660000D03*
D19*
X57150000Y-74676000D03*
D20*
X64770000Y-107696000D03*
X57150000Y-77216000D03*
X64770000Y-105156000D03*
X57150000Y-79756000D03*
X64770000Y-102616000D03*
X57150000Y-82296000D03*
X64770000Y-100076000D03*
X57150000Y-84836000D03*
X64770000Y-97536000D03*
X57150000Y-87376000D03*
X64770000Y-94996000D03*
X57150000Y-89916000D03*
X64770000Y-92456000D03*
X57150000Y-92456000D03*
X64770000Y-89916000D03*
X57150000Y-94996000D03*
X64770000Y-87376000D03*
X57150000Y-97536000D03*
X64770000Y-84836000D03*
X57150000Y-100076000D03*
X64770000Y-82296000D03*
X57150000Y-102616000D03*
X64770000Y-79756000D03*
X57150000Y-105156000D03*
X64770000Y-77216000D03*
X57150000Y-107696000D03*
X64770000Y-74676000D03*
D19*
X69850000Y-116840000D03*
D20*
X102870000Y-109220000D03*
X72390000Y-116840000D03*
X100330000Y-109220000D03*
X74930000Y-116840000D03*
X97790000Y-109220000D03*
X77470000Y-116840000D03*
X95250000Y-109220000D03*
X80010000Y-116840000D03*
X92710000Y-109220000D03*
X82550000Y-116840000D03*
X90170000Y-109220000D03*
X85090000Y-116840000D03*
X87630000Y-109220000D03*
X87630000Y-116840000D03*
X85090000Y-109220000D03*
X90170000Y-116840000D03*
X82550000Y-109220000D03*
X92710000Y-116840000D03*
X80010000Y-109220000D03*
X95250000Y-116840000D03*
X77470000Y-109220000D03*
X97790000Y-116840000D03*
X74930000Y-109220000D03*
X100330000Y-116840000D03*
X72390000Y-109220000D03*
X102870000Y-116840000D03*
X69850000Y-109220000D03*
D19*
X107950000Y-116840000D03*
D20*
X140970000Y-109220000D03*
X110490000Y-116840000D03*
X138430000Y-109220000D03*
X113030000Y-116840000D03*
X135890000Y-109220000D03*
X115570000Y-116840000D03*
X133350000Y-109220000D03*
X118110000Y-116840000D03*
X130810000Y-109220000D03*
X120650000Y-116840000D03*
X128270000Y-109220000D03*
X123190000Y-116840000D03*
X125730000Y-109220000D03*
X125730000Y-116840000D03*
X123190000Y-109220000D03*
X128270000Y-116840000D03*
X120650000Y-109220000D03*
X130810000Y-116840000D03*
X118110000Y-109220000D03*
X133350000Y-116840000D03*
X115570000Y-109220000D03*
X135890000Y-116840000D03*
X113030000Y-109220000D03*
X138430000Y-116840000D03*
X110490000Y-109220000D03*
X140970000Y-116840000D03*
X107950000Y-109220000D03*
D19*
X146050000Y-116840000D03*
D20*
X179070000Y-109220000D03*
X148590000Y-116840000D03*
X176530000Y-109220000D03*
X151130000Y-116840000D03*
X173990000Y-109220000D03*
X153670000Y-116840000D03*
X171450000Y-109220000D03*
X156210000Y-116840000D03*
X168910000Y-109220000D03*
X158750000Y-116840000D03*
X166370000Y-109220000D03*
X161290000Y-116840000D03*
X163830000Y-109220000D03*
X163830000Y-116840000D03*
X161290000Y-109220000D03*
X166370000Y-116840000D03*
X158750000Y-109220000D03*
X168910000Y-116840000D03*
X156210000Y-109220000D03*
X171450000Y-116840000D03*
X153670000Y-109220000D03*
X173990000Y-116840000D03*
X151130000Y-109220000D03*
X176530000Y-116840000D03*
X148590000Y-109220000D03*
X179070000Y-116840000D03*
X146050000Y-109220000D03*
D19*
X184150000Y-116840000D03*
D20*
X217170000Y-109220000D03*
X186690000Y-116840000D03*
X214630000Y-109220000D03*
X189230000Y-116840000D03*
X212090000Y-109220000D03*
X191770000Y-116840000D03*
X209550000Y-109220000D03*
X194310000Y-116840000D03*
X207010000Y-109220000D03*
X196850000Y-116840000D03*
X204470000Y-109220000D03*
X199390000Y-116840000D03*
X201930000Y-109220000D03*
X201930000Y-116840000D03*
X199390000Y-109220000D03*
X204470000Y-116840000D03*
X196850000Y-109220000D03*
X207010000Y-116840000D03*
X194310000Y-109220000D03*
X209550000Y-116840000D03*
X191770000Y-109220000D03*
X212090000Y-116840000D03*
X189230000Y-109220000D03*
X214630000Y-116840000D03*
X186690000Y-109220000D03*
X217170000Y-116840000D03*
X184150000Y-109220000D03*
D13*
X137160000Y-35560000D03*
D14*
X137160000Y-38100000D03*
X134620000Y-35560000D03*
X134620000Y-38100000D03*
X132080000Y-35560000D03*
X132080000Y-38100000D03*
X129540000Y-35560000D03*
X129540000Y-38100000D03*
X127000000Y-35560000D03*
X127000000Y-38100000D03*
X124460000Y-35560000D03*
X124460000Y-38100000D03*
X121920000Y-35560000D03*
X121920000Y-38100000D03*
X119380000Y-35560000D03*
X119380000Y-38100000D03*
X116840000Y-35560000D03*
X116840000Y-38100000D03*
X114300000Y-35560000D03*
X114300000Y-38100000D03*
X111760000Y-35560000D03*
X111760000Y-38100000D03*
X109220000Y-35560000D03*
X109220000Y-38100000D03*
X106680000Y-35560000D03*
X106680000Y-38100000D03*
X104140000Y-35560000D03*
X104140000Y-38100000D03*
X101600000Y-35560000D03*
X101600000Y-38100000D03*
X99060000Y-35560000D03*
X99060000Y-38100000D03*
X96520000Y-35560000D03*
X96520000Y-38100000D03*
X93980000Y-35560000D03*
X93980000Y-38100000D03*
X91440000Y-35560000D03*
X91440000Y-38100000D03*
X88900000Y-35560000D03*
X88900000Y-38100000D03*
X86360000Y-35560000D03*
X86360000Y-38100000D03*
X83820000Y-35560000D03*
X83820000Y-38100000D03*
X81280000Y-35560000D03*
X81280000Y-38100000D03*
X78740000Y-35560000D03*
X78740000Y-38100000D03*
X76200000Y-35560000D03*
X76200000Y-38100000D03*
X73660000Y-35560000D03*
X73660000Y-38100000D03*
X71120000Y-35560000D03*
X71120000Y-38100000D03*
X68580000Y-35560000D03*
X68580000Y-38100000D03*
X66040000Y-35560000D03*
X66040000Y-38100000D03*
X63500000Y-35560000D03*
X63500000Y-38100000D03*
D13*
X137160000Y-144780000D03*
D14*
X137160000Y-147320000D03*
X134620000Y-144780000D03*
X134620000Y-147320000D03*
X132080000Y-144780000D03*
X132080000Y-147320000D03*
X129540000Y-144780000D03*
X129540000Y-147320000D03*
X127000000Y-144780000D03*
X127000000Y-147320000D03*
X124460000Y-144780000D03*
X124460000Y-147320000D03*
X121920000Y-144780000D03*
X121920000Y-147320000D03*
X119380000Y-144780000D03*
X119380000Y-147320000D03*
X116840000Y-144780000D03*
X116840000Y-147320000D03*
X114300000Y-144780000D03*
X114300000Y-147320000D03*
X111760000Y-144780000D03*
X111760000Y-147320000D03*
X109220000Y-144780000D03*
X109220000Y-147320000D03*
X106680000Y-144780000D03*
X106680000Y-147320000D03*
X104140000Y-144780000D03*
X104140000Y-147320000D03*
X101600000Y-144780000D03*
X101600000Y-147320000D03*
X99060000Y-144780000D03*
X99060000Y-147320000D03*
X96520000Y-144780000D03*
X96520000Y-147320000D03*
X93980000Y-144780000D03*
X93980000Y-147320000D03*
X91440000Y-144780000D03*
X91440000Y-147320000D03*
X88900000Y-144780000D03*
X88900000Y-147320000D03*
X86360000Y-144780000D03*
X86360000Y-147320000D03*
X83820000Y-144780000D03*
X83820000Y-147320000D03*
X81280000Y-144780000D03*
X81280000Y-147320000D03*
X78740000Y-144780000D03*
X78740000Y-147320000D03*
X76200000Y-144780000D03*
X76200000Y-147320000D03*
X73660000Y-144780000D03*
X73660000Y-147320000D03*
X71120000Y-144780000D03*
X71120000Y-147320000D03*
X68580000Y-144780000D03*
X68580000Y-147320000D03*
X66040000Y-144780000D03*
X66040000Y-147320000D03*
X63500000Y-144780000D03*
X63500000Y-147320000D03*
D13*
X149860000Y-38100000D03*
D14*
X149860000Y-35560000D03*
X152400000Y-38100000D03*
X152400000Y-35560000D03*
X154940000Y-38100000D03*
X154940000Y-35560000D03*
X157480000Y-38100000D03*
X157480000Y-35560000D03*
X160020000Y-38100000D03*
X160020000Y-35560000D03*
X162560000Y-38100000D03*
X162560000Y-35560000D03*
X165100000Y-38100000D03*
X165100000Y-35560000D03*
X167640000Y-38100000D03*
X167640000Y-35560000D03*
X170180000Y-38100000D03*
X170180000Y-35560000D03*
X172720000Y-38100000D03*
X172720000Y-35560000D03*
X175260000Y-38100000D03*
X175260000Y-35560000D03*
X177800000Y-38100000D03*
X177800000Y-35560000D03*
X180340000Y-38100000D03*
X180340000Y-35560000D03*
X182880000Y-38100000D03*
X182880000Y-35560000D03*
X185420000Y-38100000D03*
X185420000Y-35560000D03*
X187960000Y-38100000D03*
X187960000Y-35560000D03*
X190500000Y-38100000D03*
X190500000Y-35560000D03*
X193040000Y-38100000D03*
X193040000Y-35560000D03*
X195580000Y-38100000D03*
X195580000Y-35560000D03*
X198120000Y-38100000D03*
X198120000Y-35560000D03*
X200660000Y-38100000D03*
X200660000Y-35560000D03*
X203200000Y-38100000D03*
X203200000Y-35560000D03*
X205740000Y-38100000D03*
X205740000Y-35560000D03*
X208280000Y-38100000D03*
X208280000Y-35560000D03*
X210820000Y-38100000D03*
X210820000Y-35560000D03*
X213360000Y-38100000D03*
X213360000Y-35560000D03*
X215900000Y-38100000D03*
X215900000Y-35560000D03*
X218440000Y-38100000D03*
X218440000Y-35560000D03*
X220980000Y-38100000D03*
X220980000Y-35560000D03*
X223520000Y-38100000D03*
X223520000Y-35560000D03*
D13*
X149860000Y-147320000D03*
D14*
X149860000Y-144780000D03*
X152400000Y-147320000D03*
X152400000Y-144780000D03*
X154940000Y-147320000D03*
X154940000Y-144780000D03*
X157480000Y-147320000D03*
X157480000Y-144780000D03*
X160020000Y-147320000D03*
X160020000Y-144780000D03*
X162560000Y-147320000D03*
X162560000Y-144780000D03*
X165100000Y-147320000D03*
X165100000Y-144780000D03*
X167640000Y-147320000D03*
X167640000Y-144780000D03*
X170180000Y-147320000D03*
X170180000Y-144780000D03*
X172720000Y-147320000D03*
X172720000Y-144780000D03*
X175260000Y-147320000D03*
X175260000Y-144780000D03*
X177800000Y-147320000D03*
X177800000Y-144780000D03*
X180340000Y-147320000D03*
X180340000Y-144780000D03*
X182880000Y-147320000D03*
X182880000Y-144780000D03*
X185420000Y-147320000D03*
X185420000Y-144780000D03*
X187960000Y-147320000D03*
X187960000Y-144780000D03*
X190500000Y-147320000D03*
X190500000Y-144780000D03*
X193040000Y-147320000D03*
X193040000Y-144780000D03*
X195580000Y-147320000D03*
X195580000Y-144780000D03*
X198120000Y-147320000D03*
X198120000Y-144780000D03*
X200660000Y-147320000D03*
X200660000Y-144780000D03*
X203200000Y-147320000D03*
X203200000Y-144780000D03*
X205740000Y-147320000D03*
X205740000Y-144780000D03*
X208280000Y-147320000D03*
X208280000Y-144780000D03*
X210820000Y-147320000D03*
X210820000Y-144780000D03*
X213360000Y-147320000D03*
X213360000Y-144780000D03*
X215900000Y-147320000D03*
X215900000Y-144780000D03*
X218440000Y-147320000D03*
X218440000Y-144780000D03*
X220980000Y-147320000D03*
X220980000Y-144780000D03*
X223520000Y-147320000D03*
X223520000Y-144780000D03*
D21*
X233680000Y-38100000D03*
X55880000Y-38100000D03*
X55880000Y-144780000D03*
X233680000Y-144780000D03*
D18*
X220411000Y-75295000D03*
X222311000Y-75295000D03*
X221361000Y-73295000D03*
D17*
X225917000Y-93787000D03*
X225917000Y-91887000D03*
X223917000Y-92837000D03*
D18*
X228031000Y-75295000D03*
X229931000Y-75295000D03*
X228981000Y-73295000D03*
D17*
X229473000Y-96581000D03*
X229473000Y-94681000D03*
X227473000Y-95631000D03*
D18*
X221803000Y-82185000D03*
X219903000Y-82185000D03*
X220853000Y-84185000D03*
D17*
X225917000Y-99375000D03*
X225917000Y-97475000D03*
X223917000Y-98425000D03*
D18*
X229931000Y-82185000D03*
X228031000Y-82185000D03*
X228981000Y-84185000D03*
D17*
X225917000Y-104963000D03*
X225917000Y-103063000D03*
X223917000Y-104013000D03*
X229473000Y-90993000D03*
X229473000Y-89093000D03*
X227473000Y-90043000D03*
X229473000Y-102169000D03*
X229473000Y-100269000D03*
X227473000Y-101219000D03*
D12*
X224155000Y-76153000D03*
X224155000Y-73453000D03*
D11*
X219249000Y-92583000D03*
X221949000Y-92583000D03*
D12*
X226187000Y-76153000D03*
X226187000Y-73453000D03*
D11*
X222805000Y-95631000D03*
X225505000Y-95631000D03*
D12*
X224155000Y-81327000D03*
X224155000Y-84027000D03*
X220599000Y-95805000D03*
X220599000Y-98505000D03*
X226187000Y-81327000D03*
X226187000Y-84027000D03*
D11*
X219249000Y-104013000D03*
X221949000Y-104013000D03*
X222805000Y-90043000D03*
X225505000Y-90043000D03*
X222805000Y-101219000D03*
X225505000Y-101219000D03*
D22*
X234950000Y-120015000D03*
D23*
X234950000Y-122555000D03*
X234950000Y-125095000D03*
D19*
X229235000Y-118745000D03*
D24*
X229235000Y-121245000D03*
D19*
X231775000Y-133223000D03*
D24*
X235275000Y-133223000D03*
D19*
X229235000Y-127000000D03*
D24*
X229235000Y-124500000D03*
D25*
X212090000Y-105918000D03*
X231775000Y-53340000D03*
X213360000Y-76708000D03*
D26*
X221869000Y-77089000D03*
X219964000Y-67818000D03*
X220218000Y-110998000D03*
X212090000Y-81534000D03*
X84836000Y-123698000D03*
X197993000Y-122301000D03*
X83566000Y-131318000D03*
X75057000Y-131318000D03*
X67564000Y-131318000D03*
X86868000Y-48387000D03*
X193929000Y-47625000D03*
X227838000Y-103759000D03*
X226568000Y-51689000D03*
X206248000Y-138684000D03*
X215138000Y-138684000D03*
X223266000Y-138684000D03*
X63373000Y-43688000D03*
X80010000Y-43688000D03*
X71755000Y-43688000D03*
X203581000Y-51562000D03*
X211836000Y-51562000D03*
X220091000Y-51562000D03*
X198882000Y-123063000D03*
X86106000Y-123571000D03*
X83566000Y-135128000D03*
X75184000Y-135128000D03*
X67564000Y-135128000D03*
X87249000Y-46990000D03*
X193929000Y-46355000D03*
X224282000Y-47752000D03*
X225679000Y-106045000D03*
X221742000Y-130048000D03*
X221742000Y-105537000D03*
X206248000Y-134874000D03*
X215138000Y-134874000D03*
X223266000Y-134874000D03*
X63500000Y-47498000D03*
X71755000Y-47498000D03*
X80010000Y-47498000D03*
X203454000Y-47752000D03*
X211709000Y-47752000D03*
X219964000Y-47752000D03*
X204597000Y-122301000D03*
X86995000Y-123825000D03*
X83566000Y-138938000D03*
X75184000Y-138938000D03*
X67564000Y-138938000D03*
X193929000Y-45339000D03*
X219202000Y-99568000D03*
X206248000Y-131064000D03*
X223266000Y-131064000D03*
X215138000Y-131064000D03*
X63500000Y-51308000D03*
X71755000Y-51308000D03*
X80010000Y-51308000D03*
X203454000Y-43942000D03*
X219964000Y-43942000D03*
X211709000Y-43942000D03*
X78613000Y-128270000D03*
X82423000Y-123698000D03*
X206121000Y-121285000D03*
X226441000Y-111379000D03*
X217551000Y-129667000D03*
X73533000Y-53594000D03*
X85090000Y-50800000D03*
X193929000Y-50165000D03*
X228346000Y-52070000D03*
X209169000Y-53086000D03*
X227838000Y-97409000D03*
X71120000Y-127889000D03*
X81788000Y-123190000D03*
X216916000Y-120015000D03*
X193929000Y-49022000D03*
X86487000Y-49784000D03*
X64770000Y-52578000D03*
X221742000Y-80391000D03*
X215900000Y-54991000D03*
X220980000Y-128905000D03*
X221869000Y-91313000D03*
X83693000Y-123698000D03*
X83058000Y-129794000D03*
X204978000Y-121539000D03*
X230124000Y-93218000D03*
X227838000Y-111887000D03*
X210439000Y-127889000D03*
X193929000Y-51308000D03*
X93599000Y-47752000D03*
X76708000Y-54991000D03*
X201676000Y-56261000D03*
X226822000Y-63754000D03*
X226441000Y-88773000D03*
X220091000Y-63881000D03*
X141605000Y-52578000D03*
X134112000Y-53340000D03*
X129159000Y-53848000D03*
X128270000Y-54610000D03*
X125730000Y-54610000D03*
X127000000Y-56896000D03*
X180594000Y-64516000D03*
X123190000Y-56007000D03*
X124460000Y-57658000D03*
X91059000Y-138176000D03*
X91821000Y-138938000D03*
X92583000Y-139700000D03*
X93345000Y-140462000D03*
X94107000Y-141224000D03*
X94869000Y-141986000D03*
X135890000Y-142748000D03*
X115824000Y-134366000D03*
X112776000Y-134366000D03*
X136652000Y-141986000D03*
X113538000Y-133604000D03*
X115062000Y-133604000D03*
X137414000Y-141224000D03*
X138176000Y-140462000D03*
X113538000Y-135255000D03*
X116713000Y-135255000D03*
X138938000Y-139700000D03*
X139700000Y-138938000D03*
X102616000Y-127508000D03*
X150241000Y-127508000D03*
X107950000Y-119253000D03*
X101854000Y-127762000D03*
X150749000Y-128270000D03*
X107061000Y-119253000D03*
X153416000Y-127762000D03*
X101092000Y-127508000D03*
X106172000Y-119253000D03*
X154559000Y-127635000D03*
X100330000Y-127762000D03*
X105283000Y-119253000D03*
X155956000Y-127508000D03*
X99568000Y-127508000D03*
X104394000Y-119253000D03*
X156972000Y-127635000D03*
X98806000Y-127762000D03*
X103505000Y-119253000D03*
X198628000Y-44450000D03*
X157099000Y-58420000D03*
X197866000Y-43688000D03*
X158369000Y-59690000D03*
X197104000Y-42926000D03*
X159385000Y-60960000D03*
X196342000Y-42164000D03*
X160528000Y-62230000D03*
X195580000Y-41402000D03*
X161671000Y-63246000D03*
X194818000Y-40640000D03*
X152146000Y-59309000D03*
X150876000Y-68961000D03*
X153416000Y-60325000D03*
X146050000Y-69850000D03*
X155067000Y-60198000D03*
X156083000Y-62230000D03*
X157099000Y-63627000D03*
X158115000Y-64262000D03*
X179070000Y-48133000D03*
X139954000Y-60071000D03*
X151003000Y-52070000D03*
X152019000Y-52070000D03*
X139700000Y-61468000D03*
X181610000Y-48895000D03*
X184150000Y-49657000D03*
X141224000Y-61087000D03*
X153035000Y-52070000D03*
X186690000Y-50419000D03*
X154051000Y-52070000D03*
X141097000Y-62357000D03*
X189230000Y-51181000D03*
X142621000Y-61849000D03*
X155067000Y-52070000D03*
X191770000Y-51943000D03*
X156083000Y-52070000D03*
X142748000Y-62738000D03*
X89281000Y-131953000D03*
X156083000Y-132842000D03*
X88392000Y-131191000D03*
X156845000Y-132080000D03*
X88011000Y-130175000D03*
X157607000Y-131318000D03*
X95758000Y-129286000D03*
X158369000Y-130556000D03*
X96266000Y-128524000D03*
X159131000Y-129413000D03*
X97155000Y-127762000D03*
X159893000Y-127635000D03*
X215900000Y-120904000D03*
X220980000Y-89916000D03*
X220980000Y-67056000D03*
X149860000Y-89916000D03*
X176530000Y-115062000D03*
X214630000Y-115062000D03*
X176530000Y-89916000D03*
X138430000Y-89916000D03*
X100330000Y-89916000D03*
X112268000Y-89916000D03*
X74168000Y-89916000D03*
X92710000Y-88900000D03*
X70866000Y-88900000D03*
X196596000Y-69596000D03*
X207010000Y-114046000D03*
X168910000Y-114046000D03*
X168910000Y-88900000D03*
X130810000Y-88900000D03*
X156210000Y-88900000D03*
X118110000Y-88900000D03*
X78740000Y-88900000D03*
X207010000Y-88900000D03*
X186690000Y-112014000D03*
X72390000Y-85725000D03*
X110490000Y-85725000D03*
X138430000Y-85725000D03*
X148590000Y-85725000D03*
X176530000Y-85725000D03*
X100330000Y-85725000D03*
X226314000Y-68580000D03*
X204470000Y-68580000D03*
X71374000Y-86868000D03*
X196850000Y-113030000D03*
X161036000Y-113030000D03*
X158750000Y-86868000D03*
X120650000Y-86868000D03*
X82550000Y-86868000D03*
X90170000Y-86868000D03*
X128270000Y-86868000D03*
X166370000Y-86868000D03*
X202184000Y-77978000D03*
X232156000Y-77470000D03*
X77470000Y-100330000D03*
X171450000Y-78740000D03*
X133350000Y-81280000D03*
X95250000Y-81280000D03*
X77470000Y-81280000D03*
X115570000Y-81280000D03*
X191770000Y-78740000D03*
X153670000Y-81280000D03*
X218440000Y-71120000D03*
X67818000Y-84836000D03*
X157480000Y-87884000D03*
X119380000Y-87884000D03*
X207010000Y-70612000D03*
X80010000Y-87884000D03*
X92710000Y-87884000D03*
X130810000Y-87884000D03*
X168910000Y-87884000D03*
X189230000Y-87884000D03*
X217424000Y-72136000D03*
X78994000Y-99060000D03*
X172720000Y-80518000D03*
X209550000Y-80518000D03*
X96520000Y-99060000D03*
X172720000Y-99060000D03*
X134620000Y-99060000D03*
X115570000Y-99060000D03*
X153670000Y-99060000D03*
X91948000Y-39878000D03*
X91186000Y-40640000D03*
X90424000Y-41402000D03*
X89662000Y-42164000D03*
X88900000Y-42926000D03*
X88138000Y-43688000D03*
X56007000Y-55245000D03*
X229870000Y-54483000D03*
D27*
X61722000Y-125603000D03*
X61722000Y-58674000D03*
X223774000Y-58674000D03*
D26*
X222885000Y-88773000D03*
X223139000Y-80264000D03*
X224155000Y-74803000D03*
X230124000Y-103886000D03*
X196850000Y-101854000D03*
X232283000Y-105537000D03*
X227203000Y-99060000D03*
X231648000Y-96520000D03*
X212090000Y-96520000D03*
X226949000Y-93980000D03*
X214630000Y-93980000D03*
X230886000Y-91440000D03*
X199390000Y-93218000D03*
X194310000Y-90932000D03*
X231013000Y-83693000D03*
X196850000Y-87884000D03*
X227965000Y-77089000D03*
X200914000Y-79502000D03*
X203708000Y-78740000D03*
X58166000Y-51816000D03*
X107950000Y-59944000D03*
X160020000Y-64008000D03*
X221742000Y-64262000D03*
X221869000Y-72517000D03*
X227965000Y-73279000D03*
X222758000Y-56515000D03*
X218059000Y-118491000D03*
X65405000Y-130683000D03*
X230124000Y-86233000D03*
X65405000Y-118491000D03*
X229235000Y-112395000D03*
X229235000Y-85344000D03*
X226187000Y-120650000D03*
D28*
X231775000Y-53340000D02*
X235458000Y-53340000D01*
X234950000Y-125095000D02*
X231140000Y-125095000D01*
X231140000Y-125095000D02*
X229235000Y-127000000D01*
D29*
X202010000Y-106680000D02*
X202010000Y-109140000D01*
X202010000Y-109140000D02*
X201930000Y-109220000D01*
X163910000Y-106680000D02*
X163910000Y-109140000D01*
X163910000Y-109140000D02*
X163830000Y-109220000D01*
X125810000Y-106680000D02*
X125810000Y-109140000D01*
X125810000Y-109140000D02*
X125730000Y-109220000D01*
X87710000Y-106680000D02*
X87710000Y-109140000D01*
X87710000Y-109140000D02*
X87630000Y-109220000D01*
X67310000Y-92536000D02*
X64850000Y-92536000D01*
X64850000Y-92536000D02*
X64770000Y-92456000D01*
X85010000Y-76200000D02*
X85010000Y-73740000D01*
X85010000Y-73740000D02*
X85090000Y-73660000D01*
X123110000Y-76200000D02*
X123110000Y-73740000D01*
X123110000Y-73740000D02*
X123190000Y-73660000D01*
X161210000Y-76200000D02*
X161210000Y-73740000D01*
X161210000Y-73740000D02*
X161290000Y-73660000D01*
X199390000Y-73660000D02*
X199390000Y-76120000D01*
X199390000Y-76120000D02*
X199310000Y-76200000D01*
D28*
X212852000Y-76200000D02*
X213360000Y-76708000D01*
X212852000Y-76200000D02*
X202010000Y-76200000D01*
X235458000Y-50800000D02*
X235458000Y-48260000D01*
X212043000Y-103806000D02*
X213948000Y-103806000D01*
X204470000Y-103806000D02*
X212043000Y-103806000D01*
X213948000Y-103806000D02*
X214630000Y-103124000D01*
D30*
X218821000Y-106299000D02*
X217805000Y-106299000D01*
X217805000Y-106299000D02*
X214630000Y-103124000D01*
X233426000Y-109220000D02*
X221742000Y-109220000D01*
X221742000Y-109220000D02*
X218821000Y-106299000D01*
X214630000Y-103124000D02*
X214630000Y-99060000D01*
D29*
X217170000Y-83820000D02*
X218805000Y-82185000D01*
X218805000Y-82185000D02*
X219903000Y-82185000D01*
D28*
X202010000Y-76200000D02*
X202010000Y-73740000D01*
X202010000Y-73740000D02*
X201930000Y-73660000D01*
X199390000Y-109220000D02*
X199390000Y-106760000D01*
X199390000Y-106760000D02*
X199390000Y-105283000D01*
X200867000Y-103806000D02*
X204470000Y-103806000D01*
X199390000Y-105283000D02*
X200867000Y-103806000D01*
D29*
X233045000Y-104775000D02*
X233426000Y-105156000D01*
X233426000Y-105156000D02*
X233426000Y-109220000D01*
X223393000Y-82550000D02*
X223266000Y-82550000D01*
X223266000Y-82550000D02*
X222758000Y-82042000D01*
X222758000Y-82042000D02*
X222758000Y-81534000D01*
X222758000Y-81534000D02*
X222504000Y-81280000D01*
X222504000Y-81280000D02*
X220808000Y-81280000D01*
X220808000Y-81280000D02*
X219903000Y-82185000D01*
X227666000Y-82550000D02*
X223393000Y-82550000D01*
X228031000Y-82185000D02*
X227666000Y-82550000D01*
X225917000Y-91887000D02*
X226679000Y-91887000D01*
X226679000Y-91887000D02*
X229473000Y-94681000D01*
X225917000Y-97475000D02*
X226679000Y-97475000D01*
X226679000Y-97475000D02*
X229473000Y-100269000D01*
X229473000Y-100269000D02*
X229804000Y-100269000D01*
X229804000Y-100269000D02*
X231013000Y-99060000D01*
X231013000Y-99060000D02*
X234061000Y-99060000D01*
X229473000Y-94681000D02*
X229804000Y-94681000D01*
X229804000Y-94681000D02*
X230505000Y-93980000D01*
X230505000Y-93980000D02*
X234061000Y-93980000D01*
X225917000Y-103063000D02*
X227629000Y-104775000D01*
X232918000Y-88900000D02*
X229666000Y-88900000D01*
X234061000Y-90043000D02*
X232918000Y-88900000D01*
X234061000Y-103759000D02*
X234061000Y-99060000D01*
X234061000Y-99060000D02*
X234061000Y-93980000D01*
X234061000Y-93980000D02*
X234061000Y-90043000D01*
X233045000Y-104775000D02*
X234061000Y-103759000D01*
X227629000Y-104775000D02*
X233045000Y-104775000D01*
X229666000Y-88900000D02*
X229473000Y-89093000D01*
X221869000Y-77089000D02*
X222631000Y-77851000D01*
X229931000Y-76647000D02*
X229931000Y-75295000D01*
X228727000Y-77851000D02*
X229931000Y-76647000D01*
X222631000Y-77851000D02*
X228727000Y-77851000D01*
X221869000Y-75737000D02*
X221869000Y-77089000D01*
X222311000Y-75295000D02*
X221869000Y-75737000D01*
X199310000Y-109140000D02*
X199390000Y-109220000D01*
X161210000Y-106680000D02*
X161210000Y-105236000D01*
X162640000Y-103806000D02*
X166370000Y-103806000D01*
X161210000Y-105236000D02*
X162640000Y-103806000D01*
X161210000Y-106680000D02*
X161210000Y-109140000D01*
X161210000Y-109140000D02*
X161290000Y-109220000D01*
X123110000Y-106680000D02*
X123110000Y-104982000D01*
X124286000Y-103806000D02*
X128270000Y-103806000D01*
X123110000Y-104982000D02*
X124286000Y-103806000D01*
X123110000Y-106680000D02*
X123110000Y-109554000D01*
X123110000Y-109554000D02*
X123190000Y-109474000D01*
X123190000Y-109474000D02*
X123190000Y-109220000D01*
X85010000Y-106680000D02*
X85010000Y-109140000D01*
X85010000Y-109140000D02*
X85090000Y-109220000D01*
X90170000Y-103806000D02*
X87884000Y-103806000D01*
X87884000Y-103806000D02*
X85010000Y-106680000D01*
X67310000Y-89836000D02*
X68754000Y-89836000D01*
X70184000Y-91266000D02*
X70184000Y-94742000D01*
X68754000Y-89836000D02*
X70184000Y-91266000D01*
X67310000Y-89836000D02*
X64850000Y-89836000D01*
X64850000Y-89836000D02*
X64770000Y-89916000D01*
X87710000Y-76200000D02*
X87710000Y-73740000D01*
X87710000Y-73740000D02*
X87630000Y-73660000D01*
X82550000Y-79074000D02*
X84836000Y-79074000D01*
X84836000Y-79074000D02*
X87710000Y-76200000D01*
X120650000Y-79074000D02*
X122936000Y-79074000D01*
X122936000Y-79074000D02*
X125810000Y-76200000D01*
X125810000Y-76200000D02*
X125810000Y-73740000D01*
X125810000Y-73740000D02*
X125730000Y-73660000D01*
X158750000Y-79074000D02*
X161036000Y-79074000D01*
X161036000Y-79074000D02*
X163910000Y-76200000D01*
X163910000Y-76200000D02*
X163910000Y-73740000D01*
X163910000Y-73740000D02*
X163830000Y-73660000D01*
X196850000Y-79074000D02*
X199136000Y-79074000D01*
X199136000Y-79074000D02*
X202010000Y-76200000D01*
X202010000Y-73740000D02*
X201930000Y-73660000D01*
X219964000Y-67818000D02*
X227330000Y-67691000D01*
X212090000Y-109220000D02*
X212090000Y-110236000D01*
X212852000Y-110998000D02*
X220218000Y-110998000D01*
X212090000Y-110236000D02*
X212852000Y-110998000D01*
X233680000Y-60198000D02*
X235458000Y-58420000D01*
X233680000Y-61341000D02*
X233680000Y-60198000D01*
X227330000Y-67691000D02*
X233680000Y-61341000D01*
X235458000Y-76200000D02*
X235077000Y-76581000D01*
X186690000Y-83820000D02*
X186690000Y-83058000D01*
X186690000Y-83058000D02*
X188214000Y-81534000D01*
X188214000Y-81534000D02*
X212090000Y-81534000D01*
X86233000Y-122301000D02*
X84836000Y-123698000D01*
X187452000Y-122301000D02*
X86233000Y-122301000D01*
X197993000Y-122301000D02*
X187452000Y-122301000D01*
X85709000Y-133207000D02*
X85709000Y-133665000D01*
X83566000Y-131318000D02*
X83820000Y-131318000D01*
X83820000Y-131318000D02*
X85709000Y-133207000D01*
X69707000Y-133665000D02*
X69707000Y-133207000D01*
X77327000Y-133207000D02*
X77327000Y-133665000D01*
X75438000Y-131318000D02*
X77327000Y-133207000D01*
X75057000Y-131318000D02*
X75438000Y-131318000D01*
X67818000Y-131318000D02*
X67564000Y-131318000D01*
X69707000Y-133207000D02*
X67818000Y-131318000D01*
X89766994Y-45488006D02*
X86868000Y-48387000D01*
X186817000Y-45488006D02*
X89766994Y-45488006D01*
X187937994Y-46609000D02*
X186817000Y-45488006D01*
X192913000Y-46609000D02*
X187937994Y-46609000D01*
X193929000Y-47625000D02*
X192913000Y-46609000D01*
X227838000Y-102997000D02*
X227838000Y-103759000D01*
X226060000Y-101219000D02*
X227838000Y-102997000D01*
X225505000Y-101219000D02*
X226060000Y-101219000D01*
X208391000Y-140827000D02*
X208391000Y-141285000D01*
X206248000Y-138684000D02*
X208391000Y-140827000D01*
X225409000Y-141285000D02*
X225409000Y-140827000D01*
X225409000Y-140827000D02*
X223266000Y-138684000D01*
X217281000Y-140827000D02*
X217281000Y-141285000D01*
X215138000Y-138684000D02*
X217281000Y-140827000D01*
X227473000Y-101219000D02*
X225505000Y-101219000D01*
X61976000Y-42164000D02*
X61976000Y-41706000D01*
X63373000Y-43561000D02*
X61976000Y-42164000D01*
X63373000Y-43688000D02*
X63373000Y-43561000D01*
X61976000Y-41706000D02*
X61865000Y-41595000D01*
X78375000Y-41595000D02*
X78486000Y-41706000D01*
X78486000Y-41706000D02*
X78486000Y-42164000D01*
X78486000Y-42164000D02*
X80010000Y-43688000D01*
X71755000Y-43688000D02*
X70866000Y-42799000D01*
X70866000Y-42799000D02*
X70231000Y-42164000D01*
X70231000Y-42164000D02*
X70231000Y-41706000D01*
X70231000Y-41706000D02*
X70120000Y-41595000D01*
X201565000Y-49673000D02*
X201565000Y-49215000D01*
X203454000Y-51562000D02*
X201565000Y-49673000D01*
X203581000Y-51562000D02*
X203454000Y-51562000D01*
X218075000Y-49215000D02*
X218075000Y-49673000D01*
X218075000Y-49673000D02*
X219964000Y-51562000D01*
X219964000Y-51562000D02*
X220091000Y-51562000D01*
X209820000Y-49673000D02*
X209820000Y-49215000D01*
X211709000Y-51562000D02*
X209820000Y-49673000D01*
X211836000Y-51562000D02*
X211709000Y-51562000D01*
X198882000Y-123063000D02*
X195707000Y-123063000D01*
X86614000Y-123063000D02*
X86106000Y-123571000D01*
X195707000Y-123063000D02*
X86614000Y-123063000D01*
X85709000Y-137017000D02*
X85709000Y-137475000D01*
X83566000Y-135128000D02*
X83820000Y-135128000D01*
X83820000Y-135128000D02*
X85709000Y-137017000D01*
X69707000Y-137475000D02*
X69707000Y-137017000D01*
X77327000Y-137017000D02*
X77327000Y-137475000D01*
X75438000Y-135128000D02*
X77327000Y-137017000D01*
X75184000Y-135128000D02*
X75438000Y-135128000D01*
X67818000Y-135128000D02*
X67564000Y-135128000D01*
X69707000Y-137017000D02*
X67818000Y-135128000D01*
X89350996Y-44888004D02*
X87249000Y-46990000D01*
X187071000Y-44888004D02*
X89350996Y-44888004D01*
X188156996Y-45974000D02*
X187071000Y-44888004D01*
X193548000Y-45974000D02*
X188156996Y-45974000D01*
X193929000Y-46355000D02*
X193548000Y-45974000D01*
X221949000Y-104013000D02*
X221949000Y-105330000D01*
X221949000Y-105330000D02*
X221742000Y-105537000D01*
X208391000Y-137017000D02*
X208391000Y-137475000D01*
X206248000Y-134874000D02*
X208391000Y-137017000D01*
X225409000Y-137475000D02*
X225409000Y-137017000D01*
X225409000Y-137017000D02*
X223266000Y-134874000D01*
X217281000Y-137017000D02*
X217281000Y-137475000D01*
X215138000Y-134874000D02*
X217281000Y-137017000D01*
X221949000Y-104013000D02*
X223917000Y-104013000D01*
X61865000Y-45863000D02*
X61865000Y-45405000D01*
X63500000Y-47498000D02*
X61865000Y-45863000D01*
X78375000Y-45405000D02*
X78375000Y-45863000D01*
X78375000Y-45863000D02*
X80010000Y-47498000D01*
X70104000Y-45847000D02*
X70104000Y-45421000D01*
X70612000Y-46355000D02*
X70104000Y-45847000D01*
X71755000Y-47498000D02*
X70612000Y-46355000D01*
X70104000Y-45421000D02*
X70120000Y-45405000D01*
X201565000Y-45863000D02*
X201565000Y-45405000D01*
X203454000Y-47752000D02*
X201565000Y-45863000D01*
X218075000Y-45405000D02*
X218075000Y-45863000D01*
X218075000Y-45863000D02*
X219964000Y-47752000D01*
X209820000Y-45863000D02*
X209820000Y-45405000D01*
X211709000Y-47752000D02*
X209820000Y-45863000D01*
X199263000Y-123825000D02*
X199517000Y-123825000D01*
X199263000Y-123825000D02*
X86995000Y-123825000D01*
X201041000Y-122301000D02*
X204597000Y-122301000D01*
X199517000Y-123825000D02*
X201041000Y-122301000D01*
X85709000Y-140827000D02*
X85709000Y-141285000D01*
X83566000Y-138938000D02*
X83820000Y-138938000D01*
X83820000Y-138938000D02*
X85709000Y-140827000D01*
X69707000Y-141285000D02*
X69707000Y-140827000D01*
X77327000Y-140827000D02*
X77327000Y-141285000D01*
X75438000Y-138938000D02*
X77327000Y-140827000D01*
X75184000Y-138938000D02*
X75438000Y-138938000D01*
X67818000Y-138938000D02*
X67564000Y-138938000D01*
X69707000Y-140827000D02*
X67818000Y-138938000D01*
X81788000Y-51308000D02*
X80010000Y-51308000D01*
X88807998Y-44288002D02*
X81788000Y-51308000D01*
X187417002Y-44288002D02*
X88807998Y-44288002D01*
X188468000Y-45339000D02*
X187417002Y-44288002D01*
X193929000Y-45339000D02*
X188468000Y-45339000D01*
X219536000Y-99568000D02*
X219202000Y-99568000D01*
X220599000Y-98505000D02*
X219536000Y-99568000D01*
X208391000Y-133207000D02*
X208391000Y-133665000D01*
X206248000Y-131064000D02*
X208391000Y-133207000D01*
X225409000Y-133665000D02*
X225409000Y-133207000D01*
X225409000Y-133207000D02*
X223266000Y-131064000D01*
X217281000Y-133207000D02*
X217281000Y-133665000D01*
X215138000Y-131064000D02*
X217281000Y-133207000D01*
X223917000Y-98425000D02*
X220679000Y-98425000D01*
X220679000Y-98425000D02*
X220599000Y-98505000D01*
X61865000Y-49673000D02*
X61865000Y-49215000D01*
X63500000Y-51308000D02*
X61865000Y-49673000D01*
X78375000Y-49215000D02*
X78375000Y-49673000D01*
X78375000Y-49673000D02*
X80010000Y-51308000D01*
X70120000Y-49673000D02*
X70120000Y-49215000D01*
X71755000Y-51308000D02*
X70120000Y-49673000D01*
X201565000Y-42053000D02*
X201565000Y-41595000D01*
X203454000Y-43942000D02*
X201565000Y-42053000D01*
X218075000Y-41595000D02*
X218075000Y-42053000D01*
X218075000Y-42053000D02*
X219964000Y-43942000D01*
X209820000Y-42053000D02*
X209820000Y-41595000D01*
X211709000Y-43942000D02*
X209820000Y-42053000D01*
X78248000Y-127905000D02*
X77277000Y-127905000D01*
X78613000Y-128270000D02*
X78248000Y-127905000D01*
X85344000Y-120777000D02*
X82423000Y-123698000D01*
X205613000Y-120777000D02*
X85344000Y-120777000D01*
X206121000Y-121285000D02*
X205613000Y-120777000D01*
X217551000Y-129667000D02*
X217551000Y-128225000D01*
X71628000Y-53848000D02*
X70501000Y-54975000D01*
X73279000Y-53848000D02*
X71628000Y-53848000D01*
X73533000Y-53594000D02*
X73279000Y-53848000D01*
X86538260Y-50800000D02*
X85090000Y-50800000D01*
X90650250Y-46688010D02*
X86538260Y-50800000D01*
X186314472Y-46688010D02*
X90650250Y-46688010D01*
X187470464Y-47844002D02*
X186314472Y-46688010D01*
X191608002Y-47844002D02*
X187470464Y-47844002D01*
X193929000Y-50165000D02*
X191608002Y-47844002D01*
X70501000Y-54975000D02*
X70170000Y-54975000D01*
X217551000Y-128225000D02*
X217231000Y-127905000D01*
X209169000Y-54274000D02*
X209870000Y-54975000D01*
X209169000Y-53086000D02*
X209169000Y-54274000D01*
X226521000Y-96647000D02*
X227076000Y-96647000D01*
X227076000Y-96647000D02*
X227838000Y-97409000D01*
X225505000Y-95631000D02*
X226521000Y-96647000D01*
X217551000Y-128225000D02*
X217231000Y-127905000D01*
X227473000Y-95631000D02*
X225505000Y-95631000D01*
X222377000Y-128905000D02*
X222504000Y-128905000D01*
X225359000Y-127905000D02*
X224486000Y-128778000D01*
X222377000Y-128905000D02*
X220980000Y-128905000D01*
X224155000Y-128778000D02*
X224486000Y-128778000D01*
X223901000Y-129032000D02*
X224155000Y-128778000D01*
X222631000Y-129032000D02*
X223901000Y-129032000D01*
X222504000Y-128905000D02*
X222631000Y-129032000D01*
X71104000Y-127905000D02*
X69657000Y-127905000D01*
X71120000Y-127889000D02*
X71104000Y-127905000D01*
X84963000Y-120015000D02*
X81788000Y-123190000D01*
X195453000Y-120015000D02*
X84963000Y-120015000D01*
X216916000Y-120015000D02*
X195453000Y-120015000D01*
X193929000Y-49022000D02*
X192151000Y-47244000D01*
X192151000Y-47244000D02*
X187718992Y-47244000D01*
X187718992Y-47244000D02*
X186563000Y-46088008D01*
X186563000Y-46088008D02*
X90182992Y-46088008D01*
X90182992Y-46088008D02*
X86487000Y-49784000D01*
X62373000Y-54975000D02*
X61915000Y-54975000D01*
X64770000Y-52578000D02*
X62373000Y-54975000D01*
X215916000Y-54975000D02*
X218125000Y-54975000D01*
X215900000Y-54991000D02*
X215916000Y-54975000D01*
X221949000Y-92583000D02*
X221949000Y-91393000D01*
X220980000Y-128905000D02*
X221107000Y-128778000D01*
X221949000Y-91393000D02*
X221869000Y-91313000D01*
X223917000Y-92837000D02*
X223663000Y-92583000D01*
X223663000Y-92583000D02*
X221949000Y-92583000D01*
X83058000Y-129794000D02*
X83947000Y-128905000D01*
X198628000Y-121539000D02*
X85852000Y-121539000D01*
X85852000Y-121539000D02*
X83693000Y-123698000D01*
X84786000Y-128778000D02*
X85659000Y-127905000D01*
X84659000Y-128905000D02*
X84786000Y-128778000D01*
X83947000Y-128905000D02*
X84659000Y-128905000D01*
X198628000Y-121539000D02*
X204978000Y-121539000D01*
X198628000Y-121539000D02*
X198628000Y-121539000D01*
X228981000Y-93091000D02*
X225933000Y-90043000D01*
X229997000Y-93091000D02*
X228981000Y-93091000D01*
X230124000Y-93218000D02*
X229997000Y-93091000D01*
X208341000Y-127905000D02*
X210423000Y-127905000D01*
X210439000Y-127889000D02*
X210423000Y-127905000D01*
X193929000Y-51308000D02*
X191065004Y-48444004D01*
X191065004Y-48444004D02*
X187210992Y-48444004D01*
X187210992Y-48444004D02*
X186055000Y-47288012D01*
X186055000Y-47288012D02*
X94062988Y-47288012D01*
X94062988Y-47288012D02*
X93599000Y-47752000D01*
X76708000Y-54991000D02*
X78409000Y-54991000D01*
X78409000Y-54991000D02*
X78425000Y-54975000D01*
X225505000Y-90043000D02*
X225933000Y-90043000D01*
X225505000Y-90043000D02*
X225505000Y-89963000D01*
X225505000Y-89963000D02*
X226441000Y-89027000D01*
X201615000Y-56200000D02*
X201615000Y-54975000D01*
X201676000Y-56261000D02*
X201615000Y-56200000D01*
X226441000Y-89027000D02*
X226441000Y-88773000D01*
X227473000Y-90043000D02*
X225505000Y-90043000D01*
X220091000Y-63881000D02*
X217424000Y-63881000D01*
X205740000Y-60452000D02*
X180340000Y-60452000D01*
X217424000Y-63881000D02*
X213995000Y-60452000D01*
X213995000Y-60452000D02*
X205740000Y-60452000D01*
X141859000Y-52832000D02*
X141605000Y-52578000D01*
X172720000Y-52832000D02*
X141859000Y-52832000D01*
X180340000Y-60452000D02*
X172720000Y-52832000D01*
X217170000Y-66040000D02*
X212251998Y-61121998D01*
X179811765Y-60980235D02*
X179811765Y-60939765D01*
X179953528Y-61121998D02*
X179811765Y-60980235D01*
X212251998Y-61121998D02*
X179953528Y-61121998D01*
X134239000Y-53467000D02*
X134112000Y-53340000D01*
X172339000Y-53467000D02*
X134239000Y-53467000D01*
X179832000Y-60960000D02*
X179811765Y-60939765D01*
X179811765Y-60939765D02*
X172339000Y-53467000D01*
X214630000Y-66040000D02*
X210312000Y-61722000D01*
X129286000Y-53975000D02*
X129159000Y-53848000D01*
X129286000Y-54102000D02*
X129286000Y-53975000D01*
X172085000Y-54102000D02*
X129286000Y-54102000D01*
X179705000Y-61722000D02*
X172085000Y-54102000D01*
X210312000Y-61722000D02*
X179705000Y-61722000D01*
X129286000Y-54737000D02*
X128397000Y-54737000D01*
X208407000Y-62357000D02*
X212090000Y-66040000D01*
X171831000Y-54737000D02*
X129286000Y-54737000D01*
X179451000Y-62357000D02*
X171831000Y-54737000D01*
X208407000Y-62357000D02*
X179451000Y-62357000D01*
X128397000Y-54737000D02*
X128270000Y-54610000D01*
X132080000Y-55406998D02*
X126526998Y-55406998D01*
X206502000Y-62992000D02*
X179197000Y-62992000D01*
X179197000Y-62992000D02*
X171611998Y-55406998D01*
X171611998Y-55406998D02*
X132080000Y-55406998D01*
X209550000Y-66040000D02*
X206502000Y-62992000D01*
X126526998Y-55406998D02*
X125730000Y-54610000D01*
X170942000Y-56896000D02*
X127000000Y-56896000D01*
X178562000Y-64516000D02*
X170942000Y-56896000D01*
X180594000Y-64516000D02*
X178562000Y-64516000D01*
X129413000Y-56007000D02*
X123190000Y-56007000D01*
X204597000Y-63627000D02*
X178943000Y-63627000D01*
X178943000Y-63627000D02*
X171323000Y-56007000D01*
X171323000Y-56007000D02*
X129413000Y-56007000D01*
X207010000Y-66040000D02*
X204597000Y-63627000D01*
X179070000Y-66040000D02*
X178816000Y-66040000D01*
X178816000Y-66040000D02*
X170434000Y-57658000D01*
X170434000Y-57658000D02*
X124460000Y-57658000D01*
D28*
X80375000Y-50165000D02*
X83820000Y-46720000D01*
X83820000Y-46720000D02*
X83820000Y-38100000D01*
X83820000Y-38100000D02*
X83820000Y-35560000D01*
X63865000Y-50165000D02*
X67056000Y-46974000D01*
X67056000Y-39624000D02*
X68580000Y-38100000D01*
X67056000Y-46974000D02*
X67056000Y-39624000D01*
X68580000Y-38100000D02*
X68580000Y-35560000D01*
X80375000Y-46355000D02*
X82042000Y-44688000D01*
X82042000Y-38862000D02*
X81280000Y-38100000D01*
X82042000Y-44688000D02*
X82042000Y-38862000D01*
X81280000Y-38100000D02*
X81280000Y-35560000D01*
X66040000Y-38100000D02*
X66040000Y-35560000D01*
X63865000Y-46355000D02*
X65278000Y-44942000D01*
X65278000Y-38862000D02*
X66040000Y-38100000D01*
X65278000Y-44942000D02*
X65278000Y-38862000D01*
X80375000Y-42545000D02*
X79756000Y-41926000D01*
X79756000Y-39116000D02*
X78740000Y-38100000D01*
X79756000Y-41926000D02*
X79756000Y-39116000D01*
X78740000Y-38100000D02*
X78740000Y-35560000D01*
X63500000Y-38100000D02*
X63500000Y-35560000D01*
X63865000Y-42545000D02*
X63500000Y-42180000D01*
X63500000Y-42180000D02*
X63500000Y-38100000D01*
X72120000Y-50165000D02*
X75184000Y-47101000D01*
X75184000Y-39116000D02*
X76200000Y-38100000D01*
X75184000Y-47101000D02*
X75184000Y-39116000D01*
X76200000Y-38100000D02*
X76200000Y-35560000D01*
X72120000Y-46355000D02*
X73660000Y-44815000D01*
X73660000Y-44815000D02*
X73660000Y-38100000D01*
X73660000Y-38100000D02*
X73660000Y-35560000D01*
X72120000Y-42545000D02*
X71628000Y-42053000D01*
X71628000Y-42053000D02*
X71628000Y-38608000D01*
X71628000Y-38608000D02*
X71120000Y-38100000D01*
X71120000Y-38100000D02*
X71120000Y-35560000D01*
D29*
X135890000Y-142748000D02*
X124206000Y-142748000D01*
X123190000Y-146050000D02*
X121920000Y-147320000D01*
X123190000Y-143764000D02*
X123190000Y-146050000D01*
X124206000Y-142748000D02*
X123190000Y-143764000D01*
X115824000Y-134366000D02*
X112776000Y-134366000D01*
X136652000Y-141986000D02*
X122682000Y-141986000D01*
X120650000Y-146050000D02*
X119380000Y-147320000D01*
X120650000Y-144018000D02*
X120650000Y-146050000D01*
X122682000Y-141986000D02*
X120650000Y-144018000D01*
X115062000Y-133604000D02*
X113538000Y-133604000D01*
X137414000Y-141224000D02*
X120777000Y-141224000D01*
X118110000Y-146050000D02*
X116840000Y-147320000D01*
X118110000Y-143891000D02*
X118110000Y-146050000D01*
X120777000Y-141224000D02*
X118110000Y-143891000D01*
X138176000Y-140462000D02*
X118872000Y-140462000D01*
X115570000Y-146050000D02*
X114300000Y-147320000D01*
X115570000Y-143764000D02*
X115570000Y-146050000D01*
X118872000Y-140462000D02*
X115570000Y-143764000D01*
X113538000Y-135255000D02*
X116713000Y-135255000D01*
X138938000Y-139700000D02*
X117348000Y-139700000D01*
X113030000Y-146050000D02*
X111760000Y-147320000D01*
X113030000Y-144018000D02*
X113030000Y-146050000D01*
X117348000Y-139700000D02*
X113030000Y-144018000D01*
X139700000Y-138938000D02*
X115443000Y-138938000D01*
X110490000Y-146050000D02*
X109220000Y-147320000D01*
X110490000Y-143891000D02*
X110490000Y-146050000D01*
X115443000Y-138938000D02*
X110490000Y-143891000D01*
X108839000Y-127508000D02*
X150241000Y-127508000D01*
X108839000Y-127508000D02*
X102616000Y-127508000D01*
X102362000Y-128270000D02*
X101854000Y-127762000D01*
X104394000Y-128270000D02*
X150749000Y-128270000D01*
X104394000Y-128270000D02*
X102362000Y-128270000D01*
X101600000Y-129032000D02*
X101092000Y-128524000D01*
X101092000Y-128524000D02*
X101092000Y-127508000D01*
X152146000Y-129032000D02*
X153416000Y-127762000D01*
X152146000Y-129032000D02*
X101600000Y-129032000D01*
X101473000Y-129794000D02*
X100330000Y-128651000D01*
X100330000Y-128651000D02*
X100330000Y-127762000D01*
X152400000Y-129794000D02*
X154559000Y-127635000D01*
X105156000Y-129794000D02*
X152400000Y-129794000D01*
X105156000Y-129794000D02*
X101473000Y-129794000D01*
X101346000Y-130556000D02*
X99568000Y-128778000D01*
X99568000Y-128778000D02*
X99568000Y-127508000D01*
X152908000Y-130556000D02*
X155956000Y-127508000D01*
X102362000Y-130556000D02*
X152908000Y-130556000D01*
X102362000Y-130556000D02*
X101346000Y-130556000D01*
X101219000Y-131318000D02*
X98806000Y-128905000D01*
X98806000Y-128905000D02*
X98806000Y-127762000D01*
X153289000Y-131318000D02*
X156972000Y-127635000D01*
X153289000Y-131318000D02*
X101219000Y-131318000D01*
D28*
X83820000Y-144780000D02*
X83820000Y-147320000D01*
X83709000Y-140335000D02*
X83709000Y-144669000D01*
X83709000Y-144669000D02*
X83820000Y-144780000D01*
X68580000Y-144780000D02*
X68580000Y-147320000D01*
X67707000Y-140335000D02*
X68199000Y-140827000D01*
X68199000Y-140827000D02*
X68199000Y-144399000D01*
X68199000Y-144399000D02*
X68580000Y-144780000D01*
X83709000Y-136525000D02*
X82169000Y-138065000D01*
X82169000Y-143891000D02*
X81280000Y-144780000D01*
X82169000Y-138065000D02*
X82169000Y-143891000D01*
X81280000Y-144780000D02*
X81280000Y-147320000D01*
X66040000Y-144780000D02*
X66040000Y-147320000D01*
X66040000Y-144780000D02*
X66040000Y-138192000D01*
X66040000Y-138192000D02*
X67707000Y-136525000D01*
X80780000Y-135644000D02*
X80264000Y-136160000D01*
X80264000Y-143256000D02*
X78740000Y-144780000D01*
X80264000Y-136160000D02*
X80264000Y-143256000D01*
X83709000Y-132715000D02*
X80780000Y-135644000D01*
X80780000Y-135644000D02*
X80768998Y-135655002D01*
X78740000Y-144780000D02*
X78740000Y-147320000D01*
X63500000Y-144780000D02*
X63500000Y-147320000D01*
X67707000Y-132715000D02*
X63500000Y-136922000D01*
X63500000Y-136922000D02*
X63500000Y-144780000D01*
X76200000Y-144780000D02*
X76200000Y-147320000D01*
X75327000Y-140335000D02*
X75565000Y-140573000D01*
X75565000Y-140573000D02*
X75565000Y-144145000D01*
X75565000Y-144145000D02*
X76200000Y-144780000D01*
X75327000Y-136525000D02*
X73914000Y-137938000D01*
X73914000Y-137938000D02*
X73914000Y-144526000D01*
X73914000Y-144526000D02*
X73660000Y-144780000D01*
X73660000Y-144780000D02*
X73660000Y-147320000D01*
X75327000Y-132715000D02*
X72513998Y-135528002D01*
X72513998Y-143386002D02*
X71120000Y-144780000D01*
X72513998Y-135528002D02*
X72513998Y-143386002D01*
X71120000Y-144780000D02*
X71120000Y-147320000D01*
D29*
X168910000Y-58420000D02*
X157099000Y-58420000D01*
X176530000Y-66040000D02*
X168910000Y-58420000D01*
X173990000Y-66040000D02*
X167640000Y-59690000D01*
X158369000Y-59690000D02*
X158369000Y-59690000D01*
X167640000Y-59690000D02*
X158369000Y-59690000D01*
X171450000Y-66040000D02*
X166370000Y-60960000D01*
X166370000Y-60960000D02*
X159385000Y-60960000D01*
X168910000Y-66040000D02*
X165100000Y-62230000D01*
X160528000Y-62230000D02*
X165100000Y-62230000D01*
X168910000Y-66040000D02*
X168910000Y-65405000D01*
X166370000Y-66040000D02*
X163576000Y-63246000D01*
X163576000Y-63246000D02*
X161671000Y-63246000D01*
X150749000Y-68961000D02*
X146050000Y-73660000D01*
X150876000Y-68961000D02*
X150749000Y-68961000D01*
X142240000Y-73660000D02*
X140970000Y-73660000D01*
X146050000Y-69850000D02*
X142240000Y-73660000D01*
X57150000Y-77216000D02*
X59817000Y-74549000D01*
X139319000Y-60706000D02*
X139954000Y-60071000D01*
X67945000Y-60706000D02*
X139319000Y-60706000D01*
X59817000Y-68834000D02*
X67945000Y-60706000D01*
X59817000Y-74549000D02*
X59817000Y-68834000D01*
X57150000Y-77216000D02*
X57150000Y-77089000D01*
X60579000Y-76327000D02*
X60579000Y-69088000D01*
X60579000Y-69088000D02*
X68199000Y-61468000D01*
X68199000Y-61468000D02*
X139700000Y-61468000D01*
X60579000Y-76327000D02*
X57150000Y-79756000D01*
X57150000Y-82296000D02*
X61341000Y-78105000D01*
X140081000Y-62230000D02*
X141224000Y-61087000D01*
X68453000Y-62230000D02*
X140081000Y-62230000D01*
X61341000Y-69342000D02*
X68453000Y-62230000D01*
X61341000Y-78105000D02*
X61341000Y-69342000D01*
X140589000Y-62865000D02*
X141097000Y-62357000D01*
X61976000Y-80010000D02*
X57150000Y-84836000D01*
X68707000Y-62865000D02*
X140462000Y-62865000D01*
X61976000Y-69596000D02*
X68707000Y-62865000D01*
X61976000Y-80010000D02*
X61976000Y-69596000D01*
X140462000Y-62865000D02*
X140589000Y-62865000D01*
X62611000Y-81915000D02*
X57150000Y-87376000D01*
X140843000Y-63627000D02*
X142621000Y-61849000D01*
X68961000Y-63627000D02*
X140843000Y-63627000D01*
X62611000Y-69977000D02*
X68961000Y-63627000D01*
X62611000Y-81915000D02*
X62611000Y-69977000D01*
X57150000Y-89916000D02*
X63246000Y-83820000D01*
X141097000Y-64389000D02*
X142748000Y-62738000D01*
X69215000Y-64389000D02*
X141097000Y-64389000D01*
X63246000Y-70358000D02*
X69215000Y-64389000D01*
X63246000Y-83820000D02*
X63246000Y-70358000D01*
D28*
X203565000Y-42545000D02*
X203200000Y-42180000D01*
X203200000Y-42180000D02*
X203200000Y-38100000D01*
X203200000Y-38100000D02*
X203200000Y-35560000D01*
X220075000Y-42545000D02*
X219456000Y-41926000D01*
X219456000Y-39116000D02*
X218948000Y-38608000D01*
X219456000Y-41926000D02*
X219456000Y-39116000D01*
X218948000Y-38608000D02*
X218440000Y-38100000D01*
X218440000Y-38100000D02*
X218440000Y-35560000D01*
X218948000Y-38608000D02*
X218440000Y-38100000D01*
X203565000Y-46355000D02*
X205105000Y-44815000D01*
X205105000Y-38735000D02*
X205740000Y-38100000D01*
X205105000Y-44815000D02*
X205105000Y-38735000D01*
X205613000Y-38227000D02*
X205740000Y-38100000D01*
X205740000Y-38100000D02*
X205740000Y-35560000D01*
X220075000Y-46355000D02*
X221488000Y-44942000D01*
X221488000Y-44942000D02*
X221488000Y-38608000D01*
X221488000Y-38608000D02*
X220980000Y-38100000D01*
X220980000Y-38100000D02*
X220980000Y-35560000D01*
X203565000Y-50165000D02*
X207010000Y-46720000D01*
X207010000Y-39370000D02*
X208280000Y-38100000D01*
X207010000Y-46720000D02*
X207010000Y-39370000D01*
X208280000Y-38100000D02*
X208280000Y-35560000D01*
X220075000Y-50165000D02*
X223520000Y-46720000D01*
X223520000Y-46720000D02*
X223520000Y-38100000D01*
X223520000Y-38100000D02*
X223520000Y-35560000D01*
X210820000Y-38100000D02*
X210820000Y-35560000D01*
X211820000Y-42545000D02*
X211328000Y-42053000D01*
X211328000Y-42053000D02*
X211328000Y-38608000D01*
X211328000Y-38608000D02*
X210820000Y-38100000D01*
X213360000Y-38100000D02*
X213360000Y-35560000D01*
X211820000Y-46355000D02*
X213360000Y-44815000D01*
X213360000Y-44815000D02*
X213360000Y-38100000D01*
X215900000Y-38100000D02*
X215900000Y-35560000D01*
X211820000Y-50165000D02*
X215138000Y-46847000D01*
X215138000Y-38862000D02*
X215900000Y-38100000D01*
X215138000Y-46847000D02*
X215138000Y-38862000D01*
D29*
X149860000Y-147320000D02*
X149098000Y-147320000D01*
X149098000Y-147320000D02*
X148336000Y-146558000D01*
X148336000Y-146558000D02*
X148336000Y-137287000D01*
X148336000Y-137287000D02*
X147066000Y-136017000D01*
X147066000Y-136017000D02*
X119761000Y-136017000D01*
X119761000Y-136017000D02*
X117856000Y-137922000D01*
X117856000Y-137922000D02*
X110998000Y-137922000D01*
X110998000Y-137922000D02*
X109093000Y-136017000D01*
X109093000Y-136017000D02*
X98933000Y-136017000D01*
X98933000Y-136017000D02*
X94869000Y-131953000D01*
X94869000Y-131953000D02*
X89281000Y-131953000D01*
X151130000Y-146050000D02*
X151130000Y-136906000D01*
X151130000Y-136906000D02*
X149479000Y-135255000D01*
X149479000Y-135255000D02*
X119634000Y-135255000D01*
X119634000Y-135255000D02*
X117602000Y-137287000D01*
X117602000Y-137287000D02*
X111379000Y-137287000D01*
X111379000Y-137287000D02*
X109347000Y-135255000D01*
X109347000Y-135255000D02*
X99187000Y-135255000D01*
X99187000Y-135255000D02*
X95123000Y-131191000D01*
X95123000Y-131191000D02*
X88392000Y-131191000D01*
X152400000Y-147320000D02*
X151130000Y-146050000D01*
X154940000Y-147320000D02*
X153670000Y-146050000D01*
X95250000Y-130175000D02*
X88011000Y-130175000D01*
X99568000Y-134493000D02*
X95250000Y-130175000D01*
X109601000Y-134493000D02*
X99568000Y-134493000D01*
X111760000Y-136652000D02*
X109601000Y-134493000D01*
X117307530Y-136652000D02*
X111760000Y-136652000D01*
X119466530Y-134493000D02*
X117307530Y-136652000D01*
X152527000Y-134493000D02*
X119466530Y-134493000D01*
X153670000Y-135636000D02*
X152527000Y-134493000D01*
X153670000Y-146050000D02*
X153670000Y-135636000D01*
X157480000Y-147320000D02*
X156210000Y-146050000D01*
X100203000Y-133731000D02*
X95758000Y-129286000D01*
X109982000Y-133731000D02*
X100203000Y-133731000D01*
X112268000Y-136017000D02*
X109982000Y-133731000D01*
X117094000Y-136017000D02*
X112268000Y-136017000D01*
X119380000Y-133731000D02*
X117094000Y-136017000D01*
X152781000Y-133731000D02*
X119380000Y-133731000D01*
X156210000Y-137160000D02*
X152781000Y-133731000D01*
X156210000Y-146050000D02*
X156210000Y-137160000D01*
X160020000Y-147320000D02*
X158750000Y-146050000D01*
X100584000Y-132842000D02*
X96266000Y-128524000D01*
X152908000Y-132842000D02*
X100584000Y-132842000D01*
X158750000Y-138684000D02*
X152908000Y-132842000D01*
X158750000Y-146050000D02*
X158750000Y-138684000D01*
X162560000Y-147320000D02*
X161290000Y-146050000D01*
X97155000Y-128397000D02*
X97155000Y-127762000D01*
X100838000Y-132080000D02*
X97155000Y-128397000D01*
X153162000Y-132080000D02*
X100838000Y-132080000D01*
X161290000Y-140208000D02*
X153162000Y-132080000D01*
X161290000Y-146050000D02*
X161290000Y-140208000D01*
D28*
X203200000Y-144780000D02*
X203200000Y-147320000D01*
X206391000Y-132715000D02*
X203200000Y-135906000D01*
X203200000Y-135906000D02*
X203200000Y-144780000D01*
X218440000Y-144780000D02*
X220472000Y-142748000D01*
X220472000Y-135652000D02*
X223409000Y-132715000D01*
X220472000Y-142748000D02*
X220472000Y-135652000D01*
X218440000Y-144780000D02*
X218440000Y-147320000D01*
X205740000Y-144780000D02*
X205740000Y-147320000D01*
X206391000Y-136525000D02*
X204851000Y-138065000D01*
X204851000Y-143891000D02*
X205740000Y-144780000D01*
X204851000Y-138065000D02*
X204851000Y-143891000D01*
X223409000Y-136525000D02*
X221996000Y-137938000D01*
X221996000Y-143764000D02*
X220980000Y-144780000D01*
X221996000Y-137938000D02*
X221996000Y-143764000D01*
X220980000Y-144780000D02*
X220980000Y-147320000D01*
X208280000Y-144780000D02*
X208280000Y-147320000D01*
X206391000Y-140335000D02*
X206391000Y-141875000D01*
X208280000Y-143764000D02*
X208280000Y-144780000D01*
X206391000Y-141875000D02*
X208280000Y-143764000D01*
X223520000Y-144780000D02*
X223520000Y-147320000D01*
X223409000Y-140335000D02*
X223520000Y-140446000D01*
X223520000Y-140446000D02*
X223520000Y-144780000D01*
X215281000Y-132715000D02*
X212217000Y-135779000D01*
X212217000Y-143383000D02*
X210820000Y-144780000D01*
X212217000Y-135779000D02*
X212217000Y-143383000D01*
X210820000Y-144780000D02*
X210820000Y-147320000D01*
X215281000Y-136525000D02*
X213741000Y-138065000D01*
X213741000Y-138065000D02*
X213741000Y-144399000D01*
X213741000Y-144399000D02*
X213360000Y-144780000D01*
X213360000Y-144780000D02*
X213360000Y-147320000D01*
X215900000Y-144780000D02*
X215900000Y-147320000D01*
X215281000Y-140335000D02*
X215265000Y-140351000D01*
X215265000Y-140351000D02*
X215265000Y-144145000D01*
X215265000Y-144145000D02*
X215900000Y-144780000D01*
X63754000Y-56388000D02*
X60833000Y-56388000D01*
X59928000Y-55483000D02*
X59928000Y-54864000D01*
X60833000Y-56388000D02*
X59928000Y-55483000D01*
X72070000Y-54975000D02*
X72070000Y-56388000D01*
X63815000Y-54975000D02*
X63754000Y-55036000D01*
X63754000Y-55036000D02*
X63754000Y-56388000D01*
X63754000Y-56388000D02*
X72070000Y-56388000D01*
X72070000Y-56388000D02*
X79756000Y-56388000D01*
X79756000Y-56388000D02*
X80325000Y-55819000D01*
X80325000Y-55819000D02*
X80325000Y-54975000D01*
X71120000Y-52975000D02*
X70120000Y-51975000D01*
X70120000Y-51975000D02*
X70120000Y-51115000D01*
X68834000Y-44450000D02*
X69789000Y-43495000D01*
X68834000Y-47305000D02*
X68834000Y-44450000D01*
X68834000Y-51054000D02*
X68834000Y-47305000D01*
X70059000Y-51054000D02*
X68834000Y-51054000D01*
X70120000Y-47305000D02*
X68834000Y-47305000D01*
X70120000Y-47305000D02*
X68834000Y-47305000D01*
X70120000Y-51115000D02*
X70059000Y-51054000D01*
X70059000Y-51054000D02*
X68834000Y-51054000D01*
X68834000Y-51054000D02*
X68834000Y-47305000D01*
X68834000Y-47305000D02*
X68834000Y-44450000D01*
X68834000Y-44450000D02*
X69789000Y-43495000D01*
X69789000Y-43495000D02*
X70120000Y-43495000D01*
X203515000Y-54975000D02*
X205055000Y-56515000D01*
X205690000Y-56515000D02*
X212090000Y-56515000D01*
X205055000Y-56515000D02*
X205690000Y-56515000D01*
X211770000Y-54975000D02*
X211770000Y-56515000D01*
X211770000Y-56515000D02*
X212090000Y-56515000D01*
X220025000Y-54975000D02*
X220025000Y-55565000D01*
X219075000Y-56515000D02*
X212090000Y-56515000D01*
X220025000Y-55565000D02*
X219075000Y-56515000D01*
X220025000Y-54975000D02*
X221615000Y-54975000D01*
X221615000Y-54975000D02*
X221885000Y-55245000D01*
X209820000Y-47305000D02*
X208534000Y-47305000D01*
X208534000Y-47305000D02*
X208534000Y-47244000D01*
X209820000Y-51115000D02*
X208595000Y-51115000D01*
X208981000Y-43495000D02*
X209820000Y-43495000D01*
X208534000Y-43942000D02*
X208981000Y-43495000D01*
X208534000Y-51054000D02*
X208534000Y-47244000D01*
X208534000Y-47244000D02*
X208534000Y-43942000D01*
X208595000Y-51115000D02*
X208534000Y-51054000D01*
X210820000Y-52975000D02*
X210820000Y-52115000D01*
X210820000Y-52115000D02*
X209820000Y-51115000D01*
X75377000Y-127905000D02*
X75377000Y-126619000D01*
X83759000Y-127905000D02*
X83743000Y-127889000D01*
X83743000Y-127889000D02*
X79883000Y-127889000D01*
X79883000Y-127889000D02*
X78613000Y-126619000D01*
X78613000Y-126619000D02*
X75377000Y-126619000D01*
X75377000Y-126619000D02*
X68453000Y-126619000D01*
X67757000Y-127315000D02*
X68453000Y-126619000D01*
X67757000Y-127905000D02*
X67757000Y-127315000D01*
X65897000Y-128905000D02*
X66757000Y-128905000D01*
X66757000Y-128905000D02*
X67757000Y-127905000D01*
X215331000Y-127905000D02*
X215331000Y-126619000D01*
X214045000Y-126619000D02*
X215331000Y-126619000D01*
X215331000Y-126619000D02*
X222173000Y-126619000D01*
X206441000Y-127061000D02*
X206883000Y-126619000D01*
X206883000Y-126619000D02*
X214045000Y-126619000D01*
X206441000Y-127905000D02*
X206441000Y-127061000D01*
X222173000Y-126619000D02*
X223459000Y-127905000D01*
X204581000Y-128905000D02*
X205441000Y-128905000D01*
X205441000Y-128905000D02*
X206441000Y-127905000D01*
X217281000Y-135575000D02*
X218821000Y-135575000D01*
X217281000Y-131765000D02*
X217744000Y-131765000D01*
X218247000Y-139385000D02*
X217281000Y-139385000D01*
X218821000Y-138811000D02*
X218247000Y-139385000D01*
X218821000Y-132842000D02*
X218821000Y-135575000D01*
X218821000Y-135575000D02*
X218821000Y-138811000D01*
X217744000Y-131765000D02*
X218821000Y-132842000D01*
X216281000Y-129905000D02*
X216281000Y-130765000D01*
X216281000Y-130765000D02*
X217281000Y-131765000D01*
X62865000Y-52975000D02*
X61865000Y-51975000D01*
X61865000Y-51975000D02*
X61865000Y-51115000D01*
X61865000Y-47305000D02*
X60452000Y-47305000D01*
X60452000Y-47305000D02*
X60452000Y-47498000D01*
X61865000Y-51115000D02*
X60513000Y-51115000D01*
X60899000Y-43495000D02*
X61865000Y-43495000D01*
X60452000Y-43942000D02*
X60899000Y-43495000D01*
X60452000Y-51054000D02*
X60452000Y-47498000D01*
X60452000Y-47498000D02*
X60452000Y-43942000D01*
X60513000Y-51115000D02*
X60452000Y-51054000D01*
X219075000Y-52975000D02*
X219075000Y-52115000D01*
X219075000Y-52115000D02*
X218075000Y-51115000D01*
X218075000Y-47305000D02*
X216662000Y-47305000D01*
X216662000Y-47305000D02*
X216662000Y-47371000D01*
X217617000Y-43495000D02*
X218075000Y-43495000D01*
X216662000Y-44450000D02*
X217617000Y-43495000D01*
X216662000Y-51054000D02*
X216662000Y-47371000D01*
X216662000Y-47371000D02*
X216662000Y-44450000D01*
X216723000Y-51115000D02*
X216662000Y-51054000D01*
X218075000Y-51115000D02*
X216723000Y-51115000D01*
X69707000Y-135575000D02*
X71056500Y-135575000D01*
X69707000Y-131765000D02*
X69709500Y-131762500D01*
X69709500Y-131762500D02*
X70485000Y-131762500D01*
X70546000Y-139385000D02*
X69707000Y-139385000D01*
X71056500Y-138874500D02*
X70546000Y-139385000D01*
X71056500Y-132334000D02*
X71056500Y-135575000D01*
X71056500Y-135575000D02*
X71056500Y-138874500D01*
X70485000Y-131762500D02*
X71056500Y-132334000D01*
X68707000Y-129905000D02*
X68707000Y-130765000D01*
X68707000Y-130765000D02*
X69707000Y-131765000D01*
X225409000Y-135575000D02*
X226822000Y-135575000D01*
X225409000Y-131765000D02*
X225745000Y-131765000D01*
X225745000Y-131765000D02*
X226822000Y-132842000D01*
X225867000Y-139385000D02*
X225409000Y-139385000D01*
X226822000Y-138430000D02*
X225867000Y-139385000D01*
X226822000Y-132842000D02*
X226822000Y-135575000D01*
X226822000Y-135575000D02*
X226822000Y-138430000D01*
X224409000Y-129905000D02*
X224409000Y-130765000D01*
X224409000Y-130765000D02*
X225409000Y-131765000D01*
X79375000Y-52975000D02*
X78375000Y-51975000D01*
X78375000Y-51975000D02*
X78375000Y-51115000D01*
X78375000Y-47305000D02*
X76708000Y-47305000D01*
X78375000Y-51115000D02*
X78314000Y-51054000D01*
X78314000Y-51054000D02*
X76708000Y-51054000D01*
X76708000Y-51054000D02*
X76708000Y-47305000D01*
X76708000Y-47305000D02*
X76708000Y-44196000D01*
X76708000Y-44196000D02*
X77409000Y-43495000D01*
X77409000Y-43495000D02*
X78375000Y-43495000D01*
X201565000Y-47305000D02*
X200152000Y-47305000D01*
X201565000Y-51115000D02*
X201504000Y-51054000D01*
X201504000Y-51054000D02*
X200152000Y-51054000D01*
X200853000Y-43495000D02*
X201565000Y-43495000D01*
X200152000Y-44196000D02*
X200853000Y-43495000D01*
X200152000Y-51054000D02*
X200152000Y-47305000D01*
X200152000Y-47305000D02*
X200152000Y-44196000D01*
X202565000Y-52975000D02*
X202565000Y-52115000D01*
X202565000Y-52115000D02*
X201565000Y-51115000D01*
X85709000Y-135575000D02*
X87122000Y-135575000D01*
X85709000Y-131765000D02*
X86426000Y-131765000D01*
X86675000Y-139385000D02*
X85709000Y-139385000D01*
X87122000Y-138938000D02*
X86675000Y-139385000D01*
X87122000Y-132461000D02*
X87122000Y-135575000D01*
X87122000Y-135575000D02*
X87122000Y-138938000D01*
X86426000Y-131765000D02*
X87122000Y-132461000D01*
X84709000Y-129905000D02*
X84709000Y-130765000D01*
X84709000Y-130765000D02*
X85709000Y-131765000D01*
X208391000Y-135575000D02*
X209931000Y-135575000D01*
X208391000Y-131765000D02*
X208981000Y-131765000D01*
X209230000Y-139385000D02*
X208391000Y-139385000D01*
X209931000Y-138684000D02*
X209230000Y-139385000D01*
X209931000Y-132715000D02*
X209931000Y-135575000D01*
X209931000Y-135575000D02*
X209931000Y-138684000D01*
X208981000Y-131765000D02*
X209931000Y-132715000D01*
X207391000Y-129905000D02*
X207391000Y-130765000D01*
X207391000Y-130765000D02*
X208391000Y-131765000D01*
X77327000Y-135575000D02*
X78613000Y-135575000D01*
X77327000Y-131765000D02*
X78171000Y-131765000D01*
X78166000Y-139385000D02*
X77327000Y-139385000D01*
X78613000Y-138938000D02*
X78166000Y-139385000D01*
X78613000Y-132207000D02*
X78613000Y-135575000D01*
X78613000Y-135575000D02*
X78613000Y-138938000D01*
X78171000Y-131765000D02*
X78613000Y-132207000D01*
X76327000Y-129905000D02*
X76327000Y-130765000D01*
X76327000Y-130765000D02*
X77327000Y-131765000D01*
D29*
X196850000Y-76374000D02*
X196850000Y-73660000D01*
X158750000Y-76374000D02*
X158750000Y-73660000D01*
X120650000Y-76374000D02*
X120650000Y-73660000D01*
X82550000Y-76374000D02*
X82550000Y-73660000D01*
X67484000Y-94742000D02*
X65024000Y-94742000D01*
X65024000Y-94742000D02*
X64770000Y-94996000D01*
X90170000Y-106506000D02*
X90170000Y-109220000D01*
X128270000Y-106506000D02*
X128270000Y-109220000D01*
X166370000Y-106506000D02*
X166370000Y-109220000D01*
X204470000Y-106506000D02*
X204470000Y-109220000D01*
X187833000Y-75057000D02*
X189230000Y-73660000D01*
X175387000Y-75057000D02*
X187833000Y-75057000D01*
X173990000Y-73660000D02*
X175387000Y-75057000D01*
X135890000Y-73660000D02*
X137287000Y-75057000D01*
X149733000Y-75057000D02*
X151130000Y-73660000D01*
X137287000Y-75057000D02*
X149733000Y-75057000D01*
X74930000Y-73660000D02*
X68834000Y-79756000D01*
X68834000Y-79756000D02*
X64770000Y-79756000D01*
X64770000Y-102616000D02*
X68326000Y-102616000D01*
X68326000Y-102616000D02*
X74930000Y-109220000D01*
X97790000Y-109220000D02*
X99187000Y-107823000D01*
X111633000Y-107823000D02*
X113030000Y-109220000D01*
X99187000Y-107823000D02*
X111633000Y-107823000D01*
X135890000Y-109220000D02*
X137287000Y-107823000D01*
X149733000Y-107823000D02*
X151130000Y-109220000D01*
X137287000Y-107823000D02*
X149733000Y-107823000D01*
X173990000Y-109220000D02*
X175387000Y-107823000D01*
X187833000Y-107823000D02*
X189230000Y-109220000D01*
X175387000Y-107823000D02*
X187833000Y-107823000D01*
X232664000Y-90170000D02*
X232156000Y-90170000D01*
X220980000Y-67056000D02*
X222250000Y-67056000D01*
X235458000Y-55880000D02*
X233426000Y-55880000D01*
X229870000Y-59436000D02*
X233426000Y-55880000D01*
X222250000Y-67056000D02*
X229870000Y-59436000D01*
X214630000Y-115062000D02*
X176530000Y-115062000D01*
X220980000Y-89916000D02*
X204978000Y-89916000D01*
X220980000Y-89916000D02*
X220980000Y-89916000D01*
X204978000Y-89916000D02*
X176530000Y-89916000D01*
X100330000Y-109220000D02*
X100330000Y-109474000D01*
X100330000Y-109474000D02*
X98806000Y-110998000D01*
X67056000Y-107442000D02*
X64770000Y-105156000D01*
X67056000Y-108458000D02*
X67056000Y-107442000D01*
X69596000Y-110998000D02*
X67056000Y-108458000D01*
X98806000Y-110998000D02*
X69596000Y-110998000D01*
X176530000Y-89916000D02*
X149860000Y-89916000D01*
X149860000Y-89916000D02*
X138430000Y-89916000D01*
X138430000Y-89916000D02*
X112268000Y-89916000D01*
X112268000Y-89916000D02*
X100330000Y-89916000D01*
X100330000Y-89916000D02*
X74168000Y-89916000D01*
X196596000Y-69596000D02*
X227076000Y-69596000D01*
X227076000Y-69596000D02*
X235458000Y-60960000D01*
X78740000Y-88900000D02*
X70866000Y-88900000D01*
X196596000Y-69596000D02*
X196850000Y-69596000D01*
X168910000Y-114046000D02*
X207010000Y-114046000D01*
X207010000Y-88900000D02*
X168910000Y-88900000D01*
X168910000Y-88900000D02*
X156210000Y-88900000D01*
X156210000Y-88900000D02*
X130810000Y-88900000D01*
X130810000Y-88900000D02*
X118110000Y-88900000D01*
X118110000Y-88900000D02*
X92710000Y-88900000D01*
X92710000Y-88900000D02*
X78740000Y-88900000D01*
X218186000Y-70358000D02*
X227584000Y-70358000D01*
X227584000Y-70358000D02*
X234442000Y-63500000D01*
X234442000Y-63500000D02*
X235458000Y-63500000D01*
X218186000Y-70358000D02*
X217932000Y-70612000D01*
X214630000Y-73660000D02*
X214884000Y-73660000D01*
X214884000Y-73660000D02*
X217932000Y-70612000D01*
X217932000Y-70612000D02*
X218186000Y-70358000D01*
X176530000Y-73660000D02*
X176530000Y-73406000D01*
X176530000Y-73406000D02*
X178308000Y-71628000D01*
X212598000Y-71628000D02*
X214630000Y-73660000D01*
X178308000Y-71628000D02*
X212598000Y-71628000D01*
X148590000Y-109220000D02*
X148590000Y-109855000D01*
X148590000Y-109855000D02*
X150749000Y-112014000D01*
X150749000Y-112014000D02*
X186690000Y-112014000D01*
X100330000Y-85725000D02*
X72390000Y-85725000D01*
X154305000Y-85725000D02*
X148590000Y-85725000D01*
X148590000Y-85725000D02*
X138430000Y-85725000D01*
X138430000Y-85725000D02*
X110490000Y-85725000D01*
X110490000Y-85725000D02*
X100330000Y-85725000D01*
X204470000Y-85090000D02*
X203835000Y-85725000D01*
X203835000Y-85725000D02*
X176530000Y-85725000D01*
X176530000Y-85725000D02*
X154305000Y-85725000D01*
X204470000Y-83820000D02*
X204470000Y-85090000D01*
X226314000Y-68580000D02*
X204470000Y-68580000D01*
X72136000Y-86868000D02*
X71374000Y-86868000D01*
X82550000Y-86868000D02*
X72136000Y-86868000D01*
X161036000Y-113030000D02*
X196850000Y-113030000D01*
X199644000Y-86868000D02*
X166370000Y-86868000D01*
X166370000Y-86868000D02*
X158750000Y-86868000D01*
X158750000Y-86868000D02*
X128270000Y-86868000D01*
X128270000Y-86868000D02*
X120650000Y-86868000D01*
X120650000Y-86868000D02*
X90170000Y-86868000D01*
X90170000Y-86868000D02*
X82550000Y-86868000D01*
X209550000Y-86106000D02*
X208788000Y-86868000D01*
X208788000Y-86868000D02*
X199644000Y-86868000D01*
X209550000Y-83820000D02*
X209550000Y-86106000D01*
X65024000Y-100330000D02*
X77470000Y-100330000D01*
X65024000Y-100330000D02*
X64770000Y-100076000D01*
X209550000Y-109220000D02*
X209550000Y-110490000D01*
X171450000Y-110490000D02*
X171450000Y-109220000D01*
X172085000Y-111125000D02*
X171450000Y-110490000D01*
X208915000Y-111125000D02*
X172085000Y-111125000D01*
X209550000Y-110490000D02*
X208915000Y-111125000D01*
X115570000Y-81280000D02*
X95250000Y-81280000D01*
X95250000Y-81280000D02*
X77470000Y-81280000D01*
X153670000Y-81280000D02*
X133350000Y-81280000D01*
X133350000Y-81280000D02*
X115570000Y-81280000D01*
X160020000Y-81280000D02*
X153670000Y-81280000D01*
X162560000Y-78740000D02*
X160020000Y-81280000D01*
X162560000Y-78740000D02*
X171450000Y-78740000D01*
X171450000Y-78740000D02*
X191770000Y-78740000D01*
X218440000Y-71120000D02*
X235458000Y-71120000D01*
X80010000Y-87884000D02*
X70866000Y-87884000D01*
X70866000Y-87884000D02*
X67818000Y-84836000D01*
X168910000Y-73660000D02*
X171704000Y-70866000D01*
X171958000Y-70612000D02*
X207010000Y-70612000D01*
X171704000Y-70866000D02*
X171958000Y-70612000D01*
X139700000Y-87884000D02*
X130810000Y-87884000D01*
X130810000Y-87884000D02*
X119380000Y-87884000D01*
X119380000Y-87884000D02*
X92710000Y-87884000D01*
X92710000Y-87884000D02*
X80010000Y-87884000D01*
X189230000Y-87884000D02*
X168910000Y-87884000D01*
X168910000Y-87884000D02*
X157480000Y-87884000D01*
X157480000Y-87884000D02*
X139700000Y-87884000D01*
X217424000Y-72136000D02*
X218786002Y-72136000D01*
X233934000Y-72136000D02*
X235458000Y-73660000D01*
X233680000Y-71882000D02*
X233934000Y-72136000D01*
X222758000Y-71882000D02*
X233680000Y-71882000D01*
X222596002Y-71720002D02*
X222758000Y-71882000D01*
X219202000Y-71720002D02*
X222596002Y-71720002D01*
X218786002Y-72136000D02*
X219202000Y-71720002D01*
X71628000Y-91694000D02*
X66802000Y-86868000D01*
X78994000Y-99060000D02*
X71628000Y-91694000D01*
X66802000Y-84328000D02*
X64770000Y-82296000D01*
X66802000Y-86868000D02*
X66802000Y-84328000D01*
X184150000Y-99060000D02*
X184150000Y-99314000D01*
X184150000Y-99314000D02*
X191770000Y-106934000D01*
X191770000Y-106934000D02*
X191770000Y-109220000D01*
X209550000Y-80518000D02*
X172720000Y-80518000D01*
X115570000Y-99060000D02*
X96520000Y-99060000D01*
X96520000Y-99060000D02*
X78994000Y-99060000D01*
X153670000Y-99060000D02*
X134620000Y-99060000D01*
X134620000Y-99060000D02*
X115570000Y-99060000D01*
X184150000Y-99060000D02*
X173990000Y-99060000D01*
X173990000Y-99060000D02*
X172720000Y-99060000D01*
X172720000Y-99060000D02*
X153670000Y-99060000D01*
X178562000Y-39878000D02*
X91948000Y-39878000D01*
X180340000Y-38100000D02*
X178562000Y-39878000D01*
X182880000Y-38100000D02*
X180340000Y-40640000D01*
X180340000Y-40640000D02*
X91186000Y-40640000D01*
X182118000Y-41402000D02*
X90424000Y-41402000D01*
X182118000Y-41402000D02*
X185420000Y-38100000D01*
X187960000Y-38100000D02*
X183896000Y-42164000D01*
X183896000Y-42164000D02*
X89662000Y-42164000D01*
X190500000Y-38100000D02*
X185674000Y-42926000D01*
X185674000Y-42926000D02*
X88900000Y-42926000D01*
X193040000Y-38100000D02*
X187452000Y-43688000D01*
X187452000Y-43688000D02*
X88138000Y-43688000D01*
X97790000Y-73660000D02*
X99187000Y-75057000D01*
X111633000Y-75057000D02*
X113030000Y-73660000D01*
X99187000Y-75057000D02*
X111633000Y-75057000D01*
X57928000Y-55814000D02*
X56576000Y-55814000D01*
X56576000Y-55814000D02*
X56007000Y-55245000D01*
X225679000Y-55245000D02*
X229108000Y-55245000D01*
X229108000Y-55245000D02*
X229870000Y-54483000D01*
X225552000Y-55245000D02*
X225679000Y-55245000D01*
X225679000Y-55245000D02*
X225806000Y-55245000D01*
D30*
X81026000Y-125603000D02*
X80899000Y-125603000D01*
X80987998Y-125603000D02*
X81026000Y-125603000D01*
X200533000Y-125603000D02*
X80987998Y-125603000D01*
X62865000Y-124460000D02*
X61722000Y-125603000D01*
X79756000Y-124460000D02*
X62865000Y-124460000D01*
X80899000Y-125603000D02*
X79756000Y-124460000D01*
X208661000Y-123825000D02*
X205791260Y-123825000D01*
X204013260Y-125603000D02*
X200533000Y-125603000D01*
X200533000Y-125603000D02*
X200279000Y-125603000D01*
X205791260Y-123825000D02*
X204013260Y-125603000D01*
X220726000Y-119380000D02*
X216281000Y-123825000D01*
X233426000Y-114300000D02*
X225806000Y-114300000D01*
X225806000Y-114300000D02*
X220726000Y-119380000D01*
X216281000Y-123825000D02*
X208661000Y-123825000D01*
X208661000Y-123825000D02*
X208530996Y-123825000D01*
D28*
X62230000Y-128905000D02*
X62230000Y-126111000D01*
X62230000Y-126111000D02*
X61722000Y-125603000D01*
X63709000Y-129667000D02*
X62992000Y-129667000D01*
X62992000Y-129667000D02*
X62230000Y-128905000D01*
D30*
X173303740Y-51054000D02*
X172541740Y-50292000D01*
X181102000Y-58674000D02*
X180923740Y-58674000D01*
X223774000Y-58674000D02*
X181102000Y-58674000D01*
X180923740Y-58674000D02*
X173303740Y-51054000D01*
X89408000Y-50292000D02*
X89154000Y-50546000D01*
X172541740Y-50292000D02*
X89408000Y-50292000D01*
D28*
X63897000Y-129855000D02*
X63709000Y-129667000D01*
X202581000Y-129855000D02*
X201864000Y-129855000D01*
X201864000Y-129855000D02*
X200279000Y-128270000D01*
X200279000Y-128270000D02*
X200279000Y-125603000D01*
D29*
X222805000Y-90043000D02*
X222885000Y-89963000D01*
X222885000Y-89963000D02*
X222885000Y-88773000D01*
X224155000Y-81327000D02*
X223139000Y-80311000D01*
X223139000Y-80311000D02*
X223139000Y-80264000D01*
X219249000Y-104013000D02*
X219249000Y-103839000D01*
X219249000Y-103839000D02*
X221869000Y-101219000D01*
X221869000Y-101219000D02*
X222805000Y-101219000D01*
X222805000Y-101219000D02*
X224917000Y-99107000D01*
X224917000Y-99107000D02*
X224917000Y-97743000D01*
X224917000Y-97743000D02*
X222805000Y-95631000D01*
X219249000Y-92583000D02*
X219329000Y-92583000D01*
X219329000Y-92583000D02*
X221869000Y-90043000D01*
X221869000Y-90043000D02*
X222805000Y-90043000D01*
X220599000Y-95805000D02*
X220599000Y-93933000D01*
X220599000Y-93933000D02*
X219249000Y-92583000D01*
X222805000Y-95631000D02*
X220773000Y-95631000D01*
X220773000Y-95631000D02*
X220599000Y-95805000D01*
D28*
X234950000Y-120015000D02*
X232537000Y-120015000D01*
X231013000Y-120015000D02*
X229743000Y-118745000D01*
X232537000Y-120015000D02*
X231013000Y-120015000D01*
X229743000Y-118745000D02*
X229235000Y-118745000D01*
D29*
X224155000Y-81327000D02*
X226187000Y-81327000D01*
X226187000Y-76153000D02*
X224155000Y-76153000D01*
X224155000Y-76153000D02*
X224155000Y-74803000D01*
D30*
X61722000Y-58674000D02*
X81026000Y-58674000D01*
X89154000Y-50546000D02*
X81026000Y-58674000D01*
D28*
X57928000Y-55814000D02*
X60788000Y-58674000D01*
D30*
X61722000Y-58674000D02*
X61468000Y-58674000D01*
D28*
X60788000Y-58674000D02*
X61468000Y-58674000D01*
X223774000Y-58674000D02*
X225552000Y-56896000D01*
X225552000Y-56896000D02*
X225552000Y-55245000D01*
X225552000Y-55245000D02*
X225552000Y-55118000D01*
X225552000Y-55118000D02*
X224729000Y-54295000D01*
X224729000Y-54295000D02*
X223885000Y-54295000D01*
X229235000Y-118745000D02*
X229235000Y-118491000D01*
X229235000Y-118491000D02*
X233426000Y-114300000D01*
X233426000Y-114300000D02*
X234950000Y-115824000D01*
X234950000Y-115824000D02*
X234950000Y-120015000D01*
D29*
X229473000Y-102169000D02*
X230124000Y-102820000D01*
X230124000Y-102820000D02*
X230124000Y-103886000D01*
X232283000Y-105537000D02*
X226491000Y-105537000D01*
X225917000Y-104963000D02*
X226491000Y-105537000D01*
X227203000Y-99060000D02*
X226232000Y-99060000D01*
X226232000Y-99060000D02*
X225917000Y-99375000D01*
X235458000Y-99060000D02*
X235204000Y-99060000D01*
X231648000Y-96520000D02*
X229534000Y-96520000D01*
X229534000Y-96520000D02*
X229473000Y-96581000D01*
X226949000Y-93980000D02*
X226110000Y-93980000D01*
X226110000Y-93980000D02*
X225917000Y-93787000D01*
X229920000Y-91440000D02*
X229473000Y-90993000D01*
X230886000Y-91440000D02*
X229920000Y-91440000D01*
X231013000Y-83693000D02*
X229931000Y-82611000D01*
X229931000Y-82611000D02*
X229931000Y-82185000D01*
X221803000Y-82185000D02*
X221803000Y-82693000D01*
X221311000Y-83185000D02*
X220345000Y-83185000D01*
X220345000Y-83185000D02*
X219583000Y-83947000D01*
X219583000Y-83947000D02*
X219583000Y-87884000D01*
X221803000Y-82693000D02*
X221311000Y-83185000D01*
X229870000Y-87884000D02*
X232156000Y-85598000D01*
X196850000Y-87884000D02*
X219583000Y-87884000D01*
X219583000Y-87884000D02*
X222311000Y-87884000D01*
X222311000Y-87884000D02*
X229870000Y-87884000D01*
X234696000Y-85598000D02*
X235458000Y-86360000D01*
X232156000Y-85598000D02*
X234696000Y-85598000D01*
X228031000Y-75295000D02*
X228031000Y-77023000D01*
X228031000Y-77023000D02*
X227965000Y-77089000D01*
X227965000Y-75361000D02*
X228031000Y-75295000D01*
X200914000Y-79502000D02*
X227965000Y-79502000D01*
X230886000Y-79502000D02*
X235204000Y-83820000D01*
X227965000Y-79502000D02*
X230886000Y-79502000D01*
X235204000Y-83820000D02*
X235458000Y-83820000D01*
X220411000Y-75295000D02*
X220411000Y-78740000D01*
X235458000Y-81280000D02*
X232918000Y-78740000D01*
X232918000Y-78740000D02*
X220411000Y-78740000D01*
X220411000Y-78740000D02*
X203708000Y-78740000D01*
X221361000Y-73295000D02*
X221869000Y-72787000D01*
X57928000Y-52054000D02*
X57928000Y-53914000D01*
X58166000Y-51816000D02*
X57928000Y-52054000D01*
X221869000Y-72787000D02*
X221869000Y-72517000D01*
X224155000Y-73453000D02*
X221519000Y-73453000D01*
X221519000Y-73453000D02*
X221361000Y-73295000D01*
X223078000Y-56195000D02*
X223885000Y-56195000D01*
X222758000Y-56515000D02*
X223078000Y-56195000D01*
X226361000Y-73279000D02*
X227965000Y-73279000D01*
X227965000Y-73279000D02*
X228965000Y-73279000D01*
X226361000Y-73279000D02*
X226187000Y-73453000D01*
X228981000Y-73295000D02*
X228965000Y-73279000D01*
X228981000Y-73295000D02*
X228823000Y-73453000D01*
X65405000Y-130683000D02*
X65405000Y-130048000D01*
X65405000Y-130048000D02*
X65405000Y-129921000D01*
X65405000Y-129921000D02*
X64008000Y-128524000D01*
X64008000Y-128066000D02*
X64008000Y-128524000D01*
X222901000Y-86233000D02*
X220853000Y-84185000D01*
X222901000Y-86233000D02*
X230124000Y-86233000D01*
X213233000Y-118491000D02*
X65405000Y-118491000D01*
X218059000Y-118491000D02*
X213233000Y-118491000D01*
X64008000Y-128066000D02*
X63897000Y-127955000D01*
X224155000Y-84027000D02*
X221011000Y-84027000D01*
X221011000Y-84027000D02*
X220853000Y-84185000D01*
X202581000Y-127955000D02*
X204023000Y-127955000D01*
X228981000Y-85090000D02*
X228981000Y-84185000D01*
X228981000Y-85090000D02*
X229235000Y-85344000D01*
X221218002Y-125618998D02*
X226187000Y-120650000D01*
X206359002Y-125618998D02*
X221218002Y-125618998D01*
X204023000Y-127955000D02*
X206359002Y-125618998D01*
X228981000Y-84185000D02*
X228823000Y-84027000D01*
X228823000Y-84027000D02*
X226187000Y-84027000D01*
M02*
