G04 #@! TF.FileFunction,Copper,L4,Bot,Signal*
%FSLAX46Y46*%
G04 Gerber Fmt 4.6, Leading zero omitted, Abs format (unit mm)*
G04 Created by KiCad (PCBNEW (2015-09-07 BZR 6168)-product) date Monday, March 05, 2018 'PMt' 11:48:28 PM*
%MOMM*%
G01*
G04 APERTURE LIST*
%ADD10C,0.100000*%
%ADD11R,1.700000X1.700000*%
%ADD12O,1.700000X1.700000*%
%ADD13R,3.000000X3.000000*%
%ADD14C,3.000000*%
%ADD15R,1.600000X1.600000*%
%ADD16O,1.600000X1.600000*%
%ADD17C,7.000000*%
%ADD18R,1.800000X1.800000*%
%ADD19O,1.800000X1.800000*%
%ADD20C,1.600000*%
%ADD21C,1.200000*%
%ADD22C,0.600000*%
%ADD23C,2.540000*%
%ADD24C,1.200000*%
%ADD25C,0.400000*%
%ADD26C,2.540000*%
%ADD27C,0.254000*%
G04 APERTURE END LIST*
D10*
D11*
X235458000Y-48260000D03*
D12*
X235458000Y-50800000D03*
X235458000Y-53340000D03*
X235458000Y-55880000D03*
X235458000Y-58420000D03*
X235458000Y-60960000D03*
X235458000Y-63500000D03*
X235458000Y-66040000D03*
X235458000Y-68580000D03*
X235458000Y-71120000D03*
X235458000Y-73660000D03*
X235458000Y-76200000D03*
D11*
X235458000Y-104140000D03*
D12*
X235458000Y-101600000D03*
X235458000Y-99060000D03*
X235458000Y-96520000D03*
X235458000Y-93980000D03*
X235458000Y-91440000D03*
X235458000Y-88900000D03*
X235458000Y-86360000D03*
X235458000Y-83820000D03*
X235458000Y-81280000D03*
D11*
X217170000Y-83820000D03*
D12*
X214630000Y-83820000D03*
X212090000Y-83820000D03*
X209550000Y-83820000D03*
X207010000Y-83820000D03*
X204470000Y-83820000D03*
X201930000Y-83820000D03*
X199390000Y-83820000D03*
X196850000Y-83820000D03*
X194310000Y-83820000D03*
X191770000Y-83820000D03*
X189230000Y-83820000D03*
X186690000Y-83820000D03*
X184150000Y-83820000D03*
D11*
X217170000Y-99060000D03*
D12*
X214630000Y-99060000D03*
X212090000Y-99060000D03*
X209550000Y-99060000D03*
X207010000Y-99060000D03*
X204470000Y-99060000D03*
X201930000Y-99060000D03*
X199390000Y-99060000D03*
X196850000Y-99060000D03*
X194310000Y-99060000D03*
X191770000Y-99060000D03*
X189230000Y-99060000D03*
X186690000Y-99060000D03*
X184150000Y-99060000D03*
D11*
X232156000Y-102870000D03*
D12*
X232156000Y-100330000D03*
X232156000Y-97790000D03*
X232156000Y-95250000D03*
X232156000Y-92710000D03*
X232156000Y-90170000D03*
X232156000Y-87630000D03*
D13*
X233426000Y-114300000D03*
D14*
X233426000Y-109220000D03*
D15*
X217170000Y-66040000D03*
D16*
X184150000Y-73660000D03*
X214630000Y-66040000D03*
X186690000Y-73660000D03*
X212090000Y-66040000D03*
X189230000Y-73660000D03*
X209550000Y-66040000D03*
X191770000Y-73660000D03*
X207010000Y-66040000D03*
X194310000Y-73660000D03*
X204470000Y-66040000D03*
X196850000Y-73660000D03*
X201930000Y-66040000D03*
X199390000Y-73660000D03*
X199390000Y-66040000D03*
X201930000Y-73660000D03*
X196850000Y-66040000D03*
X204470000Y-73660000D03*
X194310000Y-66040000D03*
X207010000Y-73660000D03*
X191770000Y-66040000D03*
X209550000Y-73660000D03*
X189230000Y-66040000D03*
X212090000Y-73660000D03*
X186690000Y-66040000D03*
X214630000Y-73660000D03*
X184150000Y-66040000D03*
X217170000Y-73660000D03*
D15*
X179070000Y-66040000D03*
D16*
X146050000Y-73660000D03*
X176530000Y-66040000D03*
X148590000Y-73660000D03*
X173990000Y-66040000D03*
X151130000Y-73660000D03*
X171450000Y-66040000D03*
X153670000Y-73660000D03*
X168910000Y-66040000D03*
X156210000Y-73660000D03*
X166370000Y-66040000D03*
X158750000Y-73660000D03*
X163830000Y-66040000D03*
X161290000Y-73660000D03*
X161290000Y-66040000D03*
X163830000Y-73660000D03*
X158750000Y-66040000D03*
X166370000Y-73660000D03*
X156210000Y-66040000D03*
X168910000Y-73660000D03*
X153670000Y-66040000D03*
X171450000Y-73660000D03*
X151130000Y-66040000D03*
X173990000Y-73660000D03*
X148590000Y-66040000D03*
X176530000Y-73660000D03*
X146050000Y-66040000D03*
X179070000Y-73660000D03*
D15*
X140970000Y-66040000D03*
D16*
X107950000Y-73660000D03*
X138430000Y-66040000D03*
X110490000Y-73660000D03*
X135890000Y-66040000D03*
X113030000Y-73660000D03*
X133350000Y-66040000D03*
X115570000Y-73660000D03*
X130810000Y-66040000D03*
X118110000Y-73660000D03*
X128270000Y-66040000D03*
X120650000Y-73660000D03*
X125730000Y-66040000D03*
X123190000Y-73660000D03*
X123190000Y-66040000D03*
X125730000Y-73660000D03*
X120650000Y-66040000D03*
X128270000Y-73660000D03*
X118110000Y-66040000D03*
X130810000Y-73660000D03*
X115570000Y-66040000D03*
X133350000Y-73660000D03*
X113030000Y-66040000D03*
X135890000Y-73660000D03*
X110490000Y-66040000D03*
X138430000Y-73660000D03*
X107950000Y-66040000D03*
X140970000Y-73660000D03*
D15*
X102870000Y-66040000D03*
D16*
X69850000Y-73660000D03*
X100330000Y-66040000D03*
X72390000Y-73660000D03*
X97790000Y-66040000D03*
X74930000Y-73660000D03*
X95250000Y-66040000D03*
X77470000Y-73660000D03*
X92710000Y-66040000D03*
X80010000Y-73660000D03*
X90170000Y-66040000D03*
X82550000Y-73660000D03*
X87630000Y-66040000D03*
X85090000Y-73660000D03*
X85090000Y-66040000D03*
X87630000Y-73660000D03*
X82550000Y-66040000D03*
X90170000Y-73660000D03*
X80010000Y-66040000D03*
X92710000Y-73660000D03*
X77470000Y-66040000D03*
X95250000Y-73660000D03*
X74930000Y-66040000D03*
X97790000Y-73660000D03*
X72390000Y-66040000D03*
X100330000Y-73660000D03*
X69850000Y-66040000D03*
X102870000Y-73660000D03*
D15*
X57150000Y-74676000D03*
D16*
X64770000Y-107696000D03*
X57150000Y-77216000D03*
X64770000Y-105156000D03*
X57150000Y-79756000D03*
X64770000Y-102616000D03*
X57150000Y-82296000D03*
X64770000Y-100076000D03*
X57150000Y-84836000D03*
X64770000Y-97536000D03*
X57150000Y-87376000D03*
X64770000Y-94996000D03*
X57150000Y-89916000D03*
X64770000Y-92456000D03*
X57150000Y-92456000D03*
X64770000Y-89916000D03*
X57150000Y-94996000D03*
X64770000Y-87376000D03*
X57150000Y-97536000D03*
X64770000Y-84836000D03*
X57150000Y-100076000D03*
X64770000Y-82296000D03*
X57150000Y-102616000D03*
X64770000Y-79756000D03*
X57150000Y-105156000D03*
X64770000Y-77216000D03*
X57150000Y-107696000D03*
X64770000Y-74676000D03*
D15*
X69850000Y-116840000D03*
D16*
X102870000Y-109220000D03*
X72390000Y-116840000D03*
X100330000Y-109220000D03*
X74930000Y-116840000D03*
X97790000Y-109220000D03*
X77470000Y-116840000D03*
X95250000Y-109220000D03*
X80010000Y-116840000D03*
X92710000Y-109220000D03*
X82550000Y-116840000D03*
X90170000Y-109220000D03*
X85090000Y-116840000D03*
X87630000Y-109220000D03*
X87630000Y-116840000D03*
X85090000Y-109220000D03*
X90170000Y-116840000D03*
X82550000Y-109220000D03*
X92710000Y-116840000D03*
X80010000Y-109220000D03*
X95250000Y-116840000D03*
X77470000Y-109220000D03*
X97790000Y-116840000D03*
X74930000Y-109220000D03*
X100330000Y-116840000D03*
X72390000Y-109220000D03*
X102870000Y-116840000D03*
X69850000Y-109220000D03*
D15*
X107950000Y-116840000D03*
D16*
X140970000Y-109220000D03*
X110490000Y-116840000D03*
X138430000Y-109220000D03*
X113030000Y-116840000D03*
X135890000Y-109220000D03*
X115570000Y-116840000D03*
X133350000Y-109220000D03*
X118110000Y-116840000D03*
X130810000Y-109220000D03*
X120650000Y-116840000D03*
X128270000Y-109220000D03*
X123190000Y-116840000D03*
X125730000Y-109220000D03*
X125730000Y-116840000D03*
X123190000Y-109220000D03*
X128270000Y-116840000D03*
X120650000Y-109220000D03*
X130810000Y-116840000D03*
X118110000Y-109220000D03*
X133350000Y-116840000D03*
X115570000Y-109220000D03*
X135890000Y-116840000D03*
X113030000Y-109220000D03*
X138430000Y-116840000D03*
X110490000Y-109220000D03*
X140970000Y-116840000D03*
X107950000Y-109220000D03*
D15*
X146050000Y-116840000D03*
D16*
X179070000Y-109220000D03*
X148590000Y-116840000D03*
X176530000Y-109220000D03*
X151130000Y-116840000D03*
X173990000Y-109220000D03*
X153670000Y-116840000D03*
X171450000Y-109220000D03*
X156210000Y-116840000D03*
X168910000Y-109220000D03*
X158750000Y-116840000D03*
X166370000Y-109220000D03*
X161290000Y-116840000D03*
X163830000Y-109220000D03*
X163830000Y-116840000D03*
X161290000Y-109220000D03*
X166370000Y-116840000D03*
X158750000Y-109220000D03*
X168910000Y-116840000D03*
X156210000Y-109220000D03*
X171450000Y-116840000D03*
X153670000Y-109220000D03*
X173990000Y-116840000D03*
X151130000Y-109220000D03*
X176530000Y-116840000D03*
X148590000Y-109220000D03*
X179070000Y-116840000D03*
X146050000Y-109220000D03*
D15*
X184150000Y-116840000D03*
D16*
X217170000Y-109220000D03*
X186690000Y-116840000D03*
X214630000Y-109220000D03*
X189230000Y-116840000D03*
X212090000Y-109220000D03*
X191770000Y-116840000D03*
X209550000Y-109220000D03*
X194310000Y-116840000D03*
X207010000Y-109220000D03*
X196850000Y-116840000D03*
X204470000Y-109220000D03*
X199390000Y-116840000D03*
X201930000Y-109220000D03*
X201930000Y-116840000D03*
X199390000Y-109220000D03*
X204470000Y-116840000D03*
X196850000Y-109220000D03*
X207010000Y-116840000D03*
X194310000Y-109220000D03*
X209550000Y-116840000D03*
X191770000Y-109220000D03*
X212090000Y-116840000D03*
X189230000Y-109220000D03*
X214630000Y-116840000D03*
X186690000Y-109220000D03*
X217170000Y-116840000D03*
X184150000Y-109220000D03*
D11*
X137160000Y-35560000D03*
D12*
X137160000Y-38100000D03*
X134620000Y-35560000D03*
X134620000Y-38100000D03*
X132080000Y-35560000D03*
X132080000Y-38100000D03*
X129540000Y-35560000D03*
X129540000Y-38100000D03*
X127000000Y-35560000D03*
X127000000Y-38100000D03*
X124460000Y-35560000D03*
X124460000Y-38100000D03*
X121920000Y-35560000D03*
X121920000Y-38100000D03*
X119380000Y-35560000D03*
X119380000Y-38100000D03*
X116840000Y-35560000D03*
X116840000Y-38100000D03*
X114300000Y-35560000D03*
X114300000Y-38100000D03*
X111760000Y-35560000D03*
X111760000Y-38100000D03*
X109220000Y-35560000D03*
X109220000Y-38100000D03*
X106680000Y-35560000D03*
X106680000Y-38100000D03*
X104140000Y-35560000D03*
X104140000Y-38100000D03*
X101600000Y-35560000D03*
X101600000Y-38100000D03*
X99060000Y-35560000D03*
X99060000Y-38100000D03*
X96520000Y-35560000D03*
X96520000Y-38100000D03*
X93980000Y-35560000D03*
X93980000Y-38100000D03*
X91440000Y-35560000D03*
X91440000Y-38100000D03*
X88900000Y-35560000D03*
X88900000Y-38100000D03*
X86360000Y-35560000D03*
X86360000Y-38100000D03*
X83820000Y-35560000D03*
X83820000Y-38100000D03*
X81280000Y-35560000D03*
X81280000Y-38100000D03*
X78740000Y-35560000D03*
X78740000Y-38100000D03*
X76200000Y-35560000D03*
X76200000Y-38100000D03*
X73660000Y-35560000D03*
X73660000Y-38100000D03*
X71120000Y-35560000D03*
X71120000Y-38100000D03*
X68580000Y-35560000D03*
X68580000Y-38100000D03*
X66040000Y-35560000D03*
X66040000Y-38100000D03*
X63500000Y-35560000D03*
X63500000Y-38100000D03*
D11*
X137160000Y-144780000D03*
D12*
X137160000Y-147320000D03*
X134620000Y-144780000D03*
X134620000Y-147320000D03*
X132080000Y-144780000D03*
X132080000Y-147320000D03*
X129540000Y-144780000D03*
X129540000Y-147320000D03*
X127000000Y-144780000D03*
X127000000Y-147320000D03*
X124460000Y-144780000D03*
X124460000Y-147320000D03*
X121920000Y-144780000D03*
X121920000Y-147320000D03*
X119380000Y-144780000D03*
X119380000Y-147320000D03*
X116840000Y-144780000D03*
X116840000Y-147320000D03*
X114300000Y-144780000D03*
X114300000Y-147320000D03*
X111760000Y-144780000D03*
X111760000Y-147320000D03*
X109220000Y-144780000D03*
X109220000Y-147320000D03*
X106680000Y-144780000D03*
X106680000Y-147320000D03*
X104140000Y-144780000D03*
X104140000Y-147320000D03*
X101600000Y-144780000D03*
X101600000Y-147320000D03*
X99060000Y-144780000D03*
X99060000Y-147320000D03*
X96520000Y-144780000D03*
X96520000Y-147320000D03*
X93980000Y-144780000D03*
X93980000Y-147320000D03*
X91440000Y-144780000D03*
X91440000Y-147320000D03*
X88900000Y-144780000D03*
X88900000Y-147320000D03*
X86360000Y-144780000D03*
X86360000Y-147320000D03*
X83820000Y-144780000D03*
X83820000Y-147320000D03*
X81280000Y-144780000D03*
X81280000Y-147320000D03*
X78740000Y-144780000D03*
X78740000Y-147320000D03*
X76200000Y-144780000D03*
X76200000Y-147320000D03*
X73660000Y-144780000D03*
X73660000Y-147320000D03*
X71120000Y-144780000D03*
X71120000Y-147320000D03*
X68580000Y-144780000D03*
X68580000Y-147320000D03*
X66040000Y-144780000D03*
X66040000Y-147320000D03*
X63500000Y-144780000D03*
X63500000Y-147320000D03*
D11*
X149860000Y-38100000D03*
D12*
X149860000Y-35560000D03*
X152400000Y-38100000D03*
X152400000Y-35560000D03*
X154940000Y-38100000D03*
X154940000Y-35560000D03*
X157480000Y-38100000D03*
X157480000Y-35560000D03*
X160020000Y-38100000D03*
X160020000Y-35560000D03*
X162560000Y-38100000D03*
X162560000Y-35560000D03*
X165100000Y-38100000D03*
X165100000Y-35560000D03*
X167640000Y-38100000D03*
X167640000Y-35560000D03*
X170180000Y-38100000D03*
X170180000Y-35560000D03*
X172720000Y-38100000D03*
X172720000Y-35560000D03*
X175260000Y-38100000D03*
X175260000Y-35560000D03*
X177800000Y-38100000D03*
X177800000Y-35560000D03*
X180340000Y-38100000D03*
X180340000Y-35560000D03*
X182880000Y-38100000D03*
X182880000Y-35560000D03*
X185420000Y-38100000D03*
X185420000Y-35560000D03*
X187960000Y-38100000D03*
X187960000Y-35560000D03*
X190500000Y-38100000D03*
X190500000Y-35560000D03*
X193040000Y-38100000D03*
X193040000Y-35560000D03*
X195580000Y-38100000D03*
X195580000Y-35560000D03*
X198120000Y-38100000D03*
X198120000Y-35560000D03*
X200660000Y-38100000D03*
X200660000Y-35560000D03*
X203200000Y-38100000D03*
X203200000Y-35560000D03*
X205740000Y-38100000D03*
X205740000Y-35560000D03*
X208280000Y-38100000D03*
X208280000Y-35560000D03*
X210820000Y-38100000D03*
X210820000Y-35560000D03*
X213360000Y-38100000D03*
X213360000Y-35560000D03*
X215900000Y-38100000D03*
X215900000Y-35560000D03*
X218440000Y-38100000D03*
X218440000Y-35560000D03*
X220980000Y-38100000D03*
X220980000Y-35560000D03*
X223520000Y-38100000D03*
X223520000Y-35560000D03*
D11*
X149860000Y-147320000D03*
D12*
X149860000Y-144780000D03*
X152400000Y-147320000D03*
X152400000Y-144780000D03*
X154940000Y-147320000D03*
X154940000Y-144780000D03*
X157480000Y-147320000D03*
X157480000Y-144780000D03*
X160020000Y-147320000D03*
X160020000Y-144780000D03*
X162560000Y-147320000D03*
X162560000Y-144780000D03*
X165100000Y-147320000D03*
X165100000Y-144780000D03*
X167640000Y-147320000D03*
X167640000Y-144780000D03*
X170180000Y-147320000D03*
X170180000Y-144780000D03*
X172720000Y-147320000D03*
X172720000Y-144780000D03*
X175260000Y-147320000D03*
X175260000Y-144780000D03*
X177800000Y-147320000D03*
X177800000Y-144780000D03*
X180340000Y-147320000D03*
X180340000Y-144780000D03*
X182880000Y-147320000D03*
X182880000Y-144780000D03*
X185420000Y-147320000D03*
X185420000Y-144780000D03*
X187960000Y-147320000D03*
X187960000Y-144780000D03*
X190500000Y-147320000D03*
X190500000Y-144780000D03*
X193040000Y-147320000D03*
X193040000Y-144780000D03*
X195580000Y-147320000D03*
X195580000Y-144780000D03*
X198120000Y-147320000D03*
X198120000Y-144780000D03*
X200660000Y-147320000D03*
X200660000Y-144780000D03*
X203200000Y-147320000D03*
X203200000Y-144780000D03*
X205740000Y-147320000D03*
X205740000Y-144780000D03*
X208280000Y-147320000D03*
X208280000Y-144780000D03*
X210820000Y-147320000D03*
X210820000Y-144780000D03*
X213360000Y-147320000D03*
X213360000Y-144780000D03*
X215900000Y-147320000D03*
X215900000Y-144780000D03*
X218440000Y-147320000D03*
X218440000Y-144780000D03*
X220980000Y-147320000D03*
X220980000Y-144780000D03*
X223520000Y-147320000D03*
X223520000Y-144780000D03*
D17*
X233680000Y-38100000D03*
X55880000Y-38100000D03*
X55880000Y-144780000D03*
X233680000Y-144780000D03*
D18*
X234950000Y-120015000D03*
D19*
X234950000Y-122555000D03*
X234950000Y-125095000D03*
D15*
X229235000Y-118745000D03*
D20*
X229235000Y-121245000D03*
D15*
X231775000Y-133223000D03*
D20*
X235275000Y-133223000D03*
D15*
X229235000Y-127000000D03*
D20*
X229235000Y-124500000D03*
D21*
X212090000Y-105918000D03*
X231775000Y-53340000D03*
X213360000Y-76708000D03*
D22*
X221869000Y-77089000D03*
X219964000Y-67818000D03*
X220218000Y-110998000D03*
X212090000Y-81534000D03*
X84836000Y-123698000D03*
X197993000Y-122301000D03*
X83566000Y-131318000D03*
X75057000Y-131318000D03*
X67564000Y-131318000D03*
X86868000Y-48387000D03*
X193929000Y-47625000D03*
X227838000Y-103759000D03*
X226568000Y-51689000D03*
X206248000Y-138684000D03*
X215138000Y-138684000D03*
X223266000Y-138684000D03*
X63373000Y-43688000D03*
X80010000Y-43688000D03*
X71755000Y-43688000D03*
X203581000Y-51562000D03*
X211836000Y-51562000D03*
X220091000Y-51562000D03*
X198882000Y-123063000D03*
X86106000Y-123571000D03*
X83566000Y-135128000D03*
X75184000Y-135128000D03*
X67564000Y-135128000D03*
X87249000Y-46990000D03*
X193929000Y-46355000D03*
X224282000Y-47752000D03*
X225679000Y-106045000D03*
X221742000Y-130048000D03*
X221742000Y-105537000D03*
X206248000Y-134874000D03*
X215138000Y-134874000D03*
X223266000Y-134874000D03*
X63500000Y-47498000D03*
X71755000Y-47498000D03*
X80010000Y-47498000D03*
X203454000Y-47752000D03*
X211709000Y-47752000D03*
X219964000Y-47752000D03*
X204597000Y-122301000D03*
X86995000Y-123825000D03*
X83566000Y-138938000D03*
X75184000Y-138938000D03*
X67564000Y-138938000D03*
X193929000Y-45339000D03*
X219202000Y-99568000D03*
X206248000Y-131064000D03*
X223266000Y-131064000D03*
X215138000Y-131064000D03*
X63500000Y-51308000D03*
X71755000Y-51308000D03*
X80010000Y-51308000D03*
X203454000Y-43942000D03*
X219964000Y-43942000D03*
X211709000Y-43942000D03*
X78613000Y-128270000D03*
X82423000Y-123698000D03*
X206121000Y-121285000D03*
X226441000Y-111379000D03*
X217551000Y-129667000D03*
X73533000Y-53594000D03*
X85090000Y-50800000D03*
X193929000Y-50165000D03*
X228346000Y-52070000D03*
X209169000Y-53086000D03*
X227838000Y-97409000D03*
X71120000Y-127889000D03*
X81788000Y-123190000D03*
X216916000Y-120015000D03*
X193929000Y-49022000D03*
X86487000Y-49784000D03*
X64770000Y-52578000D03*
X221742000Y-80391000D03*
X215900000Y-54991000D03*
X220980000Y-128905000D03*
X221869000Y-91313000D03*
X83693000Y-123698000D03*
X83058000Y-129794000D03*
X204978000Y-121539000D03*
X230124000Y-93218000D03*
X227838000Y-111887000D03*
X210439000Y-127889000D03*
X193929000Y-51308000D03*
X93599000Y-47752000D03*
X76708000Y-54991000D03*
X201676000Y-56261000D03*
X226822000Y-63754000D03*
X226441000Y-88773000D03*
X220091000Y-63881000D03*
X141605000Y-52578000D03*
X134112000Y-53340000D03*
X129159000Y-53848000D03*
X128270000Y-54610000D03*
X125730000Y-54610000D03*
X127000000Y-56896000D03*
X180594000Y-64516000D03*
X123190000Y-56007000D03*
X124460000Y-57658000D03*
X91059000Y-138176000D03*
X91821000Y-138938000D03*
X92583000Y-139700000D03*
X93345000Y-140462000D03*
X94107000Y-141224000D03*
X94869000Y-141986000D03*
X135890000Y-142748000D03*
X115824000Y-134366000D03*
X112776000Y-134366000D03*
X136652000Y-141986000D03*
X113538000Y-133604000D03*
X115062000Y-133604000D03*
X137414000Y-141224000D03*
X138176000Y-140462000D03*
X113538000Y-135255000D03*
X116713000Y-135255000D03*
X138938000Y-139700000D03*
X139700000Y-138938000D03*
X102616000Y-127508000D03*
X150241000Y-127508000D03*
X107950000Y-119253000D03*
X101854000Y-127762000D03*
X150749000Y-128270000D03*
X107061000Y-119253000D03*
X153416000Y-127762000D03*
X101092000Y-127508000D03*
X106172000Y-119253000D03*
X154559000Y-127635000D03*
X100330000Y-127762000D03*
X105283000Y-119253000D03*
X155956000Y-127508000D03*
X99568000Y-127508000D03*
X104394000Y-119253000D03*
X156972000Y-127635000D03*
X98806000Y-127762000D03*
X103505000Y-119253000D03*
X198628000Y-44450000D03*
X157099000Y-58420000D03*
X197866000Y-43688000D03*
X158369000Y-59690000D03*
X197104000Y-42926000D03*
X159385000Y-60960000D03*
X196342000Y-42164000D03*
X160528000Y-62230000D03*
X195580000Y-41402000D03*
X161671000Y-63246000D03*
X194818000Y-40640000D03*
X152146000Y-59309000D03*
X150876000Y-68961000D03*
X153416000Y-60325000D03*
X146050000Y-69850000D03*
X155067000Y-60198000D03*
X156083000Y-62230000D03*
X157099000Y-63627000D03*
X158115000Y-64262000D03*
X179070000Y-48133000D03*
X139954000Y-60071000D03*
X151003000Y-52070000D03*
X152019000Y-52070000D03*
X139700000Y-61468000D03*
X181610000Y-48895000D03*
X184150000Y-49657000D03*
X141224000Y-61087000D03*
X153035000Y-52070000D03*
X186690000Y-50419000D03*
X154051000Y-52070000D03*
X141097000Y-62357000D03*
X189230000Y-51181000D03*
X142621000Y-61849000D03*
X155067000Y-52070000D03*
X191770000Y-51943000D03*
X156083000Y-52070000D03*
X142748000Y-62738000D03*
X89281000Y-131953000D03*
X156083000Y-132842000D03*
X88392000Y-131191000D03*
X156845000Y-132080000D03*
X88011000Y-130175000D03*
X157607000Y-131318000D03*
X95758000Y-129286000D03*
X158369000Y-130556000D03*
X96266000Y-128524000D03*
X159131000Y-129413000D03*
X97155000Y-127762000D03*
X159893000Y-127635000D03*
X215900000Y-120904000D03*
X220980000Y-89916000D03*
X220980000Y-67056000D03*
X149860000Y-89916000D03*
X176530000Y-115062000D03*
X214630000Y-115062000D03*
X176530000Y-89916000D03*
X138430000Y-89916000D03*
X100330000Y-89916000D03*
X112268000Y-89916000D03*
X74168000Y-89916000D03*
X92710000Y-88900000D03*
X70866000Y-88900000D03*
X196596000Y-69596000D03*
X207010000Y-114046000D03*
X168910000Y-114046000D03*
X168910000Y-88900000D03*
X130810000Y-88900000D03*
X156210000Y-88900000D03*
X118110000Y-88900000D03*
X78740000Y-88900000D03*
X207010000Y-88900000D03*
X186690000Y-112014000D03*
X72390000Y-85725000D03*
X110490000Y-85725000D03*
X138430000Y-85725000D03*
X148590000Y-85725000D03*
X176530000Y-85725000D03*
X100330000Y-85725000D03*
X226314000Y-68580000D03*
X204470000Y-68580000D03*
X71374000Y-86868000D03*
X196850000Y-113030000D03*
X161036000Y-113030000D03*
X158750000Y-86868000D03*
X120650000Y-86868000D03*
X82550000Y-86868000D03*
X90170000Y-86868000D03*
X128270000Y-86868000D03*
X166370000Y-86868000D03*
X202184000Y-77978000D03*
X232156000Y-77470000D03*
X77470000Y-100330000D03*
X171450000Y-78740000D03*
X133350000Y-81280000D03*
X95250000Y-81280000D03*
X77470000Y-81280000D03*
X115570000Y-81280000D03*
X191770000Y-78740000D03*
X153670000Y-81280000D03*
X218440000Y-71120000D03*
X67818000Y-84836000D03*
X157480000Y-87884000D03*
X119380000Y-87884000D03*
X207010000Y-70612000D03*
X80010000Y-87884000D03*
X92710000Y-87884000D03*
X130810000Y-87884000D03*
X168910000Y-87884000D03*
X189230000Y-87884000D03*
X217424000Y-72136000D03*
X78994000Y-99060000D03*
X172720000Y-80518000D03*
X209550000Y-80518000D03*
X96520000Y-99060000D03*
X172720000Y-99060000D03*
X134620000Y-99060000D03*
X115570000Y-99060000D03*
X153670000Y-99060000D03*
X91948000Y-39878000D03*
X91186000Y-40640000D03*
X90424000Y-41402000D03*
X89662000Y-42164000D03*
X88900000Y-42926000D03*
X88138000Y-43688000D03*
X56007000Y-55245000D03*
X229870000Y-54483000D03*
D23*
X61722000Y-125603000D03*
X61722000Y-58674000D03*
X223774000Y-58674000D03*
D22*
X222885000Y-88773000D03*
X223139000Y-80264000D03*
X224155000Y-74803000D03*
X230124000Y-103886000D03*
X196850000Y-101854000D03*
X232283000Y-105537000D03*
X227203000Y-99060000D03*
X231648000Y-96520000D03*
X212090000Y-96520000D03*
X226949000Y-93980000D03*
X214630000Y-93980000D03*
X230886000Y-91440000D03*
X199390000Y-93218000D03*
X194310000Y-90932000D03*
X231013000Y-83693000D03*
X196850000Y-87884000D03*
X227965000Y-77089000D03*
X200914000Y-79502000D03*
X203708000Y-78740000D03*
X58166000Y-51816000D03*
X107950000Y-59944000D03*
X160020000Y-64008000D03*
X221742000Y-64262000D03*
X221869000Y-72517000D03*
X227965000Y-73279000D03*
X222758000Y-56515000D03*
X218059000Y-118491000D03*
X65405000Y-130683000D03*
X230124000Y-86233000D03*
X65405000Y-118491000D03*
X229235000Y-112395000D03*
X229235000Y-85344000D03*
X226187000Y-120650000D03*
D24*
X212090000Y-99060000D02*
X212090000Y-105918000D01*
X217170000Y-83820000D02*
X217170000Y-80518000D01*
X213360000Y-76708000D02*
X217170000Y-80518000D01*
X214630000Y-99060000D02*
X214630000Y-96139000D01*
X214630000Y-96139000D02*
X217170000Y-93599000D01*
X217170000Y-93599000D02*
X217170000Y-83820000D01*
X232791000Y-122682000D02*
X232918000Y-122555000D01*
X236093000Y-111887000D02*
X233426000Y-109220000D01*
X236093000Y-116332000D02*
X236093000Y-111887000D01*
X235204000Y-117221000D02*
X236093000Y-116332000D01*
X234696000Y-117221000D02*
X235204000Y-117221000D01*
X232918000Y-118999000D02*
X234696000Y-117221000D01*
X232918000Y-122555000D02*
X232918000Y-118999000D01*
X235275000Y-133223000D02*
X235275000Y-129357000D01*
X232791000Y-126873000D02*
X232791000Y-122682000D01*
X232791000Y-122682000D02*
X232791000Y-122555000D01*
X235275000Y-129357000D02*
X232791000Y-126873000D01*
X229235000Y-124500000D02*
X229235000Y-124333000D01*
X229235000Y-124333000D02*
X231013000Y-122555000D01*
X234950000Y-122555000D02*
X232791000Y-122555000D01*
X232791000Y-122555000D02*
X231013000Y-122555000D01*
X231013000Y-122555000D02*
X230545000Y-122555000D01*
X230545000Y-122555000D02*
X229235000Y-121245000D01*
D25*
X219964000Y-73406000D02*
X219964000Y-71882000D01*
X219964000Y-71882000D02*
X219964000Y-67818000D01*
X220218000Y-110998000D02*
X219964000Y-74168000D01*
X219964000Y-74168000D02*
X219964000Y-73406000D01*
X212090000Y-81534000D02*
X212090000Y-73660000D01*
X206248000Y-138684000D02*
X205232000Y-137668000D01*
X84836000Y-130048000D02*
X83566000Y-131318000D01*
X84836000Y-123698000D02*
X84836000Y-130048000D01*
X197993000Y-128016000D02*
X197993000Y-122301000D01*
X205232000Y-135255000D02*
X197993000Y-128016000D01*
X205232000Y-137668000D02*
X205232000Y-135255000D01*
X75057000Y-131318000D02*
X83566000Y-131318000D01*
X67564000Y-131318000D02*
X75057000Y-131318000D01*
X227838000Y-103759000D02*
X226441000Y-102362000D01*
X227838000Y-52959000D02*
X226568000Y-51689000D01*
X227838000Y-69342000D02*
X227838000Y-52959000D01*
X227203000Y-69977000D02*
X227838000Y-69342000D01*
X227203000Y-77724000D02*
X227203000Y-69977000D01*
X227711000Y-78232000D02*
X227203000Y-77724000D01*
X227711000Y-94488000D02*
X227711000Y-78232000D01*
X226441000Y-95758000D02*
X227711000Y-94488000D01*
X226441000Y-102362000D02*
X226441000Y-95758000D01*
X215138000Y-138684000D02*
X206248000Y-138684000D01*
X223266000Y-138684000D02*
X215138000Y-138684000D01*
X71755000Y-43688000D02*
X63373000Y-43688000D01*
X80010000Y-43688000D02*
X71755000Y-43688000D01*
X211836000Y-51562000D02*
X203581000Y-51562000D01*
X220091000Y-51562000D02*
X211836000Y-51562000D01*
X198882000Y-127508000D02*
X198882000Y-123063000D01*
X206248000Y-134874000D02*
X198882000Y-127508000D01*
X86106000Y-132588000D02*
X83566000Y-135128000D01*
X86106000Y-123571000D02*
X86106000Y-132588000D01*
X75184000Y-135128000D02*
X83566000Y-135128000D01*
X67564000Y-135128000D02*
X75184000Y-135128000D01*
X225552000Y-49022000D02*
X224282000Y-47752000D01*
X225552000Y-70485000D02*
X225552000Y-49022000D01*
X225679000Y-70612000D02*
X225552000Y-70485000D01*
X225679000Y-106045000D02*
X225679000Y-70612000D01*
X221742000Y-105537000D02*
X221742000Y-130048000D01*
X215138000Y-134874000D02*
X206248000Y-134874000D01*
X223266000Y-134874000D02*
X215138000Y-134874000D01*
X71755000Y-47498000D02*
X63500000Y-47498000D01*
X80010000Y-47498000D02*
X71755000Y-47498000D01*
X211709000Y-47752000D02*
X203454000Y-47752000D01*
X219964000Y-47752000D02*
X211709000Y-47752000D01*
X204597000Y-129413000D02*
X204597000Y-122301000D01*
X86995000Y-123825000D02*
X86995000Y-135509000D01*
X83566000Y-138938000D02*
X86995000Y-135509000D01*
X204597000Y-129413000D02*
X206248000Y-131064000D01*
X75184000Y-138938000D02*
X83566000Y-138938000D01*
X67564000Y-138938000D02*
X75184000Y-138938000D01*
X219202000Y-99568000D02*
X219202000Y-131064000D01*
X219202000Y-72898000D02*
X219202000Y-54483000D01*
X219202000Y-99568000D02*
X219202000Y-72898000D01*
X221361000Y-45339000D02*
X219964000Y-43942000D01*
X221361000Y-52324000D02*
X221361000Y-45339000D01*
X219202000Y-54483000D02*
X221361000Y-52324000D01*
X215138000Y-131064000D02*
X206248000Y-131064000D01*
X223266000Y-131064000D02*
X219202000Y-131064000D01*
X219202000Y-131064000D02*
X215138000Y-131064000D01*
X71755000Y-51308000D02*
X63500000Y-51308000D01*
X80010000Y-51308000D02*
X71755000Y-51308000D01*
X211709000Y-43942000D02*
X203454000Y-43942000D01*
X219964000Y-43942000D02*
X211709000Y-43942000D01*
X217551000Y-129667000D02*
X214503000Y-129667000D01*
X78613000Y-127508000D02*
X78613000Y-128270000D01*
X82423000Y-123698000D02*
X78613000Y-127508000D01*
X214503000Y-129667000D02*
X206121000Y-121285000D01*
X227838000Y-98679000D02*
X228600000Y-99441000D01*
X228600000Y-99441000D02*
X228600000Y-109220000D01*
X228600000Y-109220000D02*
X226441000Y-111379000D01*
X227838000Y-97409000D02*
X227838000Y-98679000D01*
X80518000Y-53594000D02*
X73533000Y-53594000D01*
X83312000Y-50800000D02*
X80518000Y-53594000D01*
X85090000Y-50800000D02*
X83312000Y-50800000D01*
X228473000Y-96774000D02*
X228473000Y-77724000D01*
X228473000Y-77724000D02*
X228727000Y-77470000D01*
X228727000Y-77470000D02*
X228727000Y-52451000D01*
X228727000Y-52451000D02*
X228346000Y-52070000D01*
X227838000Y-97409000D02*
X228473000Y-96774000D01*
X77089000Y-127889000D02*
X71120000Y-127889000D01*
X81788000Y-123190000D02*
X77089000Y-127889000D01*
X86487000Y-49784000D02*
X83185000Y-49784000D01*
X80391000Y-52578000D02*
X64770000Y-52578000D01*
X83185000Y-49784000D02*
X80391000Y-52578000D01*
X221742000Y-91186000D02*
X221742000Y-80391000D01*
X221869000Y-91313000D02*
X221742000Y-91186000D01*
X220980000Y-110617000D02*
X220980000Y-128905000D01*
X220853000Y-110490000D02*
X220980000Y-110617000D01*
X220853000Y-92329000D02*
X220853000Y-110490000D01*
X221869000Y-91313000D02*
X220853000Y-92329000D01*
X83693000Y-123698000D02*
X83058000Y-124333000D01*
X83058000Y-124333000D02*
X83058000Y-129794000D01*
X205486000Y-122936000D02*
X205486000Y-122047000D01*
X205486000Y-122936000D02*
X210439000Y-127889000D01*
X205486000Y-122047000D02*
X204978000Y-121539000D01*
X230124000Y-93218000D02*
X229362000Y-93980000D01*
X229362000Y-94234000D02*
X229362000Y-110363000D01*
X229362000Y-110363000D02*
X227838000Y-111887000D01*
X229362000Y-93980000D02*
X229362000Y-94234000D01*
X227076000Y-64008000D02*
X226822000Y-63754000D01*
X227076000Y-68961000D02*
X227076000Y-64008000D01*
X226441000Y-69596000D02*
X227076000Y-68961000D01*
X226441000Y-88773000D02*
X226441000Y-69596000D01*
X137160000Y-35560000D02*
X141605000Y-40005000D01*
X141605000Y-44577000D02*
X141605000Y-40005000D01*
X141605000Y-52578000D02*
X141605000Y-44577000D01*
X133350000Y-36830000D02*
X134620000Y-35560000D01*
X133350000Y-53340000D02*
X133350000Y-36830000D01*
X134112000Y-53340000D02*
X133350000Y-53340000D01*
X130810000Y-36830000D02*
X132080000Y-35560000D01*
X130810000Y-52197000D02*
X130810000Y-36830000D01*
X129159000Y-53848000D02*
X130810000Y-52197000D01*
X128270000Y-54610000D02*
X128270000Y-36830000D01*
X129540000Y-35560000D02*
X128270000Y-36830000D01*
X125730000Y-36830000D02*
X127000000Y-35560000D01*
X125730000Y-54610000D02*
X125730000Y-36830000D01*
X179070000Y-73660000D02*
X180594000Y-72136000D01*
X127000000Y-56896000D02*
X127000000Y-38100000D01*
X180594000Y-72136000D02*
X180594000Y-64516000D01*
X123190000Y-36830000D02*
X124460000Y-35560000D01*
X123190000Y-55499000D02*
X123190000Y-36830000D01*
X123190000Y-56007000D02*
X123190000Y-55499000D01*
X124460000Y-57658000D02*
X124460000Y-38100000D01*
X81407000Y-120777000D02*
X87122000Y-120777000D01*
X87122000Y-120777000D02*
X91059000Y-124714000D01*
X91059000Y-124714000D02*
X91059000Y-138176000D01*
X77470000Y-116840000D02*
X81407000Y-120777000D01*
X80010000Y-116840000D02*
X83185000Y-120015000D01*
X91821000Y-124460000D02*
X91821000Y-138938000D01*
X87376000Y-120015000D02*
X91821000Y-124460000D01*
X83185000Y-120015000D02*
X87376000Y-120015000D01*
X84963000Y-119253000D02*
X87757000Y-119253000D01*
X87757000Y-119253000D02*
X92583000Y-124079000D01*
X92583000Y-124079000D02*
X92583000Y-139700000D01*
X82550000Y-116840000D02*
X84963000Y-119253000D01*
X85090000Y-116840000D02*
X86741000Y-118491000D01*
X93345000Y-123698000D02*
X93345000Y-140462000D01*
X88138000Y-118491000D02*
X93345000Y-123698000D01*
X86741000Y-118491000D02*
X88138000Y-118491000D01*
X87630000Y-116840000D02*
X94107000Y-123317000D01*
X94107000Y-123317000D02*
X94107000Y-141224000D01*
X90170000Y-116840000D02*
X90170000Y-117094000D01*
X90170000Y-117094000D02*
X94869000Y-121793000D01*
X94869000Y-121793000D02*
X94869000Y-141986000D01*
X107950000Y-109220000D02*
X107950000Y-112014000D01*
X107950000Y-112014000D02*
X110744000Y-114808000D01*
X110744000Y-114808000D02*
X118364000Y-114808000D01*
X118364000Y-114808000D02*
X119380000Y-115824000D01*
X119380000Y-115824000D02*
X119380000Y-139954000D01*
X119380000Y-139954000D02*
X121920000Y-142494000D01*
X121920000Y-142494000D02*
X121920000Y-144780000D01*
X135890000Y-116840000D02*
X135890000Y-142748000D01*
X119380000Y-144780000D02*
X117475000Y-142875000D01*
X117475000Y-142875000D02*
X116713000Y-142875000D01*
X116713000Y-142875000D02*
X115824000Y-141986000D01*
X115824000Y-141986000D02*
X115824000Y-134366000D01*
X112776000Y-134366000D02*
X112776000Y-126111000D01*
X112776000Y-126111000D02*
X112776000Y-120523000D01*
X112776000Y-120523000D02*
X110490000Y-118237000D01*
X110490000Y-118237000D02*
X109347000Y-118237000D01*
X109347000Y-118237000D02*
X107950000Y-116840000D01*
X136652000Y-119126000D02*
X136652000Y-141986000D01*
X138430000Y-117348000D02*
X136652000Y-119126000D01*
X138430000Y-116840000D02*
X138430000Y-117348000D01*
X116840000Y-144653000D02*
X115062000Y-142875000D01*
X111887000Y-118237000D02*
X110490000Y-116840000D01*
X112776000Y-118237000D02*
X111887000Y-118237000D01*
X113538000Y-118999000D02*
X112776000Y-118237000D01*
X113538000Y-133604000D02*
X113538000Y-118999000D01*
X115062000Y-142875000D02*
X115062000Y-133604000D01*
X116840000Y-144780000D02*
X116840000Y-144653000D01*
X137414000Y-120904000D02*
X137414000Y-141224000D01*
X140970000Y-117348000D02*
X137414000Y-120904000D01*
X140970000Y-116840000D02*
X140970000Y-117348000D01*
X114300000Y-144780000D02*
X114300000Y-118110000D01*
X114300000Y-118110000D02*
X113030000Y-116840000D01*
X142494000Y-110744000D02*
X142494000Y-117602000D01*
X142494000Y-117602000D02*
X138176000Y-121920000D01*
X138176000Y-121920000D02*
X138176000Y-140462000D01*
X140970000Y-109220000D02*
X142494000Y-110744000D01*
X111760000Y-144780000D02*
X113538000Y-143002000D01*
X113538000Y-143002000D02*
X113538000Y-135255000D01*
X116713000Y-135255000D02*
X116713000Y-134112000D01*
X116713000Y-134112000D02*
X115062000Y-132461000D01*
X115062000Y-132461000D02*
X115062000Y-117348000D01*
X115062000Y-117348000D02*
X115570000Y-116840000D01*
X138938000Y-122428000D02*
X138938000Y-139700000D01*
X143256000Y-118110000D02*
X138938000Y-122428000D01*
X143256000Y-112014000D02*
X143256000Y-118110000D01*
X146050000Y-109220000D02*
X143256000Y-112014000D01*
X109220000Y-144780000D02*
X110490000Y-146050000D01*
X110490000Y-146050000D02*
X120523000Y-146050000D01*
X120523000Y-146050000D02*
X120650000Y-145923000D01*
X120650000Y-145923000D02*
X120650000Y-143510000D01*
X120650000Y-143510000D02*
X118110000Y-140970000D01*
X118110000Y-140970000D02*
X118110000Y-116840000D01*
X145669000Y-116840000D02*
X139700000Y-122809000D01*
X139700000Y-122809000D02*
X139700000Y-138938000D01*
X146050000Y-116840000D02*
X145669000Y-116840000D01*
X107950000Y-146050000D02*
X107950000Y-119253000D01*
X107950000Y-146050000D02*
X106680000Y-147320000D01*
X104140000Y-147320000D02*
X105410000Y-146050000D01*
X107188000Y-119380000D02*
X107061000Y-119253000D01*
X107188000Y-141986000D02*
X107188000Y-119380000D01*
X105410000Y-143764000D02*
X107188000Y-141986000D01*
X105410000Y-146050000D02*
X105410000Y-143764000D01*
X105664000Y-142240000D02*
X104648000Y-143256000D01*
X102870000Y-146050000D02*
X102870000Y-143891000D01*
X105664000Y-142240000D02*
X106172000Y-141732000D01*
X106172000Y-141732000D02*
X106172000Y-119253000D01*
X102870000Y-146050000D02*
X101600000Y-147320000D01*
X103505000Y-143256000D02*
X102870000Y-143891000D01*
X104648000Y-143256000D02*
X103505000Y-143256000D01*
X99060000Y-147320000D02*
X100330000Y-146050000D01*
X105283000Y-141478000D02*
X105283000Y-119253000D01*
X104267000Y-142494000D02*
X105283000Y-141478000D01*
X101473000Y-142494000D02*
X104267000Y-142494000D01*
X100330000Y-143637000D02*
X101473000Y-142494000D01*
X100330000Y-146050000D02*
X100330000Y-143637000D01*
X96520000Y-147320000D02*
X97790000Y-146050000D01*
X104394000Y-141224000D02*
X104394000Y-119253000D01*
X103886000Y-141732000D02*
X104394000Y-141224000D01*
X99695000Y-141732000D02*
X103886000Y-141732000D01*
X97790000Y-143637000D02*
X99695000Y-141732000D01*
X97790000Y-146050000D02*
X97790000Y-143637000D01*
X93980000Y-147320000D02*
X95250000Y-146050000D01*
X103505000Y-140589000D02*
X103505000Y-119253000D01*
X103124000Y-140970000D02*
X103505000Y-140589000D01*
X98298000Y-140970000D02*
X103124000Y-140970000D01*
X95250000Y-144018000D02*
X98298000Y-140970000D01*
X95250000Y-146050000D02*
X95250000Y-144018000D01*
X204470000Y-66040000D02*
X198628000Y-60198000D01*
X198628000Y-60198000D02*
X198628000Y-44450000D01*
X157099000Y-58420000D02*
X157099000Y-50165000D01*
X151130000Y-36830000D02*
X149860000Y-35560000D01*
X151130000Y-44196000D02*
X151130000Y-36830000D01*
X157099000Y-50165000D02*
X151130000Y-44196000D01*
X201930000Y-66040000D02*
X197866000Y-61976000D01*
X197866000Y-61976000D02*
X197866000Y-43688000D01*
X158369000Y-59690000D02*
X158369000Y-49784000D01*
X153670000Y-36830000D02*
X152400000Y-35560000D01*
X153670000Y-45085000D02*
X153670000Y-36830000D01*
X158369000Y-49784000D02*
X153670000Y-45085000D01*
X199390000Y-66040000D02*
X197104000Y-63754000D01*
X197104000Y-63754000D02*
X197104000Y-42926000D01*
X159385000Y-60960000D02*
X159385000Y-49657000D01*
X156210000Y-36830000D02*
X154940000Y-35560000D01*
X156210000Y-46482000D02*
X156210000Y-36830000D01*
X159385000Y-49657000D02*
X156210000Y-46482000D01*
X196850000Y-66040000D02*
X196342000Y-65532000D01*
X196342000Y-65532000D02*
X196342000Y-42164000D01*
X160528000Y-62230000D02*
X160528000Y-49403000D01*
X158750000Y-36830000D02*
X157480000Y-35560000D01*
X158750000Y-47625000D02*
X158750000Y-36830000D01*
X160528000Y-49403000D02*
X158750000Y-47625000D01*
X194310000Y-66040000D02*
X195580000Y-64770000D01*
X195580000Y-64770000D02*
X195580000Y-41402000D01*
X194310000Y-66040000D02*
X194310000Y-65786000D01*
X161290000Y-36830000D02*
X160020000Y-35560000D01*
X161290000Y-38989000D02*
X161290000Y-36830000D01*
X161671000Y-39370000D02*
X161290000Y-38989000D01*
X161671000Y-63246000D02*
X161671000Y-39370000D01*
X191770000Y-66040000D02*
X194818000Y-62992000D01*
X194818000Y-62992000D02*
X194818000Y-40640000D01*
X163830000Y-66040000D02*
X163830000Y-36830000D01*
X163830000Y-36830000D02*
X162560000Y-35560000D01*
X146050000Y-66040000D02*
X146050000Y-67183000D01*
X165100000Y-66802000D02*
X165100000Y-38100000D01*
X163830000Y-68072000D02*
X165100000Y-66802000D01*
X146939000Y-68072000D02*
X163830000Y-68072000D01*
X146050000Y-67183000D02*
X146939000Y-68072000D01*
X118110000Y-66040000D02*
X123190000Y-60960000D01*
X144272000Y-59309000D02*
X152146000Y-59309000D01*
X142494000Y-57531000D02*
X144272000Y-59309000D01*
X138557000Y-57531000D02*
X142494000Y-57531000D01*
X135128000Y-60960000D02*
X138557000Y-57531000D01*
X123190000Y-60960000D02*
X135128000Y-60960000D01*
X167640000Y-38100000D02*
X167640000Y-66929000D01*
X165608000Y-68961000D02*
X150876000Y-68961000D01*
X167640000Y-66929000D02*
X165608000Y-68961000D01*
X115570000Y-66040000D02*
X115570000Y-67056000D01*
X143891000Y-60325000D02*
X153416000Y-60325000D01*
X141986000Y-58420000D02*
X143891000Y-60325000D01*
X138938000Y-58420000D02*
X141986000Y-58420000D01*
X135636000Y-61722000D02*
X138938000Y-58420000D01*
X127508000Y-61722000D02*
X135636000Y-61722000D01*
X124460000Y-64770000D02*
X127508000Y-61722000D01*
X124460000Y-66929000D02*
X124460000Y-64770000D01*
X122682000Y-68707000D02*
X124460000Y-66929000D01*
X117221000Y-68707000D02*
X122682000Y-68707000D01*
X115570000Y-67056000D02*
X117221000Y-68707000D01*
X170180000Y-38100000D02*
X170180000Y-68199000D01*
X168529000Y-69850000D02*
X146050000Y-69850000D01*
X170180000Y-68199000D02*
X168529000Y-69850000D01*
X139255500Y-59118500D02*
X141414500Y-59118500D01*
X153289000Y-61976000D02*
X155067000Y-60198000D01*
X144272000Y-61976000D02*
X153289000Y-61976000D01*
X141414500Y-59118500D02*
X144272000Y-61976000D01*
X113030000Y-66040000D02*
X113030000Y-66167000D01*
X113030000Y-66167000D02*
X116332000Y-69469000D01*
X116332000Y-69469000D02*
X124587000Y-69469000D01*
X124587000Y-69469000D02*
X127000000Y-67056000D01*
X127000000Y-67056000D02*
X127000000Y-64897000D01*
X127000000Y-64897000D02*
X129413000Y-62484000D01*
X129413000Y-62484000D02*
X135890000Y-62484000D01*
X135890000Y-62484000D02*
X139255500Y-59118500D01*
X139255500Y-59118500D02*
X139319000Y-59055000D01*
X172720000Y-62611000D02*
X172720000Y-66929000D01*
X169037000Y-70612000D02*
X145542000Y-70612000D01*
X140970000Y-66040000D02*
X145542000Y-70612000D01*
X172720000Y-62611000D02*
X172720000Y-38100000D01*
X172720000Y-66929000D02*
X169037000Y-70612000D01*
X110490000Y-66040000D02*
X110490000Y-67437000D01*
X154870004Y-63442996D02*
X156083000Y-62230000D01*
X131121004Y-63442996D02*
X154870004Y-63442996D01*
X129540000Y-65024000D02*
X131121004Y-63442996D01*
X129540000Y-67056000D02*
X129540000Y-65024000D01*
X126238000Y-70358000D02*
X129540000Y-67056000D01*
X113411000Y-70358000D02*
X126238000Y-70358000D01*
X110490000Y-67437000D02*
X113411000Y-70358000D01*
X175260000Y-62484000D02*
X175260000Y-67818000D01*
X175260000Y-38100000D02*
X175260000Y-62484000D01*
X175260000Y-67818000D02*
X171577000Y-71501000D01*
X143891000Y-71501000D02*
X138430000Y-66040000D01*
X171704000Y-71501000D02*
X171577000Y-71501000D01*
X171577000Y-71501000D02*
X143891000Y-71501000D01*
X132080000Y-65151000D02*
X133188002Y-64042998D01*
X113064998Y-71154998D02*
X127854002Y-71154998D01*
X127854002Y-71154998D02*
X132080000Y-66929000D01*
X132080000Y-66929000D02*
X132080000Y-65151000D01*
X107950000Y-66040000D02*
X113064998Y-71154998D01*
X156683002Y-64042998D02*
X157099000Y-63627000D01*
X133188002Y-64042998D02*
X156683002Y-64042998D01*
X177927000Y-62103000D02*
X177927000Y-64770000D01*
X177927000Y-38227000D02*
X177927000Y-62103000D01*
X177800000Y-68326000D02*
X175260000Y-70866000D01*
X177800000Y-64897000D02*
X177800000Y-68326000D01*
X177927000Y-64770000D02*
X177800000Y-64897000D01*
X135890000Y-66040000D02*
X137160000Y-67310000D01*
X175260000Y-70866000D02*
X173863000Y-72263000D01*
X173863000Y-72263000D02*
X142113000Y-72263000D01*
X142113000Y-72263000D02*
X137160000Y-67310000D01*
X177800000Y-38100000D02*
X177927000Y-38227000D01*
X158115000Y-64262000D02*
X157734000Y-64643000D01*
X157734000Y-64643000D02*
X135001000Y-64643000D01*
X132207000Y-69723000D02*
X130175000Y-71755000D01*
X132207000Y-69723000D02*
X134620000Y-67310000D01*
X134620000Y-67310000D02*
X134620000Y-65024000D01*
X134620000Y-65024000D02*
X135001000Y-64643000D01*
X109855000Y-71755000D02*
X107950000Y-73660000D01*
X130175000Y-71755000D02*
X109855000Y-71755000D01*
X179070000Y-36830000D02*
X179070000Y-48133000D01*
X179070000Y-36830000D02*
X180340000Y-35560000D01*
X182880000Y-35560000D02*
X181610000Y-36830000D01*
X181610000Y-36830000D02*
X181610000Y-48895000D01*
X184150000Y-36830000D02*
X184150000Y-49657000D01*
X184150000Y-36830000D02*
X185420000Y-35560000D01*
X187960000Y-35560000D02*
X186690000Y-36830000D01*
X186690000Y-36830000D02*
X186690000Y-50419000D01*
X189230000Y-51181000D02*
X189230000Y-36830000D01*
X190500000Y-35560000D02*
X189230000Y-36830000D01*
X191770000Y-51943000D02*
X191770000Y-36830000D01*
X193040000Y-35560000D02*
X191770000Y-36830000D01*
X149860000Y-144780000D02*
X151511000Y-143129000D01*
X156083000Y-140081000D02*
X156083000Y-132842000D01*
X153035000Y-143129000D02*
X156083000Y-140081000D01*
X151511000Y-143129000D02*
X153035000Y-143129000D01*
X152400000Y-144780000D02*
X155194000Y-141986000D01*
X156845000Y-141351000D02*
X156845000Y-132080000D01*
X156210000Y-141986000D02*
X156845000Y-141351000D01*
X155194000Y-141986000D02*
X156210000Y-141986000D01*
X154940000Y-144780000D02*
X154940000Y-144526000D01*
X154940000Y-144526000D02*
X157607000Y-141859000D01*
X157607000Y-141859000D02*
X157607000Y-131318000D01*
X157480000Y-144780000D02*
X157480000Y-143637000D01*
X158369000Y-142748000D02*
X158369000Y-130556000D01*
X157480000Y-143637000D02*
X158369000Y-142748000D01*
X160020000Y-144780000D02*
X160020000Y-141224000D01*
X159131000Y-140335000D02*
X159131000Y-129413000D01*
X160020000Y-141224000D02*
X159131000Y-140335000D01*
X162560000Y-142621000D02*
X159893000Y-139954000D01*
X159893000Y-139954000D02*
X159893000Y-127635000D01*
X162560000Y-144780000D02*
X162560000Y-142621000D01*
X165100000Y-144780000D02*
X165100000Y-143637000D01*
X150876000Y-119126000D02*
X148590000Y-116840000D01*
X153416000Y-119126000D02*
X150876000Y-119126000D01*
X157734000Y-123444000D02*
X153416000Y-119126000D01*
X159893000Y-123444000D02*
X157734000Y-123444000D01*
X160782000Y-124333000D02*
X159893000Y-123444000D01*
X160782000Y-139700000D02*
X160782000Y-124333000D01*
X163703000Y-142621000D02*
X160782000Y-139700000D01*
X164084000Y-142621000D02*
X163703000Y-142621000D01*
X165100000Y-143637000D02*
X164084000Y-142621000D01*
X167640000Y-144780000D02*
X167640000Y-143764000D01*
X152527000Y-118237000D02*
X151130000Y-116840000D01*
X153924000Y-118237000D02*
X152527000Y-118237000D01*
X158369000Y-122682000D02*
X153924000Y-118237000D01*
X160274000Y-122682000D02*
X158369000Y-122682000D01*
X161671000Y-124079000D02*
X160274000Y-122682000D01*
X161671000Y-139573000D02*
X161671000Y-124079000D01*
X163957000Y-141859000D02*
X161671000Y-139573000D01*
X165735000Y-141859000D02*
X163957000Y-141859000D01*
X167640000Y-143764000D02*
X165735000Y-141859000D01*
X170180000Y-144780000D02*
X166497000Y-141097000D01*
X158877000Y-122047000D02*
X153670000Y-116840000D01*
X160782000Y-122047000D02*
X158877000Y-122047000D01*
X162560000Y-123825000D02*
X160782000Y-122047000D01*
X162560000Y-139319000D02*
X162560000Y-123825000D01*
X164338000Y-141097000D02*
X162560000Y-139319000D01*
X166497000Y-141097000D02*
X164338000Y-141097000D01*
X172720000Y-144780000D02*
X172593000Y-144780000D01*
X172593000Y-144780000D02*
X168148000Y-140335000D01*
X168148000Y-140335000D02*
X164973000Y-140335000D01*
X164973000Y-140335000D02*
X163449000Y-138811000D01*
X163449000Y-138811000D02*
X163449000Y-123698000D01*
X163449000Y-123698000D02*
X161036000Y-121285000D01*
X161036000Y-121285000D02*
X159512000Y-121285000D01*
X159512000Y-121285000D02*
X156210000Y-117983000D01*
X156210000Y-117983000D02*
X156210000Y-116840000D01*
X175260000Y-144780000D02*
X170053000Y-139573000D01*
X158750000Y-118618000D02*
X158750000Y-116840000D01*
X160655000Y-120523000D02*
X158750000Y-118618000D01*
X161417000Y-120523000D02*
X160655000Y-120523000D01*
X164338000Y-123444000D02*
X161417000Y-120523000D01*
X164338000Y-138303000D02*
X164338000Y-123444000D01*
X165608000Y-139573000D02*
X164338000Y-138303000D01*
X170053000Y-139573000D02*
X165608000Y-139573000D01*
X177800000Y-144780000D02*
X177419000Y-144780000D01*
X177419000Y-144780000D02*
X171450000Y-138811000D01*
X171450000Y-138811000D02*
X166370000Y-138811000D01*
X166370000Y-138811000D02*
X165100000Y-137541000D01*
X165100000Y-137541000D02*
X165100000Y-123190000D01*
X165100000Y-123190000D02*
X161290000Y-119380000D01*
X161290000Y-119380000D02*
X161290000Y-116840000D01*
X179070000Y-116840000D02*
X179070000Y-146050000D01*
X179070000Y-146050000D02*
X180340000Y-147320000D01*
X179070000Y-109220000D02*
X180848000Y-110998000D01*
X181610000Y-146050000D02*
X182880000Y-147320000D01*
X181610000Y-143891000D02*
X181610000Y-146050000D01*
X180848000Y-143129000D02*
X181610000Y-143891000D01*
X180848000Y-110998000D02*
X180848000Y-143129000D01*
X184150000Y-109220000D02*
X182499000Y-110871000D01*
X184150000Y-146050000D02*
X185420000Y-147320000D01*
X184150000Y-143637000D02*
X184150000Y-146050000D01*
X182499000Y-141986000D02*
X184150000Y-143637000D01*
X182499000Y-110871000D02*
X182499000Y-141986000D01*
X184150000Y-116840000D02*
X186690000Y-119380000D01*
X186690000Y-146050000D02*
X187960000Y-147320000D01*
X186690000Y-119380000D02*
X186690000Y-146050000D01*
X186690000Y-116840000D02*
X187579000Y-117729000D01*
X189230000Y-146050000D02*
X190500000Y-147320000D01*
X189230000Y-143764000D02*
X189230000Y-146050000D01*
X187579000Y-142113000D02*
X189230000Y-143764000D01*
X187579000Y-117729000D02*
X187579000Y-142113000D01*
X189230000Y-116840000D02*
X188468000Y-117602000D01*
X191770000Y-146050000D02*
X193040000Y-147320000D01*
X191770000Y-143510000D02*
X191770000Y-146050000D01*
X188468000Y-140208000D02*
X191770000Y-143510000D01*
X188468000Y-117602000D02*
X188468000Y-140208000D01*
X217170000Y-109220000D02*
X215900000Y-110490000D01*
X215900000Y-110490000D02*
X215900000Y-120904000D01*
X231648000Y-102870000D02*
X232156000Y-102870000D01*
X207010000Y-99060000D02*
X207010000Y-99314000D01*
X204470000Y-99060000D02*
X204470000Y-99314000D01*
X189230000Y-99060000D02*
X189230000Y-99568000D01*
X186690000Y-99060000D02*
X187198000Y-99060000D01*
X220980000Y-67056000D02*
X220980000Y-77470000D01*
X220980000Y-77470000D02*
X220980000Y-89916000D01*
X148590000Y-73660000D02*
X148590000Y-84582000D01*
X149860000Y-85852000D02*
X149860000Y-89916000D01*
X148590000Y-84582000D02*
X149860000Y-85852000D01*
X214630000Y-109220000D02*
X214630000Y-115062000D01*
X176530000Y-115062000D02*
X176530000Y-109220000D01*
X186690000Y-73660000D02*
X186690000Y-74422000D01*
X186690000Y-74422000D02*
X177800000Y-83312000D01*
X177800000Y-83312000D02*
X177800000Y-88646000D01*
X177800000Y-88646000D02*
X176530000Y-89916000D01*
X176530000Y-109220000D02*
X176530000Y-89916000D01*
X138430000Y-109220000D02*
X138430000Y-89916000D01*
X100330000Y-109220000D02*
X100330000Y-89916000D01*
X110490000Y-73660000D02*
X110490000Y-83566000D01*
X112268000Y-85344000D02*
X112268000Y-89916000D01*
X110490000Y-83566000D02*
X112268000Y-85344000D01*
X72390000Y-73660000D02*
X72390000Y-83312000D01*
X74168000Y-85090000D02*
X74168000Y-89916000D01*
X72390000Y-83312000D02*
X74168000Y-85090000D01*
X92710000Y-88900000D02*
X92710000Y-109220000D01*
X68326000Y-93980000D02*
X64770000Y-97536000D01*
X68326000Y-91440000D02*
X68326000Y-93980000D01*
X70866000Y-88900000D02*
X68326000Y-91440000D01*
X194310000Y-73660000D02*
X194310000Y-71882000D01*
X194310000Y-71882000D02*
X196596000Y-69596000D01*
X207010000Y-83820000D02*
X207010000Y-80772000D01*
X196596000Y-75946000D02*
X194310000Y-73660000D01*
X202184000Y-75946000D02*
X196596000Y-75946000D01*
X207010000Y-80772000D02*
X202184000Y-75946000D01*
X168910000Y-109220000D02*
X168910000Y-114046000D01*
X207010000Y-114046000D02*
X207010000Y-109220000D01*
X168910000Y-109220000D02*
X168910000Y-88900000D01*
X130810000Y-109220000D02*
X130810000Y-88900000D01*
X156210000Y-73660000D02*
X156210000Y-88900000D01*
X118110000Y-73660000D02*
X118110000Y-88900000D01*
X80010000Y-73660000D02*
X80010000Y-86106000D01*
X78740000Y-87376000D02*
X78740000Y-88900000D01*
X80010000Y-86106000D02*
X78740000Y-87376000D01*
X207010000Y-83820000D02*
X207010000Y-88900000D01*
X72390000Y-85725000D02*
X72390000Y-84836000D01*
X72390000Y-84836000D02*
X64770000Y-77216000D01*
X72390000Y-85725000D02*
X72390000Y-85598000D01*
X72390000Y-109220000D02*
X72390000Y-85725000D01*
X186690000Y-112014000D02*
X186690000Y-109220000D01*
X110490000Y-109220000D02*
X110490000Y-85725000D01*
X138430000Y-73660000D02*
X138430000Y-85725000D01*
X148590000Y-109220000D02*
X148590000Y-85725000D01*
X176530000Y-73660000D02*
X176530000Y-85725000D01*
X65405000Y-77216000D02*
X64770000Y-77216000D01*
X100330000Y-85725000D02*
X100330000Y-73660000D01*
X204470000Y-73660000D02*
X204470000Y-68580000D01*
X65786000Y-86868000D02*
X65278000Y-87376000D01*
X71374000Y-86868000D02*
X65786000Y-86868000D01*
X65278000Y-87376000D02*
X64770000Y-87376000D01*
X158750000Y-109220000D02*
X158750000Y-110744000D01*
X196850000Y-113030000D02*
X196850000Y-109220000D01*
X158750000Y-110744000D02*
X161036000Y-113030000D01*
X158750000Y-109220000D02*
X158750000Y-86868000D01*
X120650000Y-109220000D02*
X120650000Y-86868000D01*
X82550000Y-109220000D02*
X82550000Y-86868000D01*
X90170000Y-73660000D02*
X90170000Y-86868000D01*
X128270000Y-73660000D02*
X128270000Y-86868000D01*
X166370000Y-73660000D02*
X166370000Y-86868000D01*
X209550000Y-83820000D02*
X209550000Y-82042000D01*
X204470000Y-76962000D02*
X204470000Y-73660000D01*
X209550000Y-82042000D02*
X204470000Y-76962000D01*
X235458000Y-68580000D02*
X233934000Y-68580000D01*
X202184000Y-77978000D02*
X191770000Y-77978000D01*
X232156000Y-70358000D02*
X232156000Y-77470000D01*
X233934000Y-68580000D02*
X232156000Y-70358000D01*
X77470000Y-100330000D02*
X77470000Y-81280000D01*
X171450000Y-109220000D02*
X171450000Y-78740000D01*
X133350000Y-109220000D02*
X133350000Y-81280000D01*
X95250000Y-109220000D02*
X95250000Y-81280000D01*
X77470000Y-81280000D02*
X77470000Y-73660000D01*
X115570000Y-81280000D02*
X115570000Y-73660000D01*
X153670000Y-73660000D02*
X153670000Y-81280000D01*
X191770000Y-83820000D02*
X191770000Y-78740000D01*
X191770000Y-78740000D02*
X191770000Y-77978000D01*
X191770000Y-77978000D02*
X191770000Y-73660000D01*
X218440000Y-71120000D02*
X217932000Y-70612000D01*
X207010000Y-70612000D02*
X214122000Y-70612000D01*
X217932000Y-70612000D02*
X214122000Y-70612000D01*
X67818000Y-84836000D02*
X64770000Y-84836000D01*
X156210000Y-109220000D02*
X156210000Y-90932000D01*
X157480000Y-89662000D02*
X157480000Y-87884000D01*
X156210000Y-90932000D02*
X157480000Y-89662000D01*
X118110000Y-109220000D02*
X118110000Y-91186000D01*
X119380000Y-89916000D02*
X119380000Y-87884000D01*
X118110000Y-91186000D02*
X119380000Y-89916000D01*
X207010000Y-70612000D02*
X207010000Y-73660000D01*
X80010000Y-109220000D02*
X80010000Y-87884000D01*
X92710000Y-73660000D02*
X92710000Y-87884000D01*
X130810000Y-73660000D02*
X130810000Y-87884000D01*
X168910000Y-73660000D02*
X168910000Y-87884000D01*
X189230000Y-83820000D02*
X189230000Y-87884000D01*
X189230000Y-87884000D02*
X189230000Y-88392000D01*
X194310000Y-107950000D02*
X193040000Y-106680000D01*
X193040000Y-106680000D02*
X185420000Y-106680000D01*
X185420000Y-106680000D02*
X181610000Y-102870000D01*
X181610000Y-102870000D02*
X181610000Y-96012000D01*
X181610000Y-96012000D02*
X189230000Y-88392000D01*
X194310000Y-107950000D02*
X194310000Y-109220000D01*
X209550000Y-73660000D02*
X211074000Y-72136000D01*
X211074000Y-72136000D02*
X217424000Y-72136000D01*
X77470000Y-102870000D02*
X77470000Y-102362000D01*
X77470000Y-109220000D02*
X77470000Y-102870000D01*
X78994000Y-100838000D02*
X78994000Y-99060000D01*
X77470000Y-102362000D02*
X78994000Y-100838000D01*
X209550000Y-73660000D02*
X209550000Y-80518000D01*
X95250000Y-73660000D02*
X95250000Y-80010000D01*
X96520000Y-81280000D02*
X96520000Y-99060000D01*
X95250000Y-80010000D02*
X96520000Y-81280000D01*
X171450000Y-73660000D02*
X171450000Y-77470000D01*
X172720000Y-78740000D02*
X172720000Y-80518000D01*
X172720000Y-80518000D02*
X172720000Y-99060000D01*
X171450000Y-77470000D02*
X172720000Y-78740000D01*
X133350000Y-73660000D02*
X133350000Y-80010000D01*
X134620000Y-81280000D02*
X134620000Y-99060000D01*
X133350000Y-80010000D02*
X134620000Y-81280000D01*
X115570000Y-99060000D02*
X115570000Y-109220000D01*
X153670000Y-99060000D02*
X153670000Y-109220000D01*
X102870000Y-73660000D02*
X104394000Y-72136000D01*
X105410000Y-36830000D02*
X106680000Y-35560000D01*
X105410000Y-39624000D02*
X105410000Y-36830000D01*
X104394000Y-40640000D02*
X105410000Y-39624000D01*
X104394000Y-72136000D02*
X104394000Y-40640000D01*
X102870000Y-66040000D02*
X102870000Y-36830000D01*
X102870000Y-36830000D02*
X104140000Y-35560000D01*
X100330000Y-66040000D02*
X100330000Y-36830000D01*
X100330000Y-36830000D02*
X101600000Y-35560000D01*
X97790000Y-66040000D02*
X97790000Y-36830000D01*
X97790000Y-36830000D02*
X99060000Y-35560000D01*
X95250000Y-66040000D02*
X95250000Y-36830000D01*
X95250000Y-36830000D02*
X96520000Y-35560000D01*
X92710000Y-66040000D02*
X92710000Y-36830000D01*
X92710000Y-36830000D02*
X93980000Y-35560000D01*
X91948000Y-39878000D02*
X91822124Y-64151858D01*
X91822124Y-64151858D02*
X90170000Y-66040000D01*
X91186000Y-40640000D02*
X91063236Y-62738024D01*
X91063236Y-62738024D02*
X87630000Y-66040000D01*
X85090000Y-66040000D02*
X86614000Y-64516000D01*
X90424000Y-41402000D02*
X90417251Y-60706042D01*
X90417251Y-62236749D02*
X90417251Y-60706042D01*
X88138000Y-64516000D02*
X90417251Y-62236749D01*
X86614000Y-64516000D02*
X88138000Y-64516000D01*
X84836000Y-63754000D02*
X82550000Y-66040000D01*
X87757000Y-63754000D02*
X84836000Y-63754000D01*
X89662000Y-61849000D02*
X87757000Y-63754000D01*
X89662000Y-42164000D02*
X89662000Y-61849000D01*
X82931000Y-63119000D02*
X80010000Y-66040000D01*
X87376000Y-63119000D02*
X82931000Y-63119000D01*
X88900000Y-61595000D02*
X87376000Y-63119000D01*
X88900000Y-42926000D02*
X88900000Y-61595000D01*
X81026000Y-62484000D02*
X77470000Y-66040000D01*
X86868000Y-62484000D02*
X81026000Y-62484000D01*
X88138000Y-61214000D02*
X86868000Y-62484000D01*
X88138000Y-43688000D02*
X88138000Y-61214000D01*
D26*
X61722000Y-58674000D02*
X61722000Y-117094000D01*
X61722000Y-125603000D02*
X61722000Y-117094000D01*
X223774000Y-108585000D02*
X223774000Y-88773000D01*
D25*
X222885000Y-88773000D02*
X223774000Y-88773000D01*
X223139000Y-80264000D02*
X223774000Y-80264000D01*
X224155000Y-74803000D02*
X223774000Y-74803000D01*
D26*
X223647000Y-108585000D02*
X223774000Y-108585000D01*
X233426000Y-114300000D02*
X226314000Y-114300000D01*
X226314000Y-114300000D02*
X223774000Y-111760000D01*
X223774000Y-111760000D02*
X223774000Y-108585000D01*
X223774000Y-88773000D02*
X223774000Y-82677000D01*
X223774000Y-82677000D02*
X223774000Y-80264000D01*
X223774000Y-80264000D02*
X223774000Y-74803000D01*
X223774000Y-74803000D02*
X223774000Y-58674000D01*
D25*
X196850000Y-99060000D02*
X196850000Y-101854000D01*
X232283000Y-105537000D02*
X234061000Y-103759000D01*
X234061000Y-102870000D02*
X235331000Y-101600000D01*
X234061000Y-103759000D02*
X234061000Y-102870000D01*
X235331000Y-101600000D02*
X235458000Y-101600000D01*
X212090000Y-96520000D02*
X212090000Y-83820000D01*
X214630000Y-93980000D02*
X214630000Y-83820000D01*
X199390000Y-99060000D02*
X199390000Y-93218000D01*
X194310000Y-90932000D02*
X194310000Y-83820000D01*
X196850000Y-83820000D02*
X196850000Y-87884000D01*
X199390000Y-83820000D02*
X199390000Y-81026000D01*
X199390000Y-81026000D02*
X200914000Y-79502000D01*
X201930000Y-80518000D02*
X201930000Y-83820000D01*
X203708000Y-78740000D02*
X201930000Y-80518000D01*
X135001000Y-59944000D02*
X107950000Y-59944000D01*
X138049000Y-56896000D02*
X135001000Y-59944000D01*
X152908000Y-56896000D02*
X138049000Y-56896000D01*
X160020000Y-64008000D02*
X152908000Y-56896000D01*
X221869000Y-64389000D02*
X221742000Y-64262000D01*
X221869000Y-72517000D02*
X221869000Y-64389000D01*
X230886000Y-110744000D02*
X229235000Y-112395000D01*
X230886000Y-95758000D02*
X230886000Y-97663000D01*
X230886000Y-92964000D02*
X230886000Y-95758000D01*
X230124000Y-88519000D02*
X230124000Y-92202000D01*
X229235000Y-87630000D02*
X230124000Y-88519000D01*
X229235000Y-85344000D02*
X229235000Y-87630000D01*
X230124000Y-92202000D02*
X230886000Y-92964000D01*
X230886000Y-97663000D02*
X230886000Y-103505000D01*
X230886000Y-103505000D02*
X230886000Y-110744000D01*
D27*
G36*
X203670000Y-129413000D02*
X203740564Y-129767748D01*
X203920592Y-130037179D01*
X203941512Y-130068488D01*
X205277442Y-131404418D01*
X205376844Y-131644989D01*
X205665492Y-131934140D01*
X206042821Y-132090821D01*
X206451387Y-132091178D01*
X206693836Y-131991000D01*
X214692426Y-131991000D01*
X214932821Y-132090821D01*
X215341387Y-132091178D01*
X215583836Y-131991000D01*
X222820426Y-131991000D01*
X223060821Y-132090821D01*
X223469387Y-132091178D01*
X223846989Y-131935156D01*
X224136140Y-131646508D01*
X224292821Y-131269179D01*
X224293178Y-130860613D01*
X224137156Y-130483011D01*
X223848508Y-130193860D01*
X223471179Y-130037179D01*
X223062613Y-130036822D01*
X222820164Y-130137000D01*
X222768923Y-130137000D01*
X222769178Y-129844613D01*
X222669000Y-129602164D01*
X222669000Y-125222000D01*
X227881107Y-125222000D01*
X227939717Y-125363846D01*
X228116562Y-125541000D01*
X227918154Y-125668672D01*
X227752157Y-125911615D01*
X227693758Y-126200000D01*
X227693758Y-127800000D01*
X227744451Y-128069410D01*
X227903672Y-128316846D01*
X228146615Y-128482843D01*
X228435000Y-128541242D01*
X230035000Y-128541242D01*
X230304410Y-128490549D01*
X230551846Y-128331328D01*
X230717843Y-128088385D01*
X230776242Y-127800000D01*
X230776242Y-126200000D01*
X230725549Y-125930590D01*
X230566328Y-125683154D01*
X230355486Y-125539091D01*
X230528773Y-125366106D01*
X230588611Y-125222000D01*
X231464000Y-125222000D01*
X231464000Y-126873000D01*
X231565012Y-127380821D01*
X231852669Y-127811331D01*
X233948000Y-129906661D01*
X233948000Y-132436913D01*
X233748265Y-132917928D01*
X233747735Y-133525407D01*
X233979717Y-134086846D01*
X234408894Y-134516773D01*
X234969928Y-134749735D01*
X235577407Y-134750265D01*
X236138846Y-134518283D01*
X236568773Y-134089106D01*
X236801735Y-133528072D01*
X236802265Y-132920593D01*
X236602000Y-132435915D01*
X236602000Y-129357000D01*
X236500988Y-128849179D01*
X236213331Y-128418669D01*
X236213328Y-128418667D01*
X234448852Y-126654191D01*
X234950000Y-126753875D01*
X235572626Y-126630027D01*
X236100463Y-126277338D01*
X236453152Y-125749501D01*
X236558078Y-125222000D01*
X237744000Y-125222000D01*
X237744000Y-142748000D01*
X237414015Y-142748000D01*
X237265566Y-142388725D01*
X236077530Y-141198613D01*
X234524491Y-140553735D01*
X232842886Y-140552268D01*
X231288725Y-141194434D01*
X230098613Y-142382470D01*
X229946832Y-142748000D01*
X197358000Y-142748000D01*
X197358000Y-128691976D01*
X204305000Y-135638976D01*
X204305000Y-137668000D01*
X204375564Y-138022748D01*
X204576512Y-138323488D01*
X205277442Y-139024418D01*
X205376844Y-139264989D01*
X205665492Y-139554140D01*
X206042821Y-139710821D01*
X206451387Y-139711178D01*
X206693836Y-139611000D01*
X214692426Y-139611000D01*
X214932821Y-139710821D01*
X215341387Y-139711178D01*
X215583836Y-139611000D01*
X222820426Y-139611000D01*
X223060821Y-139710821D01*
X223469387Y-139711178D01*
X223846989Y-139555156D01*
X224136140Y-139266508D01*
X224292821Y-138889179D01*
X224293178Y-138480613D01*
X224137156Y-138103011D01*
X223848508Y-137813860D01*
X223471179Y-137657179D01*
X223062613Y-137656822D01*
X222820164Y-137757000D01*
X215583574Y-137757000D01*
X215343179Y-137657179D01*
X214934613Y-137656822D01*
X214692164Y-137757000D01*
X206693574Y-137757000D01*
X206588235Y-137713259D01*
X206159000Y-137284024D01*
X206159000Y-135900923D01*
X206451387Y-135901178D01*
X206693836Y-135801000D01*
X214692426Y-135801000D01*
X214932821Y-135900821D01*
X215341387Y-135901178D01*
X215583836Y-135801000D01*
X222820426Y-135801000D01*
X223060821Y-135900821D01*
X223469387Y-135901178D01*
X223846989Y-135745156D01*
X224136140Y-135456508D01*
X224292821Y-135079179D01*
X224293178Y-134670613D01*
X224137156Y-134293011D01*
X223848508Y-134003860D01*
X223471179Y-133847179D01*
X223062613Y-133846822D01*
X222820164Y-133947000D01*
X215583574Y-133947000D01*
X215343179Y-133847179D01*
X214934613Y-133846822D01*
X214692164Y-133947000D01*
X206693574Y-133947000D01*
X206588235Y-133903259D01*
X206262726Y-133577750D01*
X230248000Y-133577750D01*
X230248000Y-134167610D01*
X230358679Y-134434813D01*
X230563188Y-134639321D01*
X230830391Y-134750000D01*
X231420250Y-134750000D01*
X231602000Y-134568250D01*
X231602000Y-133396000D01*
X231948000Y-133396000D01*
X231948000Y-134568250D01*
X232129750Y-134750000D01*
X232719609Y-134750000D01*
X232986812Y-134639321D01*
X233191321Y-134434813D01*
X233302000Y-134167610D01*
X233302000Y-133577750D01*
X233120250Y-133396000D01*
X231948000Y-133396000D01*
X231602000Y-133396000D01*
X230429750Y-133396000D01*
X230248000Y-133577750D01*
X206262726Y-133577750D01*
X204963366Y-132278390D01*
X230248000Y-132278390D01*
X230248000Y-132868250D01*
X230429750Y-133050000D01*
X231602000Y-133050000D01*
X231602000Y-131877750D01*
X231948000Y-131877750D01*
X231948000Y-133050000D01*
X233120250Y-133050000D01*
X233302000Y-132868250D01*
X233302000Y-132278390D01*
X233191321Y-132011187D01*
X232986812Y-131806679D01*
X232719609Y-131696000D01*
X232129750Y-131696000D01*
X231948000Y-131877750D01*
X231602000Y-131877750D01*
X231420250Y-131696000D01*
X230830391Y-131696000D01*
X230563188Y-131806679D01*
X230358679Y-132011187D01*
X230248000Y-132278390D01*
X204963366Y-132278390D01*
X199809000Y-127124024D01*
X199809000Y-125222000D01*
X203670000Y-125222000D01*
X203670000Y-129413000D01*
X203670000Y-129413000D01*
G37*
X203670000Y-129413000D02*
X203740564Y-129767748D01*
X203920592Y-130037179D01*
X203941512Y-130068488D01*
X205277442Y-131404418D01*
X205376844Y-131644989D01*
X205665492Y-131934140D01*
X206042821Y-132090821D01*
X206451387Y-132091178D01*
X206693836Y-131991000D01*
X214692426Y-131991000D01*
X214932821Y-132090821D01*
X215341387Y-132091178D01*
X215583836Y-131991000D01*
X222820426Y-131991000D01*
X223060821Y-132090821D01*
X223469387Y-132091178D01*
X223846989Y-131935156D01*
X224136140Y-131646508D01*
X224292821Y-131269179D01*
X224293178Y-130860613D01*
X224137156Y-130483011D01*
X223848508Y-130193860D01*
X223471179Y-130037179D01*
X223062613Y-130036822D01*
X222820164Y-130137000D01*
X222768923Y-130137000D01*
X222769178Y-129844613D01*
X222669000Y-129602164D01*
X222669000Y-125222000D01*
X227881107Y-125222000D01*
X227939717Y-125363846D01*
X228116562Y-125541000D01*
X227918154Y-125668672D01*
X227752157Y-125911615D01*
X227693758Y-126200000D01*
X227693758Y-127800000D01*
X227744451Y-128069410D01*
X227903672Y-128316846D01*
X228146615Y-128482843D01*
X228435000Y-128541242D01*
X230035000Y-128541242D01*
X230304410Y-128490549D01*
X230551846Y-128331328D01*
X230717843Y-128088385D01*
X230776242Y-127800000D01*
X230776242Y-126200000D01*
X230725549Y-125930590D01*
X230566328Y-125683154D01*
X230355486Y-125539091D01*
X230528773Y-125366106D01*
X230588611Y-125222000D01*
X231464000Y-125222000D01*
X231464000Y-126873000D01*
X231565012Y-127380821D01*
X231852669Y-127811331D01*
X233948000Y-129906661D01*
X233948000Y-132436913D01*
X233748265Y-132917928D01*
X233747735Y-133525407D01*
X233979717Y-134086846D01*
X234408894Y-134516773D01*
X234969928Y-134749735D01*
X235577407Y-134750265D01*
X236138846Y-134518283D01*
X236568773Y-134089106D01*
X236801735Y-133528072D01*
X236802265Y-132920593D01*
X236602000Y-132435915D01*
X236602000Y-129357000D01*
X236500988Y-128849179D01*
X236213331Y-128418669D01*
X236213328Y-128418667D01*
X234448852Y-126654191D01*
X234950000Y-126753875D01*
X235572626Y-126630027D01*
X236100463Y-126277338D01*
X236453152Y-125749501D01*
X236558078Y-125222000D01*
X237744000Y-125222000D01*
X237744000Y-142748000D01*
X237414015Y-142748000D01*
X237265566Y-142388725D01*
X236077530Y-141198613D01*
X234524491Y-140553735D01*
X232842886Y-140552268D01*
X231288725Y-141194434D01*
X230098613Y-142382470D01*
X229946832Y-142748000D01*
X197358000Y-142748000D01*
X197358000Y-128691976D01*
X204305000Y-135638976D01*
X204305000Y-137668000D01*
X204375564Y-138022748D01*
X204576512Y-138323488D01*
X205277442Y-139024418D01*
X205376844Y-139264989D01*
X205665492Y-139554140D01*
X206042821Y-139710821D01*
X206451387Y-139711178D01*
X206693836Y-139611000D01*
X214692426Y-139611000D01*
X214932821Y-139710821D01*
X215341387Y-139711178D01*
X215583836Y-139611000D01*
X222820426Y-139611000D01*
X223060821Y-139710821D01*
X223469387Y-139711178D01*
X223846989Y-139555156D01*
X224136140Y-139266508D01*
X224292821Y-138889179D01*
X224293178Y-138480613D01*
X224137156Y-138103011D01*
X223848508Y-137813860D01*
X223471179Y-137657179D01*
X223062613Y-137656822D01*
X222820164Y-137757000D01*
X215583574Y-137757000D01*
X215343179Y-137657179D01*
X214934613Y-137656822D01*
X214692164Y-137757000D01*
X206693574Y-137757000D01*
X206588235Y-137713259D01*
X206159000Y-137284024D01*
X206159000Y-135900923D01*
X206451387Y-135901178D01*
X206693836Y-135801000D01*
X214692426Y-135801000D01*
X214932821Y-135900821D01*
X215341387Y-135901178D01*
X215583836Y-135801000D01*
X222820426Y-135801000D01*
X223060821Y-135900821D01*
X223469387Y-135901178D01*
X223846989Y-135745156D01*
X224136140Y-135456508D01*
X224292821Y-135079179D01*
X224293178Y-134670613D01*
X224137156Y-134293011D01*
X223848508Y-134003860D01*
X223471179Y-133847179D01*
X223062613Y-133846822D01*
X222820164Y-133947000D01*
X215583574Y-133947000D01*
X215343179Y-133847179D01*
X214934613Y-133846822D01*
X214692164Y-133947000D01*
X206693574Y-133947000D01*
X206588235Y-133903259D01*
X206262726Y-133577750D01*
X230248000Y-133577750D01*
X230248000Y-134167610D01*
X230358679Y-134434813D01*
X230563188Y-134639321D01*
X230830391Y-134750000D01*
X231420250Y-134750000D01*
X231602000Y-134568250D01*
X231602000Y-133396000D01*
X231948000Y-133396000D01*
X231948000Y-134568250D01*
X232129750Y-134750000D01*
X232719609Y-134750000D01*
X232986812Y-134639321D01*
X233191321Y-134434813D01*
X233302000Y-134167610D01*
X233302000Y-133577750D01*
X233120250Y-133396000D01*
X231948000Y-133396000D01*
X231602000Y-133396000D01*
X230429750Y-133396000D01*
X230248000Y-133577750D01*
X206262726Y-133577750D01*
X204963366Y-132278390D01*
X230248000Y-132278390D01*
X230248000Y-132868250D01*
X230429750Y-133050000D01*
X231602000Y-133050000D01*
X231602000Y-131877750D01*
X231948000Y-131877750D01*
X231948000Y-133050000D01*
X233120250Y-133050000D01*
X233302000Y-132868250D01*
X233302000Y-132278390D01*
X233191321Y-132011187D01*
X232986812Y-131806679D01*
X232719609Y-131696000D01*
X232129750Y-131696000D01*
X231948000Y-131877750D01*
X231602000Y-131877750D01*
X231420250Y-131696000D01*
X230830391Y-131696000D01*
X230563188Y-131806679D01*
X230358679Y-132011187D01*
X230248000Y-132278390D01*
X204963366Y-132278390D01*
X199809000Y-127124024D01*
X199809000Y-125222000D01*
X203670000Y-125222000D01*
X203670000Y-129413000D01*
G36*
X76705024Y-126962000D02*
X71565574Y-126962000D01*
X71325179Y-126862179D01*
X70916613Y-126861822D01*
X70539011Y-127017844D01*
X70249860Y-127306492D01*
X70093179Y-127683821D01*
X70092822Y-128092387D01*
X70248844Y-128469989D01*
X70537492Y-128759140D01*
X70914821Y-128915821D01*
X71323387Y-128916178D01*
X71565836Y-128816000D01*
X77089000Y-128816000D01*
X77443748Y-128745436D01*
X77643172Y-128612185D01*
X77741844Y-128850989D01*
X78030492Y-129140140D01*
X78407821Y-129296821D01*
X78816387Y-129297178D01*
X79193989Y-129141156D01*
X79483140Y-128852508D01*
X79639821Y-128475179D01*
X79640178Y-128066613D01*
X79559827Y-127872149D01*
X82131000Y-125300976D01*
X82131000Y-129348426D01*
X82031179Y-129588821D01*
X82030822Y-129997387D01*
X82186844Y-130374989D01*
X82202827Y-130391000D01*
X75502574Y-130391000D01*
X75262179Y-130291179D01*
X74853613Y-130290822D01*
X74611164Y-130391000D01*
X68009574Y-130391000D01*
X67769179Y-130291179D01*
X67360613Y-130290822D01*
X66983011Y-130446844D01*
X66693860Y-130735492D01*
X66537179Y-131112821D01*
X66536822Y-131521387D01*
X66692844Y-131898989D01*
X66981492Y-132188140D01*
X67358821Y-132344821D01*
X67767387Y-132345178D01*
X68009836Y-132245000D01*
X74611426Y-132245000D01*
X74851821Y-132344821D01*
X75260387Y-132345178D01*
X75502836Y-132245000D01*
X83120426Y-132245000D01*
X83360821Y-132344821D01*
X83769387Y-132345178D01*
X84146989Y-132189156D01*
X84436140Y-131900508D01*
X84536741Y-131658235D01*
X85179000Y-131015976D01*
X85179000Y-132204024D01*
X83225582Y-134157442D01*
X83120164Y-134201000D01*
X75629574Y-134201000D01*
X75389179Y-134101179D01*
X74980613Y-134100822D01*
X74738164Y-134201000D01*
X68009574Y-134201000D01*
X67769179Y-134101179D01*
X67360613Y-134100822D01*
X66983011Y-134256844D01*
X66693860Y-134545492D01*
X66537179Y-134922821D01*
X66536822Y-135331387D01*
X66692844Y-135708989D01*
X66981492Y-135998140D01*
X67358821Y-136154821D01*
X67767387Y-136155178D01*
X68009836Y-136055000D01*
X74738426Y-136055000D01*
X74978821Y-136154821D01*
X75387387Y-136155178D01*
X75629836Y-136055000D01*
X83120426Y-136055000D01*
X83360821Y-136154821D01*
X83769387Y-136155178D01*
X84146989Y-135999156D01*
X84436140Y-135710508D01*
X84536741Y-135468235D01*
X86068000Y-133936976D01*
X86068000Y-135125024D01*
X83225582Y-137967442D01*
X83120164Y-138011000D01*
X75629574Y-138011000D01*
X75389179Y-137911179D01*
X74980613Y-137910822D01*
X74738164Y-138011000D01*
X68009574Y-138011000D01*
X67769179Y-137911179D01*
X67360613Y-137910822D01*
X66983011Y-138066844D01*
X66693860Y-138355492D01*
X66537179Y-138732821D01*
X66536822Y-139141387D01*
X66692844Y-139518989D01*
X66981492Y-139808140D01*
X67358821Y-139964821D01*
X67767387Y-139965178D01*
X68009836Y-139865000D01*
X74738426Y-139865000D01*
X74978821Y-139964821D01*
X75387387Y-139965178D01*
X75629836Y-139865000D01*
X83120426Y-139865000D01*
X83360821Y-139964821D01*
X83769387Y-139965178D01*
X84146989Y-139809156D01*
X84436140Y-139520508D01*
X84536741Y-139278235D01*
X87650488Y-136164488D01*
X87656947Y-136154821D01*
X87851436Y-135863748D01*
X87922000Y-135509000D01*
X87922000Y-132107857D01*
X88186821Y-132217821D01*
X88279239Y-132217902D01*
X88409844Y-132533989D01*
X88698492Y-132823140D01*
X89075821Y-132979821D01*
X89154000Y-132979889D01*
X89154000Y-142748000D01*
X59614015Y-142748000D01*
X59465566Y-142388725D01*
X58277530Y-141198613D01*
X56724491Y-140553735D01*
X55042886Y-140552268D01*
X53488725Y-141194434D01*
X52298613Y-142382470D01*
X52146832Y-142748000D01*
X51308000Y-142748000D01*
X51308000Y-130886387D01*
X64377822Y-130886387D01*
X64533844Y-131263989D01*
X64822492Y-131553140D01*
X65199821Y-131709821D01*
X65608387Y-131710178D01*
X65985989Y-131554156D01*
X66275140Y-131265508D01*
X66431821Y-130888179D01*
X66432178Y-130479613D01*
X66276156Y-130102011D01*
X65987508Y-129812860D01*
X65610179Y-129656179D01*
X65201613Y-129655822D01*
X64824011Y-129811844D01*
X64534860Y-130100492D01*
X64378179Y-130477821D01*
X64377822Y-130886387D01*
X51308000Y-130886387D01*
X51308000Y-125222000D01*
X78445024Y-125222000D01*
X76705024Y-126962000D01*
X76705024Y-126962000D01*
G37*
X76705024Y-126962000D02*
X71565574Y-126962000D01*
X71325179Y-126862179D01*
X70916613Y-126861822D01*
X70539011Y-127017844D01*
X70249860Y-127306492D01*
X70093179Y-127683821D01*
X70092822Y-128092387D01*
X70248844Y-128469989D01*
X70537492Y-128759140D01*
X70914821Y-128915821D01*
X71323387Y-128916178D01*
X71565836Y-128816000D01*
X77089000Y-128816000D01*
X77443748Y-128745436D01*
X77643172Y-128612185D01*
X77741844Y-128850989D01*
X78030492Y-129140140D01*
X78407821Y-129296821D01*
X78816387Y-129297178D01*
X79193989Y-129141156D01*
X79483140Y-128852508D01*
X79639821Y-128475179D01*
X79640178Y-128066613D01*
X79559827Y-127872149D01*
X82131000Y-125300976D01*
X82131000Y-129348426D01*
X82031179Y-129588821D01*
X82030822Y-129997387D01*
X82186844Y-130374989D01*
X82202827Y-130391000D01*
X75502574Y-130391000D01*
X75262179Y-130291179D01*
X74853613Y-130290822D01*
X74611164Y-130391000D01*
X68009574Y-130391000D01*
X67769179Y-130291179D01*
X67360613Y-130290822D01*
X66983011Y-130446844D01*
X66693860Y-130735492D01*
X66537179Y-131112821D01*
X66536822Y-131521387D01*
X66692844Y-131898989D01*
X66981492Y-132188140D01*
X67358821Y-132344821D01*
X67767387Y-132345178D01*
X68009836Y-132245000D01*
X74611426Y-132245000D01*
X74851821Y-132344821D01*
X75260387Y-132345178D01*
X75502836Y-132245000D01*
X83120426Y-132245000D01*
X83360821Y-132344821D01*
X83769387Y-132345178D01*
X84146989Y-132189156D01*
X84436140Y-131900508D01*
X84536741Y-131658235D01*
X85179000Y-131015976D01*
X85179000Y-132204024D01*
X83225582Y-134157442D01*
X83120164Y-134201000D01*
X75629574Y-134201000D01*
X75389179Y-134101179D01*
X74980613Y-134100822D01*
X74738164Y-134201000D01*
X68009574Y-134201000D01*
X67769179Y-134101179D01*
X67360613Y-134100822D01*
X66983011Y-134256844D01*
X66693860Y-134545492D01*
X66537179Y-134922821D01*
X66536822Y-135331387D01*
X66692844Y-135708989D01*
X66981492Y-135998140D01*
X67358821Y-136154821D01*
X67767387Y-136155178D01*
X68009836Y-136055000D01*
X74738426Y-136055000D01*
X74978821Y-136154821D01*
X75387387Y-136155178D01*
X75629836Y-136055000D01*
X83120426Y-136055000D01*
X83360821Y-136154821D01*
X83769387Y-136155178D01*
X84146989Y-135999156D01*
X84436140Y-135710508D01*
X84536741Y-135468235D01*
X86068000Y-133936976D01*
X86068000Y-135125024D01*
X83225582Y-137967442D01*
X83120164Y-138011000D01*
X75629574Y-138011000D01*
X75389179Y-137911179D01*
X74980613Y-137910822D01*
X74738164Y-138011000D01*
X68009574Y-138011000D01*
X67769179Y-137911179D01*
X67360613Y-137910822D01*
X66983011Y-138066844D01*
X66693860Y-138355492D01*
X66537179Y-138732821D01*
X66536822Y-139141387D01*
X66692844Y-139518989D01*
X66981492Y-139808140D01*
X67358821Y-139964821D01*
X67767387Y-139965178D01*
X68009836Y-139865000D01*
X74738426Y-139865000D01*
X74978821Y-139964821D01*
X75387387Y-139965178D01*
X75629836Y-139865000D01*
X83120426Y-139865000D01*
X83360821Y-139964821D01*
X83769387Y-139965178D01*
X84146989Y-139809156D01*
X84436140Y-139520508D01*
X84536741Y-139278235D01*
X87650488Y-136164488D01*
X87656947Y-136154821D01*
X87851436Y-135863748D01*
X87922000Y-135509000D01*
X87922000Y-132107857D01*
X88186821Y-132217821D01*
X88279239Y-132217902D01*
X88409844Y-132533989D01*
X88698492Y-132823140D01*
X89075821Y-132979821D01*
X89154000Y-132979889D01*
X89154000Y-142748000D01*
X59614015Y-142748000D01*
X59465566Y-142388725D01*
X58277530Y-141198613D01*
X56724491Y-140553735D01*
X55042886Y-140552268D01*
X53488725Y-141194434D01*
X52298613Y-142382470D01*
X52146832Y-142748000D01*
X51308000Y-142748000D01*
X51308000Y-130886387D01*
X64377822Y-130886387D01*
X64533844Y-131263989D01*
X64822492Y-131553140D01*
X65199821Y-131709821D01*
X65608387Y-131710178D01*
X65985989Y-131554156D01*
X66275140Y-131265508D01*
X66431821Y-130888179D01*
X66432178Y-130479613D01*
X66276156Y-130102011D01*
X65987508Y-129812860D01*
X65610179Y-129656179D01*
X65201613Y-129655822D01*
X64824011Y-129811844D01*
X64534860Y-130100492D01*
X64378179Y-130477821D01*
X64377822Y-130886387D01*
X51308000Y-130886387D01*
X51308000Y-125222000D01*
X78445024Y-125222000D01*
X76705024Y-126962000D01*
G36*
X52294434Y-40491275D02*
X53482470Y-41681387D01*
X55035509Y-42326265D01*
X56717114Y-42327732D01*
X58271275Y-41685566D01*
X59461387Y-40497530D01*
X59613168Y-40132000D01*
X89154000Y-40132000D01*
X89154000Y-41262686D01*
X89081011Y-41292844D01*
X88791860Y-41581492D01*
X88652529Y-41917037D01*
X88319011Y-42054844D01*
X88029860Y-42343492D01*
X87890529Y-42679037D01*
X87557011Y-42816844D01*
X87267860Y-43105492D01*
X87111179Y-43482821D01*
X87110822Y-43891387D01*
X87211000Y-44133836D01*
X87211000Y-45962967D01*
X87045613Y-45962822D01*
X86668011Y-46118844D01*
X86378860Y-46407492D01*
X86222179Y-46784821D01*
X86221822Y-47193387D01*
X86345135Y-47491828D01*
X86287011Y-47515844D01*
X85997860Y-47804492D01*
X85841179Y-48181821D01*
X85840822Y-48590387D01*
X85950984Y-48857000D01*
X83185000Y-48857000D01*
X82830253Y-48927563D01*
X82529512Y-49128512D01*
X80895733Y-50762291D01*
X80881156Y-50727011D01*
X80592508Y-50437860D01*
X80215179Y-50281179D01*
X79806613Y-50280822D01*
X79564164Y-50381000D01*
X72200574Y-50381000D01*
X71960179Y-50281179D01*
X71551613Y-50280822D01*
X71309164Y-50381000D01*
X63945574Y-50381000D01*
X63705179Y-50281179D01*
X63296613Y-50280822D01*
X62919011Y-50436844D01*
X62629860Y-50725492D01*
X62473179Y-51102821D01*
X62472822Y-51511387D01*
X62628844Y-51888989D01*
X62917492Y-52178140D01*
X63294821Y-52334821D01*
X63703387Y-52335178D01*
X63770288Y-52307535D01*
X63743179Y-52372821D01*
X63742822Y-52781387D01*
X63898844Y-53158989D01*
X64187492Y-53448140D01*
X64564821Y-53604821D01*
X64973387Y-53605178D01*
X65215836Y-53505000D01*
X72506077Y-53505000D01*
X72505822Y-53797387D01*
X72661844Y-54174989D01*
X72950492Y-54464140D01*
X73327821Y-54620821D01*
X73736387Y-54621178D01*
X73978836Y-54521000D01*
X75791143Y-54521000D01*
X75681179Y-54785821D01*
X75680822Y-55194387D01*
X75836844Y-55571989D01*
X76125492Y-55861140D01*
X76502821Y-56017821D01*
X76911387Y-56018178D01*
X77288989Y-55862156D01*
X77578140Y-55573508D01*
X77734821Y-55196179D01*
X77735178Y-54787613D01*
X77625016Y-54521000D01*
X80518000Y-54521000D01*
X80872748Y-54450436D01*
X81173488Y-54249488D01*
X83695976Y-51727000D01*
X84644426Y-51727000D01*
X84884821Y-51826821D01*
X85293387Y-51827178D01*
X85670989Y-51671156D01*
X85960140Y-51382508D01*
X86116821Y-51005179D01*
X86117051Y-50742402D01*
X86281821Y-50810821D01*
X86690387Y-50811178D01*
X87067989Y-50655156D01*
X87211000Y-50512394D01*
X87211000Y-57658000D01*
X51308000Y-57658000D01*
X51308000Y-52019387D01*
X57138822Y-52019387D01*
X57294844Y-52396989D01*
X57583492Y-52686140D01*
X57960821Y-52842821D01*
X58369387Y-52843178D01*
X58746989Y-52687156D01*
X59036140Y-52398508D01*
X59192821Y-52021179D01*
X59193178Y-51612613D01*
X59037156Y-51235011D01*
X58748508Y-50945860D01*
X58371179Y-50789179D01*
X57962613Y-50788822D01*
X57585011Y-50944844D01*
X57295860Y-51233492D01*
X57139179Y-51610821D01*
X57138822Y-52019387D01*
X51308000Y-52019387D01*
X51308000Y-47701387D01*
X62472822Y-47701387D01*
X62628844Y-48078989D01*
X62917492Y-48368140D01*
X63294821Y-48524821D01*
X63703387Y-48525178D01*
X63945836Y-48425000D01*
X71309426Y-48425000D01*
X71549821Y-48524821D01*
X71958387Y-48525178D01*
X72200836Y-48425000D01*
X79564426Y-48425000D01*
X79804821Y-48524821D01*
X80213387Y-48525178D01*
X80590989Y-48369156D01*
X80880140Y-48080508D01*
X81036821Y-47703179D01*
X81037178Y-47294613D01*
X80881156Y-46917011D01*
X80592508Y-46627860D01*
X80215179Y-46471179D01*
X79806613Y-46470822D01*
X79564164Y-46571000D01*
X72200574Y-46571000D01*
X71960179Y-46471179D01*
X71551613Y-46470822D01*
X71309164Y-46571000D01*
X63945574Y-46571000D01*
X63705179Y-46471179D01*
X63296613Y-46470822D01*
X62919011Y-46626844D01*
X62629860Y-46915492D01*
X62473179Y-47292821D01*
X62472822Y-47701387D01*
X51308000Y-47701387D01*
X51308000Y-43891387D01*
X62345822Y-43891387D01*
X62501844Y-44268989D01*
X62790492Y-44558140D01*
X63167821Y-44714821D01*
X63576387Y-44715178D01*
X63818836Y-44615000D01*
X71309426Y-44615000D01*
X71549821Y-44714821D01*
X71958387Y-44715178D01*
X72200836Y-44615000D01*
X79564426Y-44615000D01*
X79804821Y-44714821D01*
X80213387Y-44715178D01*
X80590989Y-44559156D01*
X80880140Y-44270508D01*
X81036821Y-43893179D01*
X81037178Y-43484613D01*
X80881156Y-43107011D01*
X80592508Y-42817860D01*
X80215179Y-42661179D01*
X79806613Y-42660822D01*
X79564164Y-42761000D01*
X72200574Y-42761000D01*
X71960179Y-42661179D01*
X71551613Y-42660822D01*
X71309164Y-42761000D01*
X63818574Y-42761000D01*
X63578179Y-42661179D01*
X63169613Y-42660822D01*
X62792011Y-42816844D01*
X62502860Y-43105492D01*
X62346179Y-43482821D01*
X62345822Y-43891387D01*
X51308000Y-43891387D01*
X51308000Y-40132000D01*
X52145985Y-40132000D01*
X52294434Y-40491275D01*
X52294434Y-40491275D01*
G37*
X52294434Y-40491275D02*
X53482470Y-41681387D01*
X55035509Y-42326265D01*
X56717114Y-42327732D01*
X58271275Y-41685566D01*
X59461387Y-40497530D01*
X59613168Y-40132000D01*
X89154000Y-40132000D01*
X89154000Y-41262686D01*
X89081011Y-41292844D01*
X88791860Y-41581492D01*
X88652529Y-41917037D01*
X88319011Y-42054844D01*
X88029860Y-42343492D01*
X87890529Y-42679037D01*
X87557011Y-42816844D01*
X87267860Y-43105492D01*
X87111179Y-43482821D01*
X87110822Y-43891387D01*
X87211000Y-44133836D01*
X87211000Y-45962967D01*
X87045613Y-45962822D01*
X86668011Y-46118844D01*
X86378860Y-46407492D01*
X86222179Y-46784821D01*
X86221822Y-47193387D01*
X86345135Y-47491828D01*
X86287011Y-47515844D01*
X85997860Y-47804492D01*
X85841179Y-48181821D01*
X85840822Y-48590387D01*
X85950984Y-48857000D01*
X83185000Y-48857000D01*
X82830253Y-48927563D01*
X82529512Y-49128512D01*
X80895733Y-50762291D01*
X80881156Y-50727011D01*
X80592508Y-50437860D01*
X80215179Y-50281179D01*
X79806613Y-50280822D01*
X79564164Y-50381000D01*
X72200574Y-50381000D01*
X71960179Y-50281179D01*
X71551613Y-50280822D01*
X71309164Y-50381000D01*
X63945574Y-50381000D01*
X63705179Y-50281179D01*
X63296613Y-50280822D01*
X62919011Y-50436844D01*
X62629860Y-50725492D01*
X62473179Y-51102821D01*
X62472822Y-51511387D01*
X62628844Y-51888989D01*
X62917492Y-52178140D01*
X63294821Y-52334821D01*
X63703387Y-52335178D01*
X63770288Y-52307535D01*
X63743179Y-52372821D01*
X63742822Y-52781387D01*
X63898844Y-53158989D01*
X64187492Y-53448140D01*
X64564821Y-53604821D01*
X64973387Y-53605178D01*
X65215836Y-53505000D01*
X72506077Y-53505000D01*
X72505822Y-53797387D01*
X72661844Y-54174989D01*
X72950492Y-54464140D01*
X73327821Y-54620821D01*
X73736387Y-54621178D01*
X73978836Y-54521000D01*
X75791143Y-54521000D01*
X75681179Y-54785821D01*
X75680822Y-55194387D01*
X75836844Y-55571989D01*
X76125492Y-55861140D01*
X76502821Y-56017821D01*
X76911387Y-56018178D01*
X77288989Y-55862156D01*
X77578140Y-55573508D01*
X77734821Y-55196179D01*
X77735178Y-54787613D01*
X77625016Y-54521000D01*
X80518000Y-54521000D01*
X80872748Y-54450436D01*
X81173488Y-54249488D01*
X83695976Y-51727000D01*
X84644426Y-51727000D01*
X84884821Y-51826821D01*
X85293387Y-51827178D01*
X85670989Y-51671156D01*
X85960140Y-51382508D01*
X86116821Y-51005179D01*
X86117051Y-50742402D01*
X86281821Y-50810821D01*
X86690387Y-50811178D01*
X87067989Y-50655156D01*
X87211000Y-50512394D01*
X87211000Y-57658000D01*
X51308000Y-57658000D01*
X51308000Y-52019387D01*
X57138822Y-52019387D01*
X57294844Y-52396989D01*
X57583492Y-52686140D01*
X57960821Y-52842821D01*
X58369387Y-52843178D01*
X58746989Y-52687156D01*
X59036140Y-52398508D01*
X59192821Y-52021179D01*
X59193178Y-51612613D01*
X59037156Y-51235011D01*
X58748508Y-50945860D01*
X58371179Y-50789179D01*
X57962613Y-50788822D01*
X57585011Y-50944844D01*
X57295860Y-51233492D01*
X57139179Y-51610821D01*
X57138822Y-52019387D01*
X51308000Y-52019387D01*
X51308000Y-47701387D01*
X62472822Y-47701387D01*
X62628844Y-48078989D01*
X62917492Y-48368140D01*
X63294821Y-48524821D01*
X63703387Y-48525178D01*
X63945836Y-48425000D01*
X71309426Y-48425000D01*
X71549821Y-48524821D01*
X71958387Y-48525178D01*
X72200836Y-48425000D01*
X79564426Y-48425000D01*
X79804821Y-48524821D01*
X80213387Y-48525178D01*
X80590989Y-48369156D01*
X80880140Y-48080508D01*
X81036821Y-47703179D01*
X81037178Y-47294613D01*
X80881156Y-46917011D01*
X80592508Y-46627860D01*
X80215179Y-46471179D01*
X79806613Y-46470822D01*
X79564164Y-46571000D01*
X72200574Y-46571000D01*
X71960179Y-46471179D01*
X71551613Y-46470822D01*
X71309164Y-46571000D01*
X63945574Y-46571000D01*
X63705179Y-46471179D01*
X63296613Y-46470822D01*
X62919011Y-46626844D01*
X62629860Y-46915492D01*
X62473179Y-47292821D01*
X62472822Y-47701387D01*
X51308000Y-47701387D01*
X51308000Y-43891387D01*
X62345822Y-43891387D01*
X62501844Y-44268989D01*
X62790492Y-44558140D01*
X63167821Y-44714821D01*
X63576387Y-44715178D01*
X63818836Y-44615000D01*
X71309426Y-44615000D01*
X71549821Y-44714821D01*
X71958387Y-44715178D01*
X72200836Y-44615000D01*
X79564426Y-44615000D01*
X79804821Y-44714821D01*
X80213387Y-44715178D01*
X80590989Y-44559156D01*
X80880140Y-44270508D01*
X81036821Y-43893179D01*
X81037178Y-43484613D01*
X80881156Y-43107011D01*
X80592508Y-42817860D01*
X80215179Y-42661179D01*
X79806613Y-42660822D01*
X79564164Y-42761000D01*
X72200574Y-42761000D01*
X71960179Y-42661179D01*
X71551613Y-42660822D01*
X71309164Y-42761000D01*
X63818574Y-42761000D01*
X63578179Y-42661179D01*
X63169613Y-42660822D01*
X62792011Y-42816844D01*
X62502860Y-43105492D01*
X62346179Y-43482821D01*
X62345822Y-43891387D01*
X51308000Y-43891387D01*
X51308000Y-40132000D01*
X52145985Y-40132000D01*
X52294434Y-40491275D01*
G36*
X230094434Y-40491275D02*
X231282470Y-41681387D01*
X232835509Y-42326265D01*
X234517114Y-42327732D01*
X236071275Y-41685566D01*
X237261387Y-40497530D01*
X237413168Y-40132000D01*
X237744000Y-40132000D01*
X237744000Y-57658000D01*
X236839941Y-57658000D01*
X236604002Y-57304893D01*
X236372189Y-57150000D01*
X236604002Y-56995107D01*
X236945853Y-56483492D01*
X237065895Y-55880000D01*
X236945853Y-55276508D01*
X236604002Y-54764893D01*
X236372189Y-54610000D01*
X236604002Y-54455107D01*
X236945853Y-53943492D01*
X237065895Y-53340000D01*
X236945853Y-52736508D01*
X236604002Y-52224893D01*
X236372189Y-52070000D01*
X236604002Y-51915107D01*
X236945853Y-51403492D01*
X237065895Y-50800000D01*
X236945853Y-50196508D01*
X236650049Y-49753807D01*
X236824846Y-49641328D01*
X236990843Y-49398385D01*
X237049242Y-49110000D01*
X237049242Y-47410000D01*
X236998549Y-47140590D01*
X236839328Y-46893154D01*
X236596385Y-46727157D01*
X236308000Y-46668758D01*
X234608000Y-46668758D01*
X234338590Y-46719451D01*
X234091154Y-46878672D01*
X233925157Y-47121615D01*
X233866758Y-47410000D01*
X233866758Y-49110000D01*
X233917451Y-49379410D01*
X234076672Y-49626846D01*
X234264864Y-49755433D01*
X233970147Y-50196508D01*
X233850105Y-50800000D01*
X233970147Y-51403492D01*
X234311998Y-51915107D01*
X234543811Y-52070000D01*
X234311998Y-52224893D01*
X233970147Y-52736508D01*
X233850105Y-53340000D01*
X233970147Y-53943492D01*
X234311998Y-54455107D01*
X234543811Y-54610000D01*
X234311998Y-54764893D01*
X233970147Y-55276508D01*
X233850105Y-55880000D01*
X233970147Y-56483492D01*
X234311998Y-56995107D01*
X234543811Y-57150000D01*
X234311998Y-57304893D01*
X234076059Y-57658000D01*
X229654000Y-57658000D01*
X229654000Y-53543387D01*
X230747822Y-53543387D01*
X230903844Y-53920989D01*
X231192492Y-54210140D01*
X231569821Y-54366821D01*
X231978387Y-54367178D01*
X232355989Y-54211156D01*
X232645140Y-53922508D01*
X232801821Y-53545179D01*
X232802178Y-53136613D01*
X232646156Y-52759011D01*
X232357508Y-52469860D01*
X231980179Y-52313179D01*
X231571613Y-52312822D01*
X231194011Y-52468844D01*
X230904860Y-52757492D01*
X230748179Y-53134821D01*
X230747822Y-53543387D01*
X229654000Y-53543387D01*
X229654000Y-52451000D01*
X229583436Y-52096252D01*
X229382488Y-51795512D01*
X229316558Y-51729582D01*
X229217156Y-51489011D01*
X228928508Y-51199860D01*
X228551179Y-51043179D01*
X228142613Y-51042822D01*
X227765011Y-51198844D01*
X227576752Y-51386776D01*
X227538558Y-51348582D01*
X227439156Y-51108011D01*
X227150508Y-50818860D01*
X226773179Y-50662179D01*
X226479000Y-50661922D01*
X226479000Y-49022000D01*
X226408436Y-48667252D01*
X226207488Y-48366512D01*
X225252558Y-47411582D01*
X225153156Y-47171011D01*
X224864508Y-46881860D01*
X224487179Y-46725179D01*
X224078613Y-46724822D01*
X223701011Y-46880844D01*
X223411860Y-47169492D01*
X223255179Y-47546821D01*
X223254822Y-47955387D01*
X223410844Y-48332989D01*
X223699492Y-48622140D01*
X223941765Y-48722741D01*
X224625000Y-49405976D01*
X224625000Y-57658000D01*
X220129000Y-57658000D01*
X220129000Y-56718387D01*
X221730822Y-56718387D01*
X221886844Y-57095989D01*
X222175492Y-57385140D01*
X222552821Y-57541821D01*
X222961387Y-57542178D01*
X223338989Y-57386156D01*
X223628140Y-57097508D01*
X223784821Y-56720179D01*
X223785178Y-56311613D01*
X223629156Y-55934011D01*
X223340508Y-55644860D01*
X222963179Y-55488179D01*
X222554613Y-55487822D01*
X222177011Y-55643844D01*
X221887860Y-55932492D01*
X221731179Y-56309821D01*
X221730822Y-56718387D01*
X220129000Y-56718387D01*
X220129000Y-54866976D01*
X222016488Y-52979488D01*
X222132578Y-52805747D01*
X222217436Y-52678748D01*
X222288000Y-52324000D01*
X222288000Y-45339000D01*
X222217436Y-44984252D01*
X222016488Y-44683512D01*
X220934558Y-43601582D01*
X220835156Y-43361011D01*
X220546508Y-43071860D01*
X220169179Y-42915179D01*
X219760613Y-42914822D01*
X219518164Y-43015000D01*
X212154574Y-43015000D01*
X211914179Y-42915179D01*
X211505613Y-42914822D01*
X211263164Y-43015000D01*
X203899574Y-43015000D01*
X203659179Y-42915179D01*
X203250613Y-42914822D01*
X202873011Y-43070844D01*
X202583860Y-43359492D01*
X202427179Y-43736821D01*
X202426822Y-44145387D01*
X202582844Y-44522989D01*
X202871492Y-44812140D01*
X203248821Y-44968821D01*
X203657387Y-44969178D01*
X203899836Y-44869000D01*
X211263426Y-44869000D01*
X211503821Y-44968821D01*
X211912387Y-44969178D01*
X212154836Y-44869000D01*
X219518426Y-44869000D01*
X219623765Y-44912741D01*
X220434000Y-45722976D01*
X220434000Y-46835143D01*
X220169179Y-46725179D01*
X219760613Y-46724822D01*
X219518164Y-46825000D01*
X212154574Y-46825000D01*
X211914179Y-46725179D01*
X211505613Y-46724822D01*
X211263164Y-46825000D01*
X203899574Y-46825000D01*
X203659179Y-46725179D01*
X203250613Y-46724822D01*
X202873011Y-46880844D01*
X202583860Y-47169492D01*
X202427179Y-47546821D01*
X202426822Y-47955387D01*
X202582844Y-48332989D01*
X202871492Y-48622140D01*
X203248821Y-48778821D01*
X203657387Y-48779178D01*
X203899836Y-48679000D01*
X211263426Y-48679000D01*
X211503821Y-48778821D01*
X211912387Y-48779178D01*
X212154836Y-48679000D01*
X219518426Y-48679000D01*
X219758821Y-48778821D01*
X220167387Y-48779178D01*
X220434000Y-48669016D01*
X220434000Y-50592407D01*
X220296179Y-50535179D01*
X219887613Y-50534822D01*
X219645164Y-50635000D01*
X212281574Y-50635000D01*
X212041179Y-50535179D01*
X211632613Y-50534822D01*
X211390164Y-50635000D01*
X204026574Y-50635000D01*
X203786179Y-50535179D01*
X203377613Y-50534822D01*
X203000011Y-50690844D01*
X202710860Y-50979492D01*
X202554179Y-51356821D01*
X202553822Y-51765387D01*
X202709844Y-52142989D01*
X202998492Y-52432140D01*
X203375821Y-52588821D01*
X203784387Y-52589178D01*
X204026836Y-52489000D01*
X208313377Y-52489000D01*
X208298860Y-52503492D01*
X208142179Y-52880821D01*
X208141822Y-53289387D01*
X208297844Y-53666989D01*
X208586492Y-53956140D01*
X208963821Y-54112821D01*
X209372387Y-54113178D01*
X209749989Y-53957156D01*
X210039140Y-53668508D01*
X210195821Y-53291179D01*
X210196178Y-52882613D01*
X210040156Y-52505011D01*
X210024173Y-52489000D01*
X211390426Y-52489000D01*
X211630821Y-52588821D01*
X212039387Y-52589178D01*
X212281836Y-52489000D01*
X219645426Y-52489000D01*
X219814725Y-52559299D01*
X218546512Y-53827512D01*
X218345564Y-54128252D01*
X218275000Y-54483000D01*
X218275000Y-57658000D01*
X199555000Y-57658000D01*
X199555000Y-56464387D01*
X200648822Y-56464387D01*
X200804844Y-56841989D01*
X201093492Y-57131140D01*
X201470821Y-57287821D01*
X201879387Y-57288178D01*
X202256989Y-57132156D01*
X202546140Y-56843508D01*
X202702821Y-56466179D01*
X202703178Y-56057613D01*
X202547156Y-55680011D01*
X202258508Y-55390860D01*
X201881179Y-55234179D01*
X201472613Y-55233822D01*
X201095011Y-55389844D01*
X200805860Y-55678492D01*
X200649179Y-56055821D01*
X200648822Y-56464387D01*
X199555000Y-56464387D01*
X199555000Y-55194387D01*
X214872822Y-55194387D01*
X215028844Y-55571989D01*
X215317492Y-55861140D01*
X215694821Y-56017821D01*
X216103387Y-56018178D01*
X216480989Y-55862156D01*
X216770140Y-55573508D01*
X216926821Y-55196179D01*
X216927178Y-54787613D01*
X216771156Y-54410011D01*
X216482508Y-54120860D01*
X216105179Y-53964179D01*
X215696613Y-53963822D01*
X215319011Y-54119844D01*
X215029860Y-54408492D01*
X214873179Y-54785821D01*
X214872822Y-55194387D01*
X199555000Y-55194387D01*
X199555000Y-44895574D01*
X199654821Y-44655179D01*
X199655178Y-44246613D01*
X199499156Y-43869011D01*
X199210508Y-43579860D01*
X198874963Y-43440529D01*
X198737156Y-43107011D01*
X198448508Y-42817860D01*
X198112963Y-42678529D01*
X197975156Y-42345011D01*
X197686508Y-42055860D01*
X197358000Y-41919451D01*
X197358000Y-40132000D01*
X229945985Y-40132000D01*
X230094434Y-40491275D01*
X230094434Y-40491275D01*
G37*
X230094434Y-40491275D02*
X231282470Y-41681387D01*
X232835509Y-42326265D01*
X234517114Y-42327732D01*
X236071275Y-41685566D01*
X237261387Y-40497530D01*
X237413168Y-40132000D01*
X237744000Y-40132000D01*
X237744000Y-57658000D01*
X236839941Y-57658000D01*
X236604002Y-57304893D01*
X236372189Y-57150000D01*
X236604002Y-56995107D01*
X236945853Y-56483492D01*
X237065895Y-55880000D01*
X236945853Y-55276508D01*
X236604002Y-54764893D01*
X236372189Y-54610000D01*
X236604002Y-54455107D01*
X236945853Y-53943492D01*
X237065895Y-53340000D01*
X236945853Y-52736508D01*
X236604002Y-52224893D01*
X236372189Y-52070000D01*
X236604002Y-51915107D01*
X236945853Y-51403492D01*
X237065895Y-50800000D01*
X236945853Y-50196508D01*
X236650049Y-49753807D01*
X236824846Y-49641328D01*
X236990843Y-49398385D01*
X237049242Y-49110000D01*
X237049242Y-47410000D01*
X236998549Y-47140590D01*
X236839328Y-46893154D01*
X236596385Y-46727157D01*
X236308000Y-46668758D01*
X234608000Y-46668758D01*
X234338590Y-46719451D01*
X234091154Y-46878672D01*
X233925157Y-47121615D01*
X233866758Y-47410000D01*
X233866758Y-49110000D01*
X233917451Y-49379410D01*
X234076672Y-49626846D01*
X234264864Y-49755433D01*
X233970147Y-50196508D01*
X233850105Y-50800000D01*
X233970147Y-51403492D01*
X234311998Y-51915107D01*
X234543811Y-52070000D01*
X234311998Y-52224893D01*
X233970147Y-52736508D01*
X233850105Y-53340000D01*
X233970147Y-53943492D01*
X234311998Y-54455107D01*
X234543811Y-54610000D01*
X234311998Y-54764893D01*
X233970147Y-55276508D01*
X233850105Y-55880000D01*
X233970147Y-56483492D01*
X234311998Y-56995107D01*
X234543811Y-57150000D01*
X234311998Y-57304893D01*
X234076059Y-57658000D01*
X229654000Y-57658000D01*
X229654000Y-53543387D01*
X230747822Y-53543387D01*
X230903844Y-53920989D01*
X231192492Y-54210140D01*
X231569821Y-54366821D01*
X231978387Y-54367178D01*
X232355989Y-54211156D01*
X232645140Y-53922508D01*
X232801821Y-53545179D01*
X232802178Y-53136613D01*
X232646156Y-52759011D01*
X232357508Y-52469860D01*
X231980179Y-52313179D01*
X231571613Y-52312822D01*
X231194011Y-52468844D01*
X230904860Y-52757492D01*
X230748179Y-53134821D01*
X230747822Y-53543387D01*
X229654000Y-53543387D01*
X229654000Y-52451000D01*
X229583436Y-52096252D01*
X229382488Y-51795512D01*
X229316558Y-51729582D01*
X229217156Y-51489011D01*
X228928508Y-51199860D01*
X228551179Y-51043179D01*
X228142613Y-51042822D01*
X227765011Y-51198844D01*
X227576752Y-51386776D01*
X227538558Y-51348582D01*
X227439156Y-51108011D01*
X227150508Y-50818860D01*
X226773179Y-50662179D01*
X226479000Y-50661922D01*
X226479000Y-49022000D01*
X226408436Y-48667252D01*
X226207488Y-48366512D01*
X225252558Y-47411582D01*
X225153156Y-47171011D01*
X224864508Y-46881860D01*
X224487179Y-46725179D01*
X224078613Y-46724822D01*
X223701011Y-46880844D01*
X223411860Y-47169492D01*
X223255179Y-47546821D01*
X223254822Y-47955387D01*
X223410844Y-48332989D01*
X223699492Y-48622140D01*
X223941765Y-48722741D01*
X224625000Y-49405976D01*
X224625000Y-57658000D01*
X220129000Y-57658000D01*
X220129000Y-56718387D01*
X221730822Y-56718387D01*
X221886844Y-57095989D01*
X222175492Y-57385140D01*
X222552821Y-57541821D01*
X222961387Y-57542178D01*
X223338989Y-57386156D01*
X223628140Y-57097508D01*
X223784821Y-56720179D01*
X223785178Y-56311613D01*
X223629156Y-55934011D01*
X223340508Y-55644860D01*
X222963179Y-55488179D01*
X222554613Y-55487822D01*
X222177011Y-55643844D01*
X221887860Y-55932492D01*
X221731179Y-56309821D01*
X221730822Y-56718387D01*
X220129000Y-56718387D01*
X220129000Y-54866976D01*
X222016488Y-52979488D01*
X222132578Y-52805747D01*
X222217436Y-52678748D01*
X222288000Y-52324000D01*
X222288000Y-45339000D01*
X222217436Y-44984252D01*
X222016488Y-44683512D01*
X220934558Y-43601582D01*
X220835156Y-43361011D01*
X220546508Y-43071860D01*
X220169179Y-42915179D01*
X219760613Y-42914822D01*
X219518164Y-43015000D01*
X212154574Y-43015000D01*
X211914179Y-42915179D01*
X211505613Y-42914822D01*
X211263164Y-43015000D01*
X203899574Y-43015000D01*
X203659179Y-42915179D01*
X203250613Y-42914822D01*
X202873011Y-43070844D01*
X202583860Y-43359492D01*
X202427179Y-43736821D01*
X202426822Y-44145387D01*
X202582844Y-44522989D01*
X202871492Y-44812140D01*
X203248821Y-44968821D01*
X203657387Y-44969178D01*
X203899836Y-44869000D01*
X211263426Y-44869000D01*
X211503821Y-44968821D01*
X211912387Y-44969178D01*
X212154836Y-44869000D01*
X219518426Y-44869000D01*
X219623765Y-44912741D01*
X220434000Y-45722976D01*
X220434000Y-46835143D01*
X220169179Y-46725179D01*
X219760613Y-46724822D01*
X219518164Y-46825000D01*
X212154574Y-46825000D01*
X211914179Y-46725179D01*
X211505613Y-46724822D01*
X211263164Y-46825000D01*
X203899574Y-46825000D01*
X203659179Y-46725179D01*
X203250613Y-46724822D01*
X202873011Y-46880844D01*
X202583860Y-47169492D01*
X202427179Y-47546821D01*
X202426822Y-47955387D01*
X202582844Y-48332989D01*
X202871492Y-48622140D01*
X203248821Y-48778821D01*
X203657387Y-48779178D01*
X203899836Y-48679000D01*
X211263426Y-48679000D01*
X211503821Y-48778821D01*
X211912387Y-48779178D01*
X212154836Y-48679000D01*
X219518426Y-48679000D01*
X219758821Y-48778821D01*
X220167387Y-48779178D01*
X220434000Y-48669016D01*
X220434000Y-50592407D01*
X220296179Y-50535179D01*
X219887613Y-50534822D01*
X219645164Y-50635000D01*
X212281574Y-50635000D01*
X212041179Y-50535179D01*
X211632613Y-50534822D01*
X211390164Y-50635000D01*
X204026574Y-50635000D01*
X203786179Y-50535179D01*
X203377613Y-50534822D01*
X203000011Y-50690844D01*
X202710860Y-50979492D01*
X202554179Y-51356821D01*
X202553822Y-51765387D01*
X202709844Y-52142989D01*
X202998492Y-52432140D01*
X203375821Y-52588821D01*
X203784387Y-52589178D01*
X204026836Y-52489000D01*
X208313377Y-52489000D01*
X208298860Y-52503492D01*
X208142179Y-52880821D01*
X208141822Y-53289387D01*
X208297844Y-53666989D01*
X208586492Y-53956140D01*
X208963821Y-54112821D01*
X209372387Y-54113178D01*
X209749989Y-53957156D01*
X210039140Y-53668508D01*
X210195821Y-53291179D01*
X210196178Y-52882613D01*
X210040156Y-52505011D01*
X210024173Y-52489000D01*
X211390426Y-52489000D01*
X211630821Y-52588821D01*
X212039387Y-52589178D01*
X212281836Y-52489000D01*
X219645426Y-52489000D01*
X219814725Y-52559299D01*
X218546512Y-53827512D01*
X218345564Y-54128252D01*
X218275000Y-54483000D01*
X218275000Y-57658000D01*
X199555000Y-57658000D01*
X199555000Y-56464387D01*
X200648822Y-56464387D01*
X200804844Y-56841989D01*
X201093492Y-57131140D01*
X201470821Y-57287821D01*
X201879387Y-57288178D01*
X202256989Y-57132156D01*
X202546140Y-56843508D01*
X202702821Y-56466179D01*
X202703178Y-56057613D01*
X202547156Y-55680011D01*
X202258508Y-55390860D01*
X201881179Y-55234179D01*
X201472613Y-55233822D01*
X201095011Y-55389844D01*
X200805860Y-55678492D01*
X200649179Y-56055821D01*
X200648822Y-56464387D01*
X199555000Y-56464387D01*
X199555000Y-55194387D01*
X214872822Y-55194387D01*
X215028844Y-55571989D01*
X215317492Y-55861140D01*
X215694821Y-56017821D01*
X216103387Y-56018178D01*
X216480989Y-55862156D01*
X216770140Y-55573508D01*
X216926821Y-55196179D01*
X216927178Y-54787613D01*
X216771156Y-54410011D01*
X216482508Y-54120860D01*
X216105179Y-53964179D01*
X215696613Y-53963822D01*
X215319011Y-54119844D01*
X215029860Y-54408492D01*
X214873179Y-54785821D01*
X214872822Y-55194387D01*
X199555000Y-55194387D01*
X199555000Y-44895574D01*
X199654821Y-44655179D01*
X199655178Y-44246613D01*
X199499156Y-43869011D01*
X199210508Y-43579860D01*
X198874963Y-43440529D01*
X198737156Y-43107011D01*
X198448508Y-42817860D01*
X198112963Y-42678529D01*
X197975156Y-42345011D01*
X197686508Y-42055860D01*
X197358000Y-41919451D01*
X197358000Y-40132000D01*
X229945985Y-40132000D01*
X230094434Y-40491275D01*
M02*
