M48
INCH,TZ
T1C0.012
T2C0.024
T3C0.031
T4C0.039
T5C0.060
T6C0.138
%
G90
G05
T1
X22050Y-21750
X22900Y-20400
X24950Y-17200
X25000Y-18700
X25000Y-20200
X25500Y-20700
X25750Y-46650
X25750Y-51450
X26600Y-51700
X26600Y-53200
X26600Y-54700
X26700Y-33400
X27900Y-35000
X28000Y-50350
X28100Y-34200
X28250Y-17200
X28250Y-18700
X28250Y-20200
X28500Y-33750
X28950Y-21100
X29200Y-35400
X29550Y-51700
X29600Y-53200
X29600Y-54700
X30200Y-21650
X30500Y-32000
X30500Y-39500
X30950Y-50500
X31000Y-35000
X31100Y-39000
X31500Y-17200
X31500Y-18700
X31500Y-20200
X31500Y-34600
X32200Y-48500
X32450Y-48700
X32500Y-34200
X32700Y-51100
X32900Y-51700
X32900Y-53200
X32900Y-54700
X32950Y-48700
X33400Y-48700
X33500Y-20000
X33900Y-48650
X34050Y-19600
X34200Y-19050
X34250Y-48750
X34350Y-18500
X34650Y-51250
X34700Y-17200
X34800Y-51650
X35000Y-16900
X35150Y-51950
X35300Y-16600
X35500Y-34200
X35600Y-16300
X35850Y-54400
X35900Y-16000
X36150Y-54700
X36200Y-15700
X36450Y-55000
X36500Y-34600
X36500Y-35000
X36750Y-55300
X36850Y-18800
X37050Y-55600
X37350Y-55900
X37500Y-32000
X37700Y-50900
X37900Y-50600
X38000Y-39000
X38250Y-50300
X38900Y-50300
X39200Y-50200
X39500Y-33750
X39500Y-35400
X39500Y-50300
X39800Y-50200
X40100Y-50300
X40400Y-50200
X40750Y-46950
X41100Y-46950
X41450Y-46950
X41800Y-46950
X42150Y-46950
X42500Y-23600
X42500Y-46950
X43500Y-33750
X44200Y-35400
X44400Y-52900
X44700Y-52600
X44700Y-53250
X45300Y-52600
X45500Y-32000
X45500Y-39000
X45600Y-52900
X45950Y-53250
X46500Y-35000
X47000Y-34600
X47500Y-34200
X48500Y-22050
X49000Y-22700
X49500Y-21500
X50000Y-22400
X50500Y-21500
X50500Y-34200
X50850Y-21200
X51500Y-34600
X51500Y-35000
X52500Y-32000
X52800Y-21000
X53000Y-39000
X53500Y-56200
X53800Y-55900
X54100Y-55600
X54400Y-55300
X54500Y-33750
X54500Y-35400
X54700Y-55000
X55000Y-24200
X55000Y-54700
X55100Y-23650
X55550Y-24550
X55600Y-24050
X55750Y-20700
X56150Y-24350
X56200Y-24700
X57500Y-27500
X58500Y-33750
X59000Y-35400
X59150Y-50200
X59350Y-50500
X59400Y-27150
X59450Y-20500
X59850Y-20500
X59900Y-23350
X60250Y-20500
X60400Y-23750
X60400Y-50300
X60500Y-32000
X60500Y-39000
X60650Y-20500
X60850Y-50250
X61050Y-20500
X61050Y-23700
X61400Y-50200
X61450Y-20500
X61450Y-24500
X61450Y-52300
X61500Y-35000
X61750Y-52000
X61800Y-50250
X61850Y-23000
X61850Y-25050
X62000Y-34600
X62050Y-51700
X62250Y-25300
X62350Y-23500
X62350Y-51400
X62500Y-34200
X62650Y-50950
X62750Y-24000
X62950Y-50250
X63000Y-25200
X63200Y-24500
X63400Y-44500
X63650Y-24900
X65500Y-34200
X66500Y-34600
X66500Y-35000
X66500Y-44900
X67500Y-31000
X68000Y-31700
X68000Y-39000
X69500Y-33750
X69500Y-35400
X69500Y-45300
X70500Y-18950
X71100Y-25400
X71500Y-19250
X72500Y-19550
X73500Y-19850
X73500Y-44100
X74500Y-20150
X74500Y-34600
X75500Y-20450
X75500Y-31000
X76350Y-17850
X76350Y-18250
X76350Y-18750
X76350Y-19300
X76350Y-19750
X76350Y-20200
X76500Y-35800
X76700Y-16000
X77000Y-16300
X77300Y-16600
X77400Y-27400
X77500Y-34600
X77500Y-40100
X77500Y-44500
X77600Y-16900
X77900Y-17200
X77950Y-48150
X78200Y-17500
X78300Y-48450
X78500Y-36700
X79100Y-31300
X79400Y-22150
X79600Y-30700
X80100Y-17300
X80100Y-18800
X80150Y-20300
X80200Y-31000
X80500Y-27000
X80550Y-48150
X80700Y-47850
X81150Y-47750
X81200Y-51600
X81200Y-53100
X81200Y-54600
X81500Y-27800
X81500Y-35000
X81500Y-44900
X82350Y-20900
X82500Y-31700
X82850Y-50350
X83350Y-17300
X83350Y-18800
X83400Y-20300
X83500Y-32100
X83500Y-38000
X84500Y-37000
X84500Y-45300
X84700Y-51600
X84700Y-53100
X84700Y-54600
X85000Y-21650
X85000Y-47600
X85400Y-47250
X85600Y-28400
X85650Y-51050
X85850Y-46650
X86000Y-28000
X86300Y-39200
X86600Y-17300
X86600Y-18800
X86600Y-26700
X86650Y-20300
X86650Y-25150
X86700Y-43700
X87000Y-26400
X87000Y-35400
X87000Y-50750
X87300Y-25300
X87300Y-31650
X87300Y-41550
X87300Y-51200
X87350Y-28550
X87350Y-30350
X87350Y-35950
X87700Y-22250
X87750Y-34950
X87850Y-31600
X87900Y-51600
X87900Y-53100
X87900Y-54600
X88250Y-29450
X88300Y-18800
X88850Y-41750
X89050Y-47500
X89100Y-27000
X89150Y-34950
X89150Y-43850
X89200Y-20350
X89300Y-25100
X89350Y-37000
X89450Y-39000
X89700Y-38350
X89700Y-40850
X89700Y-44050
X89750Y-28850
X89750Y-30350
X89900Y-20500
X90250Y-33600
X90250Y-44250
X90500Y-21450
X90600Y-33950
X90600Y-36700
X90600Y-40900
X90900Y-36000
X90950Y-32950
X91200Y-38000
X91400Y-30500
X91450Y-41550
T2
X83500Y-41700
X84000Y-30200
X91250Y-21000
T3
X22500Y-29400
X22500Y-30400
X22500Y-31400
X22500Y-32400
X22500Y-33400
X22500Y-34400
X22500Y-35400
X22500Y-36400
X22500Y-37400
X22500Y-38400
X22500Y-39400
X22500Y-40400
X22500Y-41400
X22500Y-42400
X25500Y-29400
X25500Y-30400
X25500Y-31400
X25500Y-32400
X25500Y-33400
X25500Y-34400
X25500Y-35400
X25500Y-36400
X25500Y-37400
X25500Y-38400
X25500Y-39400
X25500Y-40400
X25500Y-41400
X25500Y-42400
X27500Y-26000
X27500Y-29000
X27500Y-43000
X27500Y-46000
X28500Y-26000
X28500Y-29000
X28500Y-43000
X28500Y-46000
X29500Y-26000
X29500Y-29000
X29500Y-43000
X29500Y-46000
X30500Y-26000
X30500Y-29000
X30500Y-43000
X30500Y-46000
X31500Y-26000
X31500Y-29000
X31500Y-43000
X31500Y-46000
X32500Y-26000
X32500Y-29000
X32500Y-43000
X32500Y-46000
X33500Y-26000
X33500Y-29000
X33500Y-43000
X33500Y-46000
X34500Y-26000
X34500Y-29000
X34500Y-43000
X34500Y-46000
X35500Y-26000
X35500Y-29000
X35500Y-43000
X35500Y-46000
X36500Y-26000
X36500Y-29000
X36500Y-43000
X36500Y-46000
X37500Y-26000
X37500Y-29000
X37500Y-43000
X37500Y-46000
X38500Y-26000
X38500Y-29000
X38500Y-43000
X38500Y-46000
X39500Y-26000
X39500Y-29000
X39500Y-43000
X39500Y-46000
X40500Y-26000
X40500Y-29000
X40500Y-43000
X40500Y-46000
X42500Y-26000
X42500Y-29000
X42500Y-43000
X42500Y-46000
X43500Y-26000
X43500Y-29000
X43500Y-43000
X43500Y-46000
X44500Y-26000
X44500Y-29000
X44500Y-43000
X44500Y-46000
X45500Y-26000
X45500Y-29000
X45500Y-43000
X45500Y-46000
X46500Y-26000
X46500Y-29000
X46500Y-43000
X46500Y-46000
X47500Y-26000
X47500Y-29000
X47500Y-43000
X47500Y-46000
X48500Y-26000
X48500Y-29000
X48500Y-43000
X48500Y-46000
X49500Y-26000
X49500Y-29000
X49500Y-43000
X49500Y-46000
X50500Y-26000
X50500Y-29000
X50500Y-43000
X50500Y-46000
X51500Y-26000
X51500Y-29000
X51500Y-43000
X51500Y-46000
X52500Y-26000
X52500Y-29000
X52500Y-43000
X52500Y-46000
X53500Y-26000
X53500Y-29000
X53500Y-43000
X53500Y-46000
X54500Y-26000
X54500Y-29000
X54500Y-43000
X54500Y-46000
X55500Y-26000
X55500Y-29000
X55500Y-43000
X55500Y-46000
X57500Y-26000
X57500Y-29000
X57500Y-43000
X57500Y-46000
X58500Y-26000
X58500Y-29000
X58500Y-43000
X58500Y-46000
X59500Y-26000
X59500Y-29000
X59500Y-43000
X59500Y-46000
X60500Y-26000
X60500Y-29000
X60500Y-43000
X60500Y-46000
X61500Y-26000
X61500Y-29000
X61500Y-43000
X61500Y-46000
X62500Y-26000
X62500Y-29000
X62500Y-43000
X62500Y-46000
X63500Y-26000
X63500Y-29000
X63500Y-43000
X63500Y-46000
X64500Y-26000
X64500Y-29000
X64500Y-43000
X64500Y-46000
X65500Y-26000
X65500Y-29000
X65500Y-43000
X65500Y-46000
X66500Y-26000
X66500Y-29000
X66500Y-43000
X66500Y-46000
X67500Y-26000
X67500Y-29000
X67500Y-43000
X67500Y-46000
X68500Y-26000
X68500Y-29000
X68500Y-43000
X68500Y-46000
X69500Y-26000
X69500Y-29000
X69500Y-43000
X69500Y-46000
X70500Y-26000
X70500Y-29000
X70500Y-43000
X70500Y-46000
X72500Y-26000
X72500Y-29000
X72500Y-43000
X72500Y-46000
X73500Y-26000
X73500Y-29000
X73500Y-43000
X73500Y-46000
X74500Y-26000
X74500Y-29000
X74500Y-43000
X74500Y-46000
X75500Y-26000
X75500Y-29000
X75500Y-43000
X75500Y-46000
X76500Y-26000
X76500Y-29000
X76500Y-43000
X76500Y-46000
X77500Y-26000
X77500Y-29000
X77500Y-43000
X77500Y-46000
X78500Y-26000
X78500Y-29000
X78500Y-43000
X78500Y-46000
X79500Y-26000
X79500Y-29000
X79500Y-43000
X79500Y-46000
X80500Y-26000
X80500Y-29000
X80500Y-43000
X80500Y-46000
X81500Y-26000
X81500Y-29000
X81500Y-43000
X81500Y-46000
X82500Y-26000
X82500Y-29000
X82500Y-43000
X82500Y-46000
X83500Y-26000
X83500Y-29000
X83500Y-43000
X83500Y-46000
X84500Y-26000
X84500Y-29000
X84500Y-43000
X84500Y-46000
X85500Y-26000
X85500Y-29000
X85500Y-43000
X85500Y-46000
X90250Y-46750
X90250Y-47734
X90250Y-49016
X90250Y-50000
X91250Y-52450
X92628Y-52450
T4
X24300Y-23100
X24300Y-49450
X25000Y-14000
X25000Y-15000
X25000Y-57000
X25000Y-58000
X26000Y-14000
X26000Y-15000
X26000Y-57000
X26000Y-58000
X27000Y-14000
X27000Y-15000
X27000Y-57000
X27000Y-58000
X28000Y-14000
X28000Y-15000
X28000Y-57000
X28000Y-58000
X29000Y-14000
X29000Y-15000
X29000Y-57000
X29000Y-58000
X30000Y-14000
X30000Y-15000
X30000Y-57000
X30000Y-58000
X31000Y-14000
X31000Y-15000
X31000Y-57000
X31000Y-58000
X32000Y-14000
X32000Y-15000
X32000Y-57000
X32000Y-58000
X33000Y-14000
X33000Y-15000
X33000Y-57000
X33000Y-58000
X34000Y-14000
X34000Y-15000
X34000Y-57000
X34000Y-58000
X35000Y-14000
X35000Y-15000
X35000Y-57000
X35000Y-58000
X36000Y-14000
X36000Y-15000
X36000Y-57000
X36000Y-58000
X37000Y-14000
X37000Y-15000
X37000Y-57000
X37000Y-58000
X38000Y-14000
X38000Y-15000
X38000Y-57000
X38000Y-58000
X39000Y-14000
X39000Y-15000
X39000Y-57000
X39000Y-58000
X40000Y-14000
X40000Y-15000
X40000Y-57000
X40000Y-58000
X41000Y-14000
X41000Y-15000
X41000Y-57000
X41000Y-58000
X42000Y-14000
X42000Y-15000
X42000Y-57000
X42000Y-58000
X43000Y-14000
X43000Y-15000
X43000Y-57000
X43000Y-58000
X44000Y-14000
X44000Y-15000
X44000Y-57000
X44000Y-58000
X45000Y-14000
X45000Y-15000
X45000Y-57000
X45000Y-58000
X46000Y-14000
X46000Y-15000
X46000Y-57000
X46000Y-58000
X47000Y-14000
X47000Y-15000
X47000Y-57000
X47000Y-58000
X48000Y-14000
X48000Y-15000
X48000Y-57000
X48000Y-58000
X49000Y-14000
X49000Y-15000
X49000Y-57000
X49000Y-58000
X50000Y-14000
X50000Y-15000
X50000Y-57000
X50000Y-58000
X51000Y-14000
X51000Y-15000
X51000Y-57000
X51000Y-58000
X52000Y-14000
X52000Y-15000
X52000Y-57000
X52000Y-58000
X53000Y-14000
X53000Y-15000
X53000Y-57000
X53000Y-58000
X54000Y-14000
X54000Y-15000
X54000Y-57000
X54000Y-58000
X59000Y-14000
X59000Y-15000
X59000Y-57000
X59000Y-58000
X60000Y-14000
X60000Y-15000
X60000Y-57000
X60000Y-58000
X61000Y-14000
X61000Y-15000
X61000Y-57000
X61000Y-58000
X62000Y-14000
X62000Y-15000
X62000Y-57000
X62000Y-58000
X63000Y-14000
X63000Y-15000
X63000Y-57000
X63000Y-58000
X64000Y-14000
X64000Y-15000
X64000Y-57000
X64000Y-58000
X65000Y-14000
X65000Y-15000
X65000Y-57000
X65000Y-58000
X66000Y-14000
X66000Y-15000
X66000Y-57000
X66000Y-58000
X67000Y-14000
X67000Y-15000
X67000Y-57000
X67000Y-58000
X68000Y-14000
X68000Y-15000
X68000Y-57000
X68000Y-58000
X69000Y-14000
X69000Y-15000
X69000Y-57000
X69000Y-58000
X70000Y-14000
X70000Y-15000
X70000Y-57000
X70000Y-58000
X71000Y-14000
X71000Y-15000
X71000Y-57000
X71000Y-58000
X72000Y-14000
X72000Y-15000
X72000Y-57000
X72000Y-58000
X72500Y-33000
X72500Y-39000
X73000Y-14000
X73000Y-15000
X73000Y-57000
X73000Y-58000
X73500Y-33000
X73500Y-39000
X74000Y-14000
X74000Y-15000
X74000Y-57000
X74000Y-58000
X74500Y-33000
X74500Y-39000
X75000Y-14000
X75000Y-15000
X75000Y-57000
X75000Y-58000
X75500Y-33000
X75500Y-39000
X76000Y-14000
X76000Y-15000
X76000Y-57000
X76000Y-58000
X76500Y-33000
X76500Y-39000
X77000Y-14000
X77000Y-15000
X77000Y-57000
X77000Y-58000
X77500Y-33000
X77500Y-39000
X78000Y-14000
X78000Y-15000
X78000Y-57000
X78000Y-58000
X78500Y-33000
X78500Y-39000
X79000Y-14000
X79000Y-15000
X79000Y-57000
X79000Y-58000
X79500Y-33000
X79500Y-39000
X80000Y-14000
X80000Y-15000
X80000Y-57000
X80000Y-58000
X80500Y-33000
X80500Y-39000
X81000Y-14000
X81000Y-15000
X81000Y-57000
X81000Y-58000
X81500Y-33000
X81500Y-39000
X82000Y-14000
X82000Y-15000
X82000Y-57000
X82000Y-58000
X82500Y-33000
X82500Y-39000
X83000Y-14000
X83000Y-15000
X83000Y-57000
X83000Y-58000
X83500Y-33000
X83500Y-39000
X84000Y-14000
X84000Y-15000
X84000Y-57000
X84000Y-58000
X84500Y-33000
X84500Y-39000
X85000Y-14000
X85000Y-15000
X85000Y-57000
X85000Y-58000
X85500Y-33000
X85500Y-39000
X86000Y-14000
X86000Y-15000
X86000Y-57000
X86000Y-58000
X87000Y-14000
X87000Y-15000
X87000Y-57000
X87000Y-58000
X88000Y-14000
X88000Y-15000
X88000Y-57000
X88000Y-58000
X88100Y-23100
X91400Y-34500
X91400Y-35500
X91400Y-36500
X91400Y-37500
X91400Y-38500
X91400Y-39500
X91400Y-40500
X92500Y-47250
X92500Y-48250
X92500Y-49250
X92700Y-19000
X92700Y-20000
X92700Y-21000
X92700Y-22000
X92700Y-23000
X92700Y-24000
X92700Y-25000
X92700Y-26000
X92700Y-27000
X92700Y-28000
X92700Y-29000
X92700Y-30000
X92700Y-32000
X92700Y-33000
X92700Y-34000
X92700Y-35000
X92700Y-36000
X92700Y-37000
X92700Y-38000
X92700Y-39000
X92700Y-40000
X92700Y-41000
T5
X91900Y-43000
X91900Y-45000
T6
X22000Y-15000
X22000Y-57000
X92000Y-15000
X92000Y-57000
T0
M30
