M48
;DRILL file {KiCad 4.0.7} date 03/15/18 10:01:37
;FORMAT={-:-/ absolute / inch / decimal}
FMAT,2
INCH,TZ
T1C0.039
%
G90
G05
M72
T1
X3.6053Y-4.121
X3.6061Y-4.5043
X3.6161Y-2.5985
X3.618Y-2.9601
X3.618Y-3.3368
X3.618Y-3.7443
X3.86Y-5.73
X3.86Y-5.83
X3.96Y-5.73
X3.96Y-5.83
X4.06Y-5.73
X4.06Y-5.83
X4.16Y-5.73
X4.16Y-5.83
X4.238Y-2.5926
X4.2453Y-2.9601
X4.2516Y-3.3368
X4.2516Y-3.7443
X4.258Y-4.5085
X4.2589Y-4.121
X4.26Y-5.73
X4.26Y-5.83
X4.36Y-5.73
X4.36Y-5.83
X4.46Y-5.73
X4.46Y-5.83
X4.56Y-5.73
X4.56Y-5.83
X4.66Y-5.73
X4.66Y-5.83
X4.76Y-5.73
X4.76Y-5.83
X4.86Y-5.73
X4.86Y-5.83
X4.8716Y-2.5926
X4.8716Y-4.5085
X4.878Y-4.1252
X4.8789Y-2.9601
X4.8853Y-3.3368
X4.8853Y-3.7443
X4.96Y-5.73
X4.96Y-5.83
X5.06Y-5.73
X5.06Y-5.83
X5.16Y-5.73
X5.16Y-5.83
X5.26Y-5.73
X5.26Y-5.83
X5.36Y-5.73
X5.36Y-5.83
X5.46Y-5.73
X5.46Y-5.83
X5.5253Y-2.5926
X5.5325Y-2.9601
X5.5389Y-3.3368
X5.5389Y-3.7443
X5.5453Y-4.5085
X5.5516Y-4.1252
X5.56Y-5.73
X5.56Y-5.83
X5.66Y-5.73
X5.66Y-5.83
X5.76Y-5.73
X5.76Y-5.83
X5.86Y-5.73
X5.86Y-5.83
X5.96Y-5.73
X5.96Y-5.83
X6.0516Y-4.9593
X6.058Y-5.2135
X6.06Y-5.73
X6.06Y-5.83
X6.063Y-5.4827
X6.1589Y-4.5085
X6.16Y-5.73
X6.16Y-5.83
X6.1653Y-4.1452
X6.1725Y-3.7443
X6.178Y-3.341
X6.1789Y-2.5926
X6.1861Y-2.9601
X6.26Y-5.73
X6.26Y-5.83
X6.36Y-5.73
X6.36Y-5.83
X6.4153Y-4.9593
X6.4225Y-5.2168
X6.4261Y-5.4826
X6.46Y-5.73
X6.46Y-5.83
X6.56Y-5.73
X6.56Y-5.83
X6.66Y-5.73
X6.66Y-5.83
X6.7484Y-5.4851
X6.7497Y-4.9643
X6.7516Y-5.2335
X6.76Y-5.73
X6.76Y-5.83
X6.8116Y-3.341
X6.8116Y-3.7401
X6.8125Y-2.5926
X6.8125Y-4.5085
X6.818Y-4.1393
X6.8197Y-2.9601
T0
M30
