G04 #@! TF.FileFunction,Legend,Top*
%FSLAX46Y46*%
G04 Gerber Fmt 4.6, Leading zero omitted, Abs format (unit mm)*
G04 Created by KiCad (PCBNEW 4.0.7) date 03/14/18 22:00:03*
%MOMM*%
%LPD*%
G01*
G04 APERTURE LIST*
%ADD10C,0.100000*%
%ADD11C,0.120000*%
%ADD12C,0.010000*%
%ADD13C,0.150000*%
G04 APERTURE END LIST*
D10*
D11*
X173034000Y-149412000D02*
X173034000Y-144212000D01*
X99314000Y-149412000D02*
X173034000Y-149412000D01*
X96714000Y-144212000D02*
X173034000Y-144212000D01*
X99314000Y-149412000D02*
X99314000Y-146812000D01*
X99314000Y-146812000D02*
X96714000Y-146812000D01*
X96714000Y-146812000D02*
X96714000Y-144212000D01*
X98044000Y-149412000D02*
X96714000Y-149412000D01*
X96714000Y-149412000D02*
X96714000Y-148082000D01*
X90567619Y-76517000D02*
X93227619Y-76517000D01*
X90567619Y-76457000D02*
X90567619Y-76517000D01*
X93227619Y-76457000D02*
X93227619Y-76517000D01*
X90567619Y-76457000D02*
X93227619Y-76457000D01*
X90567619Y-75187000D02*
X90567619Y-73857000D01*
X90567619Y-73857000D02*
X91897619Y-73857000D01*
X106499619Y-76517000D02*
X109159619Y-76517000D01*
X106499619Y-76457000D02*
X106499619Y-76517000D01*
X109159619Y-76457000D02*
X109159619Y-76517000D01*
X106499619Y-76457000D02*
X109159619Y-76457000D01*
X106499619Y-75187000D02*
X106499619Y-73857000D01*
X106499619Y-73857000D02*
X107829619Y-73857000D01*
X122593619Y-76517000D02*
X125253619Y-76517000D01*
X122593619Y-76457000D02*
X122593619Y-76517000D01*
X125253619Y-76457000D02*
X125253619Y-76517000D01*
X122593619Y-76457000D02*
X125253619Y-76457000D01*
X122593619Y-75187000D02*
X122593619Y-73857000D01*
X122593619Y-73857000D02*
X123923619Y-73857000D01*
X139195619Y-76517000D02*
X141855619Y-76517000D01*
X139195619Y-76457000D02*
X139195619Y-76517000D01*
X141855619Y-76457000D02*
X141855619Y-76517000D01*
X139195619Y-76457000D02*
X141855619Y-76457000D01*
X139195619Y-75187000D02*
X139195619Y-73857000D01*
X139195619Y-73857000D02*
X140525619Y-73857000D01*
X155797619Y-76517000D02*
X158457619Y-76517000D01*
X155797619Y-76457000D02*
X155797619Y-76517000D01*
X158457619Y-76457000D02*
X158457619Y-76517000D01*
X155797619Y-76457000D02*
X158457619Y-76457000D01*
X155797619Y-75187000D02*
X155797619Y-73857000D01*
X155797619Y-73857000D02*
X157127619Y-73857000D01*
X171891619Y-76517000D02*
X174551619Y-76517000D01*
X171891619Y-76457000D02*
X171891619Y-76517000D01*
X174551619Y-76457000D02*
X174551619Y-76517000D01*
X171891619Y-76457000D02*
X174551619Y-76457000D01*
X171891619Y-75187000D02*
X171891619Y-73857000D01*
X171891619Y-73857000D02*
X173221619Y-73857000D01*
X90567619Y-96435000D02*
X93227619Y-96435000D01*
X90567619Y-96375000D02*
X90567619Y-96435000D01*
X93227619Y-96375000D02*
X93227619Y-96435000D01*
X90567619Y-96375000D02*
X93227619Y-96375000D01*
X90567619Y-95105000D02*
X90567619Y-93775000D01*
X90567619Y-93775000D02*
X91897619Y-93775000D01*
X106661619Y-96435000D02*
X109321619Y-96435000D01*
X106661619Y-96375000D02*
X106661619Y-96435000D01*
X109321619Y-96375000D02*
X109321619Y-96435000D01*
X106661619Y-96375000D02*
X109321619Y-96375000D01*
X106661619Y-95105000D02*
X106661619Y-93775000D01*
X106661619Y-93775000D02*
X107991619Y-93775000D01*
X122755619Y-96435000D02*
X125415619Y-96435000D01*
X122755619Y-96375000D02*
X122755619Y-96435000D01*
X125415619Y-96375000D02*
X125415619Y-96435000D01*
X122755619Y-96375000D02*
X125415619Y-96375000D01*
X122755619Y-95105000D02*
X122755619Y-93775000D01*
X122755619Y-93775000D02*
X124085619Y-93775000D01*
X139357619Y-96435000D02*
X142017619Y-96435000D01*
X139357619Y-96375000D02*
X139357619Y-96435000D01*
X142017619Y-96375000D02*
X142017619Y-96435000D01*
X139357619Y-96375000D02*
X142017619Y-96375000D01*
X139357619Y-95105000D02*
X139357619Y-93775000D01*
X139357619Y-93775000D02*
X140687619Y-93775000D01*
X155451619Y-96435000D02*
X158111619Y-96435000D01*
X155451619Y-96375000D02*
X155451619Y-96435000D01*
X158111619Y-96375000D02*
X158111619Y-96435000D01*
X155451619Y-96375000D02*
X158111619Y-96375000D01*
X155451619Y-95105000D02*
X155451619Y-93775000D01*
X155451619Y-93775000D02*
X156781619Y-93775000D01*
X171685619Y-96329000D02*
X174345619Y-96329000D01*
X171685619Y-96269000D02*
X171685619Y-96329000D01*
X174345619Y-96269000D02*
X174345619Y-96329000D01*
X171685619Y-96269000D02*
X174345619Y-96269000D01*
X171685619Y-94999000D02*
X171685619Y-93669000D01*
X171685619Y-93669000D02*
X173015619Y-93669000D01*
X90265619Y-115739000D02*
X92925619Y-115739000D01*
X90265619Y-115679000D02*
X90265619Y-115739000D01*
X92925619Y-115679000D02*
X92925619Y-115739000D01*
X90265619Y-115679000D02*
X92925619Y-115679000D01*
X90265619Y-114409000D02*
X90265619Y-113079000D01*
X90265619Y-113079000D02*
X91595619Y-113079000D01*
X106823619Y-115845000D02*
X109483619Y-115845000D01*
X106823619Y-115785000D02*
X106823619Y-115845000D01*
X109483619Y-115785000D02*
X109483619Y-115845000D01*
X106823619Y-115785000D02*
X109483619Y-115785000D01*
X106823619Y-114515000D02*
X106823619Y-113185000D01*
X106823619Y-113185000D02*
X108153619Y-113185000D01*
X122409619Y-115845000D02*
X125069619Y-115845000D01*
X122409619Y-115785000D02*
X122409619Y-115845000D01*
X125069619Y-115785000D02*
X125069619Y-115845000D01*
X122409619Y-115785000D02*
X125069619Y-115785000D01*
X122409619Y-114515000D02*
X122409619Y-113185000D01*
X122409619Y-113185000D02*
X123739619Y-113185000D01*
X139519619Y-115845000D02*
X142179619Y-115845000D01*
X139519619Y-115785000D02*
X139519619Y-115845000D01*
X142179619Y-115785000D02*
X142179619Y-115845000D01*
X139519619Y-115785000D02*
X142179619Y-115785000D01*
X139519619Y-114515000D02*
X139519619Y-113185000D01*
X139519619Y-113185000D02*
X140849619Y-113185000D01*
X155105619Y-115845000D02*
X157765619Y-115845000D01*
X155105619Y-115785000D02*
X155105619Y-115845000D01*
X157765619Y-115785000D02*
X157765619Y-115845000D01*
X155105619Y-115785000D02*
X157765619Y-115785000D01*
X155105619Y-114515000D02*
X155105619Y-113185000D01*
X155105619Y-113185000D02*
X156435619Y-113185000D01*
X171707619Y-115845000D02*
X174367619Y-115845000D01*
X171707619Y-115785000D02*
X171707619Y-115845000D01*
X174367619Y-115785000D02*
X174367619Y-115845000D01*
X171707619Y-115785000D02*
X174367619Y-115785000D01*
X171707619Y-114515000D02*
X171707619Y-113185000D01*
X171707619Y-113185000D02*
X173037619Y-113185000D01*
X90519619Y-67331000D02*
X93179619Y-67331000D01*
X90519619Y-67271000D02*
X90519619Y-67331000D01*
X93179619Y-67271000D02*
X93179619Y-67331000D01*
X90519619Y-67271000D02*
X93179619Y-67271000D01*
X90519619Y-66001000D02*
X90519619Y-64671000D01*
X90519619Y-64671000D02*
X91849619Y-64671000D01*
X106315619Y-67183000D02*
X108975619Y-67183000D01*
X106315619Y-67123000D02*
X106315619Y-67183000D01*
X108975619Y-67123000D02*
X108975619Y-67183000D01*
X106315619Y-67123000D02*
X108975619Y-67123000D01*
X106315619Y-65853000D02*
X106315619Y-64523000D01*
X106315619Y-64523000D02*
X107645619Y-64523000D01*
X122409619Y-67183000D02*
X125069619Y-67183000D01*
X122409619Y-67123000D02*
X122409619Y-67183000D01*
X125069619Y-67123000D02*
X125069619Y-67183000D01*
X122409619Y-67123000D02*
X125069619Y-67123000D01*
X122409619Y-65853000D02*
X122409619Y-64523000D01*
X122409619Y-64523000D02*
X123739619Y-64523000D01*
X139011619Y-67183000D02*
X141671619Y-67183000D01*
X139011619Y-67123000D02*
X139011619Y-67183000D01*
X141671619Y-67123000D02*
X141671619Y-67183000D01*
X139011619Y-67123000D02*
X141671619Y-67123000D01*
X139011619Y-65853000D02*
X139011619Y-64523000D01*
X139011619Y-64523000D02*
X140341619Y-64523000D01*
X155613619Y-67183000D02*
X158273619Y-67183000D01*
X155613619Y-67123000D02*
X155613619Y-67183000D01*
X158273619Y-67123000D02*
X158273619Y-67183000D01*
X155613619Y-67123000D02*
X158273619Y-67123000D01*
X155613619Y-65853000D02*
X155613619Y-64523000D01*
X155613619Y-64523000D02*
X156943619Y-64523000D01*
X171707619Y-67183000D02*
X174367619Y-67183000D01*
X171707619Y-67123000D02*
X171707619Y-67183000D01*
X174367619Y-67123000D02*
X174367619Y-67183000D01*
X171707619Y-67123000D02*
X174367619Y-67123000D01*
X171707619Y-65853000D02*
X171707619Y-64523000D01*
X171707619Y-64523000D02*
X173037619Y-64523000D01*
X90567619Y-86085000D02*
X93227619Y-86085000D01*
X90567619Y-86025000D02*
X90567619Y-86085000D01*
X93227619Y-86025000D02*
X93227619Y-86085000D01*
X90567619Y-86025000D02*
X93227619Y-86025000D01*
X90567619Y-84755000D02*
X90567619Y-83425000D01*
X90567619Y-83425000D02*
X91897619Y-83425000D01*
X106661619Y-86085000D02*
X109321619Y-86085000D01*
X106661619Y-86025000D02*
X106661619Y-86085000D01*
X109321619Y-86025000D02*
X109321619Y-86085000D01*
X106661619Y-86025000D02*
X109321619Y-86025000D01*
X106661619Y-84755000D02*
X106661619Y-83425000D01*
X106661619Y-83425000D02*
X107991619Y-83425000D01*
X122755619Y-86085000D02*
X125415619Y-86085000D01*
X122755619Y-86025000D02*
X122755619Y-86085000D01*
X125415619Y-86025000D02*
X125415619Y-86085000D01*
X122755619Y-86025000D02*
X125415619Y-86025000D01*
X122755619Y-84755000D02*
X122755619Y-83425000D01*
X122755619Y-83425000D02*
X124085619Y-83425000D01*
X139357619Y-86085000D02*
X142017619Y-86085000D01*
X139357619Y-86025000D02*
X139357619Y-86085000D01*
X142017619Y-86025000D02*
X142017619Y-86085000D01*
X139357619Y-86025000D02*
X142017619Y-86025000D01*
X139357619Y-84755000D02*
X139357619Y-83425000D01*
X139357619Y-83425000D02*
X140687619Y-83425000D01*
X155591619Y-86191000D02*
X158251619Y-86191000D01*
X155591619Y-86131000D02*
X155591619Y-86191000D01*
X158251619Y-86131000D02*
X158251619Y-86191000D01*
X155591619Y-86131000D02*
X158251619Y-86131000D01*
X155591619Y-84861000D02*
X155591619Y-83531000D01*
X155591619Y-83531000D02*
X156921619Y-83531000D01*
X171685619Y-86191000D02*
X174345619Y-86191000D01*
X171685619Y-86131000D02*
X171685619Y-86191000D01*
X174345619Y-86131000D02*
X174345619Y-86191000D01*
X171685619Y-86131000D02*
X174345619Y-86131000D01*
X171685619Y-84861000D02*
X171685619Y-83531000D01*
X171685619Y-83531000D02*
X173015619Y-83531000D01*
X90243619Y-106003000D02*
X92903619Y-106003000D01*
X90243619Y-105943000D02*
X90243619Y-106003000D01*
X92903619Y-105943000D02*
X92903619Y-106003000D01*
X90243619Y-105943000D02*
X92903619Y-105943000D01*
X90243619Y-104673000D02*
X90243619Y-103343000D01*
X90243619Y-103343000D02*
X91573619Y-103343000D01*
X106845619Y-106003000D02*
X109505619Y-106003000D01*
X106845619Y-105943000D02*
X106845619Y-106003000D01*
X109505619Y-105943000D02*
X109505619Y-106003000D01*
X106845619Y-105943000D02*
X109505619Y-105943000D01*
X106845619Y-104673000D02*
X106845619Y-103343000D01*
X106845619Y-103343000D02*
X108175619Y-103343000D01*
X122571619Y-106109000D02*
X125231619Y-106109000D01*
X122571619Y-106049000D02*
X122571619Y-106109000D01*
X125231619Y-106049000D02*
X125231619Y-106109000D01*
X122571619Y-106049000D02*
X125231619Y-106049000D01*
X122571619Y-104779000D02*
X122571619Y-103449000D01*
X122571619Y-103449000D02*
X123901619Y-103449000D01*
X139681619Y-106109000D02*
X142341619Y-106109000D01*
X139681619Y-106049000D02*
X139681619Y-106109000D01*
X142341619Y-106049000D02*
X142341619Y-106109000D01*
X139681619Y-106049000D02*
X142341619Y-106049000D01*
X139681619Y-104779000D02*
X139681619Y-103449000D01*
X139681619Y-103449000D02*
X141011619Y-103449000D01*
X155267619Y-106617000D02*
X157927619Y-106617000D01*
X155267619Y-106557000D02*
X155267619Y-106617000D01*
X157927619Y-106557000D02*
X157927619Y-106617000D01*
X155267619Y-106557000D02*
X157927619Y-106557000D01*
X155267619Y-105287000D02*
X155267619Y-103957000D01*
X155267619Y-103957000D02*
X156597619Y-103957000D01*
X171847619Y-106469000D02*
X174507619Y-106469000D01*
X171847619Y-106409000D02*
X171847619Y-106469000D01*
X174507619Y-106409000D02*
X174507619Y-106469000D01*
X171847619Y-106409000D02*
X174507619Y-106409000D01*
X171847619Y-105139000D02*
X171847619Y-103809000D01*
X171847619Y-103809000D02*
X173177619Y-103809000D01*
X152381619Y-127297000D02*
X155041619Y-127297000D01*
X152381619Y-127237000D02*
X152381619Y-127297000D01*
X155041619Y-127237000D02*
X155041619Y-127297000D01*
X152381619Y-127237000D02*
X155041619Y-127237000D01*
X152381619Y-125967000D02*
X152381619Y-124637000D01*
X152381619Y-124637000D02*
X153711619Y-124637000D01*
X152543619Y-133753000D02*
X155203619Y-133753000D01*
X152543619Y-133693000D02*
X152543619Y-133753000D01*
X155203619Y-133693000D02*
X155203619Y-133753000D01*
X152543619Y-133693000D02*
X155203619Y-133693000D01*
X152543619Y-132423000D02*
X152543619Y-131093000D01*
X152543619Y-131093000D02*
X153873619Y-131093000D01*
X152670619Y-140590000D02*
X155330619Y-140590000D01*
X152670619Y-140530000D02*
X152670619Y-140590000D01*
X155330619Y-140530000D02*
X155330619Y-140590000D01*
X152670619Y-140530000D02*
X155330619Y-140530000D01*
X152670619Y-139260000D02*
X152670619Y-137930000D01*
X152670619Y-137930000D02*
X154000619Y-137930000D01*
X170113619Y-127423000D02*
X172773619Y-127423000D01*
X170113619Y-127363000D02*
X170113619Y-127423000D01*
X172773619Y-127363000D02*
X172773619Y-127423000D01*
X170113619Y-127363000D02*
X172773619Y-127363000D01*
X170113619Y-126093000D02*
X170113619Y-124763000D01*
X170113619Y-124763000D02*
X171443619Y-124763000D01*
X170161619Y-134261000D02*
X172821619Y-134261000D01*
X170161619Y-134201000D02*
X170161619Y-134261000D01*
X172821619Y-134201000D02*
X172821619Y-134261000D01*
X170161619Y-134201000D02*
X172821619Y-134201000D01*
X170161619Y-132931000D02*
X170161619Y-131601000D01*
X170161619Y-131601000D02*
X171491619Y-131601000D01*
X170078619Y-140652000D02*
X172738619Y-140652000D01*
X170078619Y-140592000D02*
X170078619Y-140652000D01*
X172738619Y-140592000D02*
X172738619Y-140652000D01*
X170078619Y-140592000D02*
X172738619Y-140592000D01*
X170078619Y-139322000D02*
X170078619Y-137992000D01*
X170078619Y-137992000D02*
X171408619Y-137992000D01*
X161617619Y-127297000D02*
X164277619Y-127297000D01*
X161617619Y-127237000D02*
X161617619Y-127297000D01*
X164277619Y-127237000D02*
X164277619Y-127297000D01*
X161617619Y-127237000D02*
X164277619Y-127237000D01*
X161617619Y-125967000D02*
X161617619Y-124637000D01*
X161617619Y-124637000D02*
X162947619Y-124637000D01*
X161801619Y-133837000D02*
X164461619Y-133837000D01*
X161801619Y-133777000D02*
X161801619Y-133837000D01*
X164461619Y-133777000D02*
X164461619Y-133837000D01*
X161801619Y-133777000D02*
X164461619Y-133777000D01*
X161801619Y-132507000D02*
X161801619Y-131177000D01*
X161801619Y-131177000D02*
X163131619Y-131177000D01*
X161893619Y-140589000D02*
X164553619Y-140589000D01*
X161893619Y-140529000D02*
X161893619Y-140589000D01*
X164553619Y-140529000D02*
X164553619Y-140589000D01*
X161893619Y-140529000D02*
X164553619Y-140529000D01*
X161893619Y-139259000D02*
X161893619Y-137929000D01*
X161893619Y-137929000D02*
X163223619Y-137929000D01*
D12*
G36*
X98086088Y-136309749D02*
X98086333Y-136330022D01*
X98000378Y-136690281D01*
X97778603Y-137302668D01*
X97475145Y-138040990D01*
X97144140Y-138779054D01*
X96839724Y-139390666D01*
X96622728Y-139741737D01*
X96249467Y-139996601D01*
X95804046Y-140076249D01*
X95447579Y-139977956D01*
X95334666Y-139763500D01*
X95509575Y-139501578D01*
X95735354Y-139446000D01*
X96103573Y-139346888D01*
X96228947Y-139020402D01*
X96113915Y-138422814D01*
X95833849Y-137680673D01*
X95526277Y-136835996D01*
X95457891Y-136311140D01*
X95627270Y-136077613D01*
X95752985Y-136059333D01*
X95927197Y-136239330D01*
X96167791Y-136697696D01*
X96302168Y-137021658D01*
X96556924Y-137596939D01*
X96763018Y-137781483D01*
X96963166Y-137567534D01*
X97200086Y-136947333D01*
X97230512Y-136853083D01*
X97461277Y-136378234D01*
X97741108Y-136092533D01*
X97979536Y-136051274D01*
X98086088Y-136309749D01*
X98086088Y-136309749D01*
G37*
X98086088Y-136309749D02*
X98086333Y-136330022D01*
X98000378Y-136690281D01*
X97778603Y-137302668D01*
X97475145Y-138040990D01*
X97144140Y-138779054D01*
X96839724Y-139390666D01*
X96622728Y-139741737D01*
X96249467Y-139996601D01*
X95804046Y-140076249D01*
X95447579Y-139977956D01*
X95334666Y-139763500D01*
X95509575Y-139501578D01*
X95735354Y-139446000D01*
X96103573Y-139346888D01*
X96228947Y-139020402D01*
X96113915Y-138422814D01*
X95833849Y-137680673D01*
X95526277Y-136835996D01*
X95457891Y-136311140D01*
X95627270Y-136077613D01*
X95752985Y-136059333D01*
X95927197Y-136239330D01*
X96167791Y-136697696D01*
X96302168Y-137021658D01*
X96556924Y-137596939D01*
X96763018Y-137781483D01*
X96963166Y-137567534D01*
X97200086Y-136947333D01*
X97230512Y-136853083D01*
X97461277Y-136378234D01*
X97741108Y-136092533D01*
X97979536Y-136051274D01*
X98086088Y-136309749D01*
G36*
X136689604Y-136237391D02*
X136721852Y-136281278D01*
X136961389Y-136374622D01*
X137162792Y-136251115D01*
X137440256Y-136100748D01*
X137623381Y-136226046D01*
X137728185Y-136670054D01*
X137770686Y-137475817D01*
X137773833Y-137893201D01*
X137756034Y-138746571D01*
X137687434Y-139282282D01*
X137545230Y-139605085D01*
X137362960Y-139780563D01*
X136716189Y-140033444D01*
X135946535Y-140045326D01*
X135277696Y-139816502D01*
X135221372Y-139777749D01*
X134951745Y-139495479D01*
X135039844Y-139242893D01*
X135066112Y-139215220D01*
X135354426Y-139063224D01*
X135636545Y-139217219D01*
X136113144Y-139414565D01*
X136607513Y-139350760D01*
X136947593Y-139063755D01*
X136998466Y-138916833D01*
X137011027Y-138634969D01*
X136844423Y-138715918D01*
X136799545Y-138758083D01*
X136276153Y-139001994D01*
X135677935Y-138922419D01*
X135266639Y-138635583D01*
X134988466Y-138072333D01*
X134943742Y-137541000D01*
X135551333Y-137541000D01*
X135701107Y-137987310D01*
X136058779Y-138287557D01*
X136486878Y-138390024D01*
X136847930Y-138242990D01*
X136956637Y-138069693D01*
X137014227Y-137556533D01*
X136872188Y-137056775D01*
X136593199Y-136736093D01*
X136436300Y-136694333D01*
X135911345Y-136871351D01*
X135589616Y-137306120D01*
X135551333Y-137541000D01*
X134943742Y-137541000D01*
X134929269Y-137369062D01*
X135085889Y-136716920D01*
X135303416Y-136409639D01*
X135792778Y-136134520D01*
X136313157Y-136071826D01*
X136689604Y-136237391D01*
X136689604Y-136237391D01*
G37*
X136689604Y-136237391D02*
X136721852Y-136281278D01*
X136961389Y-136374622D01*
X137162792Y-136251115D01*
X137440256Y-136100748D01*
X137623381Y-136226046D01*
X137728185Y-136670054D01*
X137770686Y-137475817D01*
X137773833Y-137893201D01*
X137756034Y-138746571D01*
X137687434Y-139282282D01*
X137545230Y-139605085D01*
X137362960Y-139780563D01*
X136716189Y-140033444D01*
X135946535Y-140045326D01*
X135277696Y-139816502D01*
X135221372Y-139777749D01*
X134951745Y-139495479D01*
X135039844Y-139242893D01*
X135066112Y-139215220D01*
X135354426Y-139063224D01*
X135636545Y-139217219D01*
X136113144Y-139414565D01*
X136607513Y-139350760D01*
X136947593Y-139063755D01*
X136998466Y-138916833D01*
X137011027Y-138634969D01*
X136844423Y-138715918D01*
X136799545Y-138758083D01*
X136276153Y-139001994D01*
X135677935Y-138922419D01*
X135266639Y-138635583D01*
X134988466Y-138072333D01*
X134943742Y-137541000D01*
X135551333Y-137541000D01*
X135701107Y-137987310D01*
X136058779Y-138287557D01*
X136486878Y-138390024D01*
X136847930Y-138242990D01*
X136956637Y-138069693D01*
X137014227Y-137556533D01*
X136872188Y-137056775D01*
X136593199Y-136736093D01*
X136436300Y-136694333D01*
X135911345Y-136871351D01*
X135589616Y-137306120D01*
X135551333Y-137541000D01*
X134943742Y-137541000D01*
X134929269Y-137369062D01*
X135085889Y-136716920D01*
X135303416Y-136409639D01*
X135792778Y-136134520D01*
X136313157Y-136071826D01*
X136689604Y-136237391D01*
G36*
X94253842Y-135217492D02*
X94662903Y-135596171D01*
X94728641Y-135720898D01*
X94819948Y-136268718D01*
X94664344Y-136773762D01*
X94325860Y-137082993D01*
X94144236Y-137117667D01*
X93993876Y-137194019D01*
X94120906Y-137462053D01*
X94363350Y-137768907D01*
X94714583Y-138256796D01*
X94901813Y-138654204D01*
X94911333Y-138721407D01*
X94800047Y-139003562D01*
X94515338Y-138976559D01*
X94130933Y-138674936D01*
X93747166Y-138176000D01*
X93260529Y-137559225D01*
X92840591Y-137319354D01*
X92523481Y-137458154D01*
X92345325Y-137977391D01*
X92331193Y-138106721D01*
X92208057Y-138652748D01*
X91994239Y-138961220D01*
X91760027Y-138967773D01*
X91621091Y-138756976D01*
X91573786Y-138411711D01*
X91553025Y-137769804D01*
X91562193Y-136957315D01*
X91568063Y-136781457D01*
X91591040Y-136165167D01*
X92371333Y-136165167D01*
X92411071Y-136525093D01*
X92612093Y-136664729D01*
X93097108Y-136659674D01*
X93165083Y-136654194D01*
X93705223Y-136560908D01*
X93930532Y-136358730D01*
X93958833Y-136165167D01*
X93867742Y-135869553D01*
X93523623Y-135720907D01*
X93165083Y-135676139D01*
X92645358Y-135660896D01*
X92421748Y-135782876D01*
X92371541Y-136117679D01*
X92371333Y-136165167D01*
X91591040Y-136165167D01*
X91630500Y-135106833D01*
X92566021Y-135039990D01*
X93575178Y-135038490D01*
X94253842Y-135217492D01*
X94253842Y-135217492D01*
G37*
X94253842Y-135217492D02*
X94662903Y-135596171D01*
X94728641Y-135720898D01*
X94819948Y-136268718D01*
X94664344Y-136773762D01*
X94325860Y-137082993D01*
X94144236Y-137117667D01*
X93993876Y-137194019D01*
X94120906Y-137462053D01*
X94363350Y-137768907D01*
X94714583Y-138256796D01*
X94901813Y-138654204D01*
X94911333Y-138721407D01*
X94800047Y-139003562D01*
X94515338Y-138976559D01*
X94130933Y-138674936D01*
X93747166Y-138176000D01*
X93260529Y-137559225D01*
X92840591Y-137319354D01*
X92523481Y-137458154D01*
X92345325Y-137977391D01*
X92331193Y-138106721D01*
X92208057Y-138652748D01*
X91994239Y-138961220D01*
X91760027Y-138967773D01*
X91621091Y-138756976D01*
X91573786Y-138411711D01*
X91553025Y-137769804D01*
X91562193Y-136957315D01*
X91568063Y-136781457D01*
X91591040Y-136165167D01*
X92371333Y-136165167D01*
X92411071Y-136525093D01*
X92612093Y-136664729D01*
X93097108Y-136659674D01*
X93165083Y-136654194D01*
X93705223Y-136560908D01*
X93930532Y-136358730D01*
X93958833Y-136165167D01*
X93867742Y-135869553D01*
X93523623Y-135720907D01*
X93165083Y-135676139D01*
X92645358Y-135660896D01*
X92421748Y-135782876D01*
X92371541Y-136117679D01*
X92371333Y-136165167D01*
X91591040Y-136165167D01*
X91630500Y-135106833D01*
X92566021Y-135039990D01*
X93575178Y-135038490D01*
X94253842Y-135217492D01*
G36*
X100577851Y-136156741D02*
X101011201Y-136491787D01*
X101233316Y-137128700D01*
X101288844Y-137694811D01*
X101291829Y-138487813D01*
X101194104Y-138900046D01*
X100978419Y-138965764D01*
X100728311Y-138807800D01*
X100386647Y-138645161D01*
X100151695Y-138777637D01*
X99676696Y-138997016D01*
X99107806Y-138962576D01*
X98763666Y-138768667D01*
X98537740Y-138332361D01*
X98552289Y-138094853D01*
X99356333Y-138094853D01*
X99504853Y-138340830D01*
X99844720Y-138368052D01*
X100217395Y-138196072D01*
X100414666Y-137964333D01*
X100537561Y-137654946D01*
X100405233Y-137558819D01*
X99951694Y-137643085D01*
X99832583Y-137674410D01*
X99461349Y-137883816D01*
X99356333Y-138094853D01*
X98552289Y-138094853D01*
X98566208Y-137867640D01*
X98755773Y-137625548D01*
X99131488Y-137475180D01*
X99639531Y-137343032D01*
X100130263Y-137167217D01*
X100359287Y-136944688D01*
X100286938Y-136759547D01*
X99945472Y-136694333D01*
X99451883Y-136787210D01*
X99205443Y-136929890D01*
X98866673Y-137057617D01*
X98725987Y-137014710D01*
X98617142Y-136779017D01*
X98809505Y-136488423D01*
X99203810Y-136225260D01*
X99700794Y-136071859D01*
X99877849Y-136059333D01*
X100577851Y-136156741D01*
X100577851Y-136156741D01*
G37*
X100577851Y-136156741D02*
X101011201Y-136491787D01*
X101233316Y-137128700D01*
X101288844Y-137694811D01*
X101291829Y-138487813D01*
X101194104Y-138900046D01*
X100978419Y-138965764D01*
X100728311Y-138807800D01*
X100386647Y-138645161D01*
X100151695Y-138777637D01*
X99676696Y-138997016D01*
X99107806Y-138962576D01*
X98763666Y-138768667D01*
X98537740Y-138332361D01*
X98552289Y-138094853D01*
X99356333Y-138094853D01*
X99504853Y-138340830D01*
X99844720Y-138368052D01*
X100217395Y-138196072D01*
X100414666Y-137964333D01*
X100537561Y-137654946D01*
X100405233Y-137558819D01*
X99951694Y-137643085D01*
X99832583Y-137674410D01*
X99461349Y-137883816D01*
X99356333Y-138094853D01*
X98552289Y-138094853D01*
X98566208Y-137867640D01*
X98755773Y-137625548D01*
X99131488Y-137475180D01*
X99639531Y-137343032D01*
X100130263Y-137167217D01*
X100359287Y-136944688D01*
X100286938Y-136759547D01*
X99945472Y-136694333D01*
X99451883Y-136787210D01*
X99205443Y-136929890D01*
X98866673Y-137057617D01*
X98725987Y-137014710D01*
X98617142Y-136779017D01*
X98809505Y-136488423D01*
X99203810Y-136225260D01*
X99700794Y-136071859D01*
X99877849Y-136059333D01*
X100577851Y-136156741D01*
G36*
X103881783Y-136127043D02*
X104315380Y-136391952D01*
X104507981Y-136781380D01*
X104621555Y-137385679D01*
X104649513Y-138048625D01*
X104585264Y-138613992D01*
X104422250Y-138925537D01*
X104140312Y-138977403D01*
X103995486Y-138675458D01*
X103972949Y-138017807D01*
X103915267Y-137220245D01*
X103666301Y-136794712D01*
X103246803Y-136728261D01*
X102982918Y-136883899D01*
X102823338Y-137289711D01*
X102743000Y-137843924D01*
X102605075Y-138580586D01*
X102388376Y-138957036D01*
X102111465Y-138945686D01*
X102041854Y-138885965D01*
X101944790Y-138582629D01*
X101900863Y-138021469D01*
X101905971Y-137350758D01*
X101956012Y-136718772D01*
X102046885Y-136273785D01*
X102117272Y-136159436D01*
X102446866Y-136159027D01*
X102627594Y-136263056D01*
X102935809Y-136384494D01*
X103054147Y-136281278D01*
X103394549Y-136078180D01*
X103881783Y-136127043D01*
X103881783Y-136127043D01*
G37*
X103881783Y-136127043D02*
X104315380Y-136391952D01*
X104507981Y-136781380D01*
X104621555Y-137385679D01*
X104649513Y-138048625D01*
X104585264Y-138613992D01*
X104422250Y-138925537D01*
X104140312Y-138977403D01*
X103995486Y-138675458D01*
X103972949Y-138017807D01*
X103915267Y-137220245D01*
X103666301Y-136794712D01*
X103246803Y-136728261D01*
X102982918Y-136883899D01*
X102823338Y-137289711D01*
X102743000Y-137843924D01*
X102605075Y-138580586D01*
X102388376Y-138957036D01*
X102111465Y-138945686D01*
X102041854Y-138885965D01*
X101944790Y-138582629D01*
X101900863Y-138021469D01*
X101905971Y-137350758D01*
X101956012Y-136718772D01*
X102046885Y-136273785D01*
X102117272Y-136159436D01*
X102446866Y-136159027D01*
X102627594Y-136263056D01*
X102935809Y-136384494D01*
X103054147Y-136281278D01*
X103394549Y-136078180D01*
X103881783Y-136127043D01*
G36*
X109172285Y-135236846D02*
X109600928Y-135607025D01*
X109728000Y-136023083D01*
X109584860Y-136243463D01*
X109257675Y-136222469D01*
X108899800Y-135974411D01*
X108872856Y-135943285D01*
X108505358Y-135716333D01*
X108080792Y-135700869D01*
X107773306Y-135879545D01*
X107717166Y-136058410D01*
X107904616Y-136324925D01*
X108386384Y-136588615D01*
X108551635Y-136648370D01*
X109345287Y-136964764D01*
X109784680Y-137299769D01*
X109937328Y-137708356D01*
X109939666Y-137778584D01*
X109755128Y-138347126D01*
X109277659Y-138761110D01*
X108621477Y-138981911D01*
X107900799Y-138970906D01*
X107235097Y-138693164D01*
X106913154Y-138338624D01*
X106771515Y-137935435D01*
X106835368Y-137625965D01*
X107031250Y-137541000D01*
X107339494Y-137703157D01*
X107570390Y-137977430D01*
X107933935Y-138284863D01*
X108393549Y-138368583D01*
X108795405Y-138240044D01*
X108985676Y-137910696D01*
X108987166Y-137871955D01*
X108832038Y-137528562D01*
X108325420Y-137293106D01*
X108246333Y-137271838D01*
X107439427Y-136952220D01*
X106939967Y-136520288D01*
X106778228Y-136034166D01*
X106984486Y-135551975D01*
X107235097Y-135330502D01*
X107869737Y-135065348D01*
X108555344Y-135045208D01*
X109172285Y-135236846D01*
X109172285Y-135236846D01*
G37*
X109172285Y-135236846D02*
X109600928Y-135607025D01*
X109728000Y-136023083D01*
X109584860Y-136243463D01*
X109257675Y-136222469D01*
X108899800Y-135974411D01*
X108872856Y-135943285D01*
X108505358Y-135716333D01*
X108080792Y-135700869D01*
X107773306Y-135879545D01*
X107717166Y-136058410D01*
X107904616Y-136324925D01*
X108386384Y-136588615D01*
X108551635Y-136648370D01*
X109345287Y-136964764D01*
X109784680Y-137299769D01*
X109937328Y-137708356D01*
X109939666Y-137778584D01*
X109755128Y-138347126D01*
X109277659Y-138761110D01*
X108621477Y-138981911D01*
X107900799Y-138970906D01*
X107235097Y-138693164D01*
X106913154Y-138338624D01*
X106771515Y-137935435D01*
X106835368Y-137625965D01*
X107031250Y-137541000D01*
X107339494Y-137703157D01*
X107570390Y-137977430D01*
X107933935Y-138284863D01*
X108393549Y-138368583D01*
X108795405Y-138240044D01*
X108985676Y-137910696D01*
X108987166Y-137871955D01*
X108832038Y-137528562D01*
X108325420Y-137293106D01*
X108246333Y-137271838D01*
X107439427Y-136952220D01*
X106939967Y-136520288D01*
X106778228Y-136034166D01*
X106984486Y-135551975D01*
X107235097Y-135330502D01*
X107869737Y-135065348D01*
X108555344Y-135045208D01*
X109172285Y-135236846D01*
G36*
X112419210Y-136164874D02*
X112911127Y-136433524D01*
X113114371Y-136793325D01*
X113114666Y-136807614D01*
X112982543Y-137085347D01*
X112598732Y-137035973D01*
X112293166Y-136872594D01*
X111759075Y-136701613D01*
X111385852Y-136897050D01*
X111241137Y-137412383D01*
X111249063Y-137590728D01*
X111438727Y-138158726D01*
X111820015Y-138366983D01*
X112325750Y-138190768D01*
X112500416Y-138051388D01*
X112919963Y-137811545D01*
X113174814Y-137890050D01*
X113187890Y-138191082D01*
X112924166Y-138578166D01*
X112310223Y-138934231D01*
X111585371Y-139001207D01*
X110940525Y-138761824D01*
X110935473Y-138758083D01*
X110637881Y-138364637D01*
X110455141Y-137855159D01*
X110498439Y-137180209D01*
X110824924Y-136571292D01*
X111338581Y-136159732D01*
X111768111Y-136059333D01*
X112419210Y-136164874D01*
X112419210Y-136164874D01*
G37*
X112419210Y-136164874D02*
X112911127Y-136433524D01*
X113114371Y-136793325D01*
X113114666Y-136807614D01*
X112982543Y-137085347D01*
X112598732Y-137035973D01*
X112293166Y-136872594D01*
X111759075Y-136701613D01*
X111385852Y-136897050D01*
X111241137Y-137412383D01*
X111249063Y-137590728D01*
X111438727Y-138158726D01*
X111820015Y-138366983D01*
X112325750Y-138190768D01*
X112500416Y-138051388D01*
X112919963Y-137811545D01*
X113174814Y-137890050D01*
X113187890Y-138191082D01*
X112924166Y-138578166D01*
X112310223Y-138934231D01*
X111585371Y-139001207D01*
X110940525Y-138761824D01*
X110935473Y-138758083D01*
X110637881Y-138364637D01*
X110455141Y-137855159D01*
X110498439Y-137180209D01*
X110824924Y-136571292D01*
X111338581Y-136159732D01*
X111768111Y-136059333D01*
X112419210Y-136164874D01*
G36*
X114529208Y-135187386D02*
X114596333Y-135645591D01*
X114626428Y-136071928D01*
X114801423Y-136216147D01*
X115248385Y-136167737D01*
X115319075Y-136154595D01*
X115854698Y-136109941D01*
X116190164Y-136287317D01*
X116390424Y-136551047D01*
X116597236Y-137062429D01*
X116683714Y-137687402D01*
X116655509Y-138293227D01*
X116518276Y-138747165D01*
X116289666Y-138916833D01*
X116072138Y-138774856D01*
X115945683Y-138307893D01*
X115907192Y-137900146D01*
X115756141Y-137150059D01*
X115474580Y-136756252D01*
X115141186Y-136706964D01*
X114834632Y-136990437D01*
X114633594Y-137594910D01*
X114596333Y-138096084D01*
X114552489Y-138714448D01*
X114404211Y-138990273D01*
X114278833Y-139022667D01*
X114127483Y-138950700D01*
X114031704Y-138687491D01*
X113980288Y-138162071D01*
X113962031Y-137303474D01*
X113961333Y-137011833D01*
X113972696Y-136053287D01*
X114014255Y-135446682D01*
X114097216Y-135121049D01*
X114232784Y-135005422D01*
X114278833Y-135001000D01*
X114529208Y-135187386D01*
X114529208Y-135187386D01*
G37*
X114529208Y-135187386D02*
X114596333Y-135645591D01*
X114626428Y-136071928D01*
X114801423Y-136216147D01*
X115248385Y-136167737D01*
X115319075Y-136154595D01*
X115854698Y-136109941D01*
X116190164Y-136287317D01*
X116390424Y-136551047D01*
X116597236Y-137062429D01*
X116683714Y-137687402D01*
X116655509Y-138293227D01*
X116518276Y-138747165D01*
X116289666Y-138916833D01*
X116072138Y-138774856D01*
X115945683Y-138307893D01*
X115907192Y-137900146D01*
X115756141Y-137150059D01*
X115474580Y-136756252D01*
X115141186Y-136706964D01*
X114834632Y-136990437D01*
X114633594Y-137594910D01*
X114596333Y-138096084D01*
X114552489Y-138714448D01*
X114404211Y-138990273D01*
X114278833Y-139022667D01*
X114127483Y-138950700D01*
X114031704Y-138687491D01*
X113980288Y-138162071D01*
X113962031Y-137303474D01*
X113961333Y-137011833D01*
X113972696Y-136053287D01*
X114014255Y-135446682D01*
X114097216Y-135121049D01*
X114232784Y-135005422D01*
X114278833Y-135001000D01*
X114529208Y-135187386D01*
G36*
X119166425Y-136084734D02*
X119590731Y-136286780D01*
X119623643Y-136323917D01*
X119773527Y-136690897D01*
X119885311Y-137279499D01*
X119947212Y-137942490D01*
X119947443Y-138532638D01*
X119874219Y-138902710D01*
X119833872Y-138950286D01*
X119561073Y-138918886D01*
X119467920Y-138816264D01*
X119232156Y-138663250D01*
X118870500Y-138789146D01*
X118174884Y-139006876D01*
X117587270Y-138902364D01*
X117356429Y-138715324D01*
X117194313Y-138245825D01*
X117250754Y-138093113D01*
X117983000Y-138093113D01*
X118139556Y-138333021D01*
X118499594Y-138367890D01*
X118898669Y-138202063D01*
X119045578Y-138065051D01*
X119217237Y-137753820D01*
X119202305Y-137631417D01*
X118900866Y-137574868D01*
X118465958Y-137691427D01*
X118096912Y-137905618D01*
X117983000Y-138093113D01*
X117250754Y-138093113D01*
X117367125Y-137778252D01*
X117810448Y-137455007D01*
X117944190Y-137415985D01*
X118667181Y-137243807D01*
X119049857Y-137112421D01*
X119168644Y-136988199D01*
X119137748Y-136890761D01*
X118834300Y-136729802D01*
X118365820Y-136707696D01*
X117966195Y-136821616D01*
X117877166Y-136906000D01*
X117606820Y-137109997D01*
X117384770Y-136985068D01*
X117348000Y-136807614D01*
X117533478Y-136458303D01*
X117994144Y-136201030D01*
X118586345Y-136066329D01*
X119166425Y-136084734D01*
X119166425Y-136084734D01*
G37*
X119166425Y-136084734D02*
X119590731Y-136286780D01*
X119623643Y-136323917D01*
X119773527Y-136690897D01*
X119885311Y-137279499D01*
X119947212Y-137942490D01*
X119947443Y-138532638D01*
X119874219Y-138902710D01*
X119833872Y-138950286D01*
X119561073Y-138918886D01*
X119467920Y-138816264D01*
X119232156Y-138663250D01*
X118870500Y-138789146D01*
X118174884Y-139006876D01*
X117587270Y-138902364D01*
X117356429Y-138715324D01*
X117194313Y-138245825D01*
X117250754Y-138093113D01*
X117983000Y-138093113D01*
X118139556Y-138333021D01*
X118499594Y-138367890D01*
X118898669Y-138202063D01*
X119045578Y-138065051D01*
X119217237Y-137753820D01*
X119202305Y-137631417D01*
X118900866Y-137574868D01*
X118465958Y-137691427D01*
X118096912Y-137905618D01*
X117983000Y-138093113D01*
X117250754Y-138093113D01*
X117367125Y-137778252D01*
X117810448Y-137455007D01*
X117944190Y-137415985D01*
X118667181Y-137243807D01*
X119049857Y-137112421D01*
X119168644Y-136988199D01*
X119137748Y-136890761D01*
X118834300Y-136729802D01*
X118365820Y-136707696D01*
X117966195Y-136821616D01*
X117877166Y-136906000D01*
X117606820Y-137109997D01*
X117384770Y-136985068D01*
X117348000Y-136807614D01*
X117533478Y-136458303D01*
X117994144Y-136201030D01*
X118586345Y-136066329D01*
X119166425Y-136084734D01*
G36*
X122664621Y-136237462D02*
X123098766Y-136400839D01*
X123341955Y-136288378D01*
X123814628Y-136072006D01*
X124353666Y-136143612D01*
X124751212Y-136473666D01*
X124760189Y-136489871D01*
X124905882Y-136980224D01*
X124946438Y-137604384D01*
X124893968Y-138225993D01*
X124760580Y-138708690D01*
X124558383Y-138916118D01*
X124544666Y-138916833D01*
X124337779Y-138788007D01*
X124214328Y-138356149D01*
X124163188Y-137805583D01*
X124079872Y-137088602D01*
X123925268Y-136743276D01*
X123800218Y-136694333D01*
X123435845Y-136888627D01*
X123176782Y-137411661D01*
X123064622Y-138173667D01*
X123063000Y-138285557D01*
X123003546Y-138824474D01*
X122860529Y-138998565D01*
X122686969Y-138843698D01*
X122535884Y-138395742D01*
X122468858Y-137883601D01*
X122353259Y-137154469D01*
X122133161Y-136785273D01*
X122089313Y-136762747D01*
X121778096Y-136718473D01*
X121576202Y-136922754D01*
X121441155Y-137443743D01*
X121378409Y-137903389D01*
X121241287Y-138560321D01*
X121041829Y-138926413D01*
X120821701Y-138955969D01*
X120654912Y-138696801D01*
X120576205Y-138287193D01*
X120529024Y-137646887D01*
X120523000Y-137324513D01*
X120588286Y-136579599D01*
X120769101Y-136163684D01*
X121042877Y-136112994D01*
X121203606Y-136231939D01*
X121540803Y-136329958D01*
X121820163Y-136204914D01*
X122241474Y-136068589D01*
X122664621Y-136237462D01*
X122664621Y-136237462D01*
G37*
X122664621Y-136237462D02*
X123098766Y-136400839D01*
X123341955Y-136288378D01*
X123814628Y-136072006D01*
X124353666Y-136143612D01*
X124751212Y-136473666D01*
X124760189Y-136489871D01*
X124905882Y-136980224D01*
X124946438Y-137604384D01*
X124893968Y-138225993D01*
X124760580Y-138708690D01*
X124558383Y-138916118D01*
X124544666Y-138916833D01*
X124337779Y-138788007D01*
X124214328Y-138356149D01*
X124163188Y-137805583D01*
X124079872Y-137088602D01*
X123925268Y-136743276D01*
X123800218Y-136694333D01*
X123435845Y-136888627D01*
X123176782Y-137411661D01*
X123064622Y-138173667D01*
X123063000Y-138285557D01*
X123003546Y-138824474D01*
X122860529Y-138998565D01*
X122686969Y-138843698D01*
X122535884Y-138395742D01*
X122468858Y-137883601D01*
X122353259Y-137154469D01*
X122133161Y-136785273D01*
X122089313Y-136762747D01*
X121778096Y-136718473D01*
X121576202Y-136922754D01*
X121441155Y-137443743D01*
X121378409Y-137903389D01*
X121241287Y-138560321D01*
X121041829Y-138926413D01*
X120821701Y-138955969D01*
X120654912Y-138696801D01*
X120576205Y-138287193D01*
X120529024Y-137646887D01*
X120523000Y-137324513D01*
X120588286Y-136579599D01*
X120769101Y-136163684D01*
X121042877Y-136112994D01*
X121203606Y-136231939D01*
X121540803Y-136329958D01*
X121820163Y-136204914D01*
X122241474Y-136068589D01*
X122664621Y-136237462D01*
G36*
X126291546Y-135306116D02*
X126451034Y-135847667D01*
X126562010Y-136305110D01*
X126699149Y-136361377D01*
X126728109Y-136323917D01*
X127096406Y-136091483D01*
X127619082Y-136105695D01*
X128117491Y-136351846D01*
X128216027Y-136446417D01*
X128494199Y-137009666D01*
X128553396Y-137712937D01*
X128396777Y-138365080D01*
X128179249Y-138672361D01*
X127622160Y-138973352D01*
X127048678Y-138976556D01*
X126727556Y-138792557D01*
X126472058Y-138676919D01*
X126355231Y-138792557D01*
X126050257Y-139012302D01*
X125755325Y-138859395D01*
X125692670Y-138739374D01*
X125648611Y-138403071D01*
X125631554Y-137814996D01*
X126448948Y-137814996D01*
X126571148Y-138225051D01*
X126590777Y-138246555D01*
X126985123Y-138385663D01*
X127463190Y-138273208D01*
X127711227Y-138080335D01*
X127894984Y-137624909D01*
X127800645Y-137177472D01*
X127513155Y-136847066D01*
X127117463Y-136742731D01*
X126784909Y-136891275D01*
X126530846Y-137296091D01*
X126448948Y-137814996D01*
X125631554Y-137814996D01*
X125630206Y-137768536D01*
X125640398Y-136960260D01*
X125646397Y-136781457D01*
X125695907Y-135910588D01*
X125775559Y-135390522D01*
X125901759Y-135148950D01*
X126026333Y-135106833D01*
X126291546Y-135306116D01*
X126291546Y-135306116D01*
G37*
X126291546Y-135306116D02*
X126451034Y-135847667D01*
X126562010Y-136305110D01*
X126699149Y-136361377D01*
X126728109Y-136323917D01*
X127096406Y-136091483D01*
X127619082Y-136105695D01*
X128117491Y-136351846D01*
X128216027Y-136446417D01*
X128494199Y-137009666D01*
X128553396Y-137712937D01*
X128396777Y-138365080D01*
X128179249Y-138672361D01*
X127622160Y-138973352D01*
X127048678Y-138976556D01*
X126727556Y-138792557D01*
X126472058Y-138676919D01*
X126355231Y-138792557D01*
X126050257Y-139012302D01*
X125755325Y-138859395D01*
X125692670Y-138739374D01*
X125648611Y-138403071D01*
X125631554Y-137814996D01*
X126448948Y-137814996D01*
X126571148Y-138225051D01*
X126590777Y-138246555D01*
X126985123Y-138385663D01*
X127463190Y-138273208D01*
X127711227Y-138080335D01*
X127894984Y-137624909D01*
X127800645Y-137177472D01*
X127513155Y-136847066D01*
X127117463Y-136742731D01*
X126784909Y-136891275D01*
X126530846Y-137296091D01*
X126448948Y-137814996D01*
X125631554Y-137814996D01*
X125630206Y-137768536D01*
X125640398Y-136960260D01*
X125646397Y-136781457D01*
X125695907Y-135910588D01*
X125775559Y-135390522D01*
X125901759Y-135148950D01*
X126026333Y-135106833D01*
X126291546Y-135306116D01*
G36*
X131381995Y-136355235D02*
X131542680Y-136495681D01*
X131905652Y-137000450D01*
X131867057Y-137378519D01*
X131431751Y-137621644D01*
X130826258Y-137711902D01*
X130155451Y-137803598D01*
X129890379Y-137965148D01*
X129892241Y-138029402D01*
X130162650Y-138272049D01*
X130631797Y-138352577D01*
X131098962Y-138249033D01*
X131214545Y-138174026D01*
X131592640Y-138005122D01*
X131796066Y-138142570D01*
X131725575Y-138476163D01*
X131616482Y-138620347D01*
X131048546Y-138964374D01*
X130361857Y-138975438D01*
X129689387Y-138660936D01*
X129509212Y-138503121D01*
X129078184Y-137894932D01*
X129052151Y-137290770D01*
X129178324Y-137064750D01*
X129889250Y-137064750D01*
X129999395Y-137265471D01*
X130471333Y-137329333D01*
X130956529Y-137259444D01*
X131053416Y-137064750D01*
X130798289Y-136858141D01*
X130471333Y-136800167D01*
X130052402Y-136899947D01*
X129889250Y-137064750D01*
X129178324Y-137064750D01*
X129427980Y-136617531D01*
X129428362Y-136617045D01*
X130018757Y-136164725D01*
X130712292Y-136075026D01*
X131381995Y-136355235D01*
X131381995Y-136355235D01*
G37*
X131381995Y-136355235D02*
X131542680Y-136495681D01*
X131905652Y-137000450D01*
X131867057Y-137378519D01*
X131431751Y-137621644D01*
X130826258Y-137711902D01*
X130155451Y-137803598D01*
X129890379Y-137965148D01*
X129892241Y-138029402D01*
X130162650Y-138272049D01*
X130631797Y-138352577D01*
X131098962Y-138249033D01*
X131214545Y-138174026D01*
X131592640Y-138005122D01*
X131796066Y-138142570D01*
X131725575Y-138476163D01*
X131616482Y-138620347D01*
X131048546Y-138964374D01*
X130361857Y-138975438D01*
X129689387Y-138660936D01*
X129509212Y-138503121D01*
X129078184Y-137894932D01*
X129052151Y-137290770D01*
X129178324Y-137064750D01*
X129889250Y-137064750D01*
X129999395Y-137265471D01*
X130471333Y-137329333D01*
X130956529Y-137259444D01*
X131053416Y-137064750D01*
X130798289Y-136858141D01*
X130471333Y-136800167D01*
X130052402Y-136899947D01*
X129889250Y-137064750D01*
X129178324Y-137064750D01*
X129427980Y-136617531D01*
X129428362Y-136617045D01*
X130018757Y-136164725D01*
X130712292Y-136075026D01*
X131381995Y-136355235D01*
G36*
X133186957Y-136187305D02*
X133223000Y-136296917D01*
X133318495Y-136414613D01*
X133530342Y-136279430D01*
X133905727Y-136145999D01*
X134344794Y-136186579D01*
X134656397Y-136365767D01*
X134704666Y-136496930D01*
X134523284Y-136644819D01*
X134170261Y-136694333D01*
X133674924Y-136885517D01*
X133352117Y-137432190D01*
X133224212Y-138294031D01*
X133223000Y-138401446D01*
X133126584Y-138895417D01*
X132905500Y-139022667D01*
X132732996Y-138935530D01*
X132634268Y-138622216D01*
X132592629Y-138004864D01*
X132588000Y-137541000D01*
X132606672Y-136735986D01*
X132673810Y-136275251D01*
X132806100Y-136080935D01*
X132905500Y-136059333D01*
X133186957Y-136187305D01*
X133186957Y-136187305D01*
G37*
X133186957Y-136187305D02*
X133223000Y-136296917D01*
X133318495Y-136414613D01*
X133530342Y-136279430D01*
X133905727Y-136145999D01*
X134344794Y-136186579D01*
X134656397Y-136365767D01*
X134704666Y-136496930D01*
X134523284Y-136644819D01*
X134170261Y-136694333D01*
X133674924Y-136885517D01*
X133352117Y-137432190D01*
X133224212Y-138294031D01*
X133223000Y-138401446D01*
X133126584Y-138895417D01*
X132905500Y-139022667D01*
X132732996Y-138935530D01*
X132634268Y-138622216D01*
X132592629Y-138004864D01*
X132588000Y-137541000D01*
X132606672Y-136735986D01*
X132673810Y-136275251D01*
X132806100Y-136080935D01*
X132905500Y-136059333D01*
X133186957Y-136187305D01*
G36*
X140657890Y-136290221D02*
X141085045Y-136646447D01*
X141231461Y-137132888D01*
X141225460Y-137191021D01*
X141112969Y-137478426D01*
X140806919Y-137644361D01*
X140197657Y-137744529D01*
X140119831Y-137752667D01*
X139521289Y-137828433D01*
X139280233Y-137918160D01*
X139331465Y-138059258D01*
X139430787Y-138148065D01*
X139788559Y-138328221D01*
X140257044Y-138295376D01*
X140895916Y-138071535D01*
X141202054Y-138041417D01*
X141238571Y-138253843D01*
X141000077Y-138620609D01*
X140933714Y-138690047D01*
X140382042Y-138972082D01*
X139682188Y-138978318D01*
X139007374Y-138708480D01*
X138985097Y-138693164D01*
X138630368Y-138215476D01*
X138501333Y-137551915D01*
X138584041Y-137011833D01*
X139284789Y-137011833D01*
X139297526Y-137228250D01*
X139610988Y-137319066D01*
X139923060Y-137329333D01*
X140404357Y-137305219D01*
X140535433Y-137202261D01*
X140419666Y-137011833D01*
X140014280Y-136740701D01*
X139781395Y-136694333D01*
X139398376Y-136851110D01*
X139284789Y-137011833D01*
X138584041Y-137011833D01*
X138604424Y-136878737D01*
X138901750Y-136409639D01*
X139445265Y-136131137D01*
X140070971Y-136104891D01*
X140657890Y-136290221D01*
X140657890Y-136290221D01*
G37*
X140657890Y-136290221D02*
X141085045Y-136646447D01*
X141231461Y-137132888D01*
X141225460Y-137191021D01*
X141112969Y-137478426D01*
X140806919Y-137644361D01*
X140197657Y-137744529D01*
X140119831Y-137752667D01*
X139521289Y-137828433D01*
X139280233Y-137918160D01*
X139331465Y-138059258D01*
X139430787Y-138148065D01*
X139788559Y-138328221D01*
X140257044Y-138295376D01*
X140895916Y-138071535D01*
X141202054Y-138041417D01*
X141238571Y-138253843D01*
X141000077Y-138620609D01*
X140933714Y-138690047D01*
X140382042Y-138972082D01*
X139682188Y-138978318D01*
X139007374Y-138708480D01*
X138985097Y-138693164D01*
X138630368Y-138215476D01*
X138501333Y-137551915D01*
X138584041Y-137011833D01*
X139284789Y-137011833D01*
X139297526Y-137228250D01*
X139610988Y-137319066D01*
X139923060Y-137329333D01*
X140404357Y-137305219D01*
X140535433Y-137202261D01*
X140419666Y-137011833D01*
X140014280Y-136740701D01*
X139781395Y-136694333D01*
X139398376Y-136851110D01*
X139284789Y-137011833D01*
X138584041Y-137011833D01*
X138604424Y-136878737D01*
X138901750Y-136409639D01*
X139445265Y-136131137D01*
X140070971Y-136104891D01*
X140657890Y-136290221D01*
G36*
X143799277Y-136178557D02*
X144014208Y-136418192D01*
X144018000Y-136461964D01*
X143834930Y-136631401D01*
X143435916Y-136733190D01*
X143082449Y-136814872D01*
X142890045Y-137032080D01*
X142786519Y-137501174D01*
X142748000Y-137842086D01*
X142610200Y-138579657D01*
X142393687Y-138956784D01*
X142116905Y-138946006D01*
X142046854Y-138885965D01*
X141942656Y-138571606D01*
X141899626Y-138001399D01*
X141911974Y-137324512D01*
X141973911Y-136690114D01*
X142079647Y-136247373D01*
X142153424Y-136140183D01*
X142422711Y-136134029D01*
X142486019Y-136225891D01*
X142651354Y-136360480D01*
X142946722Y-136229961D01*
X143383362Y-136102800D01*
X143799277Y-136178557D01*
X143799277Y-136178557D01*
G37*
X143799277Y-136178557D02*
X144014208Y-136418192D01*
X144018000Y-136461964D01*
X143834930Y-136631401D01*
X143435916Y-136733190D01*
X143082449Y-136814872D01*
X142890045Y-137032080D01*
X142786519Y-137501174D01*
X142748000Y-137842086D01*
X142610200Y-138579657D01*
X142393687Y-138956784D01*
X142116905Y-138946006D01*
X142046854Y-138885965D01*
X141942656Y-138571606D01*
X141899626Y-138001399D01*
X141911974Y-137324512D01*
X141973911Y-136690114D01*
X142079647Y-136247373D01*
X142153424Y-136140183D01*
X142422711Y-136134029D01*
X142486019Y-136225891D01*
X142651354Y-136360480D01*
X142946722Y-136229961D01*
X143383362Y-136102800D01*
X143799277Y-136178557D01*
D13*
X95166381Y-147145333D02*
X95880667Y-147145333D01*
X96023524Y-147192953D01*
X96118762Y-147288191D01*
X96166381Y-147431048D01*
X96166381Y-147526286D01*
X96166381Y-146145333D02*
X96166381Y-146716762D01*
X96166381Y-146431048D02*
X95166381Y-146431048D01*
X95309238Y-146526286D01*
X95404476Y-146621524D01*
X95452095Y-146716762D01*
X91564286Y-72309381D02*
X91564286Y-73023667D01*
X91516666Y-73166524D01*
X91421428Y-73261762D01*
X91278571Y-73309381D01*
X91183333Y-73309381D01*
X91992857Y-72404619D02*
X92040476Y-72357000D01*
X92135714Y-72309381D01*
X92373810Y-72309381D01*
X92469048Y-72357000D01*
X92516667Y-72404619D01*
X92564286Y-72499857D01*
X92564286Y-72595095D01*
X92516667Y-72737952D01*
X91945238Y-73309381D01*
X92564286Y-73309381D01*
X107496286Y-72309381D02*
X107496286Y-73023667D01*
X107448666Y-73166524D01*
X107353428Y-73261762D01*
X107210571Y-73309381D01*
X107115333Y-73309381D01*
X107877238Y-72309381D02*
X108496286Y-72309381D01*
X108162952Y-72690333D01*
X108305810Y-72690333D01*
X108401048Y-72737952D01*
X108448667Y-72785571D01*
X108496286Y-72880810D01*
X108496286Y-73118905D01*
X108448667Y-73214143D01*
X108401048Y-73261762D01*
X108305810Y-73309381D01*
X108020095Y-73309381D01*
X107924857Y-73261762D01*
X107877238Y-73214143D01*
X123590286Y-72309381D02*
X123590286Y-73023667D01*
X123542666Y-73166524D01*
X123447428Y-73261762D01*
X123304571Y-73309381D01*
X123209333Y-73309381D01*
X124495048Y-72642714D02*
X124495048Y-73309381D01*
X124256952Y-72261762D02*
X124018857Y-72976048D01*
X124637905Y-72976048D01*
X140192286Y-72309381D02*
X140192286Y-73023667D01*
X140144666Y-73166524D01*
X140049428Y-73261762D01*
X139906571Y-73309381D01*
X139811333Y-73309381D01*
X141144667Y-72309381D02*
X140668476Y-72309381D01*
X140620857Y-72785571D01*
X140668476Y-72737952D01*
X140763714Y-72690333D01*
X141001810Y-72690333D01*
X141097048Y-72737952D01*
X141144667Y-72785571D01*
X141192286Y-72880810D01*
X141192286Y-73118905D01*
X141144667Y-73214143D01*
X141097048Y-73261762D01*
X141001810Y-73309381D01*
X140763714Y-73309381D01*
X140668476Y-73261762D01*
X140620857Y-73214143D01*
X156794286Y-72309381D02*
X156794286Y-73023667D01*
X156746666Y-73166524D01*
X156651428Y-73261762D01*
X156508571Y-73309381D01*
X156413333Y-73309381D01*
X157699048Y-72309381D02*
X157508571Y-72309381D01*
X157413333Y-72357000D01*
X157365714Y-72404619D01*
X157270476Y-72547476D01*
X157222857Y-72737952D01*
X157222857Y-73118905D01*
X157270476Y-73214143D01*
X157318095Y-73261762D01*
X157413333Y-73309381D01*
X157603810Y-73309381D01*
X157699048Y-73261762D01*
X157746667Y-73214143D01*
X157794286Y-73118905D01*
X157794286Y-72880810D01*
X157746667Y-72785571D01*
X157699048Y-72737952D01*
X157603810Y-72690333D01*
X157413333Y-72690333D01*
X157318095Y-72737952D01*
X157270476Y-72785571D01*
X157222857Y-72880810D01*
X172888286Y-72309381D02*
X172888286Y-73023667D01*
X172840666Y-73166524D01*
X172745428Y-73261762D01*
X172602571Y-73309381D01*
X172507333Y-73309381D01*
X173269238Y-72309381D02*
X173935905Y-72309381D01*
X173507333Y-73309381D01*
X91564286Y-92227381D02*
X91564286Y-92941667D01*
X91516666Y-93084524D01*
X91421428Y-93179762D01*
X91278571Y-93227381D01*
X91183333Y-93227381D01*
X92183333Y-92655952D02*
X92088095Y-92608333D01*
X92040476Y-92560714D01*
X91992857Y-92465476D01*
X91992857Y-92417857D01*
X92040476Y-92322619D01*
X92088095Y-92275000D01*
X92183333Y-92227381D01*
X92373810Y-92227381D01*
X92469048Y-92275000D01*
X92516667Y-92322619D01*
X92564286Y-92417857D01*
X92564286Y-92465476D01*
X92516667Y-92560714D01*
X92469048Y-92608333D01*
X92373810Y-92655952D01*
X92183333Y-92655952D01*
X92088095Y-92703571D01*
X92040476Y-92751190D01*
X91992857Y-92846429D01*
X91992857Y-93036905D01*
X92040476Y-93132143D01*
X92088095Y-93179762D01*
X92183333Y-93227381D01*
X92373810Y-93227381D01*
X92469048Y-93179762D01*
X92516667Y-93132143D01*
X92564286Y-93036905D01*
X92564286Y-92846429D01*
X92516667Y-92751190D01*
X92469048Y-92703571D01*
X92373810Y-92655952D01*
X107658286Y-92227381D02*
X107658286Y-92941667D01*
X107610666Y-93084524D01*
X107515428Y-93179762D01*
X107372571Y-93227381D01*
X107277333Y-93227381D01*
X108182095Y-93227381D02*
X108372571Y-93227381D01*
X108467810Y-93179762D01*
X108515429Y-93132143D01*
X108610667Y-92989286D01*
X108658286Y-92798810D01*
X108658286Y-92417857D01*
X108610667Y-92322619D01*
X108563048Y-92275000D01*
X108467810Y-92227381D01*
X108277333Y-92227381D01*
X108182095Y-92275000D01*
X108134476Y-92322619D01*
X108086857Y-92417857D01*
X108086857Y-92655952D01*
X108134476Y-92751190D01*
X108182095Y-92798810D01*
X108277333Y-92846429D01*
X108467810Y-92846429D01*
X108563048Y-92798810D01*
X108610667Y-92751190D01*
X108658286Y-92655952D01*
X123276096Y-92227381D02*
X123276096Y-92941667D01*
X123228476Y-93084524D01*
X123133238Y-93179762D01*
X122990381Y-93227381D01*
X122895143Y-93227381D01*
X124276096Y-93227381D02*
X123704667Y-93227381D01*
X123990381Y-93227381D02*
X123990381Y-92227381D01*
X123895143Y-92370238D01*
X123799905Y-92465476D01*
X123704667Y-92513095D01*
X124895143Y-92227381D02*
X124990382Y-92227381D01*
X125085620Y-92275000D01*
X125133239Y-92322619D01*
X125180858Y-92417857D01*
X125228477Y-92608333D01*
X125228477Y-92846429D01*
X125180858Y-93036905D01*
X125133239Y-93132143D01*
X125085620Y-93179762D01*
X124990382Y-93227381D01*
X124895143Y-93227381D01*
X124799905Y-93179762D01*
X124752286Y-93132143D01*
X124704667Y-93036905D01*
X124657048Y-92846429D01*
X124657048Y-92608333D01*
X124704667Y-92417857D01*
X124752286Y-92322619D01*
X124799905Y-92275000D01*
X124895143Y-92227381D01*
X139878096Y-92227381D02*
X139878096Y-92941667D01*
X139830476Y-93084524D01*
X139735238Y-93179762D01*
X139592381Y-93227381D01*
X139497143Y-93227381D01*
X140878096Y-93227381D02*
X140306667Y-93227381D01*
X140592381Y-93227381D02*
X140592381Y-92227381D01*
X140497143Y-92370238D01*
X140401905Y-92465476D01*
X140306667Y-92513095D01*
X141830477Y-93227381D02*
X141259048Y-93227381D01*
X141544762Y-93227381D02*
X141544762Y-92227381D01*
X141449524Y-92370238D01*
X141354286Y-92465476D01*
X141259048Y-92513095D01*
X155972096Y-92227381D02*
X155972096Y-92941667D01*
X155924476Y-93084524D01*
X155829238Y-93179762D01*
X155686381Y-93227381D01*
X155591143Y-93227381D01*
X156972096Y-93227381D02*
X156400667Y-93227381D01*
X156686381Y-93227381D02*
X156686381Y-92227381D01*
X156591143Y-92370238D01*
X156495905Y-92465476D01*
X156400667Y-92513095D01*
X157353048Y-92322619D02*
X157400667Y-92275000D01*
X157495905Y-92227381D01*
X157734001Y-92227381D01*
X157829239Y-92275000D01*
X157876858Y-92322619D01*
X157924477Y-92417857D01*
X157924477Y-92513095D01*
X157876858Y-92655952D01*
X157305429Y-93227381D01*
X157924477Y-93227381D01*
X172206096Y-92121381D02*
X172206096Y-92835667D01*
X172158476Y-92978524D01*
X172063238Y-93073762D01*
X171920381Y-93121381D01*
X171825143Y-93121381D01*
X173206096Y-93121381D02*
X172634667Y-93121381D01*
X172920381Y-93121381D02*
X172920381Y-92121381D01*
X172825143Y-92264238D01*
X172729905Y-92359476D01*
X172634667Y-92407095D01*
X173539429Y-92121381D02*
X174158477Y-92121381D01*
X173825143Y-92502333D01*
X173968001Y-92502333D01*
X174063239Y-92549952D01*
X174110858Y-92597571D01*
X174158477Y-92692810D01*
X174158477Y-92930905D01*
X174110858Y-93026143D01*
X174063239Y-93073762D01*
X173968001Y-93121381D01*
X173682286Y-93121381D01*
X173587048Y-93073762D01*
X173539429Y-93026143D01*
X90786096Y-111531381D02*
X90786096Y-112245667D01*
X90738476Y-112388524D01*
X90643238Y-112483762D01*
X90500381Y-112531381D01*
X90405143Y-112531381D01*
X91786096Y-112531381D02*
X91214667Y-112531381D01*
X91500381Y-112531381D02*
X91500381Y-111531381D01*
X91405143Y-111674238D01*
X91309905Y-111769476D01*
X91214667Y-111817095D01*
X92643239Y-111864714D02*
X92643239Y-112531381D01*
X92405143Y-111483762D02*
X92167048Y-112198048D01*
X92786096Y-112198048D01*
X107344096Y-111637381D02*
X107344096Y-112351667D01*
X107296476Y-112494524D01*
X107201238Y-112589762D01*
X107058381Y-112637381D01*
X106963143Y-112637381D01*
X108344096Y-112637381D02*
X107772667Y-112637381D01*
X108058381Y-112637381D02*
X108058381Y-111637381D01*
X107963143Y-111780238D01*
X107867905Y-111875476D01*
X107772667Y-111923095D01*
X109248858Y-111637381D02*
X108772667Y-111637381D01*
X108725048Y-112113571D01*
X108772667Y-112065952D01*
X108867905Y-112018333D01*
X109106001Y-112018333D01*
X109201239Y-112065952D01*
X109248858Y-112113571D01*
X109296477Y-112208810D01*
X109296477Y-112446905D01*
X109248858Y-112542143D01*
X109201239Y-112589762D01*
X109106001Y-112637381D01*
X108867905Y-112637381D01*
X108772667Y-112589762D01*
X108725048Y-112542143D01*
X122930096Y-111637381D02*
X122930096Y-112351667D01*
X122882476Y-112494524D01*
X122787238Y-112589762D01*
X122644381Y-112637381D01*
X122549143Y-112637381D01*
X123930096Y-112637381D02*
X123358667Y-112637381D01*
X123644381Y-112637381D02*
X123644381Y-111637381D01*
X123549143Y-111780238D01*
X123453905Y-111875476D01*
X123358667Y-111923095D01*
X124787239Y-111637381D02*
X124596762Y-111637381D01*
X124501524Y-111685000D01*
X124453905Y-111732619D01*
X124358667Y-111875476D01*
X124311048Y-112065952D01*
X124311048Y-112446905D01*
X124358667Y-112542143D01*
X124406286Y-112589762D01*
X124501524Y-112637381D01*
X124692001Y-112637381D01*
X124787239Y-112589762D01*
X124834858Y-112542143D01*
X124882477Y-112446905D01*
X124882477Y-112208810D01*
X124834858Y-112113571D01*
X124787239Y-112065952D01*
X124692001Y-112018333D01*
X124501524Y-112018333D01*
X124406286Y-112065952D01*
X124358667Y-112113571D01*
X124311048Y-112208810D01*
X140040096Y-111637381D02*
X140040096Y-112351667D01*
X139992476Y-112494524D01*
X139897238Y-112589762D01*
X139754381Y-112637381D01*
X139659143Y-112637381D01*
X141040096Y-112637381D02*
X140468667Y-112637381D01*
X140754381Y-112637381D02*
X140754381Y-111637381D01*
X140659143Y-111780238D01*
X140563905Y-111875476D01*
X140468667Y-111923095D01*
X141373429Y-111637381D02*
X142040096Y-111637381D01*
X141611524Y-112637381D01*
X155626096Y-111637381D02*
X155626096Y-112351667D01*
X155578476Y-112494524D01*
X155483238Y-112589762D01*
X155340381Y-112637381D01*
X155245143Y-112637381D01*
X156626096Y-112637381D02*
X156054667Y-112637381D01*
X156340381Y-112637381D02*
X156340381Y-111637381D01*
X156245143Y-111780238D01*
X156149905Y-111875476D01*
X156054667Y-111923095D01*
X157197524Y-112065952D02*
X157102286Y-112018333D01*
X157054667Y-111970714D01*
X157007048Y-111875476D01*
X157007048Y-111827857D01*
X157054667Y-111732619D01*
X157102286Y-111685000D01*
X157197524Y-111637381D01*
X157388001Y-111637381D01*
X157483239Y-111685000D01*
X157530858Y-111732619D01*
X157578477Y-111827857D01*
X157578477Y-111875476D01*
X157530858Y-111970714D01*
X157483239Y-112018333D01*
X157388001Y-112065952D01*
X157197524Y-112065952D01*
X157102286Y-112113571D01*
X157054667Y-112161190D01*
X157007048Y-112256429D01*
X157007048Y-112446905D01*
X157054667Y-112542143D01*
X157102286Y-112589762D01*
X157197524Y-112637381D01*
X157388001Y-112637381D01*
X157483239Y-112589762D01*
X157530858Y-112542143D01*
X157578477Y-112446905D01*
X157578477Y-112256429D01*
X157530858Y-112161190D01*
X157483239Y-112113571D01*
X157388001Y-112065952D01*
X172228096Y-111637381D02*
X172228096Y-112351667D01*
X172180476Y-112494524D01*
X172085238Y-112589762D01*
X171942381Y-112637381D01*
X171847143Y-112637381D01*
X173228096Y-112637381D02*
X172656667Y-112637381D01*
X172942381Y-112637381D02*
X172942381Y-111637381D01*
X172847143Y-111780238D01*
X172751905Y-111875476D01*
X172656667Y-111923095D01*
X173704286Y-112637381D02*
X173894762Y-112637381D01*
X173990001Y-112589762D01*
X174037620Y-112542143D01*
X174132858Y-112399286D01*
X174180477Y-112208810D01*
X174180477Y-111827857D01*
X174132858Y-111732619D01*
X174085239Y-111685000D01*
X173990001Y-111637381D01*
X173799524Y-111637381D01*
X173704286Y-111685000D01*
X173656667Y-111732619D01*
X173609048Y-111827857D01*
X173609048Y-112065952D01*
X173656667Y-112161190D01*
X173704286Y-112208810D01*
X173799524Y-112256429D01*
X173990001Y-112256429D01*
X174085239Y-112208810D01*
X174132858Y-112161190D01*
X174180477Y-112065952D01*
X91040096Y-63123381D02*
X91040096Y-63837667D01*
X90992476Y-63980524D01*
X90897238Y-64075762D01*
X90754381Y-64123381D01*
X90659143Y-64123381D01*
X91468667Y-63218619D02*
X91516286Y-63171000D01*
X91611524Y-63123381D01*
X91849620Y-63123381D01*
X91944858Y-63171000D01*
X91992477Y-63218619D01*
X92040096Y-63313857D01*
X92040096Y-63409095D01*
X91992477Y-63551952D01*
X91421048Y-64123381D01*
X92040096Y-64123381D01*
X92659143Y-63123381D02*
X92754382Y-63123381D01*
X92849620Y-63171000D01*
X92897239Y-63218619D01*
X92944858Y-63313857D01*
X92992477Y-63504333D01*
X92992477Y-63742429D01*
X92944858Y-63932905D01*
X92897239Y-64028143D01*
X92849620Y-64075762D01*
X92754382Y-64123381D01*
X92659143Y-64123381D01*
X92563905Y-64075762D01*
X92516286Y-64028143D01*
X92468667Y-63932905D01*
X92421048Y-63742429D01*
X92421048Y-63504333D01*
X92468667Y-63313857D01*
X92516286Y-63218619D01*
X92563905Y-63171000D01*
X92659143Y-63123381D01*
X106836096Y-62975381D02*
X106836096Y-63689667D01*
X106788476Y-63832524D01*
X106693238Y-63927762D01*
X106550381Y-63975381D01*
X106455143Y-63975381D01*
X107264667Y-63070619D02*
X107312286Y-63023000D01*
X107407524Y-62975381D01*
X107645620Y-62975381D01*
X107740858Y-63023000D01*
X107788477Y-63070619D01*
X107836096Y-63165857D01*
X107836096Y-63261095D01*
X107788477Y-63403952D01*
X107217048Y-63975381D01*
X107836096Y-63975381D01*
X108788477Y-63975381D02*
X108217048Y-63975381D01*
X108502762Y-63975381D02*
X108502762Y-62975381D01*
X108407524Y-63118238D01*
X108312286Y-63213476D01*
X108217048Y-63261095D01*
X122930096Y-62975381D02*
X122930096Y-63689667D01*
X122882476Y-63832524D01*
X122787238Y-63927762D01*
X122644381Y-63975381D01*
X122549143Y-63975381D01*
X123358667Y-63070619D02*
X123406286Y-63023000D01*
X123501524Y-62975381D01*
X123739620Y-62975381D01*
X123834858Y-63023000D01*
X123882477Y-63070619D01*
X123930096Y-63165857D01*
X123930096Y-63261095D01*
X123882477Y-63403952D01*
X123311048Y-63975381D01*
X123930096Y-63975381D01*
X124311048Y-63070619D02*
X124358667Y-63023000D01*
X124453905Y-62975381D01*
X124692001Y-62975381D01*
X124787239Y-63023000D01*
X124834858Y-63070619D01*
X124882477Y-63165857D01*
X124882477Y-63261095D01*
X124834858Y-63403952D01*
X124263429Y-63975381D01*
X124882477Y-63975381D01*
X139532096Y-62975381D02*
X139532096Y-63689667D01*
X139484476Y-63832524D01*
X139389238Y-63927762D01*
X139246381Y-63975381D01*
X139151143Y-63975381D01*
X139960667Y-63070619D02*
X140008286Y-63023000D01*
X140103524Y-62975381D01*
X140341620Y-62975381D01*
X140436858Y-63023000D01*
X140484477Y-63070619D01*
X140532096Y-63165857D01*
X140532096Y-63261095D01*
X140484477Y-63403952D01*
X139913048Y-63975381D01*
X140532096Y-63975381D01*
X140865429Y-62975381D02*
X141484477Y-62975381D01*
X141151143Y-63356333D01*
X141294001Y-63356333D01*
X141389239Y-63403952D01*
X141436858Y-63451571D01*
X141484477Y-63546810D01*
X141484477Y-63784905D01*
X141436858Y-63880143D01*
X141389239Y-63927762D01*
X141294001Y-63975381D01*
X141008286Y-63975381D01*
X140913048Y-63927762D01*
X140865429Y-63880143D01*
X156134096Y-62975381D02*
X156134096Y-63689667D01*
X156086476Y-63832524D01*
X155991238Y-63927762D01*
X155848381Y-63975381D01*
X155753143Y-63975381D01*
X156562667Y-63070619D02*
X156610286Y-63023000D01*
X156705524Y-62975381D01*
X156943620Y-62975381D01*
X157038858Y-63023000D01*
X157086477Y-63070619D01*
X157134096Y-63165857D01*
X157134096Y-63261095D01*
X157086477Y-63403952D01*
X156515048Y-63975381D01*
X157134096Y-63975381D01*
X157991239Y-63308714D02*
X157991239Y-63975381D01*
X157753143Y-62927762D02*
X157515048Y-63642048D01*
X158134096Y-63642048D01*
X172228096Y-62975381D02*
X172228096Y-63689667D01*
X172180476Y-63832524D01*
X172085238Y-63927762D01*
X171942381Y-63975381D01*
X171847143Y-63975381D01*
X172656667Y-63070619D02*
X172704286Y-63023000D01*
X172799524Y-62975381D01*
X173037620Y-62975381D01*
X173132858Y-63023000D01*
X173180477Y-63070619D01*
X173228096Y-63165857D01*
X173228096Y-63261095D01*
X173180477Y-63403952D01*
X172609048Y-63975381D01*
X173228096Y-63975381D01*
X174132858Y-62975381D02*
X173656667Y-62975381D01*
X173609048Y-63451571D01*
X173656667Y-63403952D01*
X173751905Y-63356333D01*
X173990001Y-63356333D01*
X174085239Y-63403952D01*
X174132858Y-63451571D01*
X174180477Y-63546810D01*
X174180477Y-63784905D01*
X174132858Y-63880143D01*
X174085239Y-63927762D01*
X173990001Y-63975381D01*
X173751905Y-63975381D01*
X173656667Y-63927762D01*
X173609048Y-63880143D01*
X91088096Y-81877381D02*
X91088096Y-82591667D01*
X91040476Y-82734524D01*
X90945238Y-82829762D01*
X90802381Y-82877381D01*
X90707143Y-82877381D01*
X91516667Y-81972619D02*
X91564286Y-81925000D01*
X91659524Y-81877381D01*
X91897620Y-81877381D01*
X91992858Y-81925000D01*
X92040477Y-81972619D01*
X92088096Y-82067857D01*
X92088096Y-82163095D01*
X92040477Y-82305952D01*
X91469048Y-82877381D01*
X92088096Y-82877381D01*
X92945239Y-81877381D02*
X92754762Y-81877381D01*
X92659524Y-81925000D01*
X92611905Y-81972619D01*
X92516667Y-82115476D01*
X92469048Y-82305952D01*
X92469048Y-82686905D01*
X92516667Y-82782143D01*
X92564286Y-82829762D01*
X92659524Y-82877381D01*
X92850001Y-82877381D01*
X92945239Y-82829762D01*
X92992858Y-82782143D01*
X93040477Y-82686905D01*
X93040477Y-82448810D01*
X92992858Y-82353571D01*
X92945239Y-82305952D01*
X92850001Y-82258333D01*
X92659524Y-82258333D01*
X92564286Y-82305952D01*
X92516667Y-82353571D01*
X92469048Y-82448810D01*
X107182096Y-81877381D02*
X107182096Y-82591667D01*
X107134476Y-82734524D01*
X107039238Y-82829762D01*
X106896381Y-82877381D01*
X106801143Y-82877381D01*
X107610667Y-81972619D02*
X107658286Y-81925000D01*
X107753524Y-81877381D01*
X107991620Y-81877381D01*
X108086858Y-81925000D01*
X108134477Y-81972619D01*
X108182096Y-82067857D01*
X108182096Y-82163095D01*
X108134477Y-82305952D01*
X107563048Y-82877381D01*
X108182096Y-82877381D01*
X108515429Y-81877381D02*
X109182096Y-81877381D01*
X108753524Y-82877381D01*
X123276096Y-81877381D02*
X123276096Y-82591667D01*
X123228476Y-82734524D01*
X123133238Y-82829762D01*
X122990381Y-82877381D01*
X122895143Y-82877381D01*
X123704667Y-81972619D02*
X123752286Y-81925000D01*
X123847524Y-81877381D01*
X124085620Y-81877381D01*
X124180858Y-81925000D01*
X124228477Y-81972619D01*
X124276096Y-82067857D01*
X124276096Y-82163095D01*
X124228477Y-82305952D01*
X123657048Y-82877381D01*
X124276096Y-82877381D01*
X124847524Y-82305952D02*
X124752286Y-82258333D01*
X124704667Y-82210714D01*
X124657048Y-82115476D01*
X124657048Y-82067857D01*
X124704667Y-81972619D01*
X124752286Y-81925000D01*
X124847524Y-81877381D01*
X125038001Y-81877381D01*
X125133239Y-81925000D01*
X125180858Y-81972619D01*
X125228477Y-82067857D01*
X125228477Y-82115476D01*
X125180858Y-82210714D01*
X125133239Y-82258333D01*
X125038001Y-82305952D01*
X124847524Y-82305952D01*
X124752286Y-82353571D01*
X124704667Y-82401190D01*
X124657048Y-82496429D01*
X124657048Y-82686905D01*
X124704667Y-82782143D01*
X124752286Y-82829762D01*
X124847524Y-82877381D01*
X125038001Y-82877381D01*
X125133239Y-82829762D01*
X125180858Y-82782143D01*
X125228477Y-82686905D01*
X125228477Y-82496429D01*
X125180858Y-82401190D01*
X125133239Y-82353571D01*
X125038001Y-82305952D01*
X139878096Y-81877381D02*
X139878096Y-82591667D01*
X139830476Y-82734524D01*
X139735238Y-82829762D01*
X139592381Y-82877381D01*
X139497143Y-82877381D01*
X140306667Y-81972619D02*
X140354286Y-81925000D01*
X140449524Y-81877381D01*
X140687620Y-81877381D01*
X140782858Y-81925000D01*
X140830477Y-81972619D01*
X140878096Y-82067857D01*
X140878096Y-82163095D01*
X140830477Y-82305952D01*
X140259048Y-82877381D01*
X140878096Y-82877381D01*
X141354286Y-82877381D02*
X141544762Y-82877381D01*
X141640001Y-82829762D01*
X141687620Y-82782143D01*
X141782858Y-82639286D01*
X141830477Y-82448810D01*
X141830477Y-82067857D01*
X141782858Y-81972619D01*
X141735239Y-81925000D01*
X141640001Y-81877381D01*
X141449524Y-81877381D01*
X141354286Y-81925000D01*
X141306667Y-81972619D01*
X141259048Y-82067857D01*
X141259048Y-82305952D01*
X141306667Y-82401190D01*
X141354286Y-82448810D01*
X141449524Y-82496429D01*
X141640001Y-82496429D01*
X141735239Y-82448810D01*
X141782858Y-82401190D01*
X141830477Y-82305952D01*
X156112096Y-81983381D02*
X156112096Y-82697667D01*
X156064476Y-82840524D01*
X155969238Y-82935762D01*
X155826381Y-82983381D01*
X155731143Y-82983381D01*
X156493048Y-81983381D02*
X157112096Y-81983381D01*
X156778762Y-82364333D01*
X156921620Y-82364333D01*
X157016858Y-82411952D01*
X157064477Y-82459571D01*
X157112096Y-82554810D01*
X157112096Y-82792905D01*
X157064477Y-82888143D01*
X157016858Y-82935762D01*
X156921620Y-82983381D01*
X156635905Y-82983381D01*
X156540667Y-82935762D01*
X156493048Y-82888143D01*
X157731143Y-81983381D02*
X157826382Y-81983381D01*
X157921620Y-82031000D01*
X157969239Y-82078619D01*
X158016858Y-82173857D01*
X158064477Y-82364333D01*
X158064477Y-82602429D01*
X158016858Y-82792905D01*
X157969239Y-82888143D01*
X157921620Y-82935762D01*
X157826382Y-82983381D01*
X157731143Y-82983381D01*
X157635905Y-82935762D01*
X157588286Y-82888143D01*
X157540667Y-82792905D01*
X157493048Y-82602429D01*
X157493048Y-82364333D01*
X157540667Y-82173857D01*
X157588286Y-82078619D01*
X157635905Y-82031000D01*
X157731143Y-81983381D01*
X172206096Y-81983381D02*
X172206096Y-82697667D01*
X172158476Y-82840524D01*
X172063238Y-82935762D01*
X171920381Y-82983381D01*
X171825143Y-82983381D01*
X172587048Y-81983381D02*
X173206096Y-81983381D01*
X172872762Y-82364333D01*
X173015620Y-82364333D01*
X173110858Y-82411952D01*
X173158477Y-82459571D01*
X173206096Y-82554810D01*
X173206096Y-82792905D01*
X173158477Y-82888143D01*
X173110858Y-82935762D01*
X173015620Y-82983381D01*
X172729905Y-82983381D01*
X172634667Y-82935762D01*
X172587048Y-82888143D01*
X174158477Y-82983381D02*
X173587048Y-82983381D01*
X173872762Y-82983381D02*
X173872762Y-81983381D01*
X173777524Y-82126238D01*
X173682286Y-82221476D01*
X173587048Y-82269095D01*
X90764096Y-101795381D02*
X90764096Y-102509667D01*
X90716476Y-102652524D01*
X90621238Y-102747762D01*
X90478381Y-102795381D01*
X90383143Y-102795381D01*
X91145048Y-101795381D02*
X91764096Y-101795381D01*
X91430762Y-102176333D01*
X91573620Y-102176333D01*
X91668858Y-102223952D01*
X91716477Y-102271571D01*
X91764096Y-102366810D01*
X91764096Y-102604905D01*
X91716477Y-102700143D01*
X91668858Y-102747762D01*
X91573620Y-102795381D01*
X91287905Y-102795381D01*
X91192667Y-102747762D01*
X91145048Y-102700143D01*
X92145048Y-101890619D02*
X92192667Y-101843000D01*
X92287905Y-101795381D01*
X92526001Y-101795381D01*
X92621239Y-101843000D01*
X92668858Y-101890619D01*
X92716477Y-101985857D01*
X92716477Y-102081095D01*
X92668858Y-102223952D01*
X92097429Y-102795381D01*
X92716477Y-102795381D01*
X107366096Y-101795381D02*
X107366096Y-102509667D01*
X107318476Y-102652524D01*
X107223238Y-102747762D01*
X107080381Y-102795381D01*
X106985143Y-102795381D01*
X107747048Y-101795381D02*
X108366096Y-101795381D01*
X108032762Y-102176333D01*
X108175620Y-102176333D01*
X108270858Y-102223952D01*
X108318477Y-102271571D01*
X108366096Y-102366810D01*
X108366096Y-102604905D01*
X108318477Y-102700143D01*
X108270858Y-102747762D01*
X108175620Y-102795381D01*
X107889905Y-102795381D01*
X107794667Y-102747762D01*
X107747048Y-102700143D01*
X108699429Y-101795381D02*
X109318477Y-101795381D01*
X108985143Y-102176333D01*
X109128001Y-102176333D01*
X109223239Y-102223952D01*
X109270858Y-102271571D01*
X109318477Y-102366810D01*
X109318477Y-102604905D01*
X109270858Y-102700143D01*
X109223239Y-102747762D01*
X109128001Y-102795381D01*
X108842286Y-102795381D01*
X108747048Y-102747762D01*
X108699429Y-102700143D01*
X123092096Y-101901381D02*
X123092096Y-102615667D01*
X123044476Y-102758524D01*
X122949238Y-102853762D01*
X122806381Y-102901381D01*
X122711143Y-102901381D01*
X123473048Y-101901381D02*
X124092096Y-101901381D01*
X123758762Y-102282333D01*
X123901620Y-102282333D01*
X123996858Y-102329952D01*
X124044477Y-102377571D01*
X124092096Y-102472810D01*
X124092096Y-102710905D01*
X124044477Y-102806143D01*
X123996858Y-102853762D01*
X123901620Y-102901381D01*
X123615905Y-102901381D01*
X123520667Y-102853762D01*
X123473048Y-102806143D01*
X124949239Y-102234714D02*
X124949239Y-102901381D01*
X124711143Y-101853762D02*
X124473048Y-102568048D01*
X125092096Y-102568048D01*
X140202096Y-101901381D02*
X140202096Y-102615667D01*
X140154476Y-102758524D01*
X140059238Y-102853762D01*
X139916381Y-102901381D01*
X139821143Y-102901381D01*
X140583048Y-101901381D02*
X141202096Y-101901381D01*
X140868762Y-102282333D01*
X141011620Y-102282333D01*
X141106858Y-102329952D01*
X141154477Y-102377571D01*
X141202096Y-102472810D01*
X141202096Y-102710905D01*
X141154477Y-102806143D01*
X141106858Y-102853762D01*
X141011620Y-102901381D01*
X140725905Y-102901381D01*
X140630667Y-102853762D01*
X140583048Y-102806143D01*
X142106858Y-101901381D02*
X141630667Y-101901381D01*
X141583048Y-102377571D01*
X141630667Y-102329952D01*
X141725905Y-102282333D01*
X141964001Y-102282333D01*
X142059239Y-102329952D01*
X142106858Y-102377571D01*
X142154477Y-102472810D01*
X142154477Y-102710905D01*
X142106858Y-102806143D01*
X142059239Y-102853762D01*
X141964001Y-102901381D01*
X141725905Y-102901381D01*
X141630667Y-102853762D01*
X141583048Y-102806143D01*
X155788096Y-102409381D02*
X155788096Y-103123667D01*
X155740476Y-103266524D01*
X155645238Y-103361762D01*
X155502381Y-103409381D01*
X155407143Y-103409381D01*
X156169048Y-102409381D02*
X156788096Y-102409381D01*
X156454762Y-102790333D01*
X156597620Y-102790333D01*
X156692858Y-102837952D01*
X156740477Y-102885571D01*
X156788096Y-102980810D01*
X156788096Y-103218905D01*
X156740477Y-103314143D01*
X156692858Y-103361762D01*
X156597620Y-103409381D01*
X156311905Y-103409381D01*
X156216667Y-103361762D01*
X156169048Y-103314143D01*
X157645239Y-102409381D02*
X157454762Y-102409381D01*
X157359524Y-102457000D01*
X157311905Y-102504619D01*
X157216667Y-102647476D01*
X157169048Y-102837952D01*
X157169048Y-103218905D01*
X157216667Y-103314143D01*
X157264286Y-103361762D01*
X157359524Y-103409381D01*
X157550001Y-103409381D01*
X157645239Y-103361762D01*
X157692858Y-103314143D01*
X157740477Y-103218905D01*
X157740477Y-102980810D01*
X157692858Y-102885571D01*
X157645239Y-102837952D01*
X157550001Y-102790333D01*
X157359524Y-102790333D01*
X157264286Y-102837952D01*
X157216667Y-102885571D01*
X157169048Y-102980810D01*
X172368096Y-102261381D02*
X172368096Y-102975667D01*
X172320476Y-103118524D01*
X172225238Y-103213762D01*
X172082381Y-103261381D01*
X171987143Y-103261381D01*
X172749048Y-102261381D02*
X173368096Y-102261381D01*
X173034762Y-102642333D01*
X173177620Y-102642333D01*
X173272858Y-102689952D01*
X173320477Y-102737571D01*
X173368096Y-102832810D01*
X173368096Y-103070905D01*
X173320477Y-103166143D01*
X173272858Y-103213762D01*
X173177620Y-103261381D01*
X172891905Y-103261381D01*
X172796667Y-103213762D01*
X172749048Y-103166143D01*
X173701429Y-102261381D02*
X174368096Y-102261381D01*
X173939524Y-103261381D01*
X152902096Y-123089381D02*
X152902096Y-123803667D01*
X152854476Y-123946524D01*
X152759238Y-124041762D01*
X152616381Y-124089381D01*
X152521143Y-124089381D01*
X153283048Y-123089381D02*
X153902096Y-123089381D01*
X153568762Y-123470333D01*
X153711620Y-123470333D01*
X153806858Y-123517952D01*
X153854477Y-123565571D01*
X153902096Y-123660810D01*
X153902096Y-123898905D01*
X153854477Y-123994143D01*
X153806858Y-124041762D01*
X153711620Y-124089381D01*
X153425905Y-124089381D01*
X153330667Y-124041762D01*
X153283048Y-123994143D01*
X154473524Y-123517952D02*
X154378286Y-123470333D01*
X154330667Y-123422714D01*
X154283048Y-123327476D01*
X154283048Y-123279857D01*
X154330667Y-123184619D01*
X154378286Y-123137000D01*
X154473524Y-123089381D01*
X154664001Y-123089381D01*
X154759239Y-123137000D01*
X154806858Y-123184619D01*
X154854477Y-123279857D01*
X154854477Y-123327476D01*
X154806858Y-123422714D01*
X154759239Y-123470333D01*
X154664001Y-123517952D01*
X154473524Y-123517952D01*
X154378286Y-123565571D01*
X154330667Y-123613190D01*
X154283048Y-123708429D01*
X154283048Y-123898905D01*
X154330667Y-123994143D01*
X154378286Y-124041762D01*
X154473524Y-124089381D01*
X154664001Y-124089381D01*
X154759239Y-124041762D01*
X154806858Y-123994143D01*
X154854477Y-123898905D01*
X154854477Y-123708429D01*
X154806858Y-123613190D01*
X154759239Y-123565571D01*
X154664001Y-123517952D01*
X153064096Y-129545381D02*
X153064096Y-130259667D01*
X153016476Y-130402524D01*
X152921238Y-130497762D01*
X152778381Y-130545381D01*
X152683143Y-130545381D01*
X153445048Y-129545381D02*
X154064096Y-129545381D01*
X153730762Y-129926333D01*
X153873620Y-129926333D01*
X153968858Y-129973952D01*
X154016477Y-130021571D01*
X154064096Y-130116810D01*
X154064096Y-130354905D01*
X154016477Y-130450143D01*
X153968858Y-130497762D01*
X153873620Y-130545381D01*
X153587905Y-130545381D01*
X153492667Y-130497762D01*
X153445048Y-130450143D01*
X154540286Y-130545381D02*
X154730762Y-130545381D01*
X154826001Y-130497762D01*
X154873620Y-130450143D01*
X154968858Y-130307286D01*
X155016477Y-130116810D01*
X155016477Y-129735857D01*
X154968858Y-129640619D01*
X154921239Y-129593000D01*
X154826001Y-129545381D01*
X154635524Y-129545381D01*
X154540286Y-129593000D01*
X154492667Y-129640619D01*
X154445048Y-129735857D01*
X154445048Y-129973952D01*
X154492667Y-130069190D01*
X154540286Y-130116810D01*
X154635524Y-130164429D01*
X154826001Y-130164429D01*
X154921239Y-130116810D01*
X154968858Y-130069190D01*
X155016477Y-129973952D01*
X153191096Y-136382381D02*
X153191096Y-137096667D01*
X153143476Y-137239524D01*
X153048238Y-137334762D01*
X152905381Y-137382381D01*
X152810143Y-137382381D01*
X154095858Y-136715714D02*
X154095858Y-137382381D01*
X153857762Y-136334762D02*
X153619667Y-137049048D01*
X154238715Y-137049048D01*
X154810143Y-136382381D02*
X154905382Y-136382381D01*
X155000620Y-136430000D01*
X155048239Y-136477619D01*
X155095858Y-136572857D01*
X155143477Y-136763333D01*
X155143477Y-137001429D01*
X155095858Y-137191905D01*
X155048239Y-137287143D01*
X155000620Y-137334762D01*
X154905382Y-137382381D01*
X154810143Y-137382381D01*
X154714905Y-137334762D01*
X154667286Y-137287143D01*
X154619667Y-137191905D01*
X154572048Y-137001429D01*
X154572048Y-136763333D01*
X154619667Y-136572857D01*
X154667286Y-136477619D01*
X154714905Y-136430000D01*
X154810143Y-136382381D01*
X170634096Y-123215381D02*
X170634096Y-123929667D01*
X170586476Y-124072524D01*
X170491238Y-124167762D01*
X170348381Y-124215381D01*
X170253143Y-124215381D01*
X171538858Y-123548714D02*
X171538858Y-124215381D01*
X171300762Y-123167762D02*
X171062667Y-123882048D01*
X171681715Y-123882048D01*
X172586477Y-124215381D02*
X172015048Y-124215381D01*
X172300762Y-124215381D02*
X172300762Y-123215381D01*
X172205524Y-123358238D01*
X172110286Y-123453476D01*
X172015048Y-123501095D01*
X170682096Y-130053381D02*
X170682096Y-130767667D01*
X170634476Y-130910524D01*
X170539238Y-131005762D01*
X170396381Y-131053381D01*
X170301143Y-131053381D01*
X171586858Y-130386714D02*
X171586858Y-131053381D01*
X171348762Y-130005762D02*
X171110667Y-130720048D01*
X171729715Y-130720048D01*
X172063048Y-130148619D02*
X172110667Y-130101000D01*
X172205905Y-130053381D01*
X172444001Y-130053381D01*
X172539239Y-130101000D01*
X172586858Y-130148619D01*
X172634477Y-130243857D01*
X172634477Y-130339095D01*
X172586858Y-130481952D01*
X172015429Y-131053381D01*
X172634477Y-131053381D01*
X170599096Y-136444381D02*
X170599096Y-137158667D01*
X170551476Y-137301524D01*
X170456238Y-137396762D01*
X170313381Y-137444381D01*
X170218143Y-137444381D01*
X171503858Y-136777714D02*
X171503858Y-137444381D01*
X171265762Y-136396762D02*
X171027667Y-137111048D01*
X171646715Y-137111048D01*
X171932429Y-136444381D02*
X172551477Y-136444381D01*
X172218143Y-136825333D01*
X172361001Y-136825333D01*
X172456239Y-136872952D01*
X172503858Y-136920571D01*
X172551477Y-137015810D01*
X172551477Y-137253905D01*
X172503858Y-137349143D01*
X172456239Y-137396762D01*
X172361001Y-137444381D01*
X172075286Y-137444381D01*
X171980048Y-137396762D01*
X171932429Y-137349143D01*
X162138096Y-123089381D02*
X162138096Y-123803667D01*
X162090476Y-123946524D01*
X161995238Y-124041762D01*
X161852381Y-124089381D01*
X161757143Y-124089381D01*
X163042858Y-123422714D02*
X163042858Y-124089381D01*
X162804762Y-123041762D02*
X162566667Y-123756048D01*
X163185715Y-123756048D01*
X163995239Y-123422714D02*
X163995239Y-124089381D01*
X163757143Y-123041762D02*
X163519048Y-123756048D01*
X164138096Y-123756048D01*
X162322096Y-129629381D02*
X162322096Y-130343667D01*
X162274476Y-130486524D01*
X162179238Y-130581762D01*
X162036381Y-130629381D01*
X161941143Y-130629381D01*
X163226858Y-129962714D02*
X163226858Y-130629381D01*
X162988762Y-129581762D02*
X162750667Y-130296048D01*
X163369715Y-130296048D01*
X164226858Y-129629381D02*
X163750667Y-129629381D01*
X163703048Y-130105571D01*
X163750667Y-130057952D01*
X163845905Y-130010333D01*
X164084001Y-130010333D01*
X164179239Y-130057952D01*
X164226858Y-130105571D01*
X164274477Y-130200810D01*
X164274477Y-130438905D01*
X164226858Y-130534143D01*
X164179239Y-130581762D01*
X164084001Y-130629381D01*
X163845905Y-130629381D01*
X163750667Y-130581762D01*
X163703048Y-130534143D01*
X162414096Y-136381381D02*
X162414096Y-137095667D01*
X162366476Y-137238524D01*
X162271238Y-137333762D01*
X162128381Y-137381381D01*
X162033143Y-137381381D01*
X163318858Y-136714714D02*
X163318858Y-137381381D01*
X163080762Y-136333762D02*
X162842667Y-137048048D01*
X163461715Y-137048048D01*
X164271239Y-136381381D02*
X164080762Y-136381381D01*
X163985524Y-136429000D01*
X163937905Y-136476619D01*
X163842667Y-136619476D01*
X163795048Y-136809952D01*
X163795048Y-137190905D01*
X163842667Y-137286143D01*
X163890286Y-137333762D01*
X163985524Y-137381381D01*
X164176001Y-137381381D01*
X164271239Y-137333762D01*
X164318858Y-137286143D01*
X164366477Y-137190905D01*
X164366477Y-136952810D01*
X164318858Y-136857571D01*
X164271239Y-136809952D01*
X164176001Y-136762333D01*
X163985524Y-136762333D01*
X163890286Y-136809952D01*
X163842667Y-136857571D01*
X163795048Y-136952810D01*
M02*
