G04 #@! TF.FileFunction,Soldermask,Top*
%FSLAX46Y46*%
G04 Gerber Fmt 4.6, Leading zero omitted, Abs format (unit mm)*
G04 Created by KiCad (PCBNEW 4.0.7) date 03/13/18 19:14:56*
%MOMM*%
%LPD*%
G01*
G04 APERTURE LIST*
%ADD10C,0.100000*%
%ADD11R,2.100000X2.100000*%
%ADD12O,2.100000X2.100000*%
G04 APERTURE END LIST*
D10*
D11*
X98044000Y-148082000D03*
D12*
X98044000Y-145542000D03*
X100584000Y-148082000D03*
X100584000Y-145542000D03*
X103124000Y-148082000D03*
X103124000Y-145542000D03*
X105664000Y-148082000D03*
X105664000Y-145542000D03*
X108204000Y-148082000D03*
X108204000Y-145542000D03*
X110744000Y-148082000D03*
X110744000Y-145542000D03*
X113284000Y-148082000D03*
X113284000Y-145542000D03*
X115824000Y-148082000D03*
X115824000Y-145542000D03*
X118364000Y-148082000D03*
X118364000Y-145542000D03*
X120904000Y-148082000D03*
X120904000Y-145542000D03*
X123444000Y-148082000D03*
X123444000Y-145542000D03*
X125984000Y-148082000D03*
X125984000Y-145542000D03*
X128524000Y-148082000D03*
X128524000Y-145542000D03*
X131064000Y-148082000D03*
X131064000Y-145542000D03*
X133604000Y-148082000D03*
X133604000Y-145542000D03*
X136144000Y-148082000D03*
X136144000Y-145542000D03*
X138684000Y-148082000D03*
X138684000Y-145542000D03*
X141224000Y-148082000D03*
X141224000Y-145542000D03*
X143764000Y-148082000D03*
X143764000Y-145542000D03*
X146304000Y-148082000D03*
X146304000Y-145542000D03*
X148844000Y-148082000D03*
X148844000Y-145542000D03*
X151384000Y-148082000D03*
X151384000Y-145542000D03*
X153924000Y-148082000D03*
X153924000Y-145542000D03*
X156464000Y-148082000D03*
X156464000Y-145542000D03*
X159004000Y-148082000D03*
X159004000Y-145542000D03*
X161544000Y-148082000D03*
X161544000Y-145542000D03*
X164084000Y-148082000D03*
X164084000Y-145542000D03*
X166624000Y-148082000D03*
X166624000Y-145542000D03*
X169164000Y-148082000D03*
X169164000Y-145542000D03*
X171704000Y-148082000D03*
X171704000Y-145542000D03*
D11*
X91897619Y-75187000D03*
X107829619Y-75187000D03*
X123923619Y-75187000D03*
X140525619Y-75187000D03*
X157127619Y-75187000D03*
X173221619Y-75187000D03*
X91897619Y-95105000D03*
X107991619Y-95105000D03*
X124085619Y-95105000D03*
X140687619Y-95105000D03*
X156781619Y-95105000D03*
X173015619Y-94999000D03*
X91595619Y-114409000D03*
X108153619Y-114515000D03*
X123739619Y-114515000D03*
X140849619Y-114515000D03*
X156435619Y-114515000D03*
X173037619Y-114515000D03*
X91849619Y-66001000D03*
X107645619Y-65853000D03*
X123739619Y-65853000D03*
X140341619Y-65853000D03*
X156943619Y-65853000D03*
X173037619Y-65853000D03*
X91897619Y-84755000D03*
X107991619Y-84755000D03*
X124085619Y-84755000D03*
X140687619Y-84755000D03*
X156921619Y-84861000D03*
X173015619Y-84861000D03*
X91573619Y-104673000D03*
X108175619Y-104673000D03*
X123901619Y-104779000D03*
X141011619Y-104779000D03*
X156597619Y-105287000D03*
X173177619Y-105139000D03*
X153711619Y-125967000D03*
X153873619Y-132423000D03*
X154000619Y-139260000D03*
X171443619Y-126093000D03*
X171491619Y-132931000D03*
X171408619Y-139322000D03*
X162947619Y-125967000D03*
X163131619Y-132507000D03*
X163223619Y-139259000D03*
M02*
