M48
;DRILL file {KiCad 4.0.7} date 03/13/18 20:57:35
;FORMAT={-:-/ absolute / inch / decimal}
FMAT,2
INCH,TZ
T1C0.016
T2C0.039
%
G90
G05
M72
T1
X6.875Y-4.955
T2
X4.545Y-2.705
X4.555Y-3.105
X4.565Y-3.545
X4.565Y-4.025
X4.565Y-4.465
X4.565Y-4.955
X4.995Y-2.705
X5.005Y-3.105
X5.015Y-3.545
X5.015Y-4.025
X5.015Y-4.465
X5.015Y-4.955
X5.48Y-2.705
X5.49Y-3.105
X5.5Y-3.545
X5.5Y-4.025
X5.5Y-4.465
X5.5Y-4.955
X5.94Y-2.705
X5.95Y-3.105
X5.96Y-3.545
X5.96Y-4.025
X5.96Y-4.465
X5.96Y-4.955
X6.395Y-2.705
X6.405Y-3.105
X6.415Y-3.545
X6.415Y-4.025
X6.415Y-4.465
X6.415Y-4.955
X6.855Y-2.705
X6.865Y-3.105
X6.875Y-3.545
X6.875Y-4.025
X6.875Y-4.465
X6.875Y-4.955
X7.6122Y-2.6491
X7.6122Y-2.7491
X7.6122Y-2.8491
X7.6122Y-2.9491
X7.6122Y-3.0491
X7.6122Y-3.1491
X7.6122Y-3.2491
X7.6122Y-3.3491
X7.6122Y-3.4491
X7.6122Y-3.5491
X7.6122Y-3.6491
X7.6122Y-3.7491
X7.6122Y-3.8491
X7.6122Y-3.9491
X7.6122Y-4.0491
X7.6122Y-4.1491
X7.6122Y-4.2491
X7.6122Y-4.3491
X7.6122Y-4.4491
X7.6122Y-4.5491
X7.6122Y-4.6491
X7.6122Y-4.7491
X7.6122Y-4.8491
X7.6122Y-4.9491
X7.6122Y-5.0491
X7.6122Y-5.1491
X7.6122Y-5.2491
X7.6122Y-5.3491
X7.6122Y-5.4491
X7.6122Y-5.5491
X7.7122Y-2.6491
X7.7122Y-2.7491
X7.7122Y-2.8491
X7.7122Y-2.9491
X7.7122Y-3.0491
X7.7122Y-3.1491
X7.7122Y-3.2491
X7.7122Y-3.3491
X7.7122Y-3.4491
X7.7122Y-3.5491
X7.7122Y-3.6491
X7.7122Y-3.7491
X7.7122Y-3.8491
X7.7122Y-3.9491
X7.7122Y-4.0491
X7.7122Y-4.1491
X7.7122Y-4.2491
X7.7122Y-4.3491
X7.7122Y-4.4491
X7.7122Y-4.5491
X7.7122Y-4.6491
X7.7122Y-4.7491
X7.7122Y-4.8491
X7.7122Y-4.9491
X7.7122Y-5.0491
X7.7122Y-5.1491
X7.7122Y-5.2491
X7.7122Y-5.3491
X7.7122Y-5.4491
X7.7122Y-5.5491
T0
M30
