G04 #@! TF.FileFunction,Copper,L1,Top,Signal*
%FSLAX46Y46*%
G04 Gerber Fmt 4.6, Leading zero omitted, Abs format (unit mm)*
G04 Created by KiCad (PCBNEW 4.0.7) date 03/13/18 20:50:31*
%MOMM*%
%LPD*%
G01*
G04 APERTURE LIST*
%ADD10C,0.100000*%
%ADD11R,1.700000X1.700000*%
%ADD12O,1.700000X1.700000*%
%ADD13C,0.600000*%
%ADD14C,0.250000*%
G04 APERTURE END LIST*
D10*
D11*
X115951000Y-125857000D03*
X127381000Y-125857000D03*
X139700000Y-125857000D03*
X151384000Y-125857000D03*
X162941000Y-125857000D03*
X174625000Y-125857000D03*
X115951000Y-113411000D03*
X127381000Y-113411000D03*
X139700000Y-113411000D03*
X151384000Y-113411000D03*
X162941000Y-113411000D03*
X174625000Y-113411000D03*
X115951000Y-102235000D03*
X127381000Y-102235000D03*
X139700000Y-102235000D03*
X151384000Y-102235000D03*
X162941000Y-102235000D03*
X174625000Y-102235000D03*
X115951000Y-90043000D03*
X127381000Y-90043000D03*
X139700000Y-90043000D03*
X151384000Y-90043000D03*
X162941000Y-90043000D03*
X174625000Y-90043000D03*
X115697000Y-78867000D03*
X127127000Y-78867000D03*
X139446000Y-78867000D03*
X151130000Y-78867000D03*
X162687000Y-78867000D03*
X174371000Y-78867000D03*
X115443000Y-68707000D03*
X126873000Y-68707000D03*
X139192000Y-68707000D03*
X150876000Y-68707000D03*
X162433000Y-68707000D03*
X174117000Y-68707000D03*
X193350096Y-67288000D03*
D12*
X195890096Y-67288000D03*
X193350096Y-69828000D03*
X195890096Y-69828000D03*
X193350096Y-72368000D03*
X195890096Y-72368000D03*
X193350096Y-74908000D03*
X195890096Y-74908000D03*
X193350096Y-77448000D03*
X195890096Y-77448000D03*
X193350096Y-79988000D03*
X195890096Y-79988000D03*
X193350096Y-82528000D03*
X195890096Y-82528000D03*
X193350096Y-85068000D03*
X195890096Y-85068000D03*
X193350096Y-87608000D03*
X195890096Y-87608000D03*
X193350096Y-90148000D03*
X195890096Y-90148000D03*
X193350096Y-92688000D03*
X195890096Y-92688000D03*
X193350096Y-95228000D03*
X195890096Y-95228000D03*
X193350096Y-97768000D03*
X195890096Y-97768000D03*
X193350096Y-100308000D03*
X195890096Y-100308000D03*
X193350096Y-102848000D03*
X195890096Y-102848000D03*
X193350096Y-105388000D03*
X195890096Y-105388000D03*
X193350096Y-107928000D03*
X195890096Y-107928000D03*
X193350096Y-110468000D03*
X195890096Y-110468000D03*
X193350096Y-113008000D03*
X195890096Y-113008000D03*
X193350096Y-115548000D03*
X195890096Y-115548000D03*
X193350096Y-118088000D03*
X195890096Y-118088000D03*
X193350096Y-120628000D03*
X195890096Y-120628000D03*
X193350096Y-123168000D03*
X195890096Y-123168000D03*
X193350096Y-125708000D03*
X195890096Y-125708000D03*
X193350096Y-128248000D03*
X195890096Y-128248000D03*
X193350096Y-130788000D03*
X195890096Y-130788000D03*
X193350096Y-133328000D03*
X195890096Y-133328000D03*
X193350096Y-135868000D03*
X195890096Y-135868000D03*
X193350096Y-138408000D03*
X195890096Y-138408000D03*
X193350096Y-140948000D03*
X195890096Y-140948000D03*
D13*
X174625000Y-125857000D03*
D14*
X113554399Y-61699958D02*
X186662054Y-61699958D01*
X109959956Y-65294400D02*
X113554399Y-61699958D01*
X109959956Y-118765956D02*
X109959956Y-65294400D01*
X115951000Y-124757000D02*
X109959956Y-118765956D01*
X186662054Y-61699958D02*
X192250096Y-67288000D01*
X192250096Y-67288000D02*
X193350096Y-67288000D01*
X115951000Y-125857000D02*
X115951000Y-124757000D01*
X194715095Y-81352999D02*
X195890096Y-82528000D01*
X192230055Y-81352999D02*
X194715095Y-81352999D01*
X147900959Y-121273959D02*
X147900959Y-66851397D01*
X147900959Y-66851397D02*
X149470410Y-65281946D01*
X176159002Y-65281946D02*
X192230055Y-81352999D01*
X149470410Y-65281946D02*
X176159002Y-65281946D01*
X151384000Y-124757000D02*
X147900959Y-121273959D01*
X151384000Y-125857000D02*
X151384000Y-124757000D01*
X193350096Y-97768000D02*
X165261096Y-125857000D01*
X165261096Y-125857000D02*
X162941000Y-125857000D01*
X113740799Y-62149969D02*
X185672065Y-62149969D01*
X110409967Y-106769967D02*
X110409967Y-65480800D01*
X185672065Y-62149969D02*
X193350096Y-69828000D01*
X110409967Y-65480800D02*
X113740799Y-62149969D01*
X115951000Y-112311000D02*
X110409967Y-106769967D01*
X115951000Y-113411000D02*
X115951000Y-112311000D01*
X190950011Y-80709366D02*
X190950011Y-82363600D01*
X190950011Y-82363600D02*
X192289412Y-83703001D01*
X194525097Y-83703001D02*
X195890096Y-85068000D01*
X149656810Y-65731957D02*
X175972602Y-65731957D01*
X192289412Y-83703001D02*
X194525097Y-83703001D01*
X151384000Y-112311000D02*
X148350970Y-109277970D01*
X151384000Y-113411000D02*
X151384000Y-112311000D01*
X148350970Y-67037797D02*
X149656810Y-65731957D01*
X175972602Y-65731957D02*
X190950011Y-80709366D01*
X148350970Y-109277970D02*
X148350970Y-67037797D01*
X192148015Y-100308000D02*
X193350096Y-100308000D01*
X160376017Y-127356013D02*
X161290001Y-128270000D01*
X160376017Y-117075983D02*
X160376017Y-127356013D01*
X164186015Y-128270000D02*
X192148015Y-100308000D01*
X162941000Y-114511000D02*
X160376017Y-117075983D01*
X162941000Y-113411000D02*
X162941000Y-114511000D01*
X161290001Y-128270000D02*
X164186015Y-128270000D01*
X115951000Y-102235000D02*
X115951000Y-101135000D01*
X113927199Y-62599980D02*
X183582076Y-62599980D01*
X183582076Y-62599980D02*
X193350096Y-72368000D01*
X115951000Y-101135000D02*
X110859978Y-96043978D01*
X110859978Y-96043978D02*
X110859978Y-65667200D01*
X110859978Y-65667200D02*
X113927199Y-62599980D01*
X194525097Y-86243001D02*
X195890096Y-87608000D01*
X190500000Y-80895766D02*
X190500000Y-83956906D01*
X148800981Y-67224197D02*
X149843210Y-66181968D01*
X175786202Y-66181968D02*
X190500000Y-80895766D01*
X192786095Y-86243001D02*
X194525097Y-86243001D01*
X190500000Y-83956906D02*
X192786095Y-86243001D01*
X149843210Y-66181968D02*
X175786202Y-66181968D01*
X148800981Y-98551981D02*
X148800981Y-67224197D01*
X151384000Y-101135000D02*
X148800981Y-98551981D01*
X151384000Y-102235000D02*
X151384000Y-101135000D01*
X162941000Y-103335000D02*
X162941000Y-102235000D01*
X159926006Y-106349994D02*
X162941000Y-103335000D01*
X159926006Y-127542413D02*
X159926006Y-106349994D01*
X161103601Y-128720011D02*
X159926006Y-127542413D01*
X193350096Y-102848000D02*
X191152769Y-102848000D01*
X191152769Y-102848000D02*
X165280758Y-128720011D01*
X165280758Y-128720011D02*
X161103601Y-128720011D01*
X181492087Y-63049991D02*
X193350096Y-74908000D01*
X114113599Y-63049991D02*
X181492087Y-63049991D01*
X111309989Y-65853600D02*
X114113599Y-63049991D01*
X111309989Y-84301989D02*
X111309989Y-65853600D01*
X115951000Y-88943000D02*
X111309989Y-84301989D01*
X115951000Y-90043000D02*
X115951000Y-88943000D01*
X194715095Y-88972999D02*
X195890096Y-90148000D01*
X191564095Y-88972999D02*
X194715095Y-88972999D01*
X175599802Y-66631979D02*
X189230000Y-80262177D01*
X189230000Y-86638904D02*
X191564095Y-88972999D01*
X189230000Y-80262177D02*
X189230000Y-86638904D01*
X150029610Y-66631979D02*
X175599802Y-66631979D01*
X149250992Y-67410597D02*
X150029610Y-66631979D01*
X149250992Y-86809992D02*
X149250992Y-67410597D01*
X151384000Y-90043000D02*
X151384000Y-88943000D01*
X151384000Y-88943000D02*
X149250992Y-86809992D01*
X159475995Y-94608005D02*
X162941000Y-91143000D01*
X189249180Y-105388000D02*
X165467158Y-129170022D01*
X162941000Y-91143000D02*
X162941000Y-90043000D01*
X193350096Y-105388000D02*
X189249180Y-105388000D01*
X165467158Y-129170022D02*
X160917201Y-129170022D01*
X159475995Y-127728813D02*
X159475995Y-94608005D01*
X160917201Y-129170022D02*
X159475995Y-127728813D01*
X115697000Y-78867000D02*
X113157000Y-78867000D01*
X114300000Y-63500000D02*
X179402096Y-63500000D01*
X113157000Y-78867000D02*
X111760000Y-77470000D01*
X111760000Y-77470000D02*
X111760000Y-66040000D01*
X111760000Y-66040000D02*
X114300000Y-63500000D01*
X179402096Y-63500000D02*
X193350096Y-77448000D01*
X149700999Y-76337999D02*
X149700999Y-67596999D01*
X194525097Y-91323001D02*
X195890096Y-92688000D01*
X151130000Y-77767000D02*
X149700999Y-76337999D01*
X187960000Y-87630000D02*
X191653001Y-91323001D01*
X187960000Y-79628587D02*
X187960000Y-87630000D01*
X151130000Y-78867000D02*
X151130000Y-77767000D01*
X191653001Y-91323001D02*
X194525097Y-91323001D01*
X149700999Y-67596999D02*
X150216009Y-67081989D01*
X150216009Y-67081989D02*
X175413401Y-67081988D01*
X175413401Y-67081988D02*
X187960000Y-79628587D01*
X162687000Y-79967000D02*
X162687000Y-78867000D01*
X160730801Y-129620033D02*
X159025984Y-127915214D01*
X187345590Y-107928000D02*
X165653557Y-129620033D01*
X165653557Y-129620033D02*
X160730801Y-129620033D01*
X159025985Y-83628015D02*
X162687000Y-79967000D01*
X159025984Y-127915214D02*
X159025985Y-83628015D01*
X193350096Y-107928000D02*
X187345590Y-107928000D01*
X115570000Y-64770000D02*
X178132096Y-64770000D01*
X178132096Y-64770000D02*
X193350096Y-79988000D01*
X115443000Y-64897000D02*
X115570000Y-64770000D01*
X115443000Y-68707000D02*
X115443000Y-64897000D01*
X150876000Y-68707000D02*
X151976000Y-68707000D01*
X191770000Y-93863001D02*
X194525097Y-93863001D01*
X151976000Y-68707000D02*
X153151001Y-67531999D01*
X153151001Y-67531999D02*
X175227001Y-67531999D01*
X175227001Y-67531999D02*
X186690000Y-78994998D01*
X194525097Y-93863001D02*
X195890096Y-95228000D01*
X186690000Y-78994998D02*
X186690000Y-88783001D01*
X186690000Y-88783001D02*
X191770000Y-93863001D01*
X162433000Y-68707000D02*
X162433000Y-69807000D01*
X158575974Y-128101613D02*
X160544401Y-130070044D01*
X162433000Y-69807000D02*
X158575975Y-73664025D01*
X158575975Y-73664025D02*
X158575974Y-128101613D01*
X160544401Y-130070044D02*
X165839956Y-130070044D01*
X165839956Y-130070044D02*
X185442000Y-110468000D01*
X185442000Y-110468000D02*
X193350096Y-110468000D01*
M02*
