G04 #@! TF.FileFunction,Legend,Top*
%FSLAX46Y46*%
G04 Gerber Fmt 4.6, Leading zero omitted, Abs format (unit mm)*
G04 Created by KiCad (PCBNEW 4.0.7) date 03/14/18 21:09:22*
%MOMM*%
%LPD*%
G01*
G04 APERTURE LIST*
%ADD10C,0.100000*%
%ADD11C,0.300000*%
%ADD12C,0.120000*%
%ADD13C,0.150000*%
G04 APERTURE END LIST*
D10*
D11*
X111375715Y-142760714D02*
X111304286Y-142832143D01*
X111090000Y-142903571D01*
X110947143Y-142903571D01*
X110732858Y-142832143D01*
X110590000Y-142689286D01*
X110518572Y-142546429D01*
X110447143Y-142260714D01*
X110447143Y-142046429D01*
X110518572Y-141760714D01*
X110590000Y-141617857D01*
X110732858Y-141475000D01*
X110947143Y-141403571D01*
X111090000Y-141403571D01*
X111304286Y-141475000D01*
X111375715Y-141546429D01*
X112232858Y-142903571D02*
X112090000Y-142832143D01*
X112018572Y-142760714D01*
X111947143Y-142617857D01*
X111947143Y-142189286D01*
X112018572Y-142046429D01*
X112090000Y-141975000D01*
X112232858Y-141903571D01*
X112447143Y-141903571D01*
X112590000Y-141975000D01*
X112661429Y-142046429D01*
X112732858Y-142189286D01*
X112732858Y-142617857D01*
X112661429Y-142760714D01*
X112590000Y-142832143D01*
X112447143Y-142903571D01*
X112232858Y-142903571D01*
X113375715Y-141903571D02*
X113375715Y-142903571D01*
X113375715Y-142046429D02*
X113447143Y-141975000D01*
X113590001Y-141903571D01*
X113804286Y-141903571D01*
X113947143Y-141975000D01*
X114018572Y-142117857D01*
X114018572Y-142903571D01*
X114732858Y-141903571D02*
X114732858Y-142903571D01*
X114732858Y-142046429D02*
X114804286Y-141975000D01*
X114947144Y-141903571D01*
X115161429Y-141903571D01*
X115304286Y-141975000D01*
X115375715Y-142117857D01*
X115375715Y-142903571D01*
X116304287Y-142903571D02*
X116161429Y-142832143D01*
X116090001Y-142760714D01*
X116018572Y-142617857D01*
X116018572Y-142189286D01*
X116090001Y-142046429D01*
X116161429Y-141975000D01*
X116304287Y-141903571D01*
X116518572Y-141903571D01*
X116661429Y-141975000D01*
X116732858Y-142046429D01*
X116804287Y-142189286D01*
X116804287Y-142617857D01*
X116732858Y-142760714D01*
X116661429Y-142832143D01*
X116518572Y-142903571D01*
X116304287Y-142903571D01*
X117447144Y-142903571D02*
X117447144Y-141903571D01*
X117447144Y-142189286D02*
X117518572Y-142046429D01*
X117590001Y-141975000D01*
X117732858Y-141903571D01*
X117875715Y-141903571D01*
X119518572Y-142903571D02*
X119518572Y-141403571D01*
X120375715Y-142903571D01*
X120375715Y-141403571D01*
X121661429Y-142832143D02*
X121518572Y-142903571D01*
X121232858Y-142903571D01*
X121090001Y-142832143D01*
X121018572Y-142689286D01*
X121018572Y-142117857D01*
X121090001Y-141975000D01*
X121232858Y-141903571D01*
X121518572Y-141903571D01*
X121661429Y-141975000D01*
X121732858Y-142117857D01*
X121732858Y-142260714D01*
X121018572Y-142403571D01*
X122375715Y-142903571D02*
X122375715Y-141903571D01*
X122375715Y-141403571D02*
X122304286Y-141475000D01*
X122375715Y-141546429D01*
X122447143Y-141475000D01*
X122375715Y-141403571D01*
X122375715Y-141546429D01*
X123304287Y-142903571D02*
X123161429Y-142832143D01*
X123090001Y-142689286D01*
X123090001Y-141403571D01*
X103661429Y-144667857D02*
X104161429Y-144667857D01*
X104375715Y-145453571D02*
X103661429Y-145453571D01*
X103661429Y-143953571D01*
X104375715Y-143953571D01*
X105232858Y-145453571D02*
X105090000Y-145382143D01*
X105018572Y-145239286D01*
X105018572Y-143953571D01*
X106375714Y-145382143D02*
X106232857Y-145453571D01*
X105947143Y-145453571D01*
X105804286Y-145382143D01*
X105732857Y-145239286D01*
X105732857Y-144667857D01*
X105804286Y-144525000D01*
X105947143Y-144453571D01*
X106232857Y-144453571D01*
X106375714Y-144525000D01*
X106447143Y-144667857D01*
X106447143Y-144810714D01*
X105732857Y-144953571D01*
X107732857Y-145382143D02*
X107590000Y-145453571D01*
X107304286Y-145453571D01*
X107161428Y-145382143D01*
X107090000Y-145310714D01*
X107018571Y-145167857D01*
X107018571Y-144739286D01*
X107090000Y-144596429D01*
X107161428Y-144525000D01*
X107304286Y-144453571D01*
X107590000Y-144453571D01*
X107732857Y-144525000D01*
X108161428Y-144453571D02*
X108732857Y-144453571D01*
X108375714Y-143953571D02*
X108375714Y-145239286D01*
X108447142Y-145382143D01*
X108590000Y-145453571D01*
X108732857Y-145453571D01*
X109232857Y-145453571D02*
X109232857Y-144453571D01*
X109232857Y-144739286D02*
X109304285Y-144596429D01*
X109375714Y-144525000D01*
X109518571Y-144453571D01*
X109661428Y-144453571D01*
X110375714Y-145453571D02*
X110232856Y-145382143D01*
X110161428Y-145310714D01*
X110089999Y-145167857D01*
X110089999Y-144739286D01*
X110161428Y-144596429D01*
X110232856Y-144525000D01*
X110375714Y-144453571D01*
X110589999Y-144453571D01*
X110732856Y-144525000D01*
X110804285Y-144596429D01*
X110875714Y-144739286D01*
X110875714Y-145167857D01*
X110804285Y-145310714D01*
X110732856Y-145382143D01*
X110589999Y-145453571D01*
X110375714Y-145453571D01*
X111518571Y-144453571D02*
X111518571Y-145453571D01*
X111518571Y-144596429D02*
X111589999Y-144525000D01*
X111732857Y-144453571D01*
X111947142Y-144453571D01*
X112089999Y-144525000D01*
X112161428Y-144667857D01*
X112161428Y-145453571D01*
X112875714Y-145453571D02*
X112875714Y-144453571D01*
X112875714Y-143953571D02*
X112804285Y-144025000D01*
X112875714Y-144096429D01*
X112947142Y-144025000D01*
X112875714Y-143953571D01*
X112875714Y-144096429D01*
X114232857Y-145382143D02*
X114090000Y-145453571D01*
X113804286Y-145453571D01*
X113661428Y-145382143D01*
X113590000Y-145310714D01*
X113518571Y-145167857D01*
X113518571Y-144739286D01*
X113590000Y-144596429D01*
X113661428Y-144525000D01*
X113804286Y-144453571D01*
X114090000Y-144453571D01*
X114232857Y-144525000D01*
X116018571Y-145453571D02*
X116018571Y-143953571D01*
X116375714Y-143953571D01*
X116589999Y-144025000D01*
X116732857Y-144167857D01*
X116804285Y-144310714D01*
X116875714Y-144596429D01*
X116875714Y-144810714D01*
X116804285Y-145096429D01*
X116732857Y-145239286D01*
X116589999Y-145382143D01*
X116375714Y-145453571D01*
X116018571Y-145453571D01*
X118089999Y-145382143D02*
X117947142Y-145453571D01*
X117661428Y-145453571D01*
X117518571Y-145382143D01*
X117447142Y-145239286D01*
X117447142Y-144667857D01*
X117518571Y-144525000D01*
X117661428Y-144453571D01*
X117947142Y-144453571D01*
X118089999Y-144525000D01*
X118161428Y-144667857D01*
X118161428Y-144810714D01*
X117447142Y-144953571D01*
X118732856Y-145382143D02*
X118875713Y-145453571D01*
X119161428Y-145453571D01*
X119304285Y-145382143D01*
X119375713Y-145239286D01*
X119375713Y-145167857D01*
X119304285Y-145025000D01*
X119161428Y-144953571D01*
X118947142Y-144953571D01*
X118804285Y-144882143D01*
X118732856Y-144739286D01*
X118732856Y-144667857D01*
X118804285Y-144525000D01*
X118947142Y-144453571D01*
X119161428Y-144453571D01*
X119304285Y-144525000D01*
X120018571Y-145453571D02*
X120018571Y-144453571D01*
X120018571Y-143953571D02*
X119947142Y-144025000D01*
X120018571Y-144096429D01*
X120089999Y-144025000D01*
X120018571Y-143953571D01*
X120018571Y-144096429D01*
X121375714Y-144453571D02*
X121375714Y-145667857D01*
X121304285Y-145810714D01*
X121232857Y-145882143D01*
X121090000Y-145953571D01*
X120875714Y-145953571D01*
X120732857Y-145882143D01*
X121375714Y-145382143D02*
X121232857Y-145453571D01*
X120947143Y-145453571D01*
X120804285Y-145382143D01*
X120732857Y-145310714D01*
X120661428Y-145167857D01*
X120661428Y-144739286D01*
X120732857Y-144596429D01*
X120804285Y-144525000D01*
X120947143Y-144453571D01*
X121232857Y-144453571D01*
X121375714Y-144525000D01*
X122090000Y-144453571D02*
X122090000Y-145453571D01*
X122090000Y-144596429D02*
X122161428Y-144525000D01*
X122304286Y-144453571D01*
X122518571Y-144453571D01*
X122661428Y-144525000D01*
X122732857Y-144667857D01*
X122732857Y-145453571D01*
X125447143Y-145310714D02*
X125375714Y-145382143D01*
X125161428Y-145453571D01*
X125018571Y-145453571D01*
X124804286Y-145382143D01*
X124661428Y-145239286D01*
X124590000Y-145096429D01*
X124518571Y-144810714D01*
X124518571Y-144596429D01*
X124590000Y-144310714D01*
X124661428Y-144167857D01*
X124804286Y-144025000D01*
X125018571Y-143953571D01*
X125161428Y-143953571D01*
X125375714Y-144025000D01*
X125447143Y-144096429D01*
X126304286Y-145453571D02*
X126161428Y-145382143D01*
X126090000Y-145239286D01*
X126090000Y-143953571D01*
X127518571Y-144453571D02*
X127518571Y-145453571D01*
X126875714Y-144453571D02*
X126875714Y-145239286D01*
X126947142Y-145382143D01*
X127090000Y-145453571D01*
X127304285Y-145453571D01*
X127447142Y-145382143D01*
X127518571Y-145310714D01*
X128232857Y-145453571D02*
X128232857Y-143953571D01*
X128232857Y-144525000D02*
X128375714Y-144453571D01*
X128661428Y-144453571D01*
X128804285Y-144525000D01*
X128875714Y-144596429D01*
X128947143Y-144739286D01*
X128947143Y-145167857D01*
X128875714Y-145310714D01*
X128804285Y-145382143D01*
X128661428Y-145453571D01*
X128375714Y-145453571D01*
X128232857Y-145382143D01*
X112554286Y-148003571D02*
X111840000Y-148003571D01*
X111840000Y-146503571D01*
X113054286Y-147217857D02*
X113554286Y-147217857D01*
X113768572Y-148003571D02*
X113054286Y-148003571D01*
X113054286Y-146503571D01*
X113768572Y-146503571D01*
X114411429Y-148003571D02*
X114411429Y-146503571D01*
X114768572Y-146503571D01*
X114982857Y-146575000D01*
X115125715Y-146717857D01*
X115197143Y-146860714D01*
X115268572Y-147146429D01*
X115268572Y-147360714D01*
X115197143Y-147646429D01*
X115125715Y-147789286D01*
X114982857Y-147932143D01*
X114768572Y-148003571D01*
X114411429Y-148003571D01*
X117911429Y-147860714D02*
X117840000Y-147932143D01*
X117625714Y-148003571D01*
X117482857Y-148003571D01*
X117268572Y-147932143D01*
X117125714Y-147789286D01*
X117054286Y-147646429D01*
X116982857Y-147360714D01*
X116982857Y-147146429D01*
X117054286Y-146860714D01*
X117125714Y-146717857D01*
X117268572Y-146575000D01*
X117482857Y-146503571D01*
X117625714Y-146503571D01*
X117840000Y-146575000D01*
X117911429Y-146646429D01*
X119197143Y-147003571D02*
X119197143Y-148003571D01*
X118554286Y-147003571D02*
X118554286Y-147789286D01*
X118625714Y-147932143D01*
X118768572Y-148003571D01*
X118982857Y-148003571D01*
X119125714Y-147932143D01*
X119197143Y-147860714D01*
X119911429Y-148003571D02*
X119911429Y-146503571D01*
X119911429Y-147075000D02*
X120054286Y-147003571D01*
X120340000Y-147003571D01*
X120482857Y-147075000D01*
X120554286Y-147146429D01*
X120625715Y-147289286D01*
X120625715Y-147717857D01*
X120554286Y-147860714D01*
X120482857Y-147932143D01*
X120340000Y-148003571D01*
X120054286Y-148003571D01*
X119911429Y-147932143D01*
X121840000Y-147932143D02*
X121697143Y-148003571D01*
X121411429Y-148003571D01*
X121268572Y-147932143D01*
X121197143Y-147789286D01*
X121197143Y-147217857D01*
X121268572Y-147075000D01*
X121411429Y-147003571D01*
X121697143Y-147003571D01*
X121840000Y-147075000D01*
X121911429Y-147217857D01*
X121911429Y-147360714D01*
X121197143Y-147503571D01*
X111911430Y-149196429D02*
X111982859Y-149125000D01*
X112125716Y-149053571D01*
X112482859Y-149053571D01*
X112625716Y-149125000D01*
X112697145Y-149196429D01*
X112768573Y-149339286D01*
X112768573Y-149482143D01*
X112697145Y-149696429D01*
X111840002Y-150553571D01*
X112768573Y-150553571D01*
X113697144Y-149053571D02*
X113840001Y-149053571D01*
X113982858Y-149125000D01*
X114054287Y-149196429D01*
X114125716Y-149339286D01*
X114197144Y-149625000D01*
X114197144Y-149982143D01*
X114125716Y-150267857D01*
X114054287Y-150410714D01*
X113982858Y-150482143D01*
X113840001Y-150553571D01*
X113697144Y-150553571D01*
X113554287Y-150482143D01*
X113482858Y-150410714D01*
X113411430Y-150267857D01*
X113340001Y-149982143D01*
X113340001Y-149625000D01*
X113411430Y-149339286D01*
X113482858Y-149196429D01*
X113554287Y-149125000D01*
X113697144Y-149053571D01*
X115625715Y-150553571D02*
X114768572Y-150553571D01*
X115197144Y-150553571D02*
X115197144Y-149053571D01*
X115054287Y-149267857D01*
X114911429Y-149410714D01*
X114768572Y-149482143D01*
X116125715Y-149053571D02*
X117125715Y-149053571D01*
X116482858Y-150553571D01*
X117697143Y-149982143D02*
X118840000Y-149982143D01*
X120340000Y-150553571D02*
X119482857Y-150553571D01*
X119911429Y-150553571D02*
X119911429Y-149053571D01*
X119768572Y-149267857D01*
X119625714Y-149410714D01*
X119482857Y-149482143D01*
X121197143Y-149696429D02*
X121054285Y-149625000D01*
X120982857Y-149553571D01*
X120911428Y-149410714D01*
X120911428Y-149339286D01*
X120982857Y-149196429D01*
X121054285Y-149125000D01*
X121197143Y-149053571D01*
X121482857Y-149053571D01*
X121625714Y-149125000D01*
X121697143Y-149196429D01*
X121768571Y-149339286D01*
X121768571Y-149410714D01*
X121697143Y-149553571D01*
X121625714Y-149625000D01*
X121482857Y-149696429D01*
X121197143Y-149696429D01*
X121054285Y-149767857D01*
X120982857Y-149839286D01*
X120911428Y-149982143D01*
X120911428Y-150267857D01*
X120982857Y-150410714D01*
X121054285Y-150482143D01*
X121197143Y-150553571D01*
X121482857Y-150553571D01*
X121625714Y-150482143D01*
X121697143Y-150410714D01*
X121768571Y-150267857D01*
X121768571Y-149982143D01*
X121697143Y-149839286D01*
X121625714Y-149767857D01*
X121482857Y-149696429D01*
D12*
X114621000Y-127187000D02*
X117281000Y-127187000D01*
X114621000Y-127127000D02*
X114621000Y-127187000D01*
X117281000Y-127127000D02*
X117281000Y-127187000D01*
X114621000Y-127127000D02*
X117281000Y-127127000D01*
X114621000Y-125857000D02*
X114621000Y-124527000D01*
X114621000Y-124527000D02*
X115951000Y-124527000D01*
X126051000Y-127187000D02*
X128711000Y-127187000D01*
X126051000Y-127127000D02*
X126051000Y-127187000D01*
X128711000Y-127127000D02*
X128711000Y-127187000D01*
X126051000Y-127127000D02*
X128711000Y-127127000D01*
X126051000Y-125857000D02*
X126051000Y-124527000D01*
X126051000Y-124527000D02*
X127381000Y-124527000D01*
X138370000Y-127187000D02*
X141030000Y-127187000D01*
X138370000Y-127127000D02*
X138370000Y-127187000D01*
X141030000Y-127127000D02*
X141030000Y-127187000D01*
X138370000Y-127127000D02*
X141030000Y-127127000D01*
X138370000Y-125857000D02*
X138370000Y-124527000D01*
X138370000Y-124527000D02*
X139700000Y-124527000D01*
X150054000Y-127187000D02*
X152714000Y-127187000D01*
X150054000Y-127127000D02*
X150054000Y-127187000D01*
X152714000Y-127127000D02*
X152714000Y-127187000D01*
X150054000Y-127127000D02*
X152714000Y-127127000D01*
X150054000Y-125857000D02*
X150054000Y-124527000D01*
X150054000Y-124527000D02*
X151384000Y-124527000D01*
X161611000Y-127187000D02*
X164271000Y-127187000D01*
X161611000Y-127127000D02*
X161611000Y-127187000D01*
X164271000Y-127127000D02*
X164271000Y-127187000D01*
X161611000Y-127127000D02*
X164271000Y-127127000D01*
X161611000Y-125857000D02*
X161611000Y-124527000D01*
X161611000Y-124527000D02*
X162941000Y-124527000D01*
X173295000Y-127187000D02*
X175955000Y-127187000D01*
X173295000Y-127127000D02*
X173295000Y-127187000D01*
X175955000Y-127127000D02*
X175955000Y-127187000D01*
X173295000Y-127127000D02*
X175955000Y-127127000D01*
X173295000Y-125857000D02*
X173295000Y-124527000D01*
X173295000Y-124527000D02*
X174625000Y-124527000D01*
X114621000Y-114741000D02*
X117281000Y-114741000D01*
X114621000Y-114681000D02*
X114621000Y-114741000D01*
X117281000Y-114681000D02*
X117281000Y-114741000D01*
X114621000Y-114681000D02*
X117281000Y-114681000D01*
X114621000Y-113411000D02*
X114621000Y-112081000D01*
X114621000Y-112081000D02*
X115951000Y-112081000D01*
X126051000Y-114741000D02*
X128711000Y-114741000D01*
X126051000Y-114681000D02*
X126051000Y-114741000D01*
X128711000Y-114681000D02*
X128711000Y-114741000D01*
X126051000Y-114681000D02*
X128711000Y-114681000D01*
X126051000Y-113411000D02*
X126051000Y-112081000D01*
X126051000Y-112081000D02*
X127381000Y-112081000D01*
X138370000Y-114741000D02*
X141030000Y-114741000D01*
X138370000Y-114681000D02*
X138370000Y-114741000D01*
X141030000Y-114681000D02*
X141030000Y-114741000D01*
X138370000Y-114681000D02*
X141030000Y-114681000D01*
X138370000Y-113411000D02*
X138370000Y-112081000D01*
X138370000Y-112081000D02*
X139700000Y-112081000D01*
X150054000Y-114741000D02*
X152714000Y-114741000D01*
X150054000Y-114681000D02*
X150054000Y-114741000D01*
X152714000Y-114681000D02*
X152714000Y-114741000D01*
X150054000Y-114681000D02*
X152714000Y-114681000D01*
X150054000Y-113411000D02*
X150054000Y-112081000D01*
X150054000Y-112081000D02*
X151384000Y-112081000D01*
X161611000Y-114741000D02*
X164271000Y-114741000D01*
X161611000Y-114681000D02*
X161611000Y-114741000D01*
X164271000Y-114681000D02*
X164271000Y-114741000D01*
X161611000Y-114681000D02*
X164271000Y-114681000D01*
X161611000Y-113411000D02*
X161611000Y-112081000D01*
X161611000Y-112081000D02*
X162941000Y-112081000D01*
X173295000Y-114741000D02*
X175955000Y-114741000D01*
X173295000Y-114681000D02*
X173295000Y-114741000D01*
X175955000Y-114681000D02*
X175955000Y-114741000D01*
X173295000Y-114681000D02*
X175955000Y-114681000D01*
X173295000Y-113411000D02*
X173295000Y-112081000D01*
X173295000Y-112081000D02*
X174625000Y-112081000D01*
X114621000Y-103565000D02*
X117281000Y-103565000D01*
X114621000Y-103505000D02*
X114621000Y-103565000D01*
X117281000Y-103505000D02*
X117281000Y-103565000D01*
X114621000Y-103505000D02*
X117281000Y-103505000D01*
X114621000Y-102235000D02*
X114621000Y-100905000D01*
X114621000Y-100905000D02*
X115951000Y-100905000D01*
X126051000Y-103565000D02*
X128711000Y-103565000D01*
X126051000Y-103505000D02*
X126051000Y-103565000D01*
X128711000Y-103505000D02*
X128711000Y-103565000D01*
X126051000Y-103505000D02*
X128711000Y-103505000D01*
X126051000Y-102235000D02*
X126051000Y-100905000D01*
X126051000Y-100905000D02*
X127381000Y-100905000D01*
X138370000Y-103565000D02*
X141030000Y-103565000D01*
X138370000Y-103505000D02*
X138370000Y-103565000D01*
X141030000Y-103505000D02*
X141030000Y-103565000D01*
X138370000Y-103505000D02*
X141030000Y-103505000D01*
X138370000Y-102235000D02*
X138370000Y-100905000D01*
X138370000Y-100905000D02*
X139700000Y-100905000D01*
X150054000Y-103565000D02*
X152714000Y-103565000D01*
X150054000Y-103505000D02*
X150054000Y-103565000D01*
X152714000Y-103505000D02*
X152714000Y-103565000D01*
X150054000Y-103505000D02*
X152714000Y-103505000D01*
X150054000Y-102235000D02*
X150054000Y-100905000D01*
X150054000Y-100905000D02*
X151384000Y-100905000D01*
X161611000Y-103565000D02*
X164271000Y-103565000D01*
X161611000Y-103505000D02*
X161611000Y-103565000D01*
X164271000Y-103505000D02*
X164271000Y-103565000D01*
X161611000Y-103505000D02*
X164271000Y-103505000D01*
X161611000Y-102235000D02*
X161611000Y-100905000D01*
X161611000Y-100905000D02*
X162941000Y-100905000D01*
X173295000Y-103565000D02*
X175955000Y-103565000D01*
X173295000Y-103505000D02*
X173295000Y-103565000D01*
X175955000Y-103505000D02*
X175955000Y-103565000D01*
X173295000Y-103505000D02*
X175955000Y-103505000D01*
X173295000Y-102235000D02*
X173295000Y-100905000D01*
X173295000Y-100905000D02*
X174625000Y-100905000D01*
X114621000Y-91373000D02*
X117281000Y-91373000D01*
X114621000Y-91313000D02*
X114621000Y-91373000D01*
X117281000Y-91313000D02*
X117281000Y-91373000D01*
X114621000Y-91313000D02*
X117281000Y-91313000D01*
X114621000Y-90043000D02*
X114621000Y-88713000D01*
X114621000Y-88713000D02*
X115951000Y-88713000D01*
X126051000Y-91373000D02*
X128711000Y-91373000D01*
X126051000Y-91313000D02*
X126051000Y-91373000D01*
X128711000Y-91313000D02*
X128711000Y-91373000D01*
X126051000Y-91313000D02*
X128711000Y-91313000D01*
X126051000Y-90043000D02*
X126051000Y-88713000D01*
X126051000Y-88713000D02*
X127381000Y-88713000D01*
X138370000Y-91373000D02*
X141030000Y-91373000D01*
X138370000Y-91313000D02*
X138370000Y-91373000D01*
X141030000Y-91313000D02*
X141030000Y-91373000D01*
X138370000Y-91313000D02*
X141030000Y-91313000D01*
X138370000Y-90043000D02*
X138370000Y-88713000D01*
X138370000Y-88713000D02*
X139700000Y-88713000D01*
X150054000Y-91373000D02*
X152714000Y-91373000D01*
X150054000Y-91313000D02*
X150054000Y-91373000D01*
X152714000Y-91313000D02*
X152714000Y-91373000D01*
X150054000Y-91313000D02*
X152714000Y-91313000D01*
X150054000Y-90043000D02*
X150054000Y-88713000D01*
X150054000Y-88713000D02*
X151384000Y-88713000D01*
X161611000Y-91373000D02*
X164271000Y-91373000D01*
X161611000Y-91313000D02*
X161611000Y-91373000D01*
X164271000Y-91313000D02*
X164271000Y-91373000D01*
X161611000Y-91313000D02*
X164271000Y-91313000D01*
X161611000Y-90043000D02*
X161611000Y-88713000D01*
X161611000Y-88713000D02*
X162941000Y-88713000D01*
X173295000Y-91373000D02*
X175955000Y-91373000D01*
X173295000Y-91313000D02*
X173295000Y-91373000D01*
X175955000Y-91313000D02*
X175955000Y-91373000D01*
X173295000Y-91313000D02*
X175955000Y-91313000D01*
X173295000Y-90043000D02*
X173295000Y-88713000D01*
X173295000Y-88713000D02*
X174625000Y-88713000D01*
X114367000Y-80197000D02*
X117027000Y-80197000D01*
X114367000Y-80137000D02*
X114367000Y-80197000D01*
X117027000Y-80137000D02*
X117027000Y-80197000D01*
X114367000Y-80137000D02*
X117027000Y-80137000D01*
X114367000Y-78867000D02*
X114367000Y-77537000D01*
X114367000Y-77537000D02*
X115697000Y-77537000D01*
X125797000Y-80197000D02*
X128457000Y-80197000D01*
X125797000Y-80137000D02*
X125797000Y-80197000D01*
X128457000Y-80137000D02*
X128457000Y-80197000D01*
X125797000Y-80137000D02*
X128457000Y-80137000D01*
X125797000Y-78867000D02*
X125797000Y-77537000D01*
X125797000Y-77537000D02*
X127127000Y-77537000D01*
X138116000Y-80197000D02*
X140776000Y-80197000D01*
X138116000Y-80137000D02*
X138116000Y-80197000D01*
X140776000Y-80137000D02*
X140776000Y-80197000D01*
X138116000Y-80137000D02*
X140776000Y-80137000D01*
X138116000Y-78867000D02*
X138116000Y-77537000D01*
X138116000Y-77537000D02*
X139446000Y-77537000D01*
X149800000Y-80197000D02*
X152460000Y-80197000D01*
X149800000Y-80137000D02*
X149800000Y-80197000D01*
X152460000Y-80137000D02*
X152460000Y-80197000D01*
X149800000Y-80137000D02*
X152460000Y-80137000D01*
X149800000Y-78867000D02*
X149800000Y-77537000D01*
X149800000Y-77537000D02*
X151130000Y-77537000D01*
X161357000Y-80197000D02*
X164017000Y-80197000D01*
X161357000Y-80137000D02*
X161357000Y-80197000D01*
X164017000Y-80137000D02*
X164017000Y-80197000D01*
X161357000Y-80137000D02*
X164017000Y-80137000D01*
X161357000Y-78867000D02*
X161357000Y-77537000D01*
X161357000Y-77537000D02*
X162687000Y-77537000D01*
X173041000Y-80197000D02*
X175701000Y-80197000D01*
X173041000Y-80137000D02*
X173041000Y-80197000D01*
X175701000Y-80137000D02*
X175701000Y-80197000D01*
X173041000Y-80137000D02*
X175701000Y-80137000D01*
X173041000Y-78867000D02*
X173041000Y-77537000D01*
X173041000Y-77537000D02*
X174371000Y-77537000D01*
X114113000Y-70037000D02*
X116773000Y-70037000D01*
X114113000Y-69977000D02*
X114113000Y-70037000D01*
X116773000Y-69977000D02*
X116773000Y-70037000D01*
X114113000Y-69977000D02*
X116773000Y-69977000D01*
X114113000Y-68707000D02*
X114113000Y-67377000D01*
X114113000Y-67377000D02*
X115443000Y-67377000D01*
X125543000Y-70037000D02*
X128203000Y-70037000D01*
X125543000Y-69977000D02*
X125543000Y-70037000D01*
X128203000Y-69977000D02*
X128203000Y-70037000D01*
X125543000Y-69977000D02*
X128203000Y-69977000D01*
X125543000Y-68707000D02*
X125543000Y-67377000D01*
X125543000Y-67377000D02*
X126873000Y-67377000D01*
X137862000Y-70037000D02*
X140522000Y-70037000D01*
X137862000Y-69977000D02*
X137862000Y-70037000D01*
X140522000Y-69977000D02*
X140522000Y-70037000D01*
X137862000Y-69977000D02*
X140522000Y-69977000D01*
X137862000Y-68707000D02*
X137862000Y-67377000D01*
X137862000Y-67377000D02*
X139192000Y-67377000D01*
X149546000Y-70037000D02*
X152206000Y-70037000D01*
X149546000Y-69977000D02*
X149546000Y-70037000D01*
X152206000Y-69977000D02*
X152206000Y-70037000D01*
X149546000Y-69977000D02*
X152206000Y-69977000D01*
X149546000Y-68707000D02*
X149546000Y-67377000D01*
X149546000Y-67377000D02*
X150876000Y-67377000D01*
X161103000Y-70037000D02*
X163763000Y-70037000D01*
X161103000Y-69977000D02*
X161103000Y-70037000D01*
X163763000Y-69977000D02*
X163763000Y-70037000D01*
X161103000Y-69977000D02*
X163763000Y-69977000D01*
X161103000Y-68707000D02*
X161103000Y-67377000D01*
X161103000Y-67377000D02*
X162433000Y-67377000D01*
X172787000Y-70037000D02*
X175447000Y-70037000D01*
X172787000Y-69977000D02*
X172787000Y-70037000D01*
X175447000Y-69977000D02*
X175447000Y-70037000D01*
X172787000Y-69977000D02*
X175447000Y-69977000D01*
X172787000Y-68707000D02*
X172787000Y-67377000D01*
X172787000Y-67377000D02*
X174117000Y-67377000D01*
X192020096Y-142278000D02*
X197220096Y-142278000D01*
X192020096Y-68558000D02*
X192020096Y-142278000D01*
X197220096Y-65958000D02*
X197220096Y-142278000D01*
X192020096Y-68558000D02*
X194620096Y-68558000D01*
X194620096Y-68558000D02*
X194620096Y-65958000D01*
X194620096Y-65958000D02*
X197220096Y-65958000D01*
X192020096Y-67288000D02*
X192020096Y-65958000D01*
X192020096Y-65958000D02*
X193350096Y-65958000D01*
D13*
X114141477Y-124360333D02*
X114093857Y-124312714D01*
X113998619Y-124169857D01*
X113951000Y-124074619D01*
X113903381Y-123931762D01*
X113855762Y-123693667D01*
X113855762Y-123503190D01*
X113903381Y-123265095D01*
X113951000Y-123122238D01*
X113998619Y-123027000D01*
X114093857Y-122884143D01*
X114141477Y-122836524D01*
X114712905Y-122979381D02*
X114808144Y-122979381D01*
X114903382Y-123027000D01*
X114951001Y-123074619D01*
X114998620Y-123169857D01*
X115046239Y-123360333D01*
X115046239Y-123598429D01*
X114998620Y-123788905D01*
X114951001Y-123884143D01*
X114903382Y-123931762D01*
X114808144Y-123979381D01*
X114712905Y-123979381D01*
X114617667Y-123931762D01*
X114570048Y-123884143D01*
X114522429Y-123788905D01*
X114474810Y-123598429D01*
X114474810Y-123360333D01*
X114522429Y-123169857D01*
X114570048Y-123074619D01*
X114617667Y-123027000D01*
X114712905Y-122979381D01*
X115522429Y-123931762D02*
X115522429Y-123979381D01*
X115474810Y-124074619D01*
X115427191Y-124122238D01*
X116141476Y-122979381D02*
X116236715Y-122979381D01*
X116331953Y-123027000D01*
X116379572Y-123074619D01*
X116427191Y-123169857D01*
X116474810Y-123360333D01*
X116474810Y-123598429D01*
X116427191Y-123788905D01*
X116379572Y-123884143D01*
X116331953Y-123931762D01*
X116236715Y-123979381D01*
X116141476Y-123979381D01*
X116046238Y-123931762D01*
X115998619Y-123884143D01*
X115951000Y-123788905D01*
X115903381Y-123598429D01*
X115903381Y-123360333D01*
X115951000Y-123169857D01*
X115998619Y-123074619D01*
X116046238Y-123027000D01*
X116141476Y-122979381D01*
X116808143Y-124360333D02*
X116855762Y-124312714D01*
X116951000Y-124169857D01*
X116998619Y-124074619D01*
X117046238Y-123931762D01*
X117093857Y-123693667D01*
X117093857Y-123503190D01*
X117046238Y-123265095D01*
X116998619Y-123122238D01*
X116951000Y-123027000D01*
X116855762Y-122884143D01*
X116808143Y-122836524D01*
X118093858Y-123979381D02*
X117522429Y-123979381D01*
X117808143Y-123979381D02*
X117808143Y-122979381D01*
X117712905Y-123122238D01*
X117617667Y-123217476D01*
X117522429Y-123265095D01*
X125571477Y-124360333D02*
X125523857Y-124312714D01*
X125428619Y-124169857D01*
X125381000Y-124074619D01*
X125333381Y-123931762D01*
X125285762Y-123693667D01*
X125285762Y-123503190D01*
X125333381Y-123265095D01*
X125381000Y-123122238D01*
X125428619Y-123027000D01*
X125523857Y-122884143D01*
X125571477Y-122836524D01*
X126142905Y-122979381D02*
X126238144Y-122979381D01*
X126333382Y-123027000D01*
X126381001Y-123074619D01*
X126428620Y-123169857D01*
X126476239Y-123360333D01*
X126476239Y-123598429D01*
X126428620Y-123788905D01*
X126381001Y-123884143D01*
X126333382Y-123931762D01*
X126238144Y-123979381D01*
X126142905Y-123979381D01*
X126047667Y-123931762D01*
X126000048Y-123884143D01*
X125952429Y-123788905D01*
X125904810Y-123598429D01*
X125904810Y-123360333D01*
X125952429Y-123169857D01*
X126000048Y-123074619D01*
X126047667Y-123027000D01*
X126142905Y-122979381D01*
X126952429Y-123931762D02*
X126952429Y-123979381D01*
X126904810Y-124074619D01*
X126857191Y-124122238D01*
X127904810Y-123979381D02*
X127333381Y-123979381D01*
X127619095Y-123979381D02*
X127619095Y-122979381D01*
X127523857Y-123122238D01*
X127428619Y-123217476D01*
X127333381Y-123265095D01*
X128238143Y-124360333D02*
X128285762Y-124312714D01*
X128381000Y-124169857D01*
X128428619Y-124074619D01*
X128476238Y-123931762D01*
X128523857Y-123693667D01*
X128523857Y-123503190D01*
X128476238Y-123265095D01*
X128428619Y-123122238D01*
X128381000Y-123027000D01*
X128285762Y-122884143D01*
X128238143Y-122836524D01*
X129523858Y-123979381D02*
X128952429Y-123979381D01*
X129238143Y-123979381D02*
X129238143Y-122979381D01*
X129142905Y-123122238D01*
X129047667Y-123217476D01*
X128952429Y-123265095D01*
X137890477Y-124360333D02*
X137842857Y-124312714D01*
X137747619Y-124169857D01*
X137700000Y-124074619D01*
X137652381Y-123931762D01*
X137604762Y-123693667D01*
X137604762Y-123503190D01*
X137652381Y-123265095D01*
X137700000Y-123122238D01*
X137747619Y-123027000D01*
X137842857Y-122884143D01*
X137890477Y-122836524D01*
X138461905Y-122979381D02*
X138557144Y-122979381D01*
X138652382Y-123027000D01*
X138700001Y-123074619D01*
X138747620Y-123169857D01*
X138795239Y-123360333D01*
X138795239Y-123598429D01*
X138747620Y-123788905D01*
X138700001Y-123884143D01*
X138652382Y-123931762D01*
X138557144Y-123979381D01*
X138461905Y-123979381D01*
X138366667Y-123931762D01*
X138319048Y-123884143D01*
X138271429Y-123788905D01*
X138223810Y-123598429D01*
X138223810Y-123360333D01*
X138271429Y-123169857D01*
X138319048Y-123074619D01*
X138366667Y-123027000D01*
X138461905Y-122979381D01*
X139271429Y-123931762D02*
X139271429Y-123979381D01*
X139223810Y-124074619D01*
X139176191Y-124122238D01*
X139652381Y-123074619D02*
X139700000Y-123027000D01*
X139795238Y-122979381D01*
X140033334Y-122979381D01*
X140128572Y-123027000D01*
X140176191Y-123074619D01*
X140223810Y-123169857D01*
X140223810Y-123265095D01*
X140176191Y-123407952D01*
X139604762Y-123979381D01*
X140223810Y-123979381D01*
X140557143Y-124360333D02*
X140604762Y-124312714D01*
X140700000Y-124169857D01*
X140747619Y-124074619D01*
X140795238Y-123931762D01*
X140842857Y-123693667D01*
X140842857Y-123503190D01*
X140795238Y-123265095D01*
X140747619Y-123122238D01*
X140700000Y-123027000D01*
X140604762Y-122884143D01*
X140557143Y-122836524D01*
X141842858Y-123979381D02*
X141271429Y-123979381D01*
X141557143Y-123979381D02*
X141557143Y-122979381D01*
X141461905Y-123122238D01*
X141366667Y-123217476D01*
X141271429Y-123265095D01*
X149574477Y-124360333D02*
X149526857Y-124312714D01*
X149431619Y-124169857D01*
X149384000Y-124074619D01*
X149336381Y-123931762D01*
X149288762Y-123693667D01*
X149288762Y-123503190D01*
X149336381Y-123265095D01*
X149384000Y-123122238D01*
X149431619Y-123027000D01*
X149526857Y-122884143D01*
X149574477Y-122836524D01*
X150145905Y-122979381D02*
X150241144Y-122979381D01*
X150336382Y-123027000D01*
X150384001Y-123074619D01*
X150431620Y-123169857D01*
X150479239Y-123360333D01*
X150479239Y-123598429D01*
X150431620Y-123788905D01*
X150384001Y-123884143D01*
X150336382Y-123931762D01*
X150241144Y-123979381D01*
X150145905Y-123979381D01*
X150050667Y-123931762D01*
X150003048Y-123884143D01*
X149955429Y-123788905D01*
X149907810Y-123598429D01*
X149907810Y-123360333D01*
X149955429Y-123169857D01*
X150003048Y-123074619D01*
X150050667Y-123027000D01*
X150145905Y-122979381D01*
X150955429Y-123931762D02*
X150955429Y-123979381D01*
X150907810Y-124074619D01*
X150860191Y-124122238D01*
X151288762Y-122979381D02*
X151907810Y-122979381D01*
X151574476Y-123360333D01*
X151717334Y-123360333D01*
X151812572Y-123407952D01*
X151860191Y-123455571D01*
X151907810Y-123550810D01*
X151907810Y-123788905D01*
X151860191Y-123884143D01*
X151812572Y-123931762D01*
X151717334Y-123979381D01*
X151431619Y-123979381D01*
X151336381Y-123931762D01*
X151288762Y-123884143D01*
X152241143Y-124360333D02*
X152288762Y-124312714D01*
X152384000Y-124169857D01*
X152431619Y-124074619D01*
X152479238Y-123931762D01*
X152526857Y-123693667D01*
X152526857Y-123503190D01*
X152479238Y-123265095D01*
X152431619Y-123122238D01*
X152384000Y-123027000D01*
X152288762Y-122884143D01*
X152241143Y-122836524D01*
X153526858Y-123979381D02*
X152955429Y-123979381D01*
X153241143Y-123979381D02*
X153241143Y-122979381D01*
X153145905Y-123122238D01*
X153050667Y-123217476D01*
X152955429Y-123265095D01*
X161131477Y-124360333D02*
X161083857Y-124312714D01*
X160988619Y-124169857D01*
X160941000Y-124074619D01*
X160893381Y-123931762D01*
X160845762Y-123693667D01*
X160845762Y-123503190D01*
X160893381Y-123265095D01*
X160941000Y-123122238D01*
X160988619Y-123027000D01*
X161083857Y-122884143D01*
X161131477Y-122836524D01*
X161702905Y-122979381D02*
X161798144Y-122979381D01*
X161893382Y-123027000D01*
X161941001Y-123074619D01*
X161988620Y-123169857D01*
X162036239Y-123360333D01*
X162036239Y-123598429D01*
X161988620Y-123788905D01*
X161941001Y-123884143D01*
X161893382Y-123931762D01*
X161798144Y-123979381D01*
X161702905Y-123979381D01*
X161607667Y-123931762D01*
X161560048Y-123884143D01*
X161512429Y-123788905D01*
X161464810Y-123598429D01*
X161464810Y-123360333D01*
X161512429Y-123169857D01*
X161560048Y-123074619D01*
X161607667Y-123027000D01*
X161702905Y-122979381D01*
X162512429Y-123931762D02*
X162512429Y-123979381D01*
X162464810Y-124074619D01*
X162417191Y-124122238D01*
X163369572Y-123312714D02*
X163369572Y-123979381D01*
X163131476Y-122931762D02*
X162893381Y-123646048D01*
X163512429Y-123646048D01*
X163798143Y-124360333D02*
X163845762Y-124312714D01*
X163941000Y-124169857D01*
X163988619Y-124074619D01*
X164036238Y-123931762D01*
X164083857Y-123693667D01*
X164083857Y-123503190D01*
X164036238Y-123265095D01*
X163988619Y-123122238D01*
X163941000Y-123027000D01*
X163845762Y-122884143D01*
X163798143Y-122836524D01*
X165083858Y-123979381D02*
X164512429Y-123979381D01*
X164798143Y-123979381D02*
X164798143Y-122979381D01*
X164702905Y-123122238D01*
X164607667Y-123217476D01*
X164512429Y-123265095D01*
X172815477Y-124360333D02*
X172767857Y-124312714D01*
X172672619Y-124169857D01*
X172625000Y-124074619D01*
X172577381Y-123931762D01*
X172529762Y-123693667D01*
X172529762Y-123503190D01*
X172577381Y-123265095D01*
X172625000Y-123122238D01*
X172672619Y-123027000D01*
X172767857Y-122884143D01*
X172815477Y-122836524D01*
X173386905Y-122979381D02*
X173482144Y-122979381D01*
X173577382Y-123027000D01*
X173625001Y-123074619D01*
X173672620Y-123169857D01*
X173720239Y-123360333D01*
X173720239Y-123598429D01*
X173672620Y-123788905D01*
X173625001Y-123884143D01*
X173577382Y-123931762D01*
X173482144Y-123979381D01*
X173386905Y-123979381D01*
X173291667Y-123931762D01*
X173244048Y-123884143D01*
X173196429Y-123788905D01*
X173148810Y-123598429D01*
X173148810Y-123360333D01*
X173196429Y-123169857D01*
X173244048Y-123074619D01*
X173291667Y-123027000D01*
X173386905Y-122979381D01*
X174196429Y-123931762D02*
X174196429Y-123979381D01*
X174148810Y-124074619D01*
X174101191Y-124122238D01*
X175101191Y-122979381D02*
X174625000Y-122979381D01*
X174577381Y-123455571D01*
X174625000Y-123407952D01*
X174720238Y-123360333D01*
X174958334Y-123360333D01*
X175053572Y-123407952D01*
X175101191Y-123455571D01*
X175148810Y-123550810D01*
X175148810Y-123788905D01*
X175101191Y-123884143D01*
X175053572Y-123931762D01*
X174958334Y-123979381D01*
X174720238Y-123979381D01*
X174625000Y-123931762D01*
X174577381Y-123884143D01*
X175482143Y-124360333D02*
X175529762Y-124312714D01*
X175625000Y-124169857D01*
X175672619Y-124074619D01*
X175720238Y-123931762D01*
X175767857Y-123693667D01*
X175767857Y-123503190D01*
X175720238Y-123265095D01*
X175672619Y-123122238D01*
X175625000Y-123027000D01*
X175529762Y-122884143D01*
X175482143Y-122836524D01*
X176767858Y-123979381D02*
X176196429Y-123979381D01*
X176482143Y-123979381D02*
X176482143Y-122979381D01*
X176386905Y-123122238D01*
X176291667Y-123217476D01*
X176196429Y-123265095D01*
X114141477Y-111914333D02*
X114093857Y-111866714D01*
X113998619Y-111723857D01*
X113951000Y-111628619D01*
X113903381Y-111485762D01*
X113855762Y-111247667D01*
X113855762Y-111057190D01*
X113903381Y-110819095D01*
X113951000Y-110676238D01*
X113998619Y-110581000D01*
X114093857Y-110438143D01*
X114141477Y-110390524D01*
X115046239Y-111533381D02*
X114474810Y-111533381D01*
X114760524Y-111533381D02*
X114760524Y-110533381D01*
X114665286Y-110676238D01*
X114570048Y-110771476D01*
X114474810Y-110819095D01*
X115522429Y-111485762D02*
X115522429Y-111533381D01*
X115474810Y-111628619D01*
X115427191Y-111676238D01*
X116141476Y-110533381D02*
X116236715Y-110533381D01*
X116331953Y-110581000D01*
X116379572Y-110628619D01*
X116427191Y-110723857D01*
X116474810Y-110914333D01*
X116474810Y-111152429D01*
X116427191Y-111342905D01*
X116379572Y-111438143D01*
X116331953Y-111485762D01*
X116236715Y-111533381D01*
X116141476Y-111533381D01*
X116046238Y-111485762D01*
X115998619Y-111438143D01*
X115951000Y-111342905D01*
X115903381Y-111152429D01*
X115903381Y-110914333D01*
X115951000Y-110723857D01*
X115998619Y-110628619D01*
X116046238Y-110581000D01*
X116141476Y-110533381D01*
X116808143Y-111914333D02*
X116855762Y-111866714D01*
X116951000Y-111723857D01*
X116998619Y-111628619D01*
X117046238Y-111485762D01*
X117093857Y-111247667D01*
X117093857Y-111057190D01*
X117046238Y-110819095D01*
X116998619Y-110676238D01*
X116951000Y-110581000D01*
X116855762Y-110438143D01*
X116808143Y-110390524D01*
X118093858Y-111533381D02*
X117522429Y-111533381D01*
X117808143Y-111533381D02*
X117808143Y-110533381D01*
X117712905Y-110676238D01*
X117617667Y-110771476D01*
X117522429Y-110819095D01*
X125571477Y-111914333D02*
X125523857Y-111866714D01*
X125428619Y-111723857D01*
X125381000Y-111628619D01*
X125333381Y-111485762D01*
X125285762Y-111247667D01*
X125285762Y-111057190D01*
X125333381Y-110819095D01*
X125381000Y-110676238D01*
X125428619Y-110581000D01*
X125523857Y-110438143D01*
X125571477Y-110390524D01*
X126476239Y-111533381D02*
X125904810Y-111533381D01*
X126190524Y-111533381D02*
X126190524Y-110533381D01*
X126095286Y-110676238D01*
X126000048Y-110771476D01*
X125904810Y-110819095D01*
X126952429Y-111485762D02*
X126952429Y-111533381D01*
X126904810Y-111628619D01*
X126857191Y-111676238D01*
X127904810Y-111533381D02*
X127333381Y-111533381D01*
X127619095Y-111533381D02*
X127619095Y-110533381D01*
X127523857Y-110676238D01*
X127428619Y-110771476D01*
X127333381Y-110819095D01*
X128238143Y-111914333D02*
X128285762Y-111866714D01*
X128381000Y-111723857D01*
X128428619Y-111628619D01*
X128476238Y-111485762D01*
X128523857Y-111247667D01*
X128523857Y-111057190D01*
X128476238Y-110819095D01*
X128428619Y-110676238D01*
X128381000Y-110581000D01*
X128285762Y-110438143D01*
X128238143Y-110390524D01*
X129523858Y-111533381D02*
X128952429Y-111533381D01*
X129238143Y-111533381D02*
X129238143Y-110533381D01*
X129142905Y-110676238D01*
X129047667Y-110771476D01*
X128952429Y-110819095D01*
X137890477Y-111914333D02*
X137842857Y-111866714D01*
X137747619Y-111723857D01*
X137700000Y-111628619D01*
X137652381Y-111485762D01*
X137604762Y-111247667D01*
X137604762Y-111057190D01*
X137652381Y-110819095D01*
X137700000Y-110676238D01*
X137747619Y-110581000D01*
X137842857Y-110438143D01*
X137890477Y-110390524D01*
X138795239Y-111533381D02*
X138223810Y-111533381D01*
X138509524Y-111533381D02*
X138509524Y-110533381D01*
X138414286Y-110676238D01*
X138319048Y-110771476D01*
X138223810Y-110819095D01*
X139271429Y-111485762D02*
X139271429Y-111533381D01*
X139223810Y-111628619D01*
X139176191Y-111676238D01*
X139652381Y-110628619D02*
X139700000Y-110581000D01*
X139795238Y-110533381D01*
X140033334Y-110533381D01*
X140128572Y-110581000D01*
X140176191Y-110628619D01*
X140223810Y-110723857D01*
X140223810Y-110819095D01*
X140176191Y-110961952D01*
X139604762Y-111533381D01*
X140223810Y-111533381D01*
X140557143Y-111914333D02*
X140604762Y-111866714D01*
X140700000Y-111723857D01*
X140747619Y-111628619D01*
X140795238Y-111485762D01*
X140842857Y-111247667D01*
X140842857Y-111057190D01*
X140795238Y-110819095D01*
X140747619Y-110676238D01*
X140700000Y-110581000D01*
X140604762Y-110438143D01*
X140557143Y-110390524D01*
X141842858Y-111533381D02*
X141271429Y-111533381D01*
X141557143Y-111533381D02*
X141557143Y-110533381D01*
X141461905Y-110676238D01*
X141366667Y-110771476D01*
X141271429Y-110819095D01*
X149574477Y-111914333D02*
X149526857Y-111866714D01*
X149431619Y-111723857D01*
X149384000Y-111628619D01*
X149336381Y-111485762D01*
X149288762Y-111247667D01*
X149288762Y-111057190D01*
X149336381Y-110819095D01*
X149384000Y-110676238D01*
X149431619Y-110581000D01*
X149526857Y-110438143D01*
X149574477Y-110390524D01*
X150479239Y-111533381D02*
X149907810Y-111533381D01*
X150193524Y-111533381D02*
X150193524Y-110533381D01*
X150098286Y-110676238D01*
X150003048Y-110771476D01*
X149907810Y-110819095D01*
X150955429Y-111485762D02*
X150955429Y-111533381D01*
X150907810Y-111628619D01*
X150860191Y-111676238D01*
X151288762Y-110533381D02*
X151907810Y-110533381D01*
X151574476Y-110914333D01*
X151717334Y-110914333D01*
X151812572Y-110961952D01*
X151860191Y-111009571D01*
X151907810Y-111104810D01*
X151907810Y-111342905D01*
X151860191Y-111438143D01*
X151812572Y-111485762D01*
X151717334Y-111533381D01*
X151431619Y-111533381D01*
X151336381Y-111485762D01*
X151288762Y-111438143D01*
X152241143Y-111914333D02*
X152288762Y-111866714D01*
X152384000Y-111723857D01*
X152431619Y-111628619D01*
X152479238Y-111485762D01*
X152526857Y-111247667D01*
X152526857Y-111057190D01*
X152479238Y-110819095D01*
X152431619Y-110676238D01*
X152384000Y-110581000D01*
X152288762Y-110438143D01*
X152241143Y-110390524D01*
X153526858Y-111533381D02*
X152955429Y-111533381D01*
X153241143Y-111533381D02*
X153241143Y-110533381D01*
X153145905Y-110676238D01*
X153050667Y-110771476D01*
X152955429Y-110819095D01*
X161131477Y-111914333D02*
X161083857Y-111866714D01*
X160988619Y-111723857D01*
X160941000Y-111628619D01*
X160893381Y-111485762D01*
X160845762Y-111247667D01*
X160845762Y-111057190D01*
X160893381Y-110819095D01*
X160941000Y-110676238D01*
X160988619Y-110581000D01*
X161083857Y-110438143D01*
X161131477Y-110390524D01*
X162036239Y-111533381D02*
X161464810Y-111533381D01*
X161750524Y-111533381D02*
X161750524Y-110533381D01*
X161655286Y-110676238D01*
X161560048Y-110771476D01*
X161464810Y-110819095D01*
X162512429Y-111485762D02*
X162512429Y-111533381D01*
X162464810Y-111628619D01*
X162417191Y-111676238D01*
X163369572Y-110866714D02*
X163369572Y-111533381D01*
X163131476Y-110485762D02*
X162893381Y-111200048D01*
X163512429Y-111200048D01*
X163798143Y-111914333D02*
X163845762Y-111866714D01*
X163941000Y-111723857D01*
X163988619Y-111628619D01*
X164036238Y-111485762D01*
X164083857Y-111247667D01*
X164083857Y-111057190D01*
X164036238Y-110819095D01*
X163988619Y-110676238D01*
X163941000Y-110581000D01*
X163845762Y-110438143D01*
X163798143Y-110390524D01*
X165083858Y-111533381D02*
X164512429Y-111533381D01*
X164798143Y-111533381D02*
X164798143Y-110533381D01*
X164702905Y-110676238D01*
X164607667Y-110771476D01*
X164512429Y-110819095D01*
X172815477Y-111914333D02*
X172767857Y-111866714D01*
X172672619Y-111723857D01*
X172625000Y-111628619D01*
X172577381Y-111485762D01*
X172529762Y-111247667D01*
X172529762Y-111057190D01*
X172577381Y-110819095D01*
X172625000Y-110676238D01*
X172672619Y-110581000D01*
X172767857Y-110438143D01*
X172815477Y-110390524D01*
X173720239Y-111533381D02*
X173148810Y-111533381D01*
X173434524Y-111533381D02*
X173434524Y-110533381D01*
X173339286Y-110676238D01*
X173244048Y-110771476D01*
X173148810Y-110819095D01*
X174196429Y-111485762D02*
X174196429Y-111533381D01*
X174148810Y-111628619D01*
X174101191Y-111676238D01*
X175101191Y-110533381D02*
X174625000Y-110533381D01*
X174577381Y-111009571D01*
X174625000Y-110961952D01*
X174720238Y-110914333D01*
X174958334Y-110914333D01*
X175053572Y-110961952D01*
X175101191Y-111009571D01*
X175148810Y-111104810D01*
X175148810Y-111342905D01*
X175101191Y-111438143D01*
X175053572Y-111485762D01*
X174958334Y-111533381D01*
X174720238Y-111533381D01*
X174625000Y-111485762D01*
X174577381Y-111438143D01*
X175482143Y-111914333D02*
X175529762Y-111866714D01*
X175625000Y-111723857D01*
X175672619Y-111628619D01*
X175720238Y-111485762D01*
X175767857Y-111247667D01*
X175767857Y-111057190D01*
X175720238Y-110819095D01*
X175672619Y-110676238D01*
X175625000Y-110581000D01*
X175529762Y-110438143D01*
X175482143Y-110390524D01*
X176767858Y-111533381D02*
X176196429Y-111533381D01*
X176482143Y-111533381D02*
X176482143Y-110533381D01*
X176386905Y-110676238D01*
X176291667Y-110771476D01*
X176196429Y-110819095D01*
X114141477Y-100738333D02*
X114093857Y-100690714D01*
X113998619Y-100547857D01*
X113951000Y-100452619D01*
X113903381Y-100309762D01*
X113855762Y-100071667D01*
X113855762Y-99881190D01*
X113903381Y-99643095D01*
X113951000Y-99500238D01*
X113998619Y-99405000D01*
X114093857Y-99262143D01*
X114141477Y-99214524D01*
X114474810Y-99452619D02*
X114522429Y-99405000D01*
X114617667Y-99357381D01*
X114855763Y-99357381D01*
X114951001Y-99405000D01*
X114998620Y-99452619D01*
X115046239Y-99547857D01*
X115046239Y-99643095D01*
X114998620Y-99785952D01*
X114427191Y-100357381D01*
X115046239Y-100357381D01*
X115522429Y-100309762D02*
X115522429Y-100357381D01*
X115474810Y-100452619D01*
X115427191Y-100500238D01*
X116141476Y-99357381D02*
X116236715Y-99357381D01*
X116331953Y-99405000D01*
X116379572Y-99452619D01*
X116427191Y-99547857D01*
X116474810Y-99738333D01*
X116474810Y-99976429D01*
X116427191Y-100166905D01*
X116379572Y-100262143D01*
X116331953Y-100309762D01*
X116236715Y-100357381D01*
X116141476Y-100357381D01*
X116046238Y-100309762D01*
X115998619Y-100262143D01*
X115951000Y-100166905D01*
X115903381Y-99976429D01*
X115903381Y-99738333D01*
X115951000Y-99547857D01*
X115998619Y-99452619D01*
X116046238Y-99405000D01*
X116141476Y-99357381D01*
X116808143Y-100738333D02*
X116855762Y-100690714D01*
X116951000Y-100547857D01*
X116998619Y-100452619D01*
X117046238Y-100309762D01*
X117093857Y-100071667D01*
X117093857Y-99881190D01*
X117046238Y-99643095D01*
X116998619Y-99500238D01*
X116951000Y-99405000D01*
X116855762Y-99262143D01*
X116808143Y-99214524D01*
X118093858Y-100357381D02*
X117522429Y-100357381D01*
X117808143Y-100357381D02*
X117808143Y-99357381D01*
X117712905Y-99500238D01*
X117617667Y-99595476D01*
X117522429Y-99643095D01*
X125571477Y-100738333D02*
X125523857Y-100690714D01*
X125428619Y-100547857D01*
X125381000Y-100452619D01*
X125333381Y-100309762D01*
X125285762Y-100071667D01*
X125285762Y-99881190D01*
X125333381Y-99643095D01*
X125381000Y-99500238D01*
X125428619Y-99405000D01*
X125523857Y-99262143D01*
X125571477Y-99214524D01*
X125904810Y-99452619D02*
X125952429Y-99405000D01*
X126047667Y-99357381D01*
X126285763Y-99357381D01*
X126381001Y-99405000D01*
X126428620Y-99452619D01*
X126476239Y-99547857D01*
X126476239Y-99643095D01*
X126428620Y-99785952D01*
X125857191Y-100357381D01*
X126476239Y-100357381D01*
X126952429Y-100309762D02*
X126952429Y-100357381D01*
X126904810Y-100452619D01*
X126857191Y-100500238D01*
X127904810Y-100357381D02*
X127333381Y-100357381D01*
X127619095Y-100357381D02*
X127619095Y-99357381D01*
X127523857Y-99500238D01*
X127428619Y-99595476D01*
X127333381Y-99643095D01*
X128238143Y-100738333D02*
X128285762Y-100690714D01*
X128381000Y-100547857D01*
X128428619Y-100452619D01*
X128476238Y-100309762D01*
X128523857Y-100071667D01*
X128523857Y-99881190D01*
X128476238Y-99643095D01*
X128428619Y-99500238D01*
X128381000Y-99405000D01*
X128285762Y-99262143D01*
X128238143Y-99214524D01*
X129523858Y-100357381D02*
X128952429Y-100357381D01*
X129238143Y-100357381D02*
X129238143Y-99357381D01*
X129142905Y-99500238D01*
X129047667Y-99595476D01*
X128952429Y-99643095D01*
X137890477Y-100738333D02*
X137842857Y-100690714D01*
X137747619Y-100547857D01*
X137700000Y-100452619D01*
X137652381Y-100309762D01*
X137604762Y-100071667D01*
X137604762Y-99881190D01*
X137652381Y-99643095D01*
X137700000Y-99500238D01*
X137747619Y-99405000D01*
X137842857Y-99262143D01*
X137890477Y-99214524D01*
X138223810Y-99452619D02*
X138271429Y-99405000D01*
X138366667Y-99357381D01*
X138604763Y-99357381D01*
X138700001Y-99405000D01*
X138747620Y-99452619D01*
X138795239Y-99547857D01*
X138795239Y-99643095D01*
X138747620Y-99785952D01*
X138176191Y-100357381D01*
X138795239Y-100357381D01*
X139271429Y-100309762D02*
X139271429Y-100357381D01*
X139223810Y-100452619D01*
X139176191Y-100500238D01*
X139652381Y-99452619D02*
X139700000Y-99405000D01*
X139795238Y-99357381D01*
X140033334Y-99357381D01*
X140128572Y-99405000D01*
X140176191Y-99452619D01*
X140223810Y-99547857D01*
X140223810Y-99643095D01*
X140176191Y-99785952D01*
X139604762Y-100357381D01*
X140223810Y-100357381D01*
X140557143Y-100738333D02*
X140604762Y-100690714D01*
X140700000Y-100547857D01*
X140747619Y-100452619D01*
X140795238Y-100309762D01*
X140842857Y-100071667D01*
X140842857Y-99881190D01*
X140795238Y-99643095D01*
X140747619Y-99500238D01*
X140700000Y-99405000D01*
X140604762Y-99262143D01*
X140557143Y-99214524D01*
X141842858Y-100357381D02*
X141271429Y-100357381D01*
X141557143Y-100357381D02*
X141557143Y-99357381D01*
X141461905Y-99500238D01*
X141366667Y-99595476D01*
X141271429Y-99643095D01*
X149574477Y-100738333D02*
X149526857Y-100690714D01*
X149431619Y-100547857D01*
X149384000Y-100452619D01*
X149336381Y-100309762D01*
X149288762Y-100071667D01*
X149288762Y-99881190D01*
X149336381Y-99643095D01*
X149384000Y-99500238D01*
X149431619Y-99405000D01*
X149526857Y-99262143D01*
X149574477Y-99214524D01*
X149907810Y-99452619D02*
X149955429Y-99405000D01*
X150050667Y-99357381D01*
X150288763Y-99357381D01*
X150384001Y-99405000D01*
X150431620Y-99452619D01*
X150479239Y-99547857D01*
X150479239Y-99643095D01*
X150431620Y-99785952D01*
X149860191Y-100357381D01*
X150479239Y-100357381D01*
X150955429Y-100309762D02*
X150955429Y-100357381D01*
X150907810Y-100452619D01*
X150860191Y-100500238D01*
X151288762Y-99357381D02*
X151907810Y-99357381D01*
X151574476Y-99738333D01*
X151717334Y-99738333D01*
X151812572Y-99785952D01*
X151860191Y-99833571D01*
X151907810Y-99928810D01*
X151907810Y-100166905D01*
X151860191Y-100262143D01*
X151812572Y-100309762D01*
X151717334Y-100357381D01*
X151431619Y-100357381D01*
X151336381Y-100309762D01*
X151288762Y-100262143D01*
X152241143Y-100738333D02*
X152288762Y-100690714D01*
X152384000Y-100547857D01*
X152431619Y-100452619D01*
X152479238Y-100309762D01*
X152526857Y-100071667D01*
X152526857Y-99881190D01*
X152479238Y-99643095D01*
X152431619Y-99500238D01*
X152384000Y-99405000D01*
X152288762Y-99262143D01*
X152241143Y-99214524D01*
X153526858Y-100357381D02*
X152955429Y-100357381D01*
X153241143Y-100357381D02*
X153241143Y-99357381D01*
X153145905Y-99500238D01*
X153050667Y-99595476D01*
X152955429Y-99643095D01*
X161131477Y-100738333D02*
X161083857Y-100690714D01*
X160988619Y-100547857D01*
X160941000Y-100452619D01*
X160893381Y-100309762D01*
X160845762Y-100071667D01*
X160845762Y-99881190D01*
X160893381Y-99643095D01*
X160941000Y-99500238D01*
X160988619Y-99405000D01*
X161083857Y-99262143D01*
X161131477Y-99214524D01*
X161464810Y-99452619D02*
X161512429Y-99405000D01*
X161607667Y-99357381D01*
X161845763Y-99357381D01*
X161941001Y-99405000D01*
X161988620Y-99452619D01*
X162036239Y-99547857D01*
X162036239Y-99643095D01*
X161988620Y-99785952D01*
X161417191Y-100357381D01*
X162036239Y-100357381D01*
X162512429Y-100309762D02*
X162512429Y-100357381D01*
X162464810Y-100452619D01*
X162417191Y-100500238D01*
X163369572Y-99690714D02*
X163369572Y-100357381D01*
X163131476Y-99309762D02*
X162893381Y-100024048D01*
X163512429Y-100024048D01*
X163798143Y-100738333D02*
X163845762Y-100690714D01*
X163941000Y-100547857D01*
X163988619Y-100452619D01*
X164036238Y-100309762D01*
X164083857Y-100071667D01*
X164083857Y-99881190D01*
X164036238Y-99643095D01*
X163988619Y-99500238D01*
X163941000Y-99405000D01*
X163845762Y-99262143D01*
X163798143Y-99214524D01*
X165083858Y-100357381D02*
X164512429Y-100357381D01*
X164798143Y-100357381D02*
X164798143Y-99357381D01*
X164702905Y-99500238D01*
X164607667Y-99595476D01*
X164512429Y-99643095D01*
X172815477Y-100738333D02*
X172767857Y-100690714D01*
X172672619Y-100547857D01*
X172625000Y-100452619D01*
X172577381Y-100309762D01*
X172529762Y-100071667D01*
X172529762Y-99881190D01*
X172577381Y-99643095D01*
X172625000Y-99500238D01*
X172672619Y-99405000D01*
X172767857Y-99262143D01*
X172815477Y-99214524D01*
X173148810Y-99452619D02*
X173196429Y-99405000D01*
X173291667Y-99357381D01*
X173529763Y-99357381D01*
X173625001Y-99405000D01*
X173672620Y-99452619D01*
X173720239Y-99547857D01*
X173720239Y-99643095D01*
X173672620Y-99785952D01*
X173101191Y-100357381D01*
X173720239Y-100357381D01*
X174196429Y-100309762D02*
X174196429Y-100357381D01*
X174148810Y-100452619D01*
X174101191Y-100500238D01*
X175101191Y-99357381D02*
X174625000Y-99357381D01*
X174577381Y-99833571D01*
X174625000Y-99785952D01*
X174720238Y-99738333D01*
X174958334Y-99738333D01*
X175053572Y-99785952D01*
X175101191Y-99833571D01*
X175148810Y-99928810D01*
X175148810Y-100166905D01*
X175101191Y-100262143D01*
X175053572Y-100309762D01*
X174958334Y-100357381D01*
X174720238Y-100357381D01*
X174625000Y-100309762D01*
X174577381Y-100262143D01*
X175482143Y-100738333D02*
X175529762Y-100690714D01*
X175625000Y-100547857D01*
X175672619Y-100452619D01*
X175720238Y-100309762D01*
X175767857Y-100071667D01*
X175767857Y-99881190D01*
X175720238Y-99643095D01*
X175672619Y-99500238D01*
X175625000Y-99405000D01*
X175529762Y-99262143D01*
X175482143Y-99214524D01*
X176767858Y-100357381D02*
X176196429Y-100357381D01*
X176482143Y-100357381D02*
X176482143Y-99357381D01*
X176386905Y-99500238D01*
X176291667Y-99595476D01*
X176196429Y-99643095D01*
X114141477Y-88546333D02*
X114093857Y-88498714D01*
X113998619Y-88355857D01*
X113951000Y-88260619D01*
X113903381Y-88117762D01*
X113855762Y-87879667D01*
X113855762Y-87689190D01*
X113903381Y-87451095D01*
X113951000Y-87308238D01*
X113998619Y-87213000D01*
X114093857Y-87070143D01*
X114141477Y-87022524D01*
X114427191Y-87165381D02*
X115046239Y-87165381D01*
X114712905Y-87546333D01*
X114855763Y-87546333D01*
X114951001Y-87593952D01*
X114998620Y-87641571D01*
X115046239Y-87736810D01*
X115046239Y-87974905D01*
X114998620Y-88070143D01*
X114951001Y-88117762D01*
X114855763Y-88165381D01*
X114570048Y-88165381D01*
X114474810Y-88117762D01*
X114427191Y-88070143D01*
X115522429Y-88117762D02*
X115522429Y-88165381D01*
X115474810Y-88260619D01*
X115427191Y-88308238D01*
X116141476Y-87165381D02*
X116236715Y-87165381D01*
X116331953Y-87213000D01*
X116379572Y-87260619D01*
X116427191Y-87355857D01*
X116474810Y-87546333D01*
X116474810Y-87784429D01*
X116427191Y-87974905D01*
X116379572Y-88070143D01*
X116331953Y-88117762D01*
X116236715Y-88165381D01*
X116141476Y-88165381D01*
X116046238Y-88117762D01*
X115998619Y-88070143D01*
X115951000Y-87974905D01*
X115903381Y-87784429D01*
X115903381Y-87546333D01*
X115951000Y-87355857D01*
X115998619Y-87260619D01*
X116046238Y-87213000D01*
X116141476Y-87165381D01*
X116808143Y-88546333D02*
X116855762Y-88498714D01*
X116951000Y-88355857D01*
X116998619Y-88260619D01*
X117046238Y-88117762D01*
X117093857Y-87879667D01*
X117093857Y-87689190D01*
X117046238Y-87451095D01*
X116998619Y-87308238D01*
X116951000Y-87213000D01*
X116855762Y-87070143D01*
X116808143Y-87022524D01*
X118093858Y-88165381D02*
X117522429Y-88165381D01*
X117808143Y-88165381D02*
X117808143Y-87165381D01*
X117712905Y-87308238D01*
X117617667Y-87403476D01*
X117522429Y-87451095D01*
X125571477Y-88546333D02*
X125523857Y-88498714D01*
X125428619Y-88355857D01*
X125381000Y-88260619D01*
X125333381Y-88117762D01*
X125285762Y-87879667D01*
X125285762Y-87689190D01*
X125333381Y-87451095D01*
X125381000Y-87308238D01*
X125428619Y-87213000D01*
X125523857Y-87070143D01*
X125571477Y-87022524D01*
X125857191Y-87165381D02*
X126476239Y-87165381D01*
X126142905Y-87546333D01*
X126285763Y-87546333D01*
X126381001Y-87593952D01*
X126428620Y-87641571D01*
X126476239Y-87736810D01*
X126476239Y-87974905D01*
X126428620Y-88070143D01*
X126381001Y-88117762D01*
X126285763Y-88165381D01*
X126000048Y-88165381D01*
X125904810Y-88117762D01*
X125857191Y-88070143D01*
X126952429Y-88117762D02*
X126952429Y-88165381D01*
X126904810Y-88260619D01*
X126857191Y-88308238D01*
X127904810Y-88165381D02*
X127333381Y-88165381D01*
X127619095Y-88165381D02*
X127619095Y-87165381D01*
X127523857Y-87308238D01*
X127428619Y-87403476D01*
X127333381Y-87451095D01*
X128238143Y-88546333D02*
X128285762Y-88498714D01*
X128381000Y-88355857D01*
X128428619Y-88260619D01*
X128476238Y-88117762D01*
X128523857Y-87879667D01*
X128523857Y-87689190D01*
X128476238Y-87451095D01*
X128428619Y-87308238D01*
X128381000Y-87213000D01*
X128285762Y-87070143D01*
X128238143Y-87022524D01*
X129523858Y-88165381D02*
X128952429Y-88165381D01*
X129238143Y-88165381D02*
X129238143Y-87165381D01*
X129142905Y-87308238D01*
X129047667Y-87403476D01*
X128952429Y-87451095D01*
X137890477Y-88546333D02*
X137842857Y-88498714D01*
X137747619Y-88355857D01*
X137700000Y-88260619D01*
X137652381Y-88117762D01*
X137604762Y-87879667D01*
X137604762Y-87689190D01*
X137652381Y-87451095D01*
X137700000Y-87308238D01*
X137747619Y-87213000D01*
X137842857Y-87070143D01*
X137890477Y-87022524D01*
X138176191Y-87165381D02*
X138795239Y-87165381D01*
X138461905Y-87546333D01*
X138604763Y-87546333D01*
X138700001Y-87593952D01*
X138747620Y-87641571D01*
X138795239Y-87736810D01*
X138795239Y-87974905D01*
X138747620Y-88070143D01*
X138700001Y-88117762D01*
X138604763Y-88165381D01*
X138319048Y-88165381D01*
X138223810Y-88117762D01*
X138176191Y-88070143D01*
X139271429Y-88117762D02*
X139271429Y-88165381D01*
X139223810Y-88260619D01*
X139176191Y-88308238D01*
X139652381Y-87260619D02*
X139700000Y-87213000D01*
X139795238Y-87165381D01*
X140033334Y-87165381D01*
X140128572Y-87213000D01*
X140176191Y-87260619D01*
X140223810Y-87355857D01*
X140223810Y-87451095D01*
X140176191Y-87593952D01*
X139604762Y-88165381D01*
X140223810Y-88165381D01*
X140557143Y-88546333D02*
X140604762Y-88498714D01*
X140700000Y-88355857D01*
X140747619Y-88260619D01*
X140795238Y-88117762D01*
X140842857Y-87879667D01*
X140842857Y-87689190D01*
X140795238Y-87451095D01*
X140747619Y-87308238D01*
X140700000Y-87213000D01*
X140604762Y-87070143D01*
X140557143Y-87022524D01*
X141842858Y-88165381D02*
X141271429Y-88165381D01*
X141557143Y-88165381D02*
X141557143Y-87165381D01*
X141461905Y-87308238D01*
X141366667Y-87403476D01*
X141271429Y-87451095D01*
X149574477Y-88546333D02*
X149526857Y-88498714D01*
X149431619Y-88355857D01*
X149384000Y-88260619D01*
X149336381Y-88117762D01*
X149288762Y-87879667D01*
X149288762Y-87689190D01*
X149336381Y-87451095D01*
X149384000Y-87308238D01*
X149431619Y-87213000D01*
X149526857Y-87070143D01*
X149574477Y-87022524D01*
X149860191Y-87165381D02*
X150479239Y-87165381D01*
X150145905Y-87546333D01*
X150288763Y-87546333D01*
X150384001Y-87593952D01*
X150431620Y-87641571D01*
X150479239Y-87736810D01*
X150479239Y-87974905D01*
X150431620Y-88070143D01*
X150384001Y-88117762D01*
X150288763Y-88165381D01*
X150003048Y-88165381D01*
X149907810Y-88117762D01*
X149860191Y-88070143D01*
X150955429Y-88117762D02*
X150955429Y-88165381D01*
X150907810Y-88260619D01*
X150860191Y-88308238D01*
X151288762Y-87165381D02*
X151907810Y-87165381D01*
X151574476Y-87546333D01*
X151717334Y-87546333D01*
X151812572Y-87593952D01*
X151860191Y-87641571D01*
X151907810Y-87736810D01*
X151907810Y-87974905D01*
X151860191Y-88070143D01*
X151812572Y-88117762D01*
X151717334Y-88165381D01*
X151431619Y-88165381D01*
X151336381Y-88117762D01*
X151288762Y-88070143D01*
X152241143Y-88546333D02*
X152288762Y-88498714D01*
X152384000Y-88355857D01*
X152431619Y-88260619D01*
X152479238Y-88117762D01*
X152526857Y-87879667D01*
X152526857Y-87689190D01*
X152479238Y-87451095D01*
X152431619Y-87308238D01*
X152384000Y-87213000D01*
X152288762Y-87070143D01*
X152241143Y-87022524D01*
X153526858Y-88165381D02*
X152955429Y-88165381D01*
X153241143Y-88165381D02*
X153241143Y-87165381D01*
X153145905Y-87308238D01*
X153050667Y-87403476D01*
X152955429Y-87451095D01*
X161131477Y-88546333D02*
X161083857Y-88498714D01*
X160988619Y-88355857D01*
X160941000Y-88260619D01*
X160893381Y-88117762D01*
X160845762Y-87879667D01*
X160845762Y-87689190D01*
X160893381Y-87451095D01*
X160941000Y-87308238D01*
X160988619Y-87213000D01*
X161083857Y-87070143D01*
X161131477Y-87022524D01*
X161417191Y-87165381D02*
X162036239Y-87165381D01*
X161702905Y-87546333D01*
X161845763Y-87546333D01*
X161941001Y-87593952D01*
X161988620Y-87641571D01*
X162036239Y-87736810D01*
X162036239Y-87974905D01*
X161988620Y-88070143D01*
X161941001Y-88117762D01*
X161845763Y-88165381D01*
X161560048Y-88165381D01*
X161464810Y-88117762D01*
X161417191Y-88070143D01*
X162512429Y-88117762D02*
X162512429Y-88165381D01*
X162464810Y-88260619D01*
X162417191Y-88308238D01*
X163369572Y-87498714D02*
X163369572Y-88165381D01*
X163131476Y-87117762D02*
X162893381Y-87832048D01*
X163512429Y-87832048D01*
X163798143Y-88546333D02*
X163845762Y-88498714D01*
X163941000Y-88355857D01*
X163988619Y-88260619D01*
X164036238Y-88117762D01*
X164083857Y-87879667D01*
X164083857Y-87689190D01*
X164036238Y-87451095D01*
X163988619Y-87308238D01*
X163941000Y-87213000D01*
X163845762Y-87070143D01*
X163798143Y-87022524D01*
X165083858Y-88165381D02*
X164512429Y-88165381D01*
X164798143Y-88165381D02*
X164798143Y-87165381D01*
X164702905Y-87308238D01*
X164607667Y-87403476D01*
X164512429Y-87451095D01*
X172815477Y-88546333D02*
X172767857Y-88498714D01*
X172672619Y-88355857D01*
X172625000Y-88260619D01*
X172577381Y-88117762D01*
X172529762Y-87879667D01*
X172529762Y-87689190D01*
X172577381Y-87451095D01*
X172625000Y-87308238D01*
X172672619Y-87213000D01*
X172767857Y-87070143D01*
X172815477Y-87022524D01*
X173101191Y-87165381D02*
X173720239Y-87165381D01*
X173386905Y-87546333D01*
X173529763Y-87546333D01*
X173625001Y-87593952D01*
X173672620Y-87641571D01*
X173720239Y-87736810D01*
X173720239Y-87974905D01*
X173672620Y-88070143D01*
X173625001Y-88117762D01*
X173529763Y-88165381D01*
X173244048Y-88165381D01*
X173148810Y-88117762D01*
X173101191Y-88070143D01*
X174196429Y-88117762D02*
X174196429Y-88165381D01*
X174148810Y-88260619D01*
X174101191Y-88308238D01*
X175101191Y-87165381D02*
X174625000Y-87165381D01*
X174577381Y-87641571D01*
X174625000Y-87593952D01*
X174720238Y-87546333D01*
X174958334Y-87546333D01*
X175053572Y-87593952D01*
X175101191Y-87641571D01*
X175148810Y-87736810D01*
X175148810Y-87974905D01*
X175101191Y-88070143D01*
X175053572Y-88117762D01*
X174958334Y-88165381D01*
X174720238Y-88165381D01*
X174625000Y-88117762D01*
X174577381Y-88070143D01*
X175482143Y-88546333D02*
X175529762Y-88498714D01*
X175625000Y-88355857D01*
X175672619Y-88260619D01*
X175720238Y-88117762D01*
X175767857Y-87879667D01*
X175767857Y-87689190D01*
X175720238Y-87451095D01*
X175672619Y-87308238D01*
X175625000Y-87213000D01*
X175529762Y-87070143D01*
X175482143Y-87022524D01*
X176767858Y-88165381D02*
X176196429Y-88165381D01*
X176482143Y-88165381D02*
X176482143Y-87165381D01*
X176386905Y-87308238D01*
X176291667Y-87403476D01*
X176196429Y-87451095D01*
X113887477Y-77370333D02*
X113839857Y-77322714D01*
X113744619Y-77179857D01*
X113697000Y-77084619D01*
X113649381Y-76941762D01*
X113601762Y-76703667D01*
X113601762Y-76513190D01*
X113649381Y-76275095D01*
X113697000Y-76132238D01*
X113744619Y-76037000D01*
X113839857Y-75894143D01*
X113887477Y-75846524D01*
X114697001Y-76322714D02*
X114697001Y-76989381D01*
X114458905Y-75941762D02*
X114220810Y-76656048D01*
X114839858Y-76656048D01*
X115268429Y-76941762D02*
X115268429Y-76989381D01*
X115220810Y-77084619D01*
X115173191Y-77132238D01*
X115887476Y-75989381D02*
X115982715Y-75989381D01*
X116077953Y-76037000D01*
X116125572Y-76084619D01*
X116173191Y-76179857D01*
X116220810Y-76370333D01*
X116220810Y-76608429D01*
X116173191Y-76798905D01*
X116125572Y-76894143D01*
X116077953Y-76941762D01*
X115982715Y-76989381D01*
X115887476Y-76989381D01*
X115792238Y-76941762D01*
X115744619Y-76894143D01*
X115697000Y-76798905D01*
X115649381Y-76608429D01*
X115649381Y-76370333D01*
X115697000Y-76179857D01*
X115744619Y-76084619D01*
X115792238Y-76037000D01*
X115887476Y-75989381D01*
X116554143Y-77370333D02*
X116601762Y-77322714D01*
X116697000Y-77179857D01*
X116744619Y-77084619D01*
X116792238Y-76941762D01*
X116839857Y-76703667D01*
X116839857Y-76513190D01*
X116792238Y-76275095D01*
X116744619Y-76132238D01*
X116697000Y-76037000D01*
X116601762Y-75894143D01*
X116554143Y-75846524D01*
X117839858Y-76989381D02*
X117268429Y-76989381D01*
X117554143Y-76989381D02*
X117554143Y-75989381D01*
X117458905Y-76132238D01*
X117363667Y-76227476D01*
X117268429Y-76275095D01*
X125317477Y-77370333D02*
X125269857Y-77322714D01*
X125174619Y-77179857D01*
X125127000Y-77084619D01*
X125079381Y-76941762D01*
X125031762Y-76703667D01*
X125031762Y-76513190D01*
X125079381Y-76275095D01*
X125127000Y-76132238D01*
X125174619Y-76037000D01*
X125269857Y-75894143D01*
X125317477Y-75846524D01*
X126127001Y-76322714D02*
X126127001Y-76989381D01*
X125888905Y-75941762D02*
X125650810Y-76656048D01*
X126269858Y-76656048D01*
X126698429Y-76941762D02*
X126698429Y-76989381D01*
X126650810Y-77084619D01*
X126603191Y-77132238D01*
X127650810Y-76989381D02*
X127079381Y-76989381D01*
X127365095Y-76989381D02*
X127365095Y-75989381D01*
X127269857Y-76132238D01*
X127174619Y-76227476D01*
X127079381Y-76275095D01*
X127984143Y-77370333D02*
X128031762Y-77322714D01*
X128127000Y-77179857D01*
X128174619Y-77084619D01*
X128222238Y-76941762D01*
X128269857Y-76703667D01*
X128269857Y-76513190D01*
X128222238Y-76275095D01*
X128174619Y-76132238D01*
X128127000Y-76037000D01*
X128031762Y-75894143D01*
X127984143Y-75846524D01*
X129269858Y-76989381D02*
X128698429Y-76989381D01*
X128984143Y-76989381D02*
X128984143Y-75989381D01*
X128888905Y-76132238D01*
X128793667Y-76227476D01*
X128698429Y-76275095D01*
X137636477Y-77370333D02*
X137588857Y-77322714D01*
X137493619Y-77179857D01*
X137446000Y-77084619D01*
X137398381Y-76941762D01*
X137350762Y-76703667D01*
X137350762Y-76513190D01*
X137398381Y-76275095D01*
X137446000Y-76132238D01*
X137493619Y-76037000D01*
X137588857Y-75894143D01*
X137636477Y-75846524D01*
X138446001Y-76322714D02*
X138446001Y-76989381D01*
X138207905Y-75941762D02*
X137969810Y-76656048D01*
X138588858Y-76656048D01*
X139017429Y-76941762D02*
X139017429Y-76989381D01*
X138969810Y-77084619D01*
X138922191Y-77132238D01*
X139398381Y-76084619D02*
X139446000Y-76037000D01*
X139541238Y-75989381D01*
X139779334Y-75989381D01*
X139874572Y-76037000D01*
X139922191Y-76084619D01*
X139969810Y-76179857D01*
X139969810Y-76275095D01*
X139922191Y-76417952D01*
X139350762Y-76989381D01*
X139969810Y-76989381D01*
X140303143Y-77370333D02*
X140350762Y-77322714D01*
X140446000Y-77179857D01*
X140493619Y-77084619D01*
X140541238Y-76941762D01*
X140588857Y-76703667D01*
X140588857Y-76513190D01*
X140541238Y-76275095D01*
X140493619Y-76132238D01*
X140446000Y-76037000D01*
X140350762Y-75894143D01*
X140303143Y-75846524D01*
X141588858Y-76989381D02*
X141017429Y-76989381D01*
X141303143Y-76989381D02*
X141303143Y-75989381D01*
X141207905Y-76132238D01*
X141112667Y-76227476D01*
X141017429Y-76275095D01*
X149320477Y-77370333D02*
X149272857Y-77322714D01*
X149177619Y-77179857D01*
X149130000Y-77084619D01*
X149082381Y-76941762D01*
X149034762Y-76703667D01*
X149034762Y-76513190D01*
X149082381Y-76275095D01*
X149130000Y-76132238D01*
X149177619Y-76037000D01*
X149272857Y-75894143D01*
X149320477Y-75846524D01*
X150130001Y-76322714D02*
X150130001Y-76989381D01*
X149891905Y-75941762D02*
X149653810Y-76656048D01*
X150272858Y-76656048D01*
X150701429Y-76941762D02*
X150701429Y-76989381D01*
X150653810Y-77084619D01*
X150606191Y-77132238D01*
X151034762Y-75989381D02*
X151653810Y-75989381D01*
X151320476Y-76370333D01*
X151463334Y-76370333D01*
X151558572Y-76417952D01*
X151606191Y-76465571D01*
X151653810Y-76560810D01*
X151653810Y-76798905D01*
X151606191Y-76894143D01*
X151558572Y-76941762D01*
X151463334Y-76989381D01*
X151177619Y-76989381D01*
X151082381Y-76941762D01*
X151034762Y-76894143D01*
X151987143Y-77370333D02*
X152034762Y-77322714D01*
X152130000Y-77179857D01*
X152177619Y-77084619D01*
X152225238Y-76941762D01*
X152272857Y-76703667D01*
X152272857Y-76513190D01*
X152225238Y-76275095D01*
X152177619Y-76132238D01*
X152130000Y-76037000D01*
X152034762Y-75894143D01*
X151987143Y-75846524D01*
X153272858Y-76989381D02*
X152701429Y-76989381D01*
X152987143Y-76989381D02*
X152987143Y-75989381D01*
X152891905Y-76132238D01*
X152796667Y-76227476D01*
X152701429Y-76275095D01*
X160877477Y-77370333D02*
X160829857Y-77322714D01*
X160734619Y-77179857D01*
X160687000Y-77084619D01*
X160639381Y-76941762D01*
X160591762Y-76703667D01*
X160591762Y-76513190D01*
X160639381Y-76275095D01*
X160687000Y-76132238D01*
X160734619Y-76037000D01*
X160829857Y-75894143D01*
X160877477Y-75846524D01*
X161687001Y-76322714D02*
X161687001Y-76989381D01*
X161448905Y-75941762D02*
X161210810Y-76656048D01*
X161829858Y-76656048D01*
X162258429Y-76941762D02*
X162258429Y-76989381D01*
X162210810Y-77084619D01*
X162163191Y-77132238D01*
X163115572Y-76322714D02*
X163115572Y-76989381D01*
X162877476Y-75941762D02*
X162639381Y-76656048D01*
X163258429Y-76656048D01*
X163544143Y-77370333D02*
X163591762Y-77322714D01*
X163687000Y-77179857D01*
X163734619Y-77084619D01*
X163782238Y-76941762D01*
X163829857Y-76703667D01*
X163829857Y-76513190D01*
X163782238Y-76275095D01*
X163734619Y-76132238D01*
X163687000Y-76037000D01*
X163591762Y-75894143D01*
X163544143Y-75846524D01*
X164829858Y-76989381D02*
X164258429Y-76989381D01*
X164544143Y-76989381D02*
X164544143Y-75989381D01*
X164448905Y-76132238D01*
X164353667Y-76227476D01*
X164258429Y-76275095D01*
X172561477Y-77370333D02*
X172513857Y-77322714D01*
X172418619Y-77179857D01*
X172371000Y-77084619D01*
X172323381Y-76941762D01*
X172275762Y-76703667D01*
X172275762Y-76513190D01*
X172323381Y-76275095D01*
X172371000Y-76132238D01*
X172418619Y-76037000D01*
X172513857Y-75894143D01*
X172561477Y-75846524D01*
X173371001Y-76322714D02*
X173371001Y-76989381D01*
X173132905Y-75941762D02*
X172894810Y-76656048D01*
X173513858Y-76656048D01*
X173942429Y-76941762D02*
X173942429Y-76989381D01*
X173894810Y-77084619D01*
X173847191Y-77132238D01*
X174847191Y-75989381D02*
X174371000Y-75989381D01*
X174323381Y-76465571D01*
X174371000Y-76417952D01*
X174466238Y-76370333D01*
X174704334Y-76370333D01*
X174799572Y-76417952D01*
X174847191Y-76465571D01*
X174894810Y-76560810D01*
X174894810Y-76798905D01*
X174847191Y-76894143D01*
X174799572Y-76941762D01*
X174704334Y-76989381D01*
X174466238Y-76989381D01*
X174371000Y-76941762D01*
X174323381Y-76894143D01*
X175228143Y-77370333D02*
X175275762Y-77322714D01*
X175371000Y-77179857D01*
X175418619Y-77084619D01*
X175466238Y-76941762D01*
X175513857Y-76703667D01*
X175513857Y-76513190D01*
X175466238Y-76275095D01*
X175418619Y-76132238D01*
X175371000Y-76037000D01*
X175275762Y-75894143D01*
X175228143Y-75846524D01*
X176513858Y-76989381D02*
X175942429Y-76989381D01*
X176228143Y-76989381D02*
X176228143Y-75989381D01*
X176132905Y-76132238D01*
X176037667Y-76227476D01*
X175942429Y-76275095D01*
X113633477Y-67210333D02*
X113585857Y-67162714D01*
X113490619Y-67019857D01*
X113443000Y-66924619D01*
X113395381Y-66781762D01*
X113347762Y-66543667D01*
X113347762Y-66353190D01*
X113395381Y-66115095D01*
X113443000Y-65972238D01*
X113490619Y-65877000D01*
X113585857Y-65734143D01*
X113633477Y-65686524D01*
X114490620Y-65829381D02*
X114014429Y-65829381D01*
X113966810Y-66305571D01*
X114014429Y-66257952D01*
X114109667Y-66210333D01*
X114347763Y-66210333D01*
X114443001Y-66257952D01*
X114490620Y-66305571D01*
X114538239Y-66400810D01*
X114538239Y-66638905D01*
X114490620Y-66734143D01*
X114443001Y-66781762D01*
X114347763Y-66829381D01*
X114109667Y-66829381D01*
X114014429Y-66781762D01*
X113966810Y-66734143D01*
X115014429Y-66781762D02*
X115014429Y-66829381D01*
X114966810Y-66924619D01*
X114919191Y-66972238D01*
X115633476Y-65829381D02*
X115728715Y-65829381D01*
X115823953Y-65877000D01*
X115871572Y-65924619D01*
X115919191Y-66019857D01*
X115966810Y-66210333D01*
X115966810Y-66448429D01*
X115919191Y-66638905D01*
X115871572Y-66734143D01*
X115823953Y-66781762D01*
X115728715Y-66829381D01*
X115633476Y-66829381D01*
X115538238Y-66781762D01*
X115490619Y-66734143D01*
X115443000Y-66638905D01*
X115395381Y-66448429D01*
X115395381Y-66210333D01*
X115443000Y-66019857D01*
X115490619Y-65924619D01*
X115538238Y-65877000D01*
X115633476Y-65829381D01*
X116300143Y-67210333D02*
X116347762Y-67162714D01*
X116443000Y-67019857D01*
X116490619Y-66924619D01*
X116538238Y-66781762D01*
X116585857Y-66543667D01*
X116585857Y-66353190D01*
X116538238Y-66115095D01*
X116490619Y-65972238D01*
X116443000Y-65877000D01*
X116347762Y-65734143D01*
X116300143Y-65686524D01*
X117585858Y-66829381D02*
X117014429Y-66829381D01*
X117300143Y-66829381D02*
X117300143Y-65829381D01*
X117204905Y-65972238D01*
X117109667Y-66067476D01*
X117014429Y-66115095D01*
X125063477Y-67210333D02*
X125015857Y-67162714D01*
X124920619Y-67019857D01*
X124873000Y-66924619D01*
X124825381Y-66781762D01*
X124777762Y-66543667D01*
X124777762Y-66353190D01*
X124825381Y-66115095D01*
X124873000Y-65972238D01*
X124920619Y-65877000D01*
X125015857Y-65734143D01*
X125063477Y-65686524D01*
X125920620Y-65829381D02*
X125444429Y-65829381D01*
X125396810Y-66305571D01*
X125444429Y-66257952D01*
X125539667Y-66210333D01*
X125777763Y-66210333D01*
X125873001Y-66257952D01*
X125920620Y-66305571D01*
X125968239Y-66400810D01*
X125968239Y-66638905D01*
X125920620Y-66734143D01*
X125873001Y-66781762D01*
X125777763Y-66829381D01*
X125539667Y-66829381D01*
X125444429Y-66781762D01*
X125396810Y-66734143D01*
X126444429Y-66781762D02*
X126444429Y-66829381D01*
X126396810Y-66924619D01*
X126349191Y-66972238D01*
X127396810Y-66829381D02*
X126825381Y-66829381D01*
X127111095Y-66829381D02*
X127111095Y-65829381D01*
X127015857Y-65972238D01*
X126920619Y-66067476D01*
X126825381Y-66115095D01*
X127730143Y-67210333D02*
X127777762Y-67162714D01*
X127873000Y-67019857D01*
X127920619Y-66924619D01*
X127968238Y-66781762D01*
X128015857Y-66543667D01*
X128015857Y-66353190D01*
X127968238Y-66115095D01*
X127920619Y-65972238D01*
X127873000Y-65877000D01*
X127777762Y-65734143D01*
X127730143Y-65686524D01*
X129015858Y-66829381D02*
X128444429Y-66829381D01*
X128730143Y-66829381D02*
X128730143Y-65829381D01*
X128634905Y-65972238D01*
X128539667Y-66067476D01*
X128444429Y-66115095D01*
X137382477Y-67210333D02*
X137334857Y-67162714D01*
X137239619Y-67019857D01*
X137192000Y-66924619D01*
X137144381Y-66781762D01*
X137096762Y-66543667D01*
X137096762Y-66353190D01*
X137144381Y-66115095D01*
X137192000Y-65972238D01*
X137239619Y-65877000D01*
X137334857Y-65734143D01*
X137382477Y-65686524D01*
X138239620Y-65829381D02*
X137763429Y-65829381D01*
X137715810Y-66305571D01*
X137763429Y-66257952D01*
X137858667Y-66210333D01*
X138096763Y-66210333D01*
X138192001Y-66257952D01*
X138239620Y-66305571D01*
X138287239Y-66400810D01*
X138287239Y-66638905D01*
X138239620Y-66734143D01*
X138192001Y-66781762D01*
X138096763Y-66829381D01*
X137858667Y-66829381D01*
X137763429Y-66781762D01*
X137715810Y-66734143D01*
X138763429Y-66781762D02*
X138763429Y-66829381D01*
X138715810Y-66924619D01*
X138668191Y-66972238D01*
X139144381Y-65924619D02*
X139192000Y-65877000D01*
X139287238Y-65829381D01*
X139525334Y-65829381D01*
X139620572Y-65877000D01*
X139668191Y-65924619D01*
X139715810Y-66019857D01*
X139715810Y-66115095D01*
X139668191Y-66257952D01*
X139096762Y-66829381D01*
X139715810Y-66829381D01*
X140049143Y-67210333D02*
X140096762Y-67162714D01*
X140192000Y-67019857D01*
X140239619Y-66924619D01*
X140287238Y-66781762D01*
X140334857Y-66543667D01*
X140334857Y-66353190D01*
X140287238Y-66115095D01*
X140239619Y-65972238D01*
X140192000Y-65877000D01*
X140096762Y-65734143D01*
X140049143Y-65686524D01*
X141334858Y-66829381D02*
X140763429Y-66829381D01*
X141049143Y-66829381D02*
X141049143Y-65829381D01*
X140953905Y-65972238D01*
X140858667Y-66067476D01*
X140763429Y-66115095D01*
X149066477Y-67210333D02*
X149018857Y-67162714D01*
X148923619Y-67019857D01*
X148876000Y-66924619D01*
X148828381Y-66781762D01*
X148780762Y-66543667D01*
X148780762Y-66353190D01*
X148828381Y-66115095D01*
X148876000Y-65972238D01*
X148923619Y-65877000D01*
X149018857Y-65734143D01*
X149066477Y-65686524D01*
X149923620Y-65829381D02*
X149447429Y-65829381D01*
X149399810Y-66305571D01*
X149447429Y-66257952D01*
X149542667Y-66210333D01*
X149780763Y-66210333D01*
X149876001Y-66257952D01*
X149923620Y-66305571D01*
X149971239Y-66400810D01*
X149971239Y-66638905D01*
X149923620Y-66734143D01*
X149876001Y-66781762D01*
X149780763Y-66829381D01*
X149542667Y-66829381D01*
X149447429Y-66781762D01*
X149399810Y-66734143D01*
X150447429Y-66781762D02*
X150447429Y-66829381D01*
X150399810Y-66924619D01*
X150352191Y-66972238D01*
X150780762Y-65829381D02*
X151399810Y-65829381D01*
X151066476Y-66210333D01*
X151209334Y-66210333D01*
X151304572Y-66257952D01*
X151352191Y-66305571D01*
X151399810Y-66400810D01*
X151399810Y-66638905D01*
X151352191Y-66734143D01*
X151304572Y-66781762D01*
X151209334Y-66829381D01*
X150923619Y-66829381D01*
X150828381Y-66781762D01*
X150780762Y-66734143D01*
X151733143Y-67210333D02*
X151780762Y-67162714D01*
X151876000Y-67019857D01*
X151923619Y-66924619D01*
X151971238Y-66781762D01*
X152018857Y-66543667D01*
X152018857Y-66353190D01*
X151971238Y-66115095D01*
X151923619Y-65972238D01*
X151876000Y-65877000D01*
X151780762Y-65734143D01*
X151733143Y-65686524D01*
X153018858Y-66829381D02*
X152447429Y-66829381D01*
X152733143Y-66829381D02*
X152733143Y-65829381D01*
X152637905Y-65972238D01*
X152542667Y-66067476D01*
X152447429Y-66115095D01*
X160623477Y-67210333D02*
X160575857Y-67162714D01*
X160480619Y-67019857D01*
X160433000Y-66924619D01*
X160385381Y-66781762D01*
X160337762Y-66543667D01*
X160337762Y-66353190D01*
X160385381Y-66115095D01*
X160433000Y-65972238D01*
X160480619Y-65877000D01*
X160575857Y-65734143D01*
X160623477Y-65686524D01*
X161480620Y-65829381D02*
X161004429Y-65829381D01*
X160956810Y-66305571D01*
X161004429Y-66257952D01*
X161099667Y-66210333D01*
X161337763Y-66210333D01*
X161433001Y-66257952D01*
X161480620Y-66305571D01*
X161528239Y-66400810D01*
X161528239Y-66638905D01*
X161480620Y-66734143D01*
X161433001Y-66781762D01*
X161337763Y-66829381D01*
X161099667Y-66829381D01*
X161004429Y-66781762D01*
X160956810Y-66734143D01*
X162004429Y-66781762D02*
X162004429Y-66829381D01*
X161956810Y-66924619D01*
X161909191Y-66972238D01*
X162861572Y-66162714D02*
X162861572Y-66829381D01*
X162623476Y-65781762D02*
X162385381Y-66496048D01*
X163004429Y-66496048D01*
X163290143Y-67210333D02*
X163337762Y-67162714D01*
X163433000Y-67019857D01*
X163480619Y-66924619D01*
X163528238Y-66781762D01*
X163575857Y-66543667D01*
X163575857Y-66353190D01*
X163528238Y-66115095D01*
X163480619Y-65972238D01*
X163433000Y-65877000D01*
X163337762Y-65734143D01*
X163290143Y-65686524D01*
X164575858Y-66829381D02*
X164004429Y-66829381D01*
X164290143Y-66829381D02*
X164290143Y-65829381D01*
X164194905Y-65972238D01*
X164099667Y-66067476D01*
X164004429Y-66115095D01*
X172307477Y-67210333D02*
X172259857Y-67162714D01*
X172164619Y-67019857D01*
X172117000Y-66924619D01*
X172069381Y-66781762D01*
X172021762Y-66543667D01*
X172021762Y-66353190D01*
X172069381Y-66115095D01*
X172117000Y-65972238D01*
X172164619Y-65877000D01*
X172259857Y-65734143D01*
X172307477Y-65686524D01*
X173164620Y-65829381D02*
X172688429Y-65829381D01*
X172640810Y-66305571D01*
X172688429Y-66257952D01*
X172783667Y-66210333D01*
X173021763Y-66210333D01*
X173117001Y-66257952D01*
X173164620Y-66305571D01*
X173212239Y-66400810D01*
X173212239Y-66638905D01*
X173164620Y-66734143D01*
X173117001Y-66781762D01*
X173021763Y-66829381D01*
X172783667Y-66829381D01*
X172688429Y-66781762D01*
X172640810Y-66734143D01*
X173688429Y-66781762D02*
X173688429Y-66829381D01*
X173640810Y-66924619D01*
X173593191Y-66972238D01*
X174593191Y-65829381D02*
X174117000Y-65829381D01*
X174069381Y-66305571D01*
X174117000Y-66257952D01*
X174212238Y-66210333D01*
X174450334Y-66210333D01*
X174545572Y-66257952D01*
X174593191Y-66305571D01*
X174640810Y-66400810D01*
X174640810Y-66638905D01*
X174593191Y-66734143D01*
X174545572Y-66781762D01*
X174450334Y-66829381D01*
X174212238Y-66829381D01*
X174117000Y-66781762D01*
X174069381Y-66734143D01*
X174974143Y-67210333D02*
X175021762Y-67162714D01*
X175117000Y-67019857D01*
X175164619Y-66924619D01*
X175212238Y-66781762D01*
X175259857Y-66543667D01*
X175259857Y-66353190D01*
X175212238Y-66115095D01*
X175164619Y-65972238D01*
X175117000Y-65877000D01*
X175021762Y-65734143D01*
X174974143Y-65686524D01*
X176259858Y-66829381D02*
X175688429Y-66829381D01*
X175974143Y-66829381D02*
X175974143Y-65829381D01*
X175878905Y-65972238D01*
X175783667Y-66067476D01*
X175688429Y-66115095D01*
X193882001Y-65410381D02*
X193882001Y-64410381D01*
X194262954Y-64410381D01*
X194358192Y-64458000D01*
X194405811Y-64505619D01*
X194453430Y-64600857D01*
X194453430Y-64743714D01*
X194405811Y-64838952D01*
X194358192Y-64886571D01*
X194262954Y-64934190D01*
X193882001Y-64934190D01*
X194786763Y-64410381D02*
X195453430Y-64410381D01*
X195024858Y-65410381D01*
M02*
